<svg xmlns="http://www.w3.org/2000/svg" xmlns:xlink="http://www.w3.org/1999/xlink" xmlns:lucid="lucid" width="1871" height="1157"><g transform="translate(0 -165)" lucid:page-tab-id="0_0"><path d="M0-1258.83h1870.87v2581.66H0z" fill="#fff"/><path d="M240 567.42c0-3.32 2.7-6 6-6h188c3.3 0 6 2.68 6 6v188c0 3.3-2.7 6-6 6H246c-3.3 0-6-2.7-6-6z" stroke="#5e5e5e" stroke-width="3" fill="#b2d6ef"/><use xlink:href="#a" transform="matrix(1,0,0,1,245,566.4173228346456) translate(8.666666666666686 102.07638888888889)"/><use xlink:href="#b" transform="matrix(1,0,0,1,245,566.4173228346456) translate(82.90123456790124 102.07638888888889)"/><path d="M640 567.42c0-3.32 2.7-6 6-6h188c3.3 0 6 2.68 6 6v188c0 3.3-2.7 6-6 6H646c-3.3 0-6-2.7-6-6z" stroke="#5e5e5e" stroke-width="3" fill="#c7e8ac"/><use xlink:href="#c" transform="matrix(1,0,0,1,645,566.4173228346456) translate(43.6851851851852 55.749999999999986)"/><use xlink:href="#d" transform="matrix(1,0,0,1,645,566.4173228346456) translate(21.60493827160495 103.74999999999997)"/><use xlink:href="#e" transform="matrix(1,0,0,1,645,566.4173228346456) translate(56.90740740740742 151.74999999999997)"/><path d="M1040 567.42c0-3.32 2.7-6 6-6h188c3.3 0 6 2.68 6 6v188c0 3.3-2.7 6-6 6h-188c-3.3 0-6-2.7-6-6z" stroke="#5e5e5e" stroke-width="3" fill="#ffeca9"/><use xlink:href="#f" transform="matrix(1,0,0,1,1045,566.4173228346456) translate(62.20370370370371 84.26388888888889)"/><use xlink:href="#g" transform="matrix(1,0,0,1,1045,566.4173228346456) translate(16.14197530864199 121.59722222222221)"/><path d="M1440 267.42c0-3.32 2.7-6 6-6h188c3.3 0 6 2.68 6 6v188c0 3.3-2.7 6-6 6h-188c-3.3 0-6-2.7-6-6z" stroke="#5e5e5e" stroke-width="3" fill="#ffbbb1"/><use xlink:href="#h" transform="matrix(1,0,0,1,1445,266.4173228346456) translate(53.820987654321 84.26388888888889)"/><use xlink:href="#i" transform="matrix(1,0,0,1,1445,266.4173228346456) translate(37.18518518518519 121.59722222222221)"/><path d="M1440 567.42c0-3.32 2.7-6 6-6h188c3.3 0 6 2.68 6 6v188c0 3.3-2.7 6-6 6h-188c-3.3 0-6-2.7-6-6z" stroke="#5e5e5e" stroke-width="3" fill="#d1bcd2"/><use xlink:href="#j" transform="matrix(1,0,0,1,1445,566.4173228346456) translate(27.72222222222223 102.07638888888889)"/><path d="M1440 867.42c0-3.32 2.7-6 6-6h188c3.3 0 6 2.68 6 6v188c0 3.3-2.7 6-6 6h-188c-3.3 0-6-2.7-6-6z" stroke="#5e5e5e" stroke-width="3" fill="#e5e5e5"/><use xlink:href="#a" transform="matrix(1,0,0,1,1445,866.4173228346456) translate(12.209876543209901 102.07638888888889)"/><use xlink:href="#k" transform="matrix(1,0,0,1,1445,866.4173228346456) translate(86.44444444444446 102.07638888888889)"/><path d="M443 661.42h174.88" stroke="#5e5e5e" stroke-width="3" fill="none"/><path d="M443.04 662.92h-1.54v-3h1.54z" fill="#5e5e5e"/><path d="M633.65 661.42l-14.27 4.63v-9.27z" stroke="#5e5e5e" stroke-width="3" fill="#5e5e5e"/><path d="M843 661.42h174.88" stroke="#5e5e5e" stroke-width="3" fill="none"/><path d="M843.04 662.92h-1.54v-3h1.54z" fill="#5e5e5e"/><path d="M1033.65 661.42l-14.27 4.63v-9.27z" stroke="#5e5e5e" stroke-width="3" fill="#5e5e5e"/><path d="M1243 661.42h174.88" stroke="#5e5e5e" stroke-width="3" fill="none"/><path d="M1243.04 662.92h-1.54v-3h1.54z" fill="#5e5e5e"/><path d="M1433.65 661.42l-14.27 4.63v-9.27z" stroke="#5e5e5e" stroke-width="3" fill="#5e5e5e"/><path d="M1243 612.93h91c3.3 0 6-2.68 6-6v-239.5c0-3.33 2.7-6 6-6h71.88" stroke="#5e5e5e" stroke-width="3" fill="none"/><path d="M1243.04 614.43h-1.54v-3h1.54z" fill="#5e5e5e"/><path d="M1433.65 361.42l-14.27 4.63v-9.27z" stroke="#5e5e5e" stroke-width="3" fill="#5e5e5e"/><path d="M1243 697.33h91c3.3 0 6 2.68 6 6v252.1c0 3.3 2.7 6 6 6h71.88" stroke="#5e5e5e" stroke-width="3" fill="none"/><path d="M1243.04 698.83h-1.54v-3h1.54z" fill="#5e5e5e"/><path d="M1433.65 961.42l-14.27 4.63v-9.27z" stroke="#5e5e5e" stroke-width="3" fill="#5e5e5e"/><path d="M638.15 1200h594.57v40H638.15z" fill="none"/><g><use xlink:href="#l" transform="matrix(1,0,0,1,638.1496062992125,1200) translate(21.172839506172977 26.222222222222218)"/><use xlink:href="#m" transform="matrix(1,0,0,1,638.1496062992125,1200) translate(97.04938271604948 26.222222222222218)"/><use xlink:href="#n" transform="matrix(1,0,0,1,638.1496062992125,1200) translate(271.87654320987656 26.222222222222218)"/><use xlink:href="#o" transform="matrix(1,0,0,1,638.1496062992125,1200) translate(391.0493827160493 26.222222222222218)"/></g><defs><path fill="#333" d="M30-248c118-7 216 8 213 122C240-48 200 0 122 0H30v-248zM63-27c89 8 146-16 146-99s-60-101-146-95v194" id="p"/><path fill="#333" d="M141-36C126-15 110 5 73 4 37 3 15-17 15-53c-1-64 63-63 125-63 3-35-9-54-41-54-24 1-41 7-42 31l-33-3c5-37 33-52 76-52 45 0 72 20 72 64v82c-1 20 7 32 28 27v20c-31 9-61-2-59-35zM48-53c0 20 12 33 32 33 41-3 63-29 60-74-43 2-92-5-92 41" id="q"/><path fill="#333" d="M59-47c-2 24 18 29 38 22v24C64 9 27 4 27-40v-127H5v-23h24l9-43h21v43h35v23H59v120" id="r"/><g id="a"><use transform="matrix(0.08641975308641973,0,0,0.08641975308641973,0,0)" xlink:href="#p"/><use transform="matrix(0.08641975308641973,0,0,0.08641975308641973,22.38271604938271,0)" xlink:href="#q"/><use transform="matrix(0.08641975308641973,0,0,0.08641975308641973,39.66666666666666,0)" xlink:href="#r"/><use transform="matrix(0.08641975308641973,0,0,0.08641975308641973,48.30864197530863,0)" xlink:href="#q"/></g><path fill="#333" d="M185-189c-5-48-123-54-124 2 14 75 158 14 163 119 3 78-121 87-175 55-17-10-28-26-33-46l33-7c5 56 141 63 141-1 0-78-155-14-162-118-5-82 145-84 179-34 5 7 8 16 11 25" id="s"/><path fill="#333" d="M100-194c62-1 85 37 85 99 1 63-27 99-86 99S16-35 15-95c0-66 28-99 85-99zM99-20c44 1 53-31 53-75 0-43-8-75-51-75s-53 32-53 75 10 74 51 75" id="t"/><path fill="#333" d="M84 4C-5 8 30-112 23-190h32v120c0 31 7 50 39 49 72-2 45-101 50-169h31l1 190h-30c-1-10 1-25-2-33-11 22-28 36-60 37" id="u"/><path fill="#333" d="M114-163C36-179 61-72 57 0H25l-1-190h30c1 12-1 29 2 39 6-27 23-49 58-41v29" id="v"/><path fill="#333" d="M96-169c-40 0-48 33-48 73s9 75 48 75c24 0 41-14 43-38l32 2c-6 37-31 61-74 61-59 0-76-41-82-99-10-93 101-131 147-64 4 7 5 14 7 22l-32 3c-4-21-16-35-41-35" id="w"/><path fill="#333" d="M100-194c63 0 86 42 84 106H49c0 40 14 67 53 68 26 1 43-12 49-29l28 8c-11 28-37 45-77 45C44 4 14-33 15-96c1-61 26-98 85-98zm52 81c6-60-76-77-97-28-3 7-6 17-6 28h103" id="x"/><g id="b"><use transform="matrix(0.08641975308641973,0,0,0.08641975308641973,0,0)" xlink:href="#s"/><use transform="matrix(0.08641975308641973,0,0,0.08641975308641973,20.740740740740737,0)" xlink:href="#t"/><use transform="matrix(0.08641975308641973,0,0,0.08641975308641973,38.02469135802468,0)" xlink:href="#u"/><use transform="matrix(0.08641975308641973,0,0,0.08641975308641973,55.30864197530863,0)" xlink:href="#v"/><use transform="matrix(0.08641975308641973,0,0,0.08641975308641973,65.59259259259258,0)" xlink:href="#w"/><use transform="matrix(0.08641975308641973,0,0,0.08641975308641973,81.14814814814814,0)" xlink:href="#x"/></g><path fill="#333" d="M24 0v-248h195v40H76v63h132v40H76v65h150V0H24" id="y"/><path fill="#333" d="M141 0L90-78 38 0H4l68-98-65-92h35l48 74 47-74h35l-64 92 68 98h-35" id="z"/><g id="c"><use transform="matrix(0.11111111111111108,0,0,0.11111111111111108,0,0)" xlink:href="#y"/><use transform="matrix(0.08641975308641973,0,0,0.08641975308641973,26.66666666666666,0)" xlink:href="#z"/><use transform="matrix(0.08641975308641973,0,0,0.08641975308641973,42.22222222222221,0)" xlink:href="#r"/><use transform="matrix(0.08641975308641973,0,0,0.08641975308641973,50.86419753086418,0)" xlink:href="#v"/><use transform="matrix(0.08641975308641973,0,0,0.08641975308641973,61.14814814814813,0)" xlink:href="#q"/><use transform="matrix(0.08641975308641973,0,0,0.08641975308641973,78.43209876543207,0)" xlink:href="#w"/><use transform="matrix(0.08641975308641973,0,0,0.08641975308641973,93.98765432098762,0)" xlink:href="#r"/></g><path fill="#333" d="M136-208V0H84v-208H4v-40h212v40h-80" id="A"/><path fill="#333" d="M117-194c89-4 53 116 60 194h-32v-121c0-31-8-49-39-48C34-167 62-67 57 0H25l-1-190h30c1 10-1 24 2 32 11-22 29-35 61-36" id="B"/><path fill="#333" d="M135-143c-3-34-86-38-87 0 15 53 115 12 119 90S17 21 10-45l28-5c4 36 97 45 98 0-10-56-113-15-118-90-4-57 82-63 122-42 12 7 21 19 24 35" id="C"/><path fill="#333" d="M101-234c-31-9-42 10-38 44h38v23H63V0H32v-167H5v-23h27c-7-52 17-82 69-68v24" id="D"/><path fill="#333" d="M210-169c-67 3-38 105-44 169h-31v-121c0-29-5-50-35-48C34-165 62-65 56 0H25l-1-190h30c1 10-1 24 2 32 10-44 99-50 107 0 11-21 27-35 58-36 85-2 47 119 55 194h-31v-121c0-29-5-49-35-48" id="E"/><g id="d"><use transform="matrix(0.11111111111111108,0,0,0.11111111111111108,0,0)" xlink:href="#A"/><use transform="matrix(0.08641975308641973,0,0,0.08641975308641973,24.333333333333325,0)" xlink:href="#v"/><use transform="matrix(0.08641975308641973,0,0,0.08641975308641973,34.61728395061728,0)" xlink:href="#q"/><use transform="matrix(0.08641975308641973,0,0,0.08641975308641973,51.901234567901234,0)" xlink:href="#B"/><use transform="matrix(0.08641975308641973,0,0,0.08641975308641973,69.18518518518518,0)" xlink:href="#C"/><use transform="matrix(0.08641975308641973,0,0,0.08641975308641973,84.74074074074073,0)" xlink:href="#D"/><use transform="matrix(0.08641975308641973,0,0,0.08641975308641973,93.38271604938271,0)" xlink:href="#t"/><use transform="matrix(0.08641975308641973,0,0,0.08641975308641973,110.66666666666666,0)" xlink:href="#v"/><use transform="matrix(0.08641975308641973,0,0,0.08641975308641973,120.9506172839506,0)" xlink:href="#E"/></g><path fill="#333" d="M24 0v-248h52v208h133V0H24" id="F"/><path fill="#333" d="M85-194c31 0 48 13 60 33l-1-100h32l1 261h-30c-2-10 0-23-3-31C134-8 116 4 85 4 32 4 16-35 15-94c0-66 23-100 70-100zm9 24c-40 0-46 34-46 75 0 40 6 74 45 74 42 0 51-32 51-76 0-42-9-74-50-73" id="G"/><g id="e"><use transform="matrix(0.11111111111111108,0,0,0.11111111111111108,0,0)" xlink:href="#F"/><use transform="matrix(0.08641975308641973,0,0,0.08641975308641973,24.333333333333325,0)" xlink:href="#t"/><use transform="matrix(0.08641975308641973,0,0,0.08641975308641973,41.61728395061727,0)" xlink:href="#q"/><use transform="matrix(0.08641975308641973,0,0,0.08641975308641973,58.90123456790121,0)" xlink:href="#G"/></g><g id="f"><use transform="matrix(0.08641975308641973,0,0,0.08641975308641973,0,0)" xlink:href="#p"/><use transform="matrix(0.08641975308641973,0,0,0.08641975308641973,22.38271604938271,0)" xlink:href="#q"/><use transform="matrix(0.08641975308641973,0,0,0.08641975308641973,39.66666666666666,0)" xlink:href="#r"/><use transform="matrix(0.08641975308641973,0,0,0.08641975308641973,48.30864197530863,0)" xlink:href="#q"/></g><path fill="#333" d="M266 0h-40l-56-210L115 0H75L2-248h35L96-30l15-64 43-154h32l59 218 59-218h35" id="H"/><path fill="#333" d="M106-169C34-169 62-67 57 0H25v-261h32l-1 103c12-21 28-36 61-36 89 0 53 116 60 194h-32v-121c2-32-8-49-39-48" id="I"/><g id="g"><use transform="matrix(0.08641975308641973,0,0,0.08641975308641973,0,0)" xlink:href="#H"/><use transform="matrix(0.08641975308641973,0,0,0.08641975308641973,28.172839506172835,0)" xlink:href="#q"/><use transform="matrix(0.08641975308641973,0,0,0.08641975308641973,45.45679012345678,0)" xlink:href="#v"/><use transform="matrix(0.08641975308641973,0,0,0.08641975308641973,55.740740740740726,0)" xlink:href="#x"/><use transform="matrix(0.08641975308641973,0,0,0.08641975308641973,73.02469135802468,0)" xlink:href="#I"/><use transform="matrix(0.08641975308641973,0,0,0.08641975308641973,90.30864197530862,0)" xlink:href="#t"/><use transform="matrix(0.08641975308641973,0,0,0.08641975308641973,107.5925925925926,0)" xlink:href="#u"/><use transform="matrix(0.08641975308641973,0,0,0.08641975308641973,124.87654320987653,0)" xlink:href="#C"/><use transform="matrix(0.08641975308641973,0,0,0.08641975308641973,140.43209876543207,0)" xlink:href="#x"/></g><path fill="#333" d="M140-251c81 0 123 46 123 126C263-46 219 4 140 4 59 4 17-45 17-125s42-126 123-126zm0 227c63 0 89-41 89-101s-29-99-89-99c-61 0-89 39-89 99S79-25 140-24" id="J"/><path fill="#333" d="M30 0v-248h33v221h125V0H30" id="K"/><path fill="#333" d="M205 0l-28-72H64L36 0H1l101-248h38L239 0h-34zm-38-99l-47-123c-12 45-31 82-46 123h93" id="L"/><path fill="#333" d="M30-248c87 1 191-15 191 75 0 78-77 80-158 76V0H30v-248zm33 125c57 0 124 11 124-50 0-59-68-47-124-48v98" id="M"/><g id="h"><use transform="matrix(0.08641975308641973,0,0,0.08641975308641973,0,0)" xlink:href="#J"/><use transform="matrix(0.08641975308641973,0,0,0.08641975308641973,24.197530864197525,0)" xlink:href="#K"/><use transform="matrix(0.08641975308641973,0,0,0.08641975308641973,41.48148148148147,0)" xlink:href="#L"/><use transform="matrix(0.08641975308641973,0,0,0.08641975308641973,62.2222222222222,0)" xlink:href="#M"/></g><path fill="#333" d="M24 0v-261h32V0H24" id="N"/><path fill="#333" d="M179-190L93 31C79 59 56 82 12 73V49c39 6 53-20 64-50L1-190h34L92-34l54-156h33" id="O"/><path fill="#333" d="M24-231v-30h32v30H24zM24 0v-190h32V0H24" id="P"/><g id="i"><use transform="matrix(0.08641975308641973,0,0,0.08641975308641973,0,0)" xlink:href="#L"/><use transform="matrix(0.08641975308641973,0,0,0.08641975308641973,20.740740740740737,0)" xlink:href="#B"/><use transform="matrix(0.08641975308641973,0,0,0.08641975308641973,38.02469135802468,0)" xlink:href="#q"/><use transform="matrix(0.08641975308641973,0,0,0.08641975308641973,55.30864197530863,0)" xlink:href="#N"/><use transform="matrix(0.08641975308641973,0,0,0.08641975308641973,62.13580246913579,0)" xlink:href="#O"/><use transform="matrix(0.08641975308641973,0,0,0.08641975308641973,77.69135802469134,0)" xlink:href="#C"/><use transform="matrix(0.08641975308641973,0,0,0.08641975308641973,93.2469135802469,0)" xlink:href="#P"/><use transform="matrix(0.08641975308641973,0,0,0.08641975308641973,100.07407407407405,0)" xlink:href="#C"/></g><path fill="#333" d="M233-177c-1 41-23 64-60 70L243 0h-38l-65-103H63V0H30v-248c88 3 205-21 203 71zM63-129c60-2 137 13 137-47 0-61-80-42-137-45v92" id="Q"/><path fill="#333" d="M115-194c55 1 70 41 70 98S169 2 115 4C84 4 66-9 55-30l1 105H24l-1-265h31l2 30c10-21 28-34 59-34zm-8 174c40 0 45-34 45-75s-6-73-45-74c-42 0-51 32-51 76 0 43 10 73 51 73" id="R"/><path fill="#333" d="M177-190C167-65 218 103 67 71c-23-6-38-20-44-43l32-5c15 47 100 32 89-28v-30C133-14 115 1 83 1 29 1 15-40 15-95c0-56 16-97 71-98 29-1 48 16 59 35 1-10 0-23 2-32h30zM94-22c36 0 50-32 50-73 0-42-14-75-50-75-39 0-46 34-46 75s6 73 46 73" id="S"/><g id="j"><use transform="matrix(0.08641975308641973,0,0,0.08641975308641973,0,0)" xlink:href="#Q"/><use transform="matrix(0.08641975308641973,0,0,0.08641975308641973,22.38271604938271,0)" xlink:href="#x"/><use transform="matrix(0.08641975308641973,0,0,0.08641975308641973,39.66666666666666,0)" xlink:href="#R"/><use transform="matrix(0.08641975308641973,0,0,0.08641975308641973,56.950617283950606,0)" xlink:href="#t"/><use transform="matrix(0.08641975308641973,0,0,0.08641975308641973,74.23456790123456,0)" xlink:href="#v"/><use transform="matrix(0.08641975308641973,0,0,0.08641975308641973,84.5185185185185,0)" xlink:href="#r"/><use transform="matrix(0.08641975308641973,0,0,0.08641975308641973,93.16049382716048,0)" xlink:href="#P"/><use transform="matrix(0.08641975308641973,0,0,0.08641975308641973,99.98765432098766,0)" xlink:href="#B"/><use transform="matrix(0.08641975308641973,0,0,0.08641975308641973,117.2716049382716,0)" xlink:href="#S"/></g><path fill="#333" d="M240 0l2-218c-23 76-54 145-80 218h-23L58-218 59 0H30v-248h44l77 211c21-75 51-140 76-211h43V0h-30" id="T"/><g id="k"><use transform="matrix(0.08641975308641973,0,0,0.08641975308641973,0,0)" xlink:href="#T"/><use transform="matrix(0.08641975308641973,0,0,0.08641975308641973,25.8395061728395,0)" xlink:href="#P"/><use transform="matrix(0.08641975308641973,0,0,0.08641975308641973,32.66666666666666,0)" xlink:href="#B"/><use transform="matrix(0.08641975308641973,0,0,0.08641975308641973,49.950617283950606,0)" xlink:href="#P"/><use transform="matrix(0.08641975308641973,0,0,0.08641975308641973,56.777777777777764,0)" xlink:href="#B"/><use transform="matrix(0.08641975308641973,0,0,0.08641975308641973,74.0617283950617,0)" xlink:href="#S"/></g><path fill="#333" d="M24-248c120-7 223 5 221 122C244-46 201 0 124 0H24v-248zM76-40c74 7 117-18 117-86 0-67-45-88-117-82v168" id="U"/><path fill="#333" d="M133-34C117-15 103 5 69 4 32 3 11-16 11-54c-1-60 55-63 116-61 1-26-3-47-28-47-18 1-26 9-28 27l-52-2c7-38 36-58 82-57s74 22 75 68l1 82c-1 14 12 18 25 15v27c-30 8-71 5-69-32zm-48 3c29 0 43-24 42-57-32 0-66-3-65 30 0 17 8 27 23 27" id="V"/><path fill="#333" d="M115-3C79 11 28 4 28-45v-112H4v-33h27l15-45h31v45h36v33H77v99c-1 23 16 31 38 25v30" id="W"/><g id="l"><use transform="matrix(0.08641975308641969,0,0,0.08641975308641969,0,0)" xlink:href="#U"/><use transform="matrix(0.08641975308641969,0,0,0.08641975308641969,22.3827160493827,0)" xlink:href="#V"/><use transform="matrix(0.08641975308641969,0,0,0.08641975308641969,39.66666666666664,0)" xlink:href="#W"/><use transform="matrix(0.08641975308641969,0,0,0.08641975308641969,49.950617283950585,0)" xlink:href="#V"/></g><path fill="#333" d="M275 0h-61l-44-196L126 0H64L0-248h53L97-49l45-199h58l43 199 44-199h52" id="X"/><path fill="#333" d="M135-150c-39-12-60 13-60 57V0H25l-1-190h47c2 13-1 29 3 40 6-28 27-53 61-41v41" id="Y"/><path fill="#333" d="M185-48c-13 30-37 53-82 52C43 2 14-33 14-96s30-98 90-98c62 0 83 45 84 108H66c0 31 8 55 39 56 18 0 30-7 34-22zm-45-69c5-46-57-63-70-21-2 6-4 13-4 21h74" id="Z"/><path fill="#333" d="M114-157C55-157 80-60 75 0H25v-261h50l-1 109c12-26 28-41 61-42 86-1 58 113 63 194h-50c-7-57 23-157-34-157" id="aa"/><path fill="#333" d="M110-194c64 0 96 36 96 99 0 64-35 99-97 99-61 0-95-36-95-99 0-62 34-99 96-99zm-1 164c35 0 45-28 45-65 0-40-10-65-43-65-34 0-45 26-45 65 0 36 10 65 43 65" id="ab"/><path fill="#333" d="M85 4C-2 5 27-109 22-190h50c7 57-23 150 33 157 60-5 35-97 40-157h50l1 190h-47c-2-12 1-28-3-38-12 25-28 42-61 42" id="ac"/><path fill="#333" d="M137-138c1-29-70-34-71-4 15 46 118 7 119 86 1 83-164 76-172 9l43-7c4 19 20 25 44 25 33 8 57-30 24-41C81-84 22-81 20-136c-2-80 154-74 161-7" id="ad"/><g id="m"><use transform="matrix(0.08641975308641969,0,0,0.08641975308641969,0,0)" xlink:href="#X"/><use transform="matrix(0.08641975308641969,0,0,0.08641975308641969,28.17283950617282,0)" xlink:href="#V"/><use transform="matrix(0.08641975308641969,0,0,0.08641975308641969,45.456790123456756,0)" xlink:href="#Y"/><use transform="matrix(0.08641975308641969,0,0,0.08641975308641969,57.555555555555515,0)" xlink:href="#Z"/><use transform="matrix(0.08641975308641969,0,0,0.08641975308641969,74.83950617283945,0)" xlink:href="#aa"/><use transform="matrix(0.08641975308641969,0,0,0.08641975308641969,93.76543209876537,0)" xlink:href="#ab"/><use transform="matrix(0.08641975308641969,0,0,0.08641975308641969,112.69135802469125,0)" xlink:href="#ac"/><use transform="matrix(0.08641975308641969,0,0,0.08641975308641969,131.61728395061718,0)" xlink:href="#ad"/><use transform="matrix(0.08641975308641969,0,0,0.08641975308641969,148.90123456790113,0)" xlink:href="#Z"/></g><path fill="#333" d="M169-182c-1-43-94-46-97-3 18 66 151 10 154 114 3 95-165 93-204 36-6-8-10-19-12-30l50-8c3 46 112 56 116 5-17-69-150-10-154-114-4-87 153-88 188-35 5 8 8 18 10 28" id="ae"/><path fill="#333" d="M123 10C108 53 80 86 19 72V37c35 8 53-11 59-39L3-190h52l48 148c12-52 28-100 44-148h51" id="af"/><path fill="#333" d="M220-157c-53 9-28 100-34 157h-49v-107c1-27-5-49-29-50C55-147 81-57 75 0H25l-1-190h47c2 12-1 28 3 38 10-53 101-56 108 0 13-22 24-43 59-42 82 1 51 116 57 194h-49v-107c-1-25-5-48-29-50" id="ag"/><g id="n"><use transform="matrix(0.08641975308641969,0,0,0.08641975308641969,0,0)" xlink:href="#ae"/><use transform="matrix(0.08641975308641969,0,0,0.08641975308641969,20.740740740740726,0)" xlink:href="#af"/><use transform="matrix(0.08641975308641969,0,0,0.08641975308641969,38.02469135802467,0)" xlink:href="#ad"/><use transform="matrix(0.08641975308641969,0,0,0.08641975308641969,55.3086419753086,0)" xlink:href="#W"/><use transform="matrix(0.08641975308641969,0,0,0.08641975308641969,65.59259259259255,0)" xlink:href="#Z"/><use transform="matrix(0.08641975308641969,0,0,0.08641975308641969,82.87654320987649,0)" xlink:href="#ag"/></g><path fill="#333" d="M199 0l-22-63H83L61 0H9l90-248h61L250 0h-51zm-33-102l-36-108c-10 38-24 72-36 108h72" id="ah"/><path fill="#333" d="M190-63c-7 42-38 67-86 67-59 0-84-38-90-98-12-110 154-137 174-36l-49 2c-2-19-15-32-35-32-30 0-35 28-38 64-6 74 65 87 74 30" id="ai"/><path fill="#333" d="M25-224v-37h50v37H25zM25 0v-190h50V0H25" id="aj"/><g id="o"><use transform="matrix(0.08641975308641969,0,0,0.08641975308641969,0,0)" xlink:href="#ah"/><use transform="matrix(0.08641975308641969,0,0,0.08641975308641969,22.3827160493827,0)" xlink:href="#Y"/><use transform="matrix(0.08641975308641969,0,0,0.08641975308641969,34.48148148148146,0)" xlink:href="#ai"/><use transform="matrix(0.08641975308641969,0,0,0.08641975308641969,51.76543209876541,0)" xlink:href="#aa"/><use transform="matrix(0.08641975308641969,0,0,0.08641975308641969,70.69135802469131,0)" xlink:href="#aj"/><use transform="matrix(0.08641975308641969,0,0,0.08641975308641969,79.33333333333329,0)" xlink:href="#W"/><use transform="matrix(0.08641975308641969,0,0,0.08641975308641969,89.61728395061724,0)" xlink:href="#Z"/><use transform="matrix(0.08641975308641969,0,0,0.08641975308641969,106.90123456790118,0)" xlink:href="#ai"/><use transform="matrix(0.08641975308641969,0,0,0.08641975308641969,124.1851851851851,0)" xlink:href="#W"/><use transform="matrix(0.08641975308641969,0,0,0.08641975308641969,134.46913580246905,0)" xlink:href="#ac"/><use transform="matrix(0.08641975308641969,0,0,0.08641975308641969,153.39506172839498,0)" xlink:href="#Y"/><use transform="matrix(0.08641975308641969,0,0,0.08641975308641969,165.49382716049374,0)" xlink:href="#Z"/></g></defs></g></svg>