<svg xmlns="http://www.w3.org/2000/svg" xmlns:xlink="http://www.w3.org/1999/xlink" xmlns:lucid="lucid" width="1755.43" height="1297"><g transform="translate(0 1240)" lucid:page-tab-id="0_0"><path d="M0-1258.83h1870.87V64H0z" fill="#fff"/><path d="M20-1200h1060v40H20z" fill="none"/><use xlink:href="#a" transform="matrix(1,0,0,1,20,-1200) translate(21.63580246913608 26.222222222222218)"/><use xlink:href="#b" transform="matrix(1,0,0,1,20,-1200) translate(90.68518518518542 26.222222222222218)"/><use xlink:href="#c" transform="matrix(1,0,0,1,20,-1200) translate(228.7839506172841 26.222222222222218)"/><use xlink:href="#d" transform="matrix(1,0,0,1,20,-1200) translate(423.9197530864198 26.222222222222218)"/><use xlink:href="#e" transform="matrix(1,0,0,1,20,-1200) translate(499.7962962962963 26.222222222222218)"/><use xlink:href="#f" transform="matrix(1,0,0,1,20,-1200) translate(674.6234567901233 26.222222222222218)"/><use xlink:href="#g" transform="matrix(1,0,0,1,20,-1200) translate(724.5740740740739 26.222222222222218)"/><use xlink:href="#h" transform="matrix(1,0,0,1,20,-1200) translate(819.3765432098764 26.222222222222218)"/><use xlink:href="#i" transform="matrix(1,0,0,1,20,-1200) translate(857.2283950617282 26.222222222222218)"/><path d="M735.43-814c0-3.3 2.7-6 6-6h388c3.32 0 6 2.7 6 6v329c0 3.3-2.68 6-6 6h-388c-3.3 0-6-2.7-6-6z" fill="#ffeca9"/><path d="M735.43-814c0-3.3 2.7-6 6-6h388c3.32 0 6 2.7 6 6v329c0 3.3-2.68 6-6 6h-388c-3.3 0-6-2.7-6-6zM735.43-773h400" stroke="#999" stroke-width="4" fill="none"/><use xlink:href="#j" transform="matrix(1,0,0,1,745.4330708661416,-820) translate(151.11111111111111 29.72222222222222)"/><use xlink:href="#k" transform="matrix(1,0,0,1,740.4330708661416,-770.5) translate(0 23.833333333333332)"/><use xlink:href="#l" transform="matrix(1,0,0,1,740.4330708661416,-728.5) translate(0 23.833333333333332)"/><use xlink:href="#m" transform="matrix(1,0,0,1,740.4330708661416,-686.5) translate(0 23.833333333333332)"/><use xlink:href="#n" transform="matrix(1,0,0,1,740.4330708661416,-644.5) translate(0 23.877777777777776)"/><use xlink:href="#o" transform="matrix(1,0,0,1,740.4330708661416,-602.5) translate(0 23.877777777777776)"/><use xlink:href="#p" transform="matrix(1,0,0,1,740.4330708661416,-560.5) translate(0 23.877777777777776)"/><use xlink:href="#q" transform="matrix(1,0,0,1,740.4330708661416,-518.5) translate(0 23.877777777777776)"/><path d="M135.43-614c0-3.3 2.7-6 6-6h388c3.32 0 6 2.7 6 6v413c0 3.3-2.68 6-6 6h-388c-3.3 0-6-2.7-6-6z" fill="#ccc"/><path d="M135.43-614c0-3.3 2.7-6 6-6h388c3.32 0 6 2.7 6 6v413c0 3.3-2.68 6-6 6h-388c-3.3 0-6-2.7-6-6zM135.43-573h400" stroke="#999" stroke-width="4" fill="none"/><use xlink:href="#r" transform="matrix(1,0,0,1,145.43307086614163,-620) translate(120.12962962962965 29.72222222222222)"/><use xlink:href="#s" transform="matrix(1,0,0,1,140.43307086614163,-570.5) translate(0 23.833333333333332)"/><use xlink:href="#t" transform="matrix(1,0,0,1,140.43307086614163,-528.5) translate(0 23.833333333333332)"/><use xlink:href="#u" transform="matrix(1,0,0,1,140.43307086614163,-486.5) translate(0 23.833333333333332)"/><use xlink:href="#v" transform="matrix(1,0,0,1,140.43307086614163,-444.5) translate(0 23.877777777777776)"/><use xlink:href="#w" transform="matrix(1,0,0,1,140.43307086614163,-402.5) translate(0 23.877777777777776)"/><use xlink:href="#x" transform="matrix(1,0,0,1,140.43307086614163,-360.5) translate(0 23.877777777777776)"/><use xlink:href="#y" transform="matrix(1,0,0,1,140.43307086614163,-318.5) translate(0 23.877777777777776)"/><use xlink:href="#z" transform="matrix(1,0,0,1,140.43307086614163,-276.5) translate(0 23.877777777777776)"/><use xlink:href="#A" transform="matrix(1,0,0,1,140.43307086614163,-234.5) translate(0 23.877777777777776)"/><path d="M1335.43-714c0-3.3 2.7-6 6-6h388c3.32 0 6 2.7 6 6v371c0 3.3-2.68 6-6 6h-388c-3.3 0-6-2.7-6-6z" fill="#ccc"/><path d="M1335.43-714c0-3.3 2.7-6 6-6h388c3.32 0 6 2.7 6 6v371c0 3.3-2.68 6-6 6h-388c-3.3 0-6-2.7-6-6zM1335.43-673h400" stroke="#999" stroke-width="4" fill="none"/><use xlink:href="#B" transform="matrix(1,0,0,1,1345.4330708661416,-720) translate(158.0679012345679 29.72222222222222)"/><use xlink:href="#C" transform="matrix(1,0,0,1,1340.4330708661416,-670.5) translate(0 23.833333333333332)"/><use xlink:href="#D" transform="matrix(1,0,0,1,1340.4330708661416,-628.5) translate(0 23.833333333333332)"/><use xlink:href="#E" transform="matrix(1,0,0,1,1340.4330708661416,-586.5) translate(0 23.833333333333332)"/><use xlink:href="#F" transform="matrix(1,0,0,1,1340.4330708661416,-544.5) translate(0 23.877777777777776)"/><use xlink:href="#G" transform="matrix(1,0,0,1,1340.4330708661416,-502.5) translate(0 23.877777777777776)"/><use xlink:href="#H" transform="matrix(1,0,0,1,1340.4330708661416,-460.5) translate(0 23.877777777777776)"/><use xlink:href="#I" transform="matrix(1,0,0,1,1340.4330708661416,-418.5) translate(0 23.877777777777776)"/><use xlink:href="#J" transform="matrix(1,0,0,1,1340.4330708661416,-376.5) translate(0 23.877777777777776)"/><path d="M1335.43-214c0-3.3 2.7-6 6-6h388c3.32 0 6 2.7 6 6V31c0 3.3-2.68 6-6 6h-388c-3.3 0-6-2.7-6-6z" fill="#ccc"/><path d="M1335.43-214c0-3.3 2.7-6 6-6h388c3.32 0 6 2.7 6 6V31c0 3.3-2.68 6-6 6h-388c-3.3 0-6-2.7-6-6zM1335.43-173h400" stroke="#999" stroke-width="4" fill="none"/><use xlink:href="#K" transform="matrix(1,0,0,1,1345.4330708661416,-220) translate(109.8024691358025 29.72222222222222)"/><use xlink:href="#L" transform="matrix(1,0,0,1,1340.4330708661416,-170.5) translate(0 23.833333333333332)"/><use xlink:href="#M" transform="matrix(1,0,0,1,1340.4330708661416,-128.5) translate(0 23.833333333333332)"/><use xlink:href="#N" transform="matrix(1,0,0,1,1340.4330708661416,-86.5) translate(0 23.833333333333332)"/><use xlink:href="#y" transform="matrix(1,0,0,1,1340.4330708661416,-44.5) translate(0 23.877777777777776)"/><use xlink:href="#z" transform="matrix(1,0,0,1,1340.4330708661416,-2.5) translate(0 23.877777777777776)"/><path d="M1335.43-1214c0-3.3 2.7-6 6-6h388c3.32 0 6 2.7 6 6v371c0 3.3-2.68 6-6 6h-388c-3.3 0-6-2.7-6-6z" fill="#ccc"/><path d="M1335.43-1214c0-3.3 2.7-6 6-6h388c3.32 0 6 2.7 6 6v371c0 3.3-2.68 6-6 6h-388c-3.3 0-6-2.7-6-6zM1335.43-1173h400" stroke="#999" stroke-width="4" fill="none"/><use xlink:href="#O" transform="matrix(1,0,0,1,1345.4330708661416,-1220) translate(158.0679012345679 29.72222222222222)"/><use xlink:href="#P" transform="matrix(1,0,0,1,1340.4330708661416,-1170.5) translate(0 23.833333333333332)"/><use xlink:href="#Q" transform="matrix(1,0,0,1,1340.4330708661416,-1128.5) translate(0 23.833333333333332)"/><use xlink:href="#R" transform="matrix(1,0,0,1,1340.4330708661416,-1086.5) translate(0 23.833333333333332)"/><use xlink:href="#S" transform="matrix(1,0,0,1,1340.4330708661416,-1044.5) translate(0 23.877777777777776)"/><use xlink:href="#T" transform="matrix(1,0,0,1,1340.4330708661416,-1002.5) translate(0 23.877777777777776)"/><use xlink:href="#U" transform="matrix(1,0,0,1,1340.4330708661416,-960.5) translate(0 23.877777777777776)"/><use xlink:href="#V" transform="matrix(1,0,0,1,1340.4330708661416,-918.5) translate(0 23.877777777777776)"/><use xlink:href="#W" transform="matrix(1,0,0,1,1340.4330708661416,-876.5) translate(0 23.877777777777776)"/><path d="M135.43-914c0-3.3 2.7-6 6-6h388c3.32 0 6 2.7 6 6v161c0 3.3-2.68 6-6 6h-388c-3.3 0-6-2.7-6-6z" fill="#ccc"/><path d="M135.43-914c0-3.3 2.7-6 6-6h388c3.32 0 6 2.7 6 6v161c0 3.3-2.68 6-6 6h-388c-3.3 0-6-2.7-6-6zM135.43-873h400" stroke="#999" stroke-width="4" fill="none"/><use xlink:href="#X" transform="matrix(1,0,0,1,145.43307086614163,-920) translate(106.3888888888889 29.72222222222222)"/><use xlink:href="#Y" transform="matrix(1,0,0,1,140.43307086614163,-870.5) translate(0 23.833333333333332)"/><use xlink:href="#Z" transform="matrix(1,0,0,1,140.43307086614163,-828.5) translate(0 23.833333333333332)"/><use xlink:href="#aa" transform="matrix(1,0,0,1,140.43307086614163,-786.5) translate(0 23.833333333333332)"/><path d="M731.43-753.02h-90c-3.3 0-6-2.7-6-6v-87.16c0-3.32-2.68-6-6-6h-88.36" stroke="#5e5e5e" stroke-width="4" fill="none"/><path d="M733.43-751.02h-2.05v-4h2.05z" fill="#5e5e5e"/><path d="M558.58-862.37l-17.22 10.2L558.58-842M731.43-710.6h-90c-3.3 0-6 2.68-6 6v145.15c0 3.32-2.68 6-6 6h-88.36" stroke="#5e5e5e" stroke-width="4" fill="none"/><path d="M733.43-708.6h-2.05v-4h2.05z" fill="#5e5e5e"/><path d="M558.58-563.63l-17.22 10.18 17.22 10.2M1139.43-668.2h90c3.32 0 6-2.67 6-6v-473.03c0-3.32 2.7-6 6-6h88.37" stroke="#5e5e5e" stroke-width="4" fill="none"/><path d="M1139.48-666.18h-2.05v-4h2.05z" fill="#5e5e5e"/><path d="M1312.3-1143.05l17.2-10.18-17.2-10.2M1139.43-625.76h90c3.32 0 6-2.7 6-6v-15.48c0-3.3 2.7-6 6-6h88.37" stroke="#5e5e5e" stroke-width="4" fill="none"/><path d="M1139.48-623.76h-2.05v-4h2.05z" fill="#5e5e5e"/><path d="M1312.3-643.05l17.2-10.2-17.2-10.17M1139.43-583.35h90c3.32 0 6 2.7 6 6v418.75c0 3.3 2.7 6 6 6h88.37" stroke="#5e5e5e" stroke-width="4" fill="none"/><path d="M1139.48-581.35h-2.05v-4h2.05z" fill="#5e5e5e"/><path d="M1312.3-142.42l17.2-10.2-17.2-10.17" stroke="#5e5e5e" stroke-width="4" fill="none"/><path d="M200-123.65c0-3.32 2.7-6 6-6h248c3.3 0 6 2.68 6 6v141c0 3.3-2.7 6-6 6H206c-3.3 0-6-2.7-6-6z" fill="#fff"/><path d="M200-123.65c0-3.32 2.7-6 6-6h248c3.3 0 6 2.68 6 6v141c0 3.3-2.7 6-6 6H206c-3.3 0-6-2.7-6-6zM200-87.65h260" stroke="#5e5e5e" stroke-width="3" fill="none"/><g><use xlink:href="#ab" transform="matrix(1,0,0,1,210,-129.65499999999997) translate(72.74074074074075 26.333333333333332)"/></g><path d="M213-64.15c0-3.32 2.7-6 6-6h222c3.3 0 6 2.68 6 6v19.66c0 3.33-2.7 6-6 6H219c-3.3 0-6-2.67-6-6z" stroke="#5e5e5e" stroke-width="3" fill="#ffeca9"/><g><use xlink:href="#ac" transform="matrix(1,0,0,1,218,-65.15499999999997) translate(60.858024691358025 17.77777777777778)"/><use xlink:href="#ad" transform="matrix(1,0,0,1,218,-65.15499999999997) translate(110.17901234567901 17.77777777777778)"/></g><path d="M213-15.82c0-3.32 2.7-6 6-6h222c3.3 0 6 2.68 6 6V3.85c0 3.3-2.7 6-6 6H219c-3.3 0-6-2.7-6-6z" stroke="#5e5e5e" stroke-width="3" fill="#ccc"/><g><use xlink:href="#ae" transform="matrix(1,0,0,1,218,-16.821666666666644) translate(30.086419753086417 17.77777777777778)"/><use xlink:href="#ad" transform="matrix(1,0,0,1,218,-16.821666666666644) translate(140.95061728395063 17.77777777777778)"/></g><defs><path fill="#333" d="M169-182c-1-43-94-46-97-3 18 66 151 10 154 114 3 95-165 93-204 36-6-8-10-19-12-30l50-8c3 46 112 56 116 5-17-69-150-10-154-114-4-87 153-88 188-35 5 8 8 18 10 28" id="af"/><path fill="#333" d="M115-3C79 11 28 4 28-45v-112H4v-33h27l15-45h31v45h36v33H77v99c-1 23 16 31 38 25v30" id="ag"/><path fill="#333" d="M133-34C117-15 103 5 69 4 32 3 11-16 11-54c-1-60 55-63 116-61 1-26-3-47-28-47-18 1-26 9-28 27l-52-2c7-38 36-58 82-57s74 22 75 68l1 82c-1 14 12 18 25 15v27c-30 8-71 5-69-32zm-48 3c29 0 43-24 42-57-32 0-66-3-65 30 0 17 8 27 23 27" id="ah"/><path fill="#333" d="M135-150c-39-12-60 13-60 57V0H25l-1-190h47c2 13-1 29 3 40 6-28 27-53 61-41v41" id="ai"/><g id="a"><use transform="matrix(0.08641975308641969,0,0,0.08641975308641969,0,0)" xlink:href="#af"/><use transform="matrix(0.08641975308641969,0,0,0.08641975308641969,20.740740740740726,0)" xlink:href="#ag"/><use transform="matrix(0.08641975308641969,0,0,0.08641975308641969,31.02469135802467,0)" xlink:href="#ah"/><use transform="matrix(0.08641975308641969,0,0,0.08641975308641969,48.30864197530861,0)" xlink:href="#ai"/></g><path fill="#333" d="M190-63c-7 42-38 67-86 67-59 0-84-38-90-98-12-110 154-137 174-36l-49 2c-2-19-15-32-35-32-30 0-35 28-38 64-6 74 65 87 74 30" id="aj"/><path fill="#333" d="M114-157C55-157 80-60 75 0H25v-261h50l-1 109c12-26 28-41 61-42 86-1 58 113 63 194h-50c-7-57 23-157-34-157" id="ak"/><path fill="#333" d="M185-48c-13 30-37 53-82 52C43 2 14-33 14-96s30-98 90-98c62 0 83 45 84 108H66c0 31 8 55 39 56 18 0 30-7 34-22zm-45-69c5-46-57-63-70-21-2 6-4 13-4 21h74" id="al"/><path fill="#333" d="M220-157c-53 9-28 100-34 157h-49v-107c1-27-5-49-29-50C55-147 81-57 75 0H25l-1-190h47c2 12-1 28 3 38 10-53 101-56 108 0 13-22 24-43 59-42 82 1 51 116 57 194h-49v-107c-1-25-5-48-29-50" id="am"/><path fill="#333" d="M35-132v-50h50v50H35zM35 0v-49h50V0H35" id="an"/><g id="b"><use transform="matrix(0.08641975308641969,0,0,0.08641975308641969,0,0)" xlink:href="#af"/><use transform="matrix(0.08641975308641969,0,0,0.08641975308641969,20.740740740740726,0)" xlink:href="#aj"/><use transform="matrix(0.08641975308641969,0,0,0.08641975308641969,38.02469135802467,0)" xlink:href="#ak"/><use transform="matrix(0.08641975308641969,0,0,0.08641975308641969,56.95061728395058,0)" xlink:href="#al"/><use transform="matrix(0.08641975308641969,0,0,0.08641975308641969,74.23456790123451,0)" xlink:href="#am"/><use transform="matrix(0.08641975308641969,0,0,0.08641975308641969,101.88888888888881,0)" xlink:href="#ah"/><use transform="matrix(0.08641975308641969,0,0,0.08641975308641969,119.17283950617275,0)" xlink:href="#an"/></g><path fill="#333" d="M24 0v-248h195v40H76v63h132v40H76v65h150V0H24" id="ao"/><path fill="#333" d="M14-72v-43h91v43H14" id="ap"/><path fill="#333" d="M110-194c64 0 96 36 96 99 0 64-35 99-97 99-61 0-95-36-95-99 0-62 34-99 96-99zm-1 164c35 0 45-28 45-65 0-40-10-65-43-65-34 0-45 26-45 65 0 36 10 65 43 65" id="aq"/><g id="c"><use transform="matrix(0.08641975308641969,0,0,0.08641975308641969,0,0)" xlink:href="#ao"/><use transform="matrix(0.08641975308641969,0,0,0.08641975308641969,20.740740740740726,0)" xlink:href="#ap"/><use transform="matrix(0.08641975308641969,0,0,0.08641975308641969,31.02469135802467,0)" xlink:href="#aj"/><use transform="matrix(0.08641975308641969,0,0,0.08641975308641969,48.30864197530861,0)" xlink:href="#aq"/><use transform="matrix(0.08641975308641969,0,0,0.08641975308641969,67.23456790123451,0)" xlink:href="#am"/><use transform="matrix(0.08641975308641969,0,0,0.08641975308641969,94.88888888888883,0)" xlink:href="#am"/><use transform="matrix(0.08641975308641969,0,0,0.08641975308641969,122.54320987654313,0)" xlink:href="#al"/><use transform="matrix(0.08641975308641969,0,0,0.08641975308641969,139.82716049382705,0)" xlink:href="#ai"/><use transform="matrix(0.08641975308641969,0,0,0.08641975308641969,151.9259259259258,0)" xlink:href="#aj"/><use transform="matrix(0.08641975308641969,0,0,0.08641975308641969,169.20987654320976,0)" xlink:href="#al"/></g><path fill="#333" d="M24-248c120-7 223 5 221 122C244-46 201 0 124 0H24v-248zM76-40c74 7 117-18 117-86 0-67-45-88-117-82v168" id="ar"/><g id="d"><use transform="matrix(0.08641975308641969,0,0,0.08641975308641969,0,0)" xlink:href="#ar"/><use transform="matrix(0.08641975308641969,0,0,0.08641975308641969,22.3827160493827,0)" xlink:href="#ah"/><use transform="matrix(0.08641975308641969,0,0,0.08641975308641969,39.66666666666664,0)" xlink:href="#ag"/><use transform="matrix(0.08641975308641969,0,0,0.08641975308641969,49.950617283950585,0)" xlink:href="#ah"/></g><path fill="#333" d="M275 0h-61l-44-196L126 0H64L0-248h53L97-49l45-199h58l43 199 44-199h52" id="as"/><path fill="#333" d="M85 4C-2 5 27-109 22-190h50c7 57-23 150 33 157 60-5 35-97 40-157h50l1 190h-47c-2-12 1-28-3-38-12 25-28 42-61 42" id="at"/><path fill="#333" d="M137-138c1-29-70-34-71-4 15 46 118 7 119 86 1 83-164 76-172 9l43-7c4 19 20 25 44 25 33 8 57-30 24-41C81-84 22-81 20-136c-2-80 154-74 161-7" id="au"/><g id="e"><use transform="matrix(0.08641975308641969,0,0,0.08641975308641969,0,0)" xlink:href="#as"/><use transform="matrix(0.08641975308641969,0,0,0.08641975308641969,28.17283950617282,0)" xlink:href="#ah"/><use transform="matrix(0.08641975308641969,0,0,0.08641975308641969,45.456790123456756,0)" xlink:href="#ai"/><use transform="matrix(0.08641975308641969,0,0,0.08641975308641969,57.555555555555515,0)" xlink:href="#al"/><use transform="matrix(0.08641975308641969,0,0,0.08641975308641969,74.83950617283945,0)" xlink:href="#ak"/><use transform="matrix(0.08641975308641969,0,0,0.08641975308641969,93.76543209876537,0)" xlink:href="#aq"/><use transform="matrix(0.08641975308641969,0,0,0.08641975308641969,112.69135802469125,0)" xlink:href="#at"/><use transform="matrix(0.08641975308641969,0,0,0.08641975308641969,131.61728395061718,0)" xlink:href="#au"/><use transform="matrix(0.08641975308641969,0,0,0.08641975308641969,148.90123456790113,0)" xlink:href="#al"/></g><path fill="#333" d="M121-226c-27-7-43 5-38 36h38v33H83V0H34v-157H6v-33h28c-9-59 32-81 87-68v32" id="av"/><g id="f"><use transform="matrix(0.08641975308641969,0,0,0.08641975308641969,0,0)" xlink:href="#av"/><use transform="matrix(0.08641975308641969,0,0,0.08641975308641969,10.283950617283944,0)" xlink:href="#aq"/><use transform="matrix(0.08641975308641969,0,0,0.08641975308641969,29.209876543209862,0)" xlink:href="#ai"/></g><path fill="#333" d="M67-125c0 53 21 87 73 88 37 1 54-22 65-47l45 17C233-25 199 4 140 4 58 4 20-42 15-125 8-235 124-281 211-232c18 10 29 29 36 50l-46 12c-8-25-30-41-62-41-52 0-71 34-72 86" id="aw"/><path fill="#333" d="M25-224v-37h50v37H25zM25 0v-190h50V0H25" id="ax"/><path fill="#333" d="M135-194c87-1 58 113 63 194h-50c-7-57 23-157-34-157-59 0-34 97-39 157H25l-1-190h47c2 12-1 28 3 38 12-26 28-41 61-42" id="ay"/><g id="g"><use transform="matrix(0.08641975308641969,0,0,0.08641975308641969,0,0)" xlink:href="#aw"/><use transform="matrix(0.08641975308641969,0,0,0.08641975308641969,22.3827160493827,0)" xlink:href="#ak"/><use transform="matrix(0.08641975308641969,0,0,0.08641975308641969,41.30864197530862,0)" xlink:href="#ah"/><use transform="matrix(0.08641975308641969,0,0,0.08641975308641969,58.59259259259255,0)" xlink:href="#ax"/><use transform="matrix(0.08641975308641969,0,0,0.08641975308641969,67.23456790123453,0)" xlink:href="#ay"/></g><g id="h"><use transform="matrix(0.08641975308641969,0,0,0.08641975308641969,0,0)" xlink:href="#aq"/><use transform="matrix(0.08641975308641969,0,0,0.08641975308641969,18.925925925925913,0)" xlink:href="#av"/></g><path fill="#333" d="M135-194c53 0 70 44 70 98 0 56-19 98-73 100-31 1-45-17-59-34 3 33 2 69 2 105H25l-1-265h48c2 10 0 23 3 31 11-24 29-35 60-35zM114-30c33 0 39-31 40-66 0-38-9-64-40-64-56 0-55 130 0 130" id="az"/><g id="i"><use transform="matrix(0.08641975308641969,0,0,0.08641975308641969,0,0)" xlink:href="#af"/><use transform="matrix(0.08641975308641969,0,0,0.08641975308641969,20.740740740740726,0)" xlink:href="#at"/><use transform="matrix(0.08641975308641969,0,0,0.08641975308641969,39.66666666666664,0)" xlink:href="#az"/><use transform="matrix(0.08641975308641969,0,0,0.08641975308641969,58.59259259259255,0)" xlink:href="#al"/><use transform="matrix(0.08641975308641969,0,0,0.08641975308641969,75.87654320987649,0)" xlink:href="#ai"/><use transform="matrix(0.08641975308641969,0,0,0.08641975308641969,87.97530864197525,0)" xlink:href="#au"/><use transform="matrix(0.08641975308641969,0,0,0.08641975308641969,105.25925925925918,0)" xlink:href="#ag"/><use transform="matrix(0.08641975308641969,0,0,0.08641975308641969,115.54320987654313,0)" xlink:href="#aq"/><use transform="matrix(0.08641975308641969,0,0,0.08641975308641969,134.46913580246905,0)" xlink:href="#ai"/><use transform="matrix(0.08641975308641969,0,0,0.08641975308641969,146.5679012345678,0)" xlink:href="#al"/><use transform="matrix(0.08641975308641969,0,0,0.08641975308641969,163.85185185185176,0)" xlink:href="#au"/></g><path fill="#333" d="M25 0v-261h50V0H25" id="aA"/><g id="j"><use transform="matrix(0.08641975308641973,0,0,0.08641975308641973,0,0)" xlink:href="#au"/><use transform="matrix(0.08641975308641973,0,0,0.08641975308641973,17.283950617283946,0)" xlink:href="#ah"/><use transform="matrix(0.08641975308641973,0,0,0.08641975308641973,34.56790123456789,0)" xlink:href="#aA"/><use transform="matrix(0.08641975308641973,0,0,0.08641975308641973,43.209876543209866,0)" xlink:href="#al"/><use transform="matrix(0.08641975308641973,0,0,0.08641975308641973,60.4938271604938,0)" xlink:href="#au"/></g><path fill="#333" d="M156-122c2-23-7-37-28-37-47 0-58 44-58 89 0 24 12 40 36 40 43 0 47-49 50-92zM-8 75l50-265h48c0 10-3 24-3 30 22-50 127-45 121 29-6 73-21 135-92 135-29 0-46-14-55-35L41 75H-8" id="aB"/><path fill="#333" d="M166-52c-4 17 5 29 24 23l-3 27c-30 11-74 1-67-34C105-15 91 4 56 4 23 4 3-15 2-49c0-64 63-67 128-67 10-22 3-53-29-45-13 3-22 10-25 24l-46-5c5-64 156-77 153 0-1 33-11 60-17 90zM97-88c-44-9-64 57-19 57 31 0 42-28 47-57H97" id="aC"/><path fill="#333" d="M100 10C77 47 50 87-15 72l7-35c37 9 51-18 65-41L20-190h51L89-44l73-146h53" id="aD"/><path fill="#333" d="M255-194c90 0 29 129 24 194h-49l25-136c-7-39-53-14-60 9-12 38-18 85-28 127h-49l25-136c2-29-39-23-50-7C69-108 68-47 56 0H6l36-190h48c-1 10-6 24-4 32 12-20 27-36 57-36s46 15 50 41c14-21 29-41 62-41" id="aE"/><path fill="#333" d="M114-194c63-2 87 48 72 110H63c-3 28 1 55 31 54 21-1 32-13 37-29l44 13C160-14 137 4 91 4 41 4 11-22 11-73c0-71 33-119 103-121zm30 77c14-47-50-61-67-22-3 6-6 13-8 22h75" id="aF"/><path fill="#333" d="M151-194c95 0 34 128 28 194h-49l25-134c0-29-45-25-59-9C67-111 69-48 56 0H6l36-190h47l-4 32c15-20 33-36 66-36" id="aG"/><path fill="#333" d="M72-63c-8 23 5 39 32 30L98-1C54 14 12-6 23-64l18-93H15l7-33h28l24-45h31l-8 45h35l-6 33H90" id="aH"/><path fill="#333" d="M-21 44V30h207v14H-21" id="aI"/><path fill="#333" d="M128 0L95-87 70-74 55 0H6l51-261h49L77-111l82-79h56l-83 74L180 0h-52" id="aJ"/><g id="k"><use transform="matrix(0.07407407407407406,0,0,0.07407407407407406,0,0)" xlink:href="#aB"/><use transform="matrix(0.07407407407407406,0,0,0.07407407407407406,16.222222222222218,0)" xlink:href="#aC"/><use transform="matrix(0.07407407407407406,0,0,0.07407407407407406,31.03703703703703,0)" xlink:href="#aD"/><use transform="matrix(0.07407407407407406,0,0,0.07407407407407406,45.85185185185184,0)" xlink:href="#aE"/><use transform="matrix(0.07407407407407406,0,0,0.07407407407407406,69.55555555555554,0)" xlink:href="#aF"/><use transform="matrix(0.07407407407407406,0,0,0.07407407407407406,84.37037037037035,0)" xlink:href="#aG"/><use transform="matrix(0.07407407407407406,0,0,0.07407407407407406,100.59259259259257,0)" xlink:href="#aH"/><use transform="matrix(0.07407407407407406,0,0,0.07407407407407406,109.40740740740738,0)" xlink:href="#aI"/><use transform="matrix(0.07407407407407406,0,0,0.07407407407407406,124.22222222222219,0)" xlink:href="#aJ"/><use transform="matrix(0.07407407407407406,0,0,0.07407407407407406,139.037037037037,0)" xlink:href="#aF"/><use transform="matrix(0.07407407407407406,0,0,0.07407407407407406,153.85185185185182,0)" xlink:href="#aD"/></g><path fill="#333" d="M67-101c-8 29-7 73 27 71 23-2 32-16 39-37l48 9C170-19 141 4 91 4 36 4 7-28 12-86c6-75 61-124 140-103 26 7 40 29 43 59l-50 4c-1-20-9-34-29-34-35 0-41 29-49 59" id="aK"/><path fill="#333" d="M69 3c-96 0-34-126-28-193h49L65-57c6 42 62 18 71-6 14-38 17-86 28-127h50L178 0h-47c0-11 4-26 3-33-14 20-30 37-65 36" id="aL"/><path fill="#333" d="M144-137c-1-29-70-35-71-2 16 41 103 10 103 80C176 9 79 16 32-9 18-17 9-31 4-48l44-6c3 32 80 36 82 1-15-42-103-11-103-82 0-77 157-79 161-8" id="aM"/><path fill="#333" d="M124-194c51 0 84 22 84 74C207-44 167 4 94 4 43 4 11-23 11-74c0-74 41-120 113-120zM99-30c46 0 58-42 58-86 0-27-11-44-37-44-44 0-55 40-57 84-1 27 10 45 36 46" id="aN"/><path fill="#333" d="M84-151c13-25 34-51 72-40l-8 41C67-170 71-64 56 0H6l36-190h47" id="aO"/><g id="l"><use transform="matrix(0.07407407407407406,0,0,0.07407407407407406,0,0)" xlink:href="#aK"/><use transform="matrix(0.07407407407407406,0,0,0.07407407407407406,14.814814814814811,0)" xlink:href="#aL"/><use transform="matrix(0.07407407407407406,0,0,0.07407407407407406,31.03703703703703,0)" xlink:href="#aM"/><use transform="matrix(0.07407407407407406,0,0,0.07407407407407406,45.85185185185184,0)" xlink:href="#aH"/><use transform="matrix(0.07407407407407406,0,0,0.07407407407407406,54.66666666666665,0)" xlink:href="#aN"/><use transform="matrix(0.07407407407407406,0,0,0.07407407407407406,70.88888888888887,0)" xlink:href="#aE"/><use transform="matrix(0.07407407407407406,0,0,0.07407407407407406,94.59259259259257,0)" xlink:href="#aF"/><use transform="matrix(0.07407407407407406,0,0,0.07407407407407406,109.40740740740738,0)" xlink:href="#aO"/><use transform="matrix(0.07407407407407406,0,0,0.07407407407407406,119.77777777777774,0)" xlink:href="#aI"/><use transform="matrix(0.07407407407407406,0,0,0.07407407407407406,134.59259259259255,0)" xlink:href="#aJ"/><use transform="matrix(0.07407407407407406,0,0,0.07407407407407406,149.40740740740736,0)" xlink:href="#aF"/><use transform="matrix(0.07407407407407406,0,0,0.07407407407407406,164.22222222222217,0)" xlink:href="#aD"/></g><path fill="#333" d="M50-224l7-37h49l-7 37H50zM6 0l37-190h49L55 0H6" id="aP"/><g id="m"><use transform="matrix(0.07407407407407406,0,0,0.07407407407407406,0,0)" xlink:href="#aH"/><use transform="matrix(0.07407407407407406,0,0,0.07407407407407406,8.814814814814813,0)" xlink:href="#aP"/><use transform="matrix(0.07407407407407406,0,0,0.07407407407407406,16.222222222222218,0)" xlink:href="#aE"/><use transform="matrix(0.07407407407407406,0,0,0.07407407407407406,39.92592592592592,0)" xlink:href="#aF"/><use transform="matrix(0.07407407407407406,0,0,0.07407407407407406,54.740740740740726,0)" xlink:href="#aI"/><use transform="matrix(0.07407407407407406,0,0,0.07407407407407406,69.55555555555554,0)" xlink:href="#aJ"/><use transform="matrix(0.07407407407407406,0,0,0.07407407407407406,84.37037037037035,0)" xlink:href="#aF"/><use transform="matrix(0.07407407407407406,0,0,0.07407407407407406,99.18518518518516,0)" xlink:href="#aD"/></g><g id="n"><use transform="matrix(0.07469135802469132,0,0,0.07469135802469132,0,0)" xlink:href="#aP"/><use transform="matrix(0.07469135802469132,0,0,0.07469135802469132,7.469135802469132,0)" xlink:href="#aH"/><use transform="matrix(0.07469135802469132,0,0,0.07469135802469132,16.357407407407397,0)" xlink:href="#aF"/><use transform="matrix(0.07469135802469132,0,0,0.07469135802469132,31.29567901234566,0)" xlink:href="#aE"/><use transform="matrix(0.07469135802469132,0,0,0.07469135802469132,55.19691358024688,0)" xlink:href="#aI"/><use transform="matrix(0.07469135802469132,0,0,0.07469135802469132,70.13518518518514,0)" xlink:href="#aJ"/><use transform="matrix(0.07469135802469132,0,0,0.07469135802469132,85.07345679012339,0)" xlink:href="#aF"/><use transform="matrix(0.07469135802469132,0,0,0.07469135802469132,100.01172839506168,0)" xlink:href="#aD"/></g><g id="o"><use transform="matrix(0.07469135802469132,0,0,0.07469135802469132,0,0)" xlink:href="#aM"/><use transform="matrix(0.07469135802469132,0,0,0.07469135802469132,14.938271604938263,0)" xlink:href="#aH"/><use transform="matrix(0.07469135802469132,0,0,0.07469135802469132,23.82654320987653,0)" xlink:href="#aN"/><use transform="matrix(0.07469135802469132,0,0,0.07469135802469132,40.18395061728393,0)" xlink:href="#aO"/><use transform="matrix(0.07469135802469132,0,0,0.07469135802469132,50.64074074074071,0)" xlink:href="#aF"/><use transform="matrix(0.07469135802469132,0,0,0.07469135802469132,65.57901234567898,0)" xlink:href="#aI"/><use transform="matrix(0.07469135802469132,0,0,0.07469135802469132,80.51728395061724,0)" xlink:href="#aJ"/><use transform="matrix(0.07469135802469132,0,0,0.07469135802469132,95.4555555555555,0)" xlink:href="#aF"/><use transform="matrix(0.07469135802469132,0,0,0.07469135802469132,110.39382716049377,0)" xlink:href="#aD"/></g><path fill="#333" d="M145-31C134-9 116 4 85 4 32 4 16-35 15-94c0-59 17-99 70-100 32-1 48 14 60 33 0-11-1-24 2-32h30l-1 268h-32zM93-21c41 0 51-33 51-76s-8-73-50-73c-40 0-46 35-46 75s5 74 45 74" id="aQ"/><path fill="#333" d="M84 4C-5 8 30-112 23-190h32v120c0 31 7 50 39 49 72-2 45-101 50-169h31l1 190h-30c-1-10 1-25-2-33-11 22-28 36-60 37" id="aR"/><path fill="#333" d="M141-36C126-15 110 5 73 4 37 3 15-17 15-53c-1-64 63-63 125-63 3-35-9-54-41-54-24 1-41 7-42 31l-33-3c5-37 33-52 76-52 45 0 72 20 72 64v82c-1 20 7 32 28 27v20c-31 9-61-2-59-35zM48-53c0 20 12 33 32 33 41-3 63-29 60-74-43 2-92-5-92 41" id="aS"/><path fill="#333" d="M117-194c89-4 53 116 60 194h-32v-121c0-31-8-49-39-48C34-167 62-67 57 0H25l-1-190h30c1 10-1 24 2 32 11-22 29-35 61-36" id="aT"/><path fill="#333" d="M59-47c-2 24 18 29 38 22v24C64 9 27 4 27-40v-127H5v-23h24l9-43h21v43h35v23H59v120" id="aU"/><path fill="#333" d="M24-231v-30h32v30H24zM24 0v-190h32V0H24" id="aV"/><path fill="#333" d="M179-190L93 31C79 59 56 82 12 73V49c39 6 53-20 64-50L1-190h34L92-34l54-156h33" id="aW"/><g id="p"><use transform="matrix(0.07469135802469132,0,0,0.07469135802469132,0,0)" xlink:href="#aQ"/><use transform="matrix(0.07469135802469132,0,0,0.07469135802469132,14.938271604938263,0)" xlink:href="#aR"/><use transform="matrix(0.07469135802469132,0,0,0.07469135802469132,29.876543209876527,0)" xlink:href="#aS"/><use transform="matrix(0.07469135802469132,0,0,0.07469135802469132,44.81481481481479,0)" xlink:href="#aT"/><use transform="matrix(0.07469135802469132,0,0,0.07469135802469132,59.75308641975305,0)" xlink:href="#aU"/><use transform="matrix(0.07469135802469132,0,0,0.07469135802469132,67.22222222222219,0)" xlink:href="#aV"/><use transform="matrix(0.07469135802469132,0,0,0.07469135802469132,73.1228395061728,0)" xlink:href="#aU"/><use transform="matrix(0.07469135802469132,0,0,0.07469135802469132,80.59197530864192,0)" xlink:href="#aW"/></g><path fill="#333" d="M100-194c62-1 85 37 85 99 1 63-27 99-86 99S16-35 15-95c0-66 28-99 85-99zM99-20c44 1 53-31 53-75 0-43-8-75-51-75s-53 32-53 75 10 74 51 75" id="aX"/><path fill="#333" d="M24 0v-261h32V0H24" id="aY"/><path fill="#333" d="M-5 72V49h209v23H-5" id="aZ"/><path fill="#333" d="M115-194c55 1 70 41 70 98S169 2 115 4C84 4 66-9 55-30l1 105H24l-1-265h31l2 30c10-21 28-34 59-34zm-8 174c40 0 45-34 45-75s-6-73-45-74c-42 0-51 32-51 76 0 43 10 73 51 73" id="ba"/><path fill="#333" d="M114-163C36-179 61-72 57 0H25l-1-190h30c1 12-1 29 2 39 6-27 23-49 58-41v29" id="bb"/><path fill="#333" d="M96-169c-40 0-48 33-48 73s9 75 48 75c24 0 41-14 43-38l32 2c-6 37-31 61-74 61-59 0-76-41-82-99-10-93 101-131 147-64 4 7 5 14 7 22l-32 3c-4-21-16-35-41-35" id="bc"/><path fill="#333" d="M100-194c63 0 86 42 84 106H49c0 40 14 67 53 68 26 1 43-12 49-29l28 8c-11 28-37 45-77 45C44 4 14-33 15-96c1-61 26-98 85-98zm52 81c6-60-76-77-97-28-3 7-6 17-6 28h103" id="bd"/><g id="q"><use transform="matrix(0.07469135802469132,0,0,0.07469135802469132,0,0)" xlink:href="#aU"/><use transform="matrix(0.07469135802469132,0,0,0.07469135802469132,7.469135802469132,0)" xlink:href="#aX"/><use transform="matrix(0.07469135802469132,0,0,0.07469135802469132,22.407407407407394,0)" xlink:href="#aU"/><use transform="matrix(0.07469135802469132,0,0,0.07469135802469132,29.876543209876527,0)" xlink:href="#aS"/><use transform="matrix(0.07469135802469132,0,0,0.07469135802469132,44.81481481481479,0)" xlink:href="#aY"/><use transform="matrix(0.07469135802469132,0,0,0.07469135802469132,50.715432098765405,0)" xlink:href="#aZ"/><use transform="matrix(0.07469135802469132,0,0,0.07469135802469132,65.65370370370367,0)" xlink:href="#ba"/><use transform="matrix(0.07469135802469132,0,0,0.07469135802469132,80.59197530864193,0)" xlink:href="#bb"/><use transform="matrix(0.07469135802469132,0,0,0.07469135802469132,89.4802469135802,0)" xlink:href="#aV"/><use transform="matrix(0.07469135802469132,0,0,0.07469135802469132,95.38086419753081,0)" xlink:href="#bc"/><use transform="matrix(0.07469135802469132,0,0,0.07469135802469132,108.82530864197525,0)" xlink:href="#bd"/></g><g id="r"><use transform="matrix(0.08641975308641973,0,0,0.08641975308641973,0,0)" xlink:href="#aj"/><use transform="matrix(0.08641975308641973,0,0,0.08641975308641973,17.283950617283946,0)" xlink:href="#at"/><use transform="matrix(0.08641975308641973,0,0,0.08641975308641973,36.209876543209866,0)" xlink:href="#au"/><use transform="matrix(0.08641975308641973,0,0,0.08641975308641973,53.49382716049381,0)" xlink:href="#ag"/><use transform="matrix(0.08641975308641973,0,0,0.08641975308641973,63.77777777777776,0)" xlink:href="#aq"/><use transform="matrix(0.08641975308641973,0,0,0.08641975308641973,82.70370370370368,0)" xlink:href="#am"/><use transform="matrix(0.08641975308641973,0,0,0.08641975308641973,110.358024691358,0)" xlink:href="#al"/><use transform="matrix(0.08641975308641973,0,0,0.08641975308641973,127.64197530864195,0)" xlink:href="#ai"/></g><path fill="#333" d="M-4 44V30h207v14H-4" id="be"/><path fill="#333" d="M147 0L96-86 75-71V0H25v-261h50v150l67-79h53l-66 74L201 0h-54" id="bf"/><path fill="#333" d="M123 10C108 53 80 86 19 72V37c35 8 53-11 59-39L3-190h52l48 148c12-52 28-100 44-148h51" id="bg"/><g id="s"><use transform="matrix(0.07407407407407406,0,0,0.07407407407407406,0,0)" xlink:href="#aj"/><use transform="matrix(0.07407407407407406,0,0,0.07407407407407406,14.814814814814811,0)" xlink:href="#at"/><use transform="matrix(0.07407407407407406,0,0,0.07407407407407406,31.03703703703703,0)" xlink:href="#au"/><use transform="matrix(0.07407407407407406,0,0,0.07407407407407406,45.85185185185184,0)" xlink:href="#ag"/><use transform="matrix(0.07407407407407406,0,0,0.07407407407407406,54.66666666666665,0)" xlink:href="#aq"/><use transform="matrix(0.07407407407407406,0,0,0.07407407407407406,70.88888888888887,0)" xlink:href="#am"/><use transform="matrix(0.07407407407407406,0,0,0.07407407407407406,94.59259259259257,0)" xlink:href="#al"/><use transform="matrix(0.07407407407407406,0,0,0.07407407407407406,109.40740740740738,0)" xlink:href="#ai"/><use transform="matrix(0.07407407407407406,0,0,0.07407407407407406,119.77777777777774,0)" xlink:href="#be"/><use transform="matrix(0.07407407407407406,0,0,0.07407407407407406,134.59259259259255,0)" xlink:href="#bf"/><use transform="matrix(0.07407407407407406,0,0,0.07407407407407406,149.40740740740736,0)" xlink:href="#al"/><use transform="matrix(0.07407407407407406,0,0,0.07407407407407406,164.22222222222217,0)" xlink:href="#bg"/></g><path fill="#333" d="M210-169c-67 3-38 105-44 169h-31v-121c0-29-5-50-35-48C34-165 62-65 56 0H25l-1-190h30c1 10-1 24 2 32 10-44 99-50 107 0 11-21 27-35 58-36 85-2 47 119 55 194h-31v-121c0-29-5-49-35-48" id="bh"/><g id="t"><use transform="matrix(0.07407407407407406,0,0,0.07407407407407406,0,0)" xlink:href="#aT"/><use transform="matrix(0.07407407407407406,0,0,0.07407407407407406,14.814814814814811,0)" xlink:href="#aS"/><use transform="matrix(0.07407407407407406,0,0,0.07407407407407406,29.629629629629623,0)" xlink:href="#bh"/><use transform="matrix(0.07407407407407406,0,0,0.07407407407407406,51.777777777777764,0)" xlink:href="#bd"/></g><g id="u"><use transform="matrix(0.07407407407407406,0,0,0.07407407407407406,0,0)" xlink:href="#bc"/><use transform="matrix(0.07407407407407406,0,0,0.07407407407407406,13.33333333333333,0)" xlink:href="#aX"/><use transform="matrix(0.07407407407407406,0,0,0.07407407407407406,28.14814814814814,0)" xlink:href="#aT"/><use transform="matrix(0.07407407407407406,0,0,0.07407407407407406,42.962962962962955,0)" xlink:href="#aU"/><use transform="matrix(0.07407407407407406,0,0,0.07407407407407406,50.37037037037036,0)" xlink:href="#aS"/><use transform="matrix(0.07407407407407406,0,0,0.07407407407407406,65.18518518518518,0)" xlink:href="#bc"/><use transform="matrix(0.07407407407407406,0,0,0.07407407407407406,78.5185185185185,0)" xlink:href="#aU"/><use transform="matrix(0.07407407407407406,0,0,0.07407407407407406,85.92592592592591,0)" xlink:href="#aZ"/><use transform="matrix(0.07407407407407406,0,0,0.07407407407407406,100.74074074074072,0)" xlink:href="#aT"/><use transform="matrix(0.07407407407407406,0,0,0.07407407407407406,115.55555555555553,0)" xlink:href="#aX"/></g><path fill="#333" d="M85-194c31 0 48 13 60 33l-1-100h32l1 261h-30c-2-10 0-23-3-31C134-8 116 4 85 4 32 4 16-35 15-94c0-66 23-100 70-100zm9 24c-40 0-46 34-46 75 0 40 6 74 45 74 42 0 51-32 51-76 0-42-9-74-50-73" id="bi"/><g id="v"><use transform="matrix(0.07469135802469132,0,0,0.07469135802469132,0,0)" xlink:href="#aT"/><use transform="matrix(0.07469135802469132,0,0,0.07469135802469132,14.938271604938263,0)" xlink:href="#aV"/><use transform="matrix(0.07469135802469132,0,0,0.07469135802469132,20.838888888888878,0)" xlink:href="#bi"/></g><path fill="#333" d="M135-143c-3-34-86-38-87 0 15 53 115 12 119 90S17 21 10-45l28-5c4 36 97 45 98 0-10-56-113-15-118-90-4-57 82-63 122-42 12 7 21 19 24 35" id="bj"/><g id="w"><use transform="matrix(0.07469135802469132,0,0,0.07469135802469132,0,0)" xlink:href="#aS"/><use transform="matrix(0.07469135802469132,0,0,0.07469135802469132,14.938271604938263,0)" xlink:href="#bi"/><use transform="matrix(0.07469135802469132,0,0,0.07469135802469132,29.876543209876527,0)" xlink:href="#bi"/><use transform="matrix(0.07469135802469132,0,0,0.07469135802469132,44.81481481481479,0)" xlink:href="#bb"/><use transform="matrix(0.07469135802469132,0,0,0.07469135802469132,53.703086419753056,0)" xlink:href="#bd"/><use transform="matrix(0.07469135802469132,0,0,0.07469135802469132,68.64135802469131,0)" xlink:href="#bj"/><use transform="matrix(0.07469135802469132,0,0,0.07469135802469132,82.08580246913576,0)" xlink:href="#bj"/></g><g id="x"><use transform="matrix(0.07469135802469132,0,0,0.07469135802469132,0,0)" xlink:href="#bj"/><use transform="matrix(0.07469135802469132,0,0,0.07469135802469132,13.444444444444438,0)" xlink:href="#aU"/><use transform="matrix(0.07469135802469132,0,0,0.07469135802469132,20.91358024691357,0)" xlink:href="#bb"/><use transform="matrix(0.07469135802469132,0,0,0.07469135802469132,29.801851851851836,0)" xlink:href="#bd"/><use transform="matrix(0.07469135802469132,0,0,0.07469135802469132,44.7401234567901,0)" xlink:href="#bd"/><use transform="matrix(0.07469135802469132,0,0,0.07469135802469132,59.67839506172836,0)" xlink:href="#aU"/></g><path fill="#333" d="M9 0v-24l116-142H16v-24h144v24L44-24h123V0H9" id="bk"/><g id="y"><use transform="matrix(0.07469135802469132,0,0,0.07469135802469132,0,0)" xlink:href="#aR"/><use transform="matrix(0.07469135802469132,0,0,0.07469135802469132,14.938271604938263,0)" xlink:href="#ba"/><use transform="matrix(0.07469135802469132,0,0,0.07469135802469132,29.876543209876527,0)" xlink:href="#aS"/><use transform="matrix(0.07469135802469132,0,0,0.07469135802469132,44.81481481481479,0)" xlink:href="#bk"/><use transform="matrix(0.07469135802469132,0,0,0.07469135802469132,58.25925925925923,0)" xlink:href="#aV"/><use transform="matrix(0.07469135802469132,0,0,0.07469135802469132,64.15987654320983,0)" xlink:href="#aY"/><use transform="matrix(0.07469135802469132,0,0,0.07469135802469132,70.06049382716044,0)" xlink:href="#aY"/><use transform="matrix(0.07469135802469132,0,0,0.07469135802469132,75.96111111111105,0)" xlink:href="#aS"/></g><g id="z"><use transform="matrix(0.07469135802469132,0,0,0.07469135802469132,0,0)" xlink:href="#bi"/><use transform="matrix(0.07469135802469132,0,0,0.07469135802469132,14.938271604938263,0)" xlink:href="#aV"/><use transform="matrix(0.07469135802469132,0,0,0.07469135802469132,20.838888888888878,0)" xlink:href="#bj"/><use transform="matrix(0.07469135802469132,0,0,0.07469135802469132,34.28333333333332,0)" xlink:href="#aU"/><use transform="matrix(0.07469135802469132,0,0,0.07469135802469132,41.75246913580245,0)" xlink:href="#bb"/><use transform="matrix(0.07469135802469132,0,0,0.07469135802469132,50.640740740740725,0)" xlink:href="#aV"/><use transform="matrix(0.07469135802469132,0,0,0.07469135802469132,56.541358024691334,0)" xlink:href="#bc"/><use transform="matrix(0.07469135802469132,0,0,0.07469135802469132,69.98580246913578,0)" xlink:href="#aU"/></g><path fill="#333" d="M108 0H70L1-190h34L89-25l56-165h34" id="bl"/><g id="A"><use transform="matrix(0.07469135802469132,0,0,0.07469135802469132,0,0)" xlink:href="#bi"/><use transform="matrix(0.07469135802469132,0,0,0.07469135802469132,14.938271604938263,0)" xlink:href="#aV"/><use transform="matrix(0.07469135802469132,0,0,0.07469135802469132,20.838888888888878,0)" xlink:href="#bl"/><use transform="matrix(0.07469135802469132,0,0,0.07469135802469132,34.28333333333332,0)" xlink:href="#aV"/><use transform="matrix(0.07469135802469132,0,0,0.07469135802469132,40.18395061728394,0)" xlink:href="#bj"/><use transform="matrix(0.07469135802469132,0,0,0.07469135802469132,53.62839506172837,0)" xlink:href="#aV"/><use transform="matrix(0.07469135802469132,0,0,0.07469135802469132,59.529012345678986,0)" xlink:href="#aX"/><use transform="matrix(0.07469135802469132,0,0,0.07469135802469132,74.46728395061724,0)" xlink:href="#aT"/></g><g id="B"><use transform="matrix(0.08641975308641973,0,0,0.08641975308641973,0,0)" xlink:href="#ax"/><use transform="matrix(0.08641975308641973,0,0,0.08641975308641973,8.641975308641973,0)" xlink:href="#ag"/><use transform="matrix(0.08641975308641973,0,0,0.08641975308641973,18.925925925925924,0)" xlink:href="#al"/><use transform="matrix(0.08641975308641973,0,0,0.08641975308641973,36.20987654320987,0)" xlink:href="#am"/></g><g id="C"><use transform="matrix(0.07407407407407406,0,0,0.07407407407407406,0,0)" xlink:href="#ax"/><use transform="matrix(0.07407407407407406,0,0,0.07407407407407406,7.407407407407406,0)" xlink:href="#ag"/><use transform="matrix(0.07407407407407406,0,0,0.07407407407407406,16.222222222222218,0)" xlink:href="#al"/><use transform="matrix(0.07407407407407406,0,0,0.07407407407407406,31.03703703703703,0)" xlink:href="#am"/><use transform="matrix(0.07407407407407406,0,0,0.07407407407407406,54.74074074074073,0)" xlink:href="#be"/><use transform="matrix(0.07407407407407406,0,0,0.07407407407407406,69.55555555555554,0)" xlink:href="#bf"/><use transform="matrix(0.07407407407407406,0,0,0.07407407407407406,84.37037037037035,0)" xlink:href="#al"/><use transform="matrix(0.07407407407407406,0,0,0.07407407407407406,99.18518518518516,0)" xlink:href="#bg"/></g><g id="D"><use transform="matrix(0.07407407407407406,0,0,0.07407407407407406,0,0)" xlink:href="#aV"/><use transform="matrix(0.07407407407407406,0,0,0.07407407407407406,5.85185185185185,0)" xlink:href="#aU"/><use transform="matrix(0.07407407407407406,0,0,0.07407407407407406,13.259259259259256,0)" xlink:href="#bd"/><use transform="matrix(0.07407407407407406,0,0,0.07407407407407406,28.074074074074066,0)" xlink:href="#bh"/><use transform="matrix(0.07407407407407406,0,0,0.07407407407407406,50.22222222222222,0)" xlink:href="#aZ"/><use transform="matrix(0.07407407407407406,0,0,0.07407407407407406,65.03703703703702,0)" xlink:href="#aT"/><use transform="matrix(0.07407407407407406,0,0,0.07407407407407406,79.85185185185183,0)" xlink:href="#aS"/><use transform="matrix(0.07407407407407406,0,0,0.07407407407407406,94.66666666666664,0)" xlink:href="#bh"/><use transform="matrix(0.07407407407407406,0,0,0.07407407407407406,116.81481481481478,0)" xlink:href="#bd"/></g><g id="E"><use transform="matrix(0.07407407407407406,0,0,0.07407407407407406,0,0)" xlink:href="#bi"/><use transform="matrix(0.07407407407407406,0,0,0.07407407407407406,14.814814814814811,0)" xlink:href="#bd"/><use transform="matrix(0.07407407407407406,0,0,0.07407407407407406,29.629629629629623,0)" xlink:href="#bj"/><use transform="matrix(0.07407407407407406,0,0,0.07407407407407406,42.962962962962955,0)" xlink:href="#bc"/></g><g id="F"><use transform="matrix(0.07469135802469132,0,0,0.07469135802469132,0,0)" xlink:href="#aR"/><use transform="matrix(0.07469135802469132,0,0,0.07469135802469132,14.938271604938263,0)" xlink:href="#aT"/><use transform="matrix(0.07469135802469132,0,0,0.07469135802469132,29.876543209876527,0)" xlink:href="#aV"/><use transform="matrix(0.07469135802469132,0,0,0.07469135802469132,35.77716049382714,0)" xlink:href="#aU"/><use transform="matrix(0.07469135802469132,0,0,0.07469135802469132,43.24629629629627,0)" xlink:href="#aZ"/><use transform="matrix(0.07469135802469132,0,0,0.07469135802469132,58.18456790123454,0)" xlink:href="#ba"/><use transform="matrix(0.07469135802469132,0,0,0.07469135802469132,73.1228395061728,0)" xlink:href="#bb"/><use transform="matrix(0.07469135802469132,0,0,0.07469135802469132,82.01111111111106,0)" xlink:href="#aV"/><use transform="matrix(0.07469135802469132,0,0,0.07469135802469132,87.91172839506166,0)" xlink:href="#bc"/><use transform="matrix(0.07469135802469132,0,0,0.07469135802469132,101.35617283950612,0)" xlink:href="#bd"/></g><path fill="#333" d="M101-234c-31-9-42 10-38 44h38v23H63V0H32v-167H5v-23h27c-7-52 17-82 69-68v24" id="bm"/><g id="G"><use transform="matrix(0.07469135802469132,0,0,0.07469135802469132,0,0)" xlink:href="#bh"/><use transform="matrix(0.07469135802469132,0,0,0.07469135802469132,22.332716049382704,0)" xlink:href="#aS"/><use transform="matrix(0.07469135802469132,0,0,0.07469135802469132,37.27098765432097,0)" xlink:href="#aT"/><use transform="matrix(0.07469135802469132,0,0,0.07469135802469132,52.209259259259234,0)" xlink:href="#aZ"/><use transform="matrix(0.07469135802469132,0,0,0.07469135802469132,67.14753086419749,0)" xlink:href="#bm"/><use transform="matrix(0.07469135802469132,0,0,0.07469135802469132,74.61666666666662,0)" xlink:href="#aS"/><use transform="matrix(0.07469135802469132,0,0,0.07469135802469132,89.5549382716049,0)" xlink:href="#bc"/><use transform="matrix(0.07469135802469132,0,0,0.07469135802469132,102.99938271604933,0)" xlink:href="#aU"/><use transform="matrix(0.07469135802469132,0,0,0.07469135802469132,110.46851851851847,0)" xlink:href="#aX"/><use transform="matrix(0.07469135802469132,0,0,0.07469135802469132,125.40679012345672,0)" xlink:href="#bb"/><use transform="matrix(0.07469135802469132,0,0,0.07469135802469132,134.29506172839498,0)" xlink:href="#aW"/></g><g id="H"><use transform="matrix(0.07469135802469132,0,0,0.07469135802469132,0,0)" xlink:href="#bj"/><use transform="matrix(0.07469135802469132,0,0,0.07469135802469132,13.444444444444438,0)" xlink:href="#aR"/><use transform="matrix(0.07469135802469132,0,0,0.07469135802469132,28.3827160493827,0)" xlink:href="#ba"/><use transform="matrix(0.07469135802469132,0,0,0.07469135802469132,43.320987654320966,0)" xlink:href="#ba"/><use transform="matrix(0.07469135802469132,0,0,0.07469135802469132,58.25925925925923,0)" xlink:href="#aY"/><use transform="matrix(0.07469135802469132,0,0,0.07469135802469132,64.15987654320985,0)" xlink:href="#aV"/><use transform="matrix(0.07469135802469132,0,0,0.07469135802469132,70.06049382716046,0)" xlink:href="#bd"/><use transform="matrix(0.07469135802469132,0,0,0.07469135802469132,84.99876543209872,0)" xlink:href="#bb"/></g><path fill="#333" d="M143 0L79-87 56-68V0H24v-261h32v163l83-92h37l-77 82L181 0h-38" id="bn"/><g id="I"><use transform="matrix(0.07469135802469132,0,0,0.07469135802469132,0,0)" xlink:href="#bj"/><use transform="matrix(0.07469135802469132,0,0,0.07469135802469132,13.444444444444438,0)" xlink:href="#aU"/><use transform="matrix(0.07469135802469132,0,0,0.07469135802469132,20.91358024691357,0)" xlink:href="#aX"/><use transform="matrix(0.07469135802469132,0,0,0.07469135802469132,35.85185185185183,0)" xlink:href="#bc"/><use transform="matrix(0.07469135802469132,0,0,0.07469135802469132,49.29629629629627,0)" xlink:href="#bn"/><use transform="matrix(0.07469135802469132,0,0,0.07469135802469132,62.740740740740705,0)" xlink:href="#aZ"/><use transform="matrix(0.07469135802469132,0,0,0.07469135802469132,77.67901234567897,0)" xlink:href="#aQ"/><use transform="matrix(0.07469135802469132,0,0,0.07469135802469132,92.61728395061724,0)" xlink:href="#aR"/><use transform="matrix(0.07469135802469132,0,0,0.07469135802469132,107.5555555555555,0)" xlink:href="#aS"/><use transform="matrix(0.07469135802469132,0,0,0.07469135802469132,122.49382716049377,0)" xlink:href="#aT"/><use transform="matrix(0.07469135802469132,0,0,0.07469135802469132,137.43209876543202,0)" xlink:href="#aU"/><use transform="matrix(0.07469135802469132,0,0,0.07469135802469132,144.90123456790116,0)" xlink:href="#aV"/><use transform="matrix(0.07469135802469132,0,0,0.07469135802469132,150.80185185185178,0)" xlink:href="#aU"/><use transform="matrix(0.07469135802469132,0,0,0.07469135802469132,158.2709876543209,0)" xlink:href="#aW"/></g><g id="J"><use transform="matrix(0.07469135802469132,0,0,0.07469135802469132,0,0)" xlink:href="#aR"/><use transform="matrix(0.07469135802469132,0,0,0.07469135802469132,14.938271604938263,0)" xlink:href="#aT"/><use transform="matrix(0.07469135802469132,0,0,0.07469135802469132,29.876543209876527,0)" xlink:href="#aV"/><use transform="matrix(0.07469135802469132,0,0,0.07469135802469132,35.77716049382714,0)" xlink:href="#aU"/></g><g id="K"><use transform="matrix(0.08641975308641973,0,0,0.08641975308641973,0,0)" xlink:href="#au"/><use transform="matrix(0.08641975308641973,0,0,0.08641975308641973,17.283950617283946,0)" xlink:href="#at"/><use transform="matrix(0.08641975308641973,0,0,0.08641975308641973,36.209876543209866,0)" xlink:href="#az"/><use transform="matrix(0.08641975308641973,0,0,0.08641975308641973,55.13580246913578,0)" xlink:href="#al"/><use transform="matrix(0.08641975308641973,0,0,0.08641975308641973,72.41975308641973,0)" xlink:href="#ai"/><use transform="matrix(0.08641975308641973,0,0,0.08641975308641973,84.51851851851849,0)" xlink:href="#au"/><use transform="matrix(0.08641975308641973,0,0,0.08641975308641973,101.80246913580245,0)" xlink:href="#ag"/><use transform="matrix(0.08641975308641973,0,0,0.08641975308641973,112.08641975308639,0)" xlink:href="#aq"/><use transform="matrix(0.08641975308641973,0,0,0.08641975308641973,131.0123456790123,0)" xlink:href="#ai"/><use transform="matrix(0.08641975308641973,0,0,0.08641975308641973,143.11111111111106,0)" xlink:href="#al"/></g><g id="L"><use transform="matrix(0.07407407407407406,0,0,0.07407407407407406,0,0)" xlink:href="#au"/><use transform="matrix(0.07407407407407406,0,0,0.07407407407407406,14.814814814814811,0)" xlink:href="#ag"/><use transform="matrix(0.07407407407407406,0,0,0.07407407407407406,23.62962962962963,0)" xlink:href="#aq"/><use transform="matrix(0.07407407407407406,0,0,0.07407407407407406,39.85185185185185,0)" xlink:href="#ai"/><use transform="matrix(0.07407407407407406,0,0,0.07407407407407406,50.22222222222222,0)" xlink:href="#al"/><use transform="matrix(0.07407407407407406,0,0,0.07407407407407406,65.03703703703702,0)" xlink:href="#be"/><use transform="matrix(0.07407407407407406,0,0,0.07407407407407406,79.85185185185183,0)" xlink:href="#bf"/><use transform="matrix(0.07407407407407406,0,0,0.07407407407407406,94.66666666666664,0)" xlink:href="#al"/><use transform="matrix(0.07407407407407406,0,0,0.07407407407407406,109.48148148148145,0)" xlink:href="#bg"/></g><g id="M"><use transform="matrix(0.07407407407407406,0,0,0.07407407407407406,0,0)" xlink:href="#aY"/><use transform="matrix(0.07407407407407406,0,0,0.07407407407407406,5.85185185185185,0)" xlink:href="#aX"/><use transform="matrix(0.07407407407407406,0,0,0.07407407407407406,20.66666666666666,0)" xlink:href="#bc"/><use transform="matrix(0.07407407407407406,0,0,0.07407407407407406,33.99999999999999,0)" xlink:href="#aS"/><use transform="matrix(0.07407407407407406,0,0,0.07407407407407406,48.8148148148148,0)" xlink:href="#aU"/><use transform="matrix(0.07407407407407406,0,0,0.07407407407407406,56.22222222222221,0)" xlink:href="#aV"/><use transform="matrix(0.07407407407407406,0,0,0.07407407407407406,62.07407407407406,0)" xlink:href="#aX"/><use transform="matrix(0.07407407407407406,0,0,0.07407407407407406,76.88888888888887,0)" xlink:href="#aT"/></g><g id="N"><use transform="matrix(0.07407407407407406,0,0,0.07407407407407406,0,0)" xlink:href="#bc"/><use transform="matrix(0.07407407407407406,0,0,0.07407407407407406,13.33333333333333,0)" xlink:href="#aV"/><use transform="matrix(0.07407407407407406,0,0,0.07407407407407406,19.18518518518518,0)" xlink:href="#aU"/><use transform="matrix(0.07407407407407406,0,0,0.07407407407407406,26.592592592592585,0)" xlink:href="#aW"/></g><g id="O"><use transform="matrix(0.08641975308641973,0,0,0.08641975308641973,0,0)" xlink:href="#ag"/><use transform="matrix(0.08641975308641973,0,0,0.08641975308641973,10.28395061728395,0)" xlink:href="#ax"/><use transform="matrix(0.08641975308641973,0,0,0.08641975308641973,18.925925925925924,0)" xlink:href="#am"/><use transform="matrix(0.08641975308641973,0,0,0.08641975308641973,46.58024691358024,0)" xlink:href="#al"/></g><g id="P"><use transform="matrix(0.07407407407407406,0,0,0.07407407407407406,0,0)" xlink:href="#ag"/><use transform="matrix(0.07407407407407406,0,0,0.07407407407407406,8.814814814814813,0)" xlink:href="#ax"/><use transform="matrix(0.07407407407407406,0,0,0.07407407407407406,16.222222222222218,0)" xlink:href="#am"/><use transform="matrix(0.07407407407407406,0,0,0.07407407407407406,39.92592592592592,0)" xlink:href="#al"/><use transform="matrix(0.07407407407407406,0,0,0.07407407407407406,54.740740740740726,0)" xlink:href="#be"/><use transform="matrix(0.07407407407407406,0,0,0.07407407407407406,69.55555555555554,0)" xlink:href="#bf"/><use transform="matrix(0.07407407407407406,0,0,0.07407407407407406,84.37037037037035,0)" xlink:href="#al"/><use transform="matrix(0.07407407407407406,0,0,0.07407407407407406,99.18518518518516,0)" xlink:href="#bg"/></g><g id="Q"><use transform="matrix(0.07407407407407406,0,0,0.07407407407407406,0,0)" xlink:href="#bi"/><use transform="matrix(0.07407407407407406,0,0,0.07407407407407406,14.814814814814811,0)" xlink:href="#aS"/><use transform="matrix(0.07407407407407406,0,0,0.07407407407407406,29.629629629629623,0)" xlink:href="#aU"/><use transform="matrix(0.07407407407407406,0,0,0.07407407407407406,37.03703703703703,0)" xlink:href="#bd"/></g><path fill="#333" d="M106-169C34-169 62-67 57 0H25v-261h32l-1 103c12-21 28-36 61-36 89 0 53 116 60 194h-32v-121c2-32-8-49-39-48" id="bo"/><g id="R"><use transform="matrix(0.07407407407407406,0,0,0.07407407407407406,0,0)" xlink:href="#bo"/><use transform="matrix(0.07407407407407406,0,0,0.07407407407407406,14.814814814814811,0)" xlink:href="#aX"/><use transform="matrix(0.07407407407407406,0,0,0.07407407407407406,29.629629629629623,0)" xlink:href="#aR"/><use transform="matrix(0.07407407407407406,0,0,0.07407407407407406,44.444444444444436,0)" xlink:href="#bb"/></g><g id="S"><use transform="matrix(0.07469135802469132,0,0,0.07469135802469132,0,0)" xlink:href="#bi"/><use transform="matrix(0.07469135802469132,0,0,0.07469135802469132,14.938271604938263,0)" xlink:href="#aS"/><use transform="matrix(0.07469135802469132,0,0,0.07469135802469132,29.876543209876527,0)" xlink:href="#aW"/></g><path fill="#333" d="M206 0h-36l-40-164L89 0H53L-1-190h32L70-26l43-164h34l41 164 42-164h31" id="bp"/><g id="T"><use transform="matrix(0.07469135802469132,0,0,0.07469135802469132,0,0)" xlink:href="#bp"/><use transform="matrix(0.07469135802469132,0,0,0.07469135802469132,19.345061728395052,0)" xlink:href="#bd"/><use transform="matrix(0.07469135802469132,0,0,0.07469135802469132,34.28333333333332,0)" xlink:href="#bd"/><use transform="matrix(0.07469135802469132,0,0,0.07469135802469132,49.221604938271575,0)" xlink:href="#bn"/></g><g id="U"><use transform="matrix(0.07469135802469132,0,0,0.07469135802469132,0,0)" xlink:href="#bh"/><use transform="matrix(0.07469135802469132,0,0,0.07469135802469132,22.332716049382704,0)" xlink:href="#aX"/><use transform="matrix(0.07469135802469132,0,0,0.07469135802469132,37.27098765432097,0)" xlink:href="#aT"/><use transform="matrix(0.07469135802469132,0,0,0.07469135802469132,52.209259259259234,0)" xlink:href="#aU"/><use transform="matrix(0.07469135802469132,0,0,0.07469135802469132,59.67839506172836,0)" xlink:href="#bo"/></g><g id="V"><use transform="matrix(0.07469135802469132,0,0,0.07469135802469132,0,0)" xlink:href="#aQ"/><use transform="matrix(0.07469135802469132,0,0,0.07469135802469132,14.938271604938263,0)" xlink:href="#aR"/><use transform="matrix(0.07469135802469132,0,0,0.07469135802469132,29.876543209876527,0)" xlink:href="#aS"/><use transform="matrix(0.07469135802469132,0,0,0.07469135802469132,44.81481481481479,0)" xlink:href="#bb"/><use transform="matrix(0.07469135802469132,0,0,0.07469135802469132,53.703086419753056,0)" xlink:href="#aU"/><use transform="matrix(0.07469135802469132,0,0,0.07469135802469132,61.17222222222219,0)" xlink:href="#bd"/><use transform="matrix(0.07469135802469132,0,0,0.07469135802469132,76.11049382716045,0)" xlink:href="#bb"/></g><g id="W"><use transform="matrix(0.07469135802469132,0,0,0.07469135802469132,0,0)" xlink:href="#aW"/><use transform="matrix(0.07469135802469132,0,0,0.07469135802469132,13.444444444444438,0)" xlink:href="#bd"/><use transform="matrix(0.07469135802469132,0,0,0.07469135802469132,28.3827160493827,0)" xlink:href="#aS"/><use transform="matrix(0.07469135802469132,0,0,0.07469135802469132,43.320987654320966,0)" xlink:href="#bb"/></g><g id="X"><use transform="matrix(0.08641975308641973,0,0,0.08641975308641973,0,0)" xlink:href="#ag"/><use transform="matrix(0.08641975308641973,0,0,0.08641975308641973,10.28395061728395,0)" xlink:href="#ai"/><use transform="matrix(0.08641975308641973,0,0,0.08641975308641973,22.38271604938271,0)" xlink:href="#ah"/><use transform="matrix(0.08641975308641973,0,0,0.08641975308641973,39.66666666666666,0)" xlink:href="#ay"/><use transform="matrix(0.08641975308641973,0,0,0.08641975308641973,58.59259259259258,0)" xlink:href="#au"/><use transform="matrix(0.08641975308641973,0,0,0.08641975308641973,75.87654320987653,0)" xlink:href="#ah"/><use transform="matrix(0.08641975308641973,0,0,0.08641975308641973,93.16049382716048,0)" xlink:href="#aj"/><use transform="matrix(0.08641975308641973,0,0,0.08641975308641973,110.44444444444441,0)" xlink:href="#ag"/><use transform="matrix(0.08641975308641973,0,0,0.08641975308641973,120.72839506172836,0)" xlink:href="#ax"/><use transform="matrix(0.08641975308641973,0,0,0.08641975308641973,129.37037037037035,0)" xlink:href="#aq"/><use transform="matrix(0.08641975308641973,0,0,0.08641975308641973,148.29629629629628,0)" xlink:href="#ay"/></g><g id="Y"><use transform="matrix(0.07407407407407406,0,0,0.07407407407407406,0,0)" xlink:href="#az"/><use transform="matrix(0.07407407407407406,0,0,0.07407407407407406,16.222222222222218,0)" xlink:href="#ah"/><use transform="matrix(0.07407407407407406,0,0,0.07407407407407406,31.03703703703703,0)" xlink:href="#bg"/><use transform="matrix(0.07407407407407406,0,0,0.07407407407407406,45.85185185185184,0)" xlink:href="#am"/><use transform="matrix(0.07407407407407406,0,0,0.07407407407407406,69.55555555555554,0)" xlink:href="#al"/><use transform="matrix(0.07407407407407406,0,0,0.07407407407407406,84.37037037037035,0)" xlink:href="#ay"/><use transform="matrix(0.07407407407407406,0,0,0.07407407407407406,100.59259259259257,0)" xlink:href="#ag"/><use transform="matrix(0.07407407407407406,0,0,0.07407407407407406,109.40740740740738,0)" xlink:href="#be"/><use transform="matrix(0.07407407407407406,0,0,0.07407407407407406,124.22222222222219,0)" xlink:href="#bf"/><use transform="matrix(0.07407407407407406,0,0,0.07407407407407406,139.037037037037,0)" xlink:href="#al"/><use transform="matrix(0.07407407407407406,0,0,0.07407407407407406,153.85185185185182,0)" xlink:href="#bg"/></g><g id="Z"><use transform="matrix(0.07407407407407406,0,0,0.07407407407407406,0,0)" xlink:href="#aU"/><use transform="matrix(0.07407407407407406,0,0,0.07407407407407406,7.407407407407406,0)" xlink:href="#bb"/><use transform="matrix(0.07407407407407406,0,0,0.07407407407407406,16.222222222222218,0)" xlink:href="#aS"/><use transform="matrix(0.07407407407407406,0,0,0.07407407407407406,31.03703703703703,0)" xlink:href="#aT"/><use transform="matrix(0.07407407407407406,0,0,0.07407407407407406,45.85185185185184,0)" xlink:href="#bj"/><use transform="matrix(0.07407407407407406,0,0,0.07407407407407406,59.18518518518517,0)" xlink:href="#aZ"/><use transform="matrix(0.07407407407407406,0,0,0.07407407407407406,73.99999999999999,0)" xlink:href="#aU"/><use transform="matrix(0.07407407407407406,0,0,0.07407407407407406,81.40740740740739,0)" xlink:href="#aW"/><use transform="matrix(0.07407407407407406,0,0,0.07407407407407406,94.74074074074072,0)" xlink:href="#ba"/><use transform="matrix(0.07407407407407406,0,0,0.07407407407407406,109.55555555555553,0)" xlink:href="#bd"/></g><path fill="#333" d="M115-194c53 0 69 39 70 98 0 66-23 100-70 100C84 3 66-7 56-30L54 0H23l1-261h32v101c10-23 28-34 59-34zm-8 174c40 0 45-34 45-75 0-40-5-75-45-74-42 0-51 32-51 76 0 43 10 73 51 73" id="bq"/><g id="aa"><use transform="matrix(0.07407407407407406,0,0,0.07407407407407406,0,0)" xlink:href="#bq"/><use transform="matrix(0.07407407407407406,0,0,0.07407407407407406,14.814814814814811,0)" xlink:href="#aS"/><use transform="matrix(0.07407407407407406,0,0,0.07407407407407406,29.629629629629623,0)" xlink:href="#aT"/><use transform="matrix(0.07407407407407406,0,0,0.07407407407407406,44.444444444444436,0)" xlink:href="#bn"/><use transform="matrix(0.07407407407407406,0,0,0.07407407407407406,57.777777777777764,0)" xlink:href="#aZ"/><use transform="matrix(0.07407407407407406,0,0,0.07407407407407406,72.59259259259258,0)" xlink:href="#aT"/><use transform="matrix(0.07407407407407406,0,0,0.07407407407407406,87.40740740740739,0)" xlink:href="#aS"/><use transform="matrix(0.07407407407407406,0,0,0.07407407407407406,102.2222222222222,0)" xlink:href="#bh"/><use transform="matrix(0.07407407407407406,0,0,0.07407407407407406,124.37037037037034,0)" xlink:href="#bd"/></g><path fill="#333" d="M24 0v-248h52v208h133V0H24" id="br"/><path fill="#333" d="M195-6C206 82 75 100 31 46c-4-6-6-13-8-21l49-6c3 16 16 24 34 25 40 0 42-37 40-79-11 22-30 35-61 35-53 0-70-43-70-97 0-56 18-96 73-97 30 0 46 14 59 34l2-30h47zm-90-29c32 0 41-27 41-63 0-35-9-62-40-62-32 0-39 29-40 63 0 36 9 62 39 62" id="bs"/><path fill="#333" d="M88-194c31-1 46 15 58 34l-1-101h50l1 261h-48c-2-10 0-23-3-31C134-8 116 4 84 4 32 4 16-41 15-95c0-56 19-97 73-99zm17 164c33 0 40-30 41-66 1-37-9-64-41-64s-38 30-39 65c0 43 13 65 39 65" id="bt"/><g id="ab"><use transform="matrix(0.07407407407407407,0,0,0.07407407407407407,0,0)" xlink:href="#br"/><use transform="matrix(0.07407407407407407,0,0,0.07407407407407407,16.22222222222222,0)" xlink:href="#al"/><use transform="matrix(0.07407407407407407,0,0,0.07407407407407407,31.037037037037035,0)" xlink:href="#bs"/><use transform="matrix(0.07407407407407407,0,0,0.07407407407407407,47.259259259259245,0)" xlink:href="#al"/><use transform="matrix(0.07407407407407407,0,0,0.07407407407407407,62.07407407407406,0)" xlink:href="#ay"/><use transform="matrix(0.07407407407407407,0,0,0.07407407407407407,78.29629629629628,0)" xlink:href="#bt"/></g><path fill="#333" d="M63-220v92h138v28H63V0H30v-248h175v28H63" id="bu"/><g id="ac"><use transform="matrix(0.06172839506172839,0,0,0.06172839506172839,0,0)" xlink:href="#bu"/><use transform="matrix(0.06172839506172839,0,0,0.06172839506172839,13.518518518518517,0)" xlink:href="#aS"/><use transform="matrix(0.06172839506172839,0,0,0.06172839506172839,25.864197530864196,0)" xlink:href="#bc"/><use transform="matrix(0.06172839506172839,0,0,0.06172839506172839,36.9753086419753,0)" xlink:href="#aU"/></g><path fill="#333" d="M127-220V0H93v-220H8v-28h204v28h-85" id="bv"/><g id="ad"><use transform="matrix(0.06172839506172839,0,0,0.06172839506172839,0,0)" xlink:href="#bv"/><use transform="matrix(0.06172839506172839,0,0,0.06172839506172839,11.049382716049381,0)" xlink:href="#aS"/><use transform="matrix(0.06172839506172839,0,0,0.06172839506172839,23.39506172839506,0)" xlink:href="#bq"/><use transform="matrix(0.06172839506172839,0,0,0.06172839506172839,35.74074074074074,0)" xlink:href="#aY"/><use transform="matrix(0.06172839506172839,0,0,0.06172839506172839,40.617283950617285,0)" xlink:href="#bd"/></g><path fill="#333" d="M30-248c118-7 216 8 213 122C240-48 200 0 122 0H30v-248zM63-27c89 8 146-16 146-99s-60-101-146-95v194" id="bw"/><g id="ae"><use transform="matrix(0.06172839506172839,0,0,0.06172839506172839,0,0)" xlink:href="#bw"/><use transform="matrix(0.06172839506172839,0,0,0.06172839506172839,15.987654320987653,0)" xlink:href="#aV"/><use transform="matrix(0.06172839506172839,0,0,0.06172839506172839,20.864197530864196,0)" xlink:href="#bh"/><use transform="matrix(0.06172839506172839,0,0,0.06172839506172839,39.32098765432099,0)" xlink:href="#bd"/><use transform="matrix(0.06172839506172839,0,0,0.06172839506172839,51.666666666666664,0)" xlink:href="#aT"/><use transform="matrix(0.06172839506172839,0,0,0.06172839506172839,64.01234567901234,0)" xlink:href="#bj"/><use transform="matrix(0.06172839506172839,0,0,0.06172839506172839,75.12345679012346,0)" xlink:href="#aV"/><use transform="matrix(0.06172839506172839,0,0,0.06172839506172839,80,0)" xlink:href="#aX"/><use transform="matrix(0.06172839506172839,0,0,0.06172839506172839,92.34567901234568,0)" xlink:href="#aT"/></g></defs></g></svg>