<svg version="1.1" viewBox="0.0 0.0 600.0 371.0" fill="none" stroke="none" stroke-linecap="square" stroke-miterlimit="10" width="600" height="371" xmlns:xlink="http://www.w3.org/1999/xlink" xmlns="http://www.w3.org/2000/svg"><path fill="#ffffff" d="M0 0L600.0 0L600.0 371.0L0 371.0L0 0Z" fill-rule="nonzero"/><path stroke="#333333" stroke-width="1.0" stroke-linecap="butt" d="M117.5 236.5L581.5 236.5" fill-rule="nonzero"/><path fill="#eeeeee" d="M106.5 247.5L117.5 237.5L581.5 237.5L570.5 247.5Z" fill-rule="nonzero"/><path stroke="#cccccc" stroke-width="1.0" stroke-linecap="butt" d="M117.5 178.5L581.5 178.5" fill-rule="nonzero"/><path stroke="#cccccc" stroke-width="1.0" stroke-linecap="butt" d="M117.5 120.5L581.5 120.5" fill-rule="nonzero"/><path stroke="#cccccc" stroke-width="1.0" stroke-linecap="butt" d="M117.5 62.5L581.5 62.5" fill-rule="nonzero"/><clipPath id="id_0"><path d="M106.55 62.416668L581.45 62.416668L581.45 247.31667L106.55 247.31667L106.55 62.416668Z" clip-rule="nonzero"/></clipPath><path fill="#476799" clip-path="url(#id_0)" d="M152.0 63.0L152.0 236.0L145.0 243.0L145.0 70.0Z" fill-rule="nonzero"/><path fill="#8ab1ef" clip-path="url(#id_0)" d="M145.0 70.0L118.0 70.0L125.0 63.0L152.0 63.0Z" fill-rule="nonzero"/><path stroke="#000000" stroke-width="2.0" stroke-linecap="butt" stroke-opacity="0.0" clip-path="url(#id_0)" d="M145.0 243.0L118.0 243.0L118.0 70.0L145.0 70.0Z" fill-rule="nonzero"/><path fill="#6d9eeb" clip-path="url(#id_0)" d="M145.0 243.0L118.0 243.0L118.0 70.0L145.0 70.0Z" fill-rule="nonzero"/><path fill="#476799" clip-path="url(#id_0)" d="M194.0 213.0L194.0 236.0L187.0 243.0L187.0 220.0Z" fill-rule="nonzero"/><path fill="#8ab1ef" clip-path="url(#id_0)" d="M187.0 220.0L160.0 220.0L167.0 213.0L194.0 213.0Z" fill-rule="nonzero"/><path stroke="#000000" stroke-width="2.0" stroke-linecap="butt" stroke-opacity="0.0" clip-path="url(#id_0)" d="M187.0 243.0L160.0 243.0L160.0 220.0L187.0 220.0Z" fill-rule="nonzero"/><path fill="#6d9eeb" clip-path="url(#id_0)" d="M187.0 243.0L160.0 243.0L160.0 220.0L187.0 220.0Z" fill-rule="nonzero"/><path fill="#476799" clip-path="url(#id_0)" d="M236.0 216.0L236.0 236.0L229.0 243.0L229.0 223.0Z" fill-rule="nonzero"/><path fill="#8ab1ef" clip-path="url(#id_0)" d="M229.0 223.0L202.0 223.0L209.0 216.0L236.0 216.0Z" fill-rule="nonzero"/><path stroke="#000000" stroke-width="2.0" stroke-linecap="butt" stroke-opacity="0.0" clip-path="url(#id_0)" d="M229.0 243.0L202.0 243.0L202.0 223.0L229.0 223.0Z" fill-rule="nonzero"/><path fill="#6d9eeb" clip-path="url(#id_0)" d="M229.0 243.0L202.0 243.0L202.0 223.0L229.0 223.0Z" fill-rule="nonzero"/><path fill="#476799" clip-path="url(#id_0)" d="M278.0 217.0L278.0 236.0L271.0 243.0L271.0 224.0Z" fill-rule="nonzero"/><path fill="#8ab1ef" clip-path="url(#id_0)" d="M271.0 224.0L244.0 224.0L251.0 217.0L278.0 217.0Z" fill-rule="nonzero"/><path stroke="#000000" stroke-width="2.0" stroke-linecap="butt" stroke-opacity="0.0" clip-path="url(#id_0)" d="M271.0 243.0L244.0 243.0L244.0 224.0L271.0 224.0Z" fill-rule="nonzero"/><path fill="#6d9eeb" clip-path="url(#id_0)" d="M271.0 243.0L244.0 243.0L244.0 224.0L271.0 224.0Z" fill-rule="nonzero"/><path fill="#476799" clip-path="url(#id_0)" d="M320.0 218.0L320.0 236.0L313.0 243.0L313.0 225.0Z" fill-rule="nonzero"/><path fill="#8ab1ef" clip-path="url(#id_0)" d="M313.0 225.0L286.0 225.0L293.0 218.0L320.0 218.0Z" fill-rule="nonzero"/><path stroke="#000000" stroke-width="2.0" stroke-linecap="butt" stroke-opacity="0.0" clip-path="url(#id_0)" d="M313.0 243.0L286.0 243.0L286.0 225.0L313.0 225.0Z" fill-rule="nonzero"/><path fill="#6d9eeb" clip-path="url(#id_0)" d="M313.0 243.0L286.0 243.0L286.0 225.0L313.0 225.0Z" fill-rule="nonzero"/><path fill="#476799" clip-path="url(#id_0)" d="M362.0 219.0L362.0 236.0L355.0 243.0L355.0 226.0Z" fill-rule="nonzero"/><path fill="#8ab1ef" clip-path="url(#id_0)" d="M355.0 226.0L328.0 226.0L335.0 219.0L362.0 219.0Z" fill-rule="nonzero"/><path stroke="#000000" stroke-width="2.0" stroke-linecap="butt" stroke-opacity="0.0" clip-path="url(#id_0)" d="M355.0 243.0L328.0 243.0L328.0 226.0L355.0 226.0Z" fill-rule="nonzero"/><path fill="#6d9eeb" clip-path="url(#id_0)" d="M355.0 243.0L328.0 243.0L328.0 226.0L355.0 226.0Z" fill-rule="nonzero"/><path fill="#476799" clip-path="url(#id_0)" d="M403.0 221.0L403.0 236.0L396.0 243.0L396.0 228.0Z" fill-rule="nonzero"/><path fill="#8ab1ef" clip-path="url(#id_0)" d="M396.0 228.0L369.0 228.0L376.0 221.0L403.0 221.0Z" fill-rule="nonzero"/><path stroke="#000000" stroke-width="2.0" stroke-linecap="butt" stroke-opacity="0.0" clip-path="url(#id_0)" d="M396.0 243.0L369.0 243.0L369.0 228.0L396.0 228.0Z" fill-rule="nonzero"/><path fill="#6d9eeb" clip-path="url(#id_0)" d="M396.0 243.0L369.0 243.0L369.0 228.0L396.0 228.0Z" fill-rule="nonzero"/><path fill="#476799" clip-path="url(#id_0)" d="M445.0 221.0L445.0 236.0L438.0 243.0L438.0 228.0Z" fill-rule="nonzero"/><path fill="#8ab1ef" clip-path="url(#id_0)" d="M438.0 228.0L411.0 228.0L418.0 221.0L445.0 221.0Z" fill-rule="nonzero"/><path stroke="#000000" stroke-width="2.0" stroke-linecap="butt" stroke-opacity="0.0" clip-path="url(#id_0)" d="M438.0 243.0L411.0 243.0L411.0 228.0L438.0 228.0Z" fill-rule="nonzero"/><path fill="#6d9eeb" clip-path="url(#id_0)" d="M438.0 243.0L411.0 243.0L411.0 228.0L438.0 228.0Z" fill-rule="nonzero"/><path fill="#476799" clip-path="url(#id_0)" d="M487.0 221.0L487.0 236.0L480.0 243.0L480.0 228.0Z" fill-rule="nonzero"/><path fill="#8ab1ef" clip-path="url(#id_0)" d="M480.0 228.0L453.0 228.0L460.0 221.0L487.0 221.0Z" fill-rule="nonzero"/><path stroke="#000000" stroke-width="2.0" stroke-linecap="butt" stroke-opacity="0.0" clip-path="url(#id_0)" d="M480.0 243.0L453.0 243.0L453.0 228.0L480.0 228.0Z" fill-rule="nonzero"/><path fill="#6d9eeb" clip-path="url(#id_0)" d="M480.0 243.0L453.0 243.0L453.0 228.0L480.0 228.0Z" fill-rule="nonzero"/><path fill="#476799" clip-path="url(#id_0)" d="M529.0 222.0L529.0 236.0L522.0 243.0L522.0 229.0Z" fill-rule="nonzero"/><path fill="#8ab1ef" clip-path="url(#id_0)" d="M522.0 229.0L495.0 229.0L502.0 222.0L529.0 222.0Z" fill-rule="nonzero"/><path stroke="#000000" stroke-width="2.0" stroke-linecap="butt" stroke-opacity="0.0" clip-path="url(#id_0)" d="M522.0 243.0L495.0 243.0L495.0 229.0L522.0 229.0Z" fill-rule="nonzero"/><path fill="#6d9eeb" clip-path="url(#id_0)" d="M522.0 243.0L495.0 243.0L495.0 229.0L522.0 229.0Z" fill-rule="nonzero"/><path fill="#476799" clip-path="url(#id_0)" d="M571.0 222.0L571.0 236.0L564.0 243.0L564.0 229.0Z" fill-rule="nonzero"/><path fill="#8ab1ef" clip-path="url(#id_0)" d="M564.0 229.0L537.0 229.0L544.0 222.0L571.0 222.0Z" fill-rule="nonzero"/><path stroke="#000000" stroke-width="2.0" stroke-linecap="butt" stroke-opacity="0.0" clip-path="url(#id_0)" d="M564.0 243.0L537.0 243.0L537.0 229.0L564.0 229.0Z" fill-rule="nonzero"/><path fill="#6d9eeb" clip-path="url(#id_0)" d="M564.0 243.0L537.0 243.0L537.0 229.0L564.0 229.0Z" fill-rule="nonzero"/><path fill="#424242" d="M310.34375 343.10626L310.375 343.8094Q311.0625 342.9969 312.25 342.9969Q313.57812 342.9969 314.0625 344.0125Q314.375 343.5594 314.875 343.27814Q315.39062 342.9969 316.07812 342.9969Q318.17188 342.9969 318.20312 345.2L318.20312 349.45L317.125 349.45L317.125 345.2625Q317.125 344.59064 316.8125 344.2625Q316.5 343.91876 315.76562 343.91876Q315.15625 343.91876 314.75 344.27814Q314.35938 344.6375 314.29688 345.2469L314.29688 349.45L313.21875 349.45L313.21875 345.29376Q313.21875 343.91876 311.85938 343.91876Q310.79688 343.91876 310.40625 344.825L310.40625 349.45L309.3125 349.45L309.3125 343.10626L310.34375 343.10626ZM324.23438 349.45Q324.14062 349.2625 324.07812 348.77814Q323.32812 349.575 322.28125 349.575Q321.34375 349.575 320.73438 349.04376Q320.14062 348.5125 320.14062 347.6844Q320.14062 346.7 320.89062 346.15314Q321.64062 345.60626 323.01562 345.60626L324.0625 345.60626L324.0625 345.10626Q324.0625 344.54376 323.71875 344.21564Q323.39062 343.8719 322.71875 343.8719Q322.14062 343.8719 321.75 344.16876Q321.35938 344.45 321.35938 344.8719L320.26562 344.8719Q320.26562 344.3875 320.59375 343.95Q320.9375 343.5125 321.51562 343.2625Q322.09375 342.9969 322.78125 342.9969Q323.89062 342.9969 324.5 343.54376Q325.125 344.09064 325.15625 345.04376L325.15625 347.96564Q325.15625 348.84064 325.375 349.35626L325.375 349.45L324.23438 349.45ZM322.4375 348.6219Q322.95312 348.6219 323.40625 348.35626Q323.85938 348.09064 324.0625 347.66876L324.0625 346.3719L323.21875 346.3719Q321.21875 346.3719 321.21875 347.54376Q321.21875 348.04376 321.5625 348.34064Q321.90625 348.6219 322.4375 348.6219ZM328.34375 343.10626L328.375 343.90314Q329.10938 342.9969 330.28125 342.9969Q332.29688 342.9969 332.3125 345.2625L332.3125 349.45L331.21875 349.45L331.21875 345.2469Q331.21875 344.575 330.90625 344.2469Q330.60938 343.91876 329.95312 343.91876Q329.42188 343.91876 329.01562 344.2Q328.625 344.48126 328.40625 344.9344L328.40625 349.45L327.32812 349.45L327.32812 343.10626L328.34375 343.10626ZM338.89062 350.34064L333.53125 350.34064L333.53125 349.45L338.89062 349.45L338.89062 350.34064ZM341.85938 348.6844Q342.4375 348.6844 342.875 348.34064Q343.3125 347.98126 343.35938 347.45L344.39062 347.45Q344.35938 347.9969 344.0 348.4969Q343.65625 348.98126 343.07812 349.27814Q342.51562 349.575 341.85938 349.575Q340.5625 349.575 339.79688 348.71564Q339.04688 347.84064 339.04688 346.34064L339.04688 346.15314Q339.04688 345.23126 339.375 344.5125Q339.71875 343.79376 340.34375 343.40314Q340.98438 342.9969 341.85938 342.9969Q342.92188 342.9969 343.625 343.6375Q344.34375 344.2625 344.39062 345.29376L343.35938 345.29376Q343.3125 344.66876 342.89062 344.27814Q342.46875 343.8875 341.85938 343.8875Q341.03125 343.8875 340.57812 344.48126Q340.125 345.075 340.125 346.2L340.125 346.40314Q340.125 347.4969 340.57812 348.09064Q341.03125 348.6844 341.85938 348.6844ZM345.03125 346.21564Q345.03125 345.29376 345.39062 344.54376Q345.76562 343.79376 346.42188 343.40314Q347.07812 342.9969 347.90625 342.9969Q349.20312 342.9969 350.0 343.8875Q350.8125 344.77814 350.8125 346.27814L350.8125 346.35626Q350.8125 347.27814 350.45312 348.0125Q350.09375 348.7469 349.4375 349.16876Q348.78125 349.575 347.92188 349.575Q346.64062 349.575 345.82812 348.6844Q345.03125 347.77814 345.03125 346.29376L345.03125 346.21564ZM346.125 346.35626Q346.125 347.40314 346.60938 348.04376Q347.10938 348.6844 347.92188 348.6844Q348.75 348.6844 349.23438 348.04376Q349.71875 347.3875 349.71875 346.21564Q349.71875 345.1844 349.21875 344.54376Q348.73438 343.8875 347.90625 343.8875Q347.10938 343.8875 346.60938 344.52814Q346.125 345.15314 346.125 346.35626ZM356.23438 348.825Q355.60938 349.575 354.375 349.575Q353.35938 349.575 352.82812 348.98126Q352.29688 348.3875 352.29688 347.23126L352.29688 343.10626L353.375 343.10626L353.375 347.2Q353.375 348.65314 354.54688 348.65314Q355.79688 348.65314 356.20312 347.71564L356.20312 343.10626L357.29688 343.10626L357.29688 349.45L356.26562 349.45L356.23438 348.825ZM360.34375 343.10626L360.375 343.90314Q361.10938 342.9969 362.28125 342.9969Q364.29688 342.9969 364.3125 345.2625L364.3125 349.45L363.21875 349.45L363.21875 345.2469Q363.21875 344.575 362.90625 344.2469Q362.60938 343.91876 361.95312 343.91876Q361.42188 343.91876 361.01562 344.2Q360.625 344.48126 360.40625 344.9344L360.40625 349.45L359.32812 349.45L359.32812 343.10626L360.34375 343.10626ZM367.79688 341.575L367.79688 343.10626L368.96875 343.10626L368.96875 343.95L367.79688 343.95L367.79688 347.8719Q367.79688 348.2625 367.95312 348.45Q368.10938 348.6375 368.48438 348.6375Q368.67188 348.6375 369.0 348.575L369.0 349.45Q368.57812 349.575 368.17188 349.575Q367.45312 349.575 367.07812 349.1375Q366.70312 348.6844 366.70312 347.8719L366.70312 343.95L365.54688 343.95L365.54688 343.10626L366.70312 343.10626L366.70312 341.575L367.79688 341.575ZM373.39062 344.075Q373.14062 344.04376 372.85938 344.04376Q371.78125 344.04376 371.40625 344.95L371.40625 349.45L370.32812 349.45L370.32812 343.10626L371.375 343.10626L371.39062 343.84064Q371.92188 342.9969 372.90625 342.9969Q373.21875 342.9969 373.39062 343.075L373.39062 344.075ZM376.39062 347.85626L377.875 343.10626L379.03125 343.10626L376.48438 350.4344Q375.89062 352.0125 374.60938 352.0125L374.39062 351.9969L374.0 351.91876L374.0 351.04376L374.28125 351.0594Q374.84375 351.0594 375.14062 350.84064Q375.45312 350.6219 375.65625 350.02814L375.89062 349.3719L373.625 343.10626L374.8125 343.10626L376.39062 347.85626Z" fill-rule="nonzero"/><path fill="#424242" d="M22.675013 222.38646L24.206263 222.38646L24.206263 221.21458L25.050013 221.21458L25.050013 222.38646L28.971888 222.38646Q29.362513 222.38646 29.550013 222.23021Q29.737513 222.07396 29.737513 221.69896Q29.737513 221.51146 29.675013 221.18333L30.550013 221.18333Q30.675013 221.60521 30.675013 222.01146Q30.675013 222.73021 30.237513 223.10521Q29.784388 223.48021 28.971888 223.48021L25.050013 223.48021L25.050013 224.63646L24.206263 224.63646L24.206263 223.48021L22.675013 223.48021L22.675013 222.38646ZM27.315638 220.15208Q26.393763 220.15208 25.643763 219.79271Q24.893763 219.41771 24.503138 218.76146Q24.096888 218.10521 24.096888 217.27708Q24.096888 215.98021 24.987513 215.18333Q25.878138 214.37083 27.378138 214.37083L27.456263 214.37083Q28.378138 214.37083 29.112513 214.73021Q29.846888 215.08958 30.268763 215.74583Q30.675013 216.40208 30.675013 217.26146Q30.675013 218.54271 29.784388 219.35521Q28.878138 220.15208 27.393763 220.15208L27.315638 220.15208ZM27.456263 219.05833Q28.503138 219.05833 29.143763 218.57396Q29.784388 218.07396 29.784388 217.26146Q29.784388 216.43333 29.143763 215.94896Q28.487513 215.46458 27.315638 215.46458Q26.284388 215.46458 25.643763 215.96458Q24.987513 216.44896 24.987513 217.27708Q24.987513 218.07396 25.628138 218.57396Q26.253138 219.05833 27.456263 219.05833ZM22.675013 211.38646L24.206263 211.38646L24.206263 210.21458L25.050013 210.21458L25.050013 211.38646L28.971888 211.38646Q29.362513 211.38646 29.550013 211.23021Q29.737513 211.07396 29.737513 210.69896Q29.737513 210.51146 29.675013 210.18333L30.550013 210.18333Q30.675013 210.60521 30.675013 211.01146Q30.675013 211.73021 30.237513 212.10521Q29.784388 212.48021 28.971888 212.48021L25.050013 212.48021L25.050013 213.63646L24.206263 213.63646L24.206263 212.48021L22.675013 212.48021L22.675013 211.38646ZM30.550013 204.94896Q30.362513 205.04271 29.878138 205.10521Q30.675013 205.85521 30.675013 206.90208Q30.675013 207.83958 30.143763 208.44896Q29.612513 209.04271 28.784388 209.04271Q27.800013 209.04271 27.253138 208.29271Q26.706263 207.54271 26.706263 206.16771L26.706263 205.12083L26.206263 205.12083Q25.643763 205.12083 25.315638 205.46458Q24.971888 205.79271 24.971888 206.46458Q24.971888 207.04271 25.268763 207.43333Q25.550013 207.82396 25.971888 207.82396L25.971888 208.91771Q25.487513 208.91771 25.050013 208.58958Q24.612513 208.24583 24.362513 207.66771Q24.096888 207.08958 24.096888 206.40208Q24.096888 205.29271 24.643763 204.68333Q25.190638 204.05833 26.143763 204.02708L29.065638 204.02708Q29.940638 204.02708 30.456263 203.80833L30.550013 203.80833L30.550013 204.94896ZM29.721888 206.74583Q29.721888 206.23021 29.456263 205.77708Q29.190638 205.32396 28.768763 205.12083L27.471888 205.12083L27.471888 205.96458Q27.471888 207.96458 28.643763 207.96458Q29.143763 207.96458 29.440638 207.62083Q29.721888 207.27708 29.721888 206.74583ZM30.550013 200.68333L30.550013 201.76146L21.550013 201.76146L21.550013 200.68333L30.550013 200.68333ZM31.440638 194.29271L31.440638 199.65208L30.550013 199.65208L30.550013 194.29271L31.440638 194.29271ZM27.331263 194.12083Q25.831263 194.12083 24.971888 193.44896Q24.096888 192.76146 24.096888 191.60521Q24.096888 190.48021 24.846888 189.82396L24.206263 189.77708L24.206263 188.77708L32.98751 188.77708L32.98751 189.87083L29.956263 189.87083Q30.675013 190.52708 30.675013 191.60521Q30.675013 192.76146 29.784388 193.44896Q28.878138 194.12083 27.409388 194.12083L27.331263 194.12083ZM27.456263 193.04271Q28.534388 193.04271 29.159388 192.58958Q29.784388 192.12083 29.784388 191.33958Q29.784388 190.37083 28.925013 189.87083L25.815638 189.87083Q24.987513 190.38646 24.987513 191.32396Q24.987513 192.12083 25.612513 192.58958Q26.237513 193.04271 27.456263 193.04271ZM29.925013 182.94896Q30.675013 183.57396 30.675013 184.80833Q30.675013 185.82396 30.081263 186.35521Q29.487513 186.88646 28.331263 186.88646L24.206263 186.88646L24.206263 185.80833L28.300013 185.80833Q29.753138 185.80833 29.753138 184.63646Q29.753138 183.38646 28.815638 182.98021L24.206263 182.98021L24.206263 181.88646L30.550013 181.88646L30.550013 182.91771L29.925013 182.94896ZM30.550013 175.94896Q30.362513 176.04271 29.878138 176.10521Q30.675013 176.85521 30.675013 177.90208Q30.675013 178.83958 30.143763 179.44896Q29.612513 180.04271 28.784388 180.04271Q27.800013 180.04271 27.253138 179.29271Q26.706263 178.54271 26.706263 177.16771L26.706263 176.12083L26.206263 176.12083Q25.643763 176.12083 25.315638 176.46458Q24.971888 176.79271 24.971888 177.46458Q24.971888 178.04271 25.268763 178.43333Q25.550013 178.82396 25.971888 178.82396L25.971888 179.91771Q25.487513 179.91771 25.050013 179.58958Q24.612513 179.24583 24.362513 178.66771Q24.096888 178.08958 24.096888 177.40208Q24.096888 176.29271 24.643763 175.68333Q25.190638 175.05833 26.143763 175.02708L29.065638 175.02708Q29.940638 175.02708 30.456263 174.80833L30.550013 174.80833L30.550013 175.94896ZM29.721888 177.74583Q29.721888 177.23021 29.456263 176.77708Q29.190638 176.32396 28.768763 176.12083L27.471888 176.12083L27.471888 176.96458Q27.471888 178.96458 28.643763 178.96458Q29.143763 178.96458 29.440638 178.62083Q29.721888 178.27708 29.721888 177.74583ZM24.206263 171.83958L25.003138 171.80833Q24.096888 171.07396 24.096888 169.90208Q24.096888 167.88646 26.362513 167.87083L30.550013 167.87083L30.550013 168.96458L26.346888 168.96458Q25.675013 168.96458 25.346888 169.27708Q25.018763 169.57396 25.018763 170.23021Q25.018763 170.76146 25.300013 171.16771Q25.581263 171.55833 26.034388 171.77708L30.550013 171.77708L30.550013 172.85521L24.206263 172.85521L24.206263 171.83958ZM22.675013 164.38646L24.206263 164.38646L24.206263 163.21458L25.050013 163.21458L25.050013 164.38646L28.971888 164.38646Q29.362513 164.38646 29.550013 164.23021Q29.737513 164.07396 29.737513 163.69896Q29.737513 163.51146 29.675013 163.18333L30.550013 163.18333Q30.675013 163.60521 30.675013 164.01146Q30.675013 164.73021 30.237513 165.10521Q29.784388 165.48021 28.971888 165.48021L25.050013 165.48021L25.050013 166.63646L24.206263 166.63646L24.206263 165.48021L22.675013 165.48021L22.675013 164.38646ZM30.550013 160.68333L30.550013 161.76146L24.206263 161.76146L24.206263 160.68333L30.550013 160.68333ZM22.534388 161.85521Q22.268763 161.85521 22.081263 161.69896Q21.893763 161.52708 21.893763 161.21458Q21.893763 160.90208 22.081263 160.74583Q22.268763 160.57396 22.534388 160.57396Q22.784388 160.57396 22.971888 160.74583Q23.143763 160.90208 23.143763 161.21458Q23.143763 161.52708 22.971888 161.69896Q22.784388 161.85521 22.534388 161.85521ZM22.675013 157.38646L24.206263 157.38646L24.206263 156.21458L25.050013 156.21458L25.050013 157.38646L28.971888 157.38646Q29.362513 157.38646 29.550013 157.23021Q29.737513 157.07396 29.737513 156.69896Q29.737513 156.51146 29.675013 156.18333L30.550013 156.18333Q30.675013 156.60521 30.675013 157.01146Q30.675013 157.73021 30.237513 158.10521Q29.784388 158.48021 28.971888 158.48021L25.050013 158.48021L25.050013 159.63646L24.206263 159.63646L24.206263 158.48021L22.675013 158.48021L22.675013 157.38646ZM28.956263 152.79271L24.206263 151.30833L24.206263 150.15208L31.534388 152.69896Q33.11251 153.29271 33.11251 154.57396L33.096886 154.79271L33.01876 155.18333L32.14376 155.18333L32.159386 154.90208Q32.159386 154.33958 31.940638 154.04271Q31.721888 153.73021 31.128138 153.52708L30.471888 153.29271L24.206263 155.55833L24.206263 154.37083L28.956263 152.79271Z" fill-rule="nonzero"/><path fill="#757575" d="M99.6125 237.17604Q99.6125 239.08229 98.95625 240.01979Q98.31563 240.94167 96.925 240.94167Q95.56563 240.94167 94.90938 240.03542Q94.25313 239.12917 94.22188 237.31667L94.22188 235.87917Q94.22188 233.98854 94.8625 233.08229Q95.51875 232.16042 96.90938 232.16042Q98.28438 232.16042 98.94063 233.05104Q99.59688 233.92604 99.6125 235.76979L99.6125 237.17604ZM98.51875 235.69167Q98.51875 234.31667 98.12813 233.69167Q97.75313 233.05104 96.90938 233.05104Q96.08125 233.05104 95.69063 233.69167Q95.31563 234.31667 95.31563 235.61354L95.31563 237.34792Q95.31563 238.72292 95.70625 239.39479Q96.1125 240.05104 96.925 240.05104Q97.72188 240.05104 98.1125 239.42604Q98.50313 238.80104 98.51875 237.47292L98.51875 235.69167Z" fill-rule="nonzero"/><path fill="#757575" d="M57.846874 182.85L52.253124 182.85L52.253124 182.06876L55.20625 178.7875Q55.8625 178.0375 56.1125 177.58438Q56.3625 177.11563 56.3625 176.61563Q56.3625 175.94376 55.95625 175.52188Q55.565624 175.08438 54.878124 175.08438Q54.08125 175.08438 53.628124 175.55313Q53.175 176.00626 53.175 176.83438L52.096874 176.83438Q52.096874 175.64688 52.846874 174.92813Q53.6125 174.19376 54.878124 174.19376Q56.08125 174.19376 56.76875 174.81876Q57.45625 175.44376 57.45625 176.49063Q57.45625 177.74063 55.846874 179.49063L53.565624 181.95938L57.846874 181.95938L57.846874 182.85ZM64.6125 179.20938Q64.6125 181.11563 63.95625 182.05313Q63.315624 182.975 61.925 182.975Q60.565624 182.975 59.909374 182.06876Q59.253124 181.1625 59.221874 179.35L59.221874 177.9125Q59.221874 176.02188 59.8625 175.11563Q60.51875 174.19376 61.909374 174.19376Q63.284374 174.19376 63.940624 175.08438Q64.59688 175.95938 64.6125 177.80313L64.6125 179.20938ZM63.51875 177.725Q63.51875 176.35 63.128124 175.725Q62.753124 175.08438 61.909374 175.08438Q61.08125 175.08438 60.690624 175.725Q60.315624 176.35 60.315624 177.64688L60.315624 179.38126Q60.315624 180.75626 60.70625 181.42813Q61.1125 182.08438 61.925 182.08438Q62.721874 182.08438 63.1125 181.45938Q63.503124 180.83438 63.51875 179.50626L63.51875 177.725ZM71.6125 179.20938Q71.6125 181.11563 70.95625 182.05313Q70.31563 182.975 68.925 182.975Q67.56563 182.975 66.90938 182.06876Q66.25313 181.1625 66.22188 179.35L66.22188 177.9125Q66.22188 176.02188 66.8625 175.11563Q67.51875 174.19376 68.90938 174.19376Q70.28438 174.19376 70.94063 175.08438Q71.59688 175.95938 71.6125 177.80313L71.6125 179.20938ZM70.51875 177.725Q70.51875 176.35 70.12813 175.725Q69.75313 175.08438 68.90938 175.08438Q68.08125 175.08438 67.69063 175.725Q67.31563 176.35 67.31563 177.64688L67.31563 179.38126Q67.31563 180.75626 67.70625 181.42813Q68.1125 182.08438 68.925 182.08438Q69.72188 182.08438 70.1125 181.45938Q70.50313 180.83438 70.51875 179.50626L70.51875 177.725ZM78.6125 179.20938Q78.6125 181.11563 77.95625 182.05313Q77.31563 182.975 75.925 182.975Q74.56563 182.975 73.90938 182.06876Q73.25313 181.1625 73.22188 179.35L73.22188 177.9125Q73.22188 176.02188 73.8625 175.11563Q74.51875 174.19376 75.90938 174.19376Q77.28438 174.19376 77.94063 175.08438Q78.59688 175.95938 78.6125 177.80313L78.6125 179.20938ZM77.51875 177.725Q77.51875 176.35 77.12813 175.725Q76.75313 175.08438 75.90938 175.08438Q75.08125 175.08438 74.69063 175.725Q74.31563 176.35 74.31563 177.64688L74.31563 179.38126Q74.31563 180.75626 74.70625 181.42813Q75.1125 182.08438 75.925 182.08438Q76.72188 182.08438 77.1125 181.45938Q77.50313 180.83438 77.51875 179.50626L77.51875 177.725ZM85.6125 179.20938Q85.6125 181.11563 84.95625 182.05313Q84.31563 182.975 82.925 182.975Q81.56563 182.975 80.90938 182.06876Q80.25313 181.1625 80.22188 179.35L80.22188 177.9125Q80.22188 176.02188 80.8625 175.11563Q81.51875 174.19376 82.90938 174.19376Q84.28438 174.19376 84.94063 175.08438Q85.59688 175.95938 85.6125 177.80313L85.6125 179.20938ZM84.51875 177.725Q84.51875 176.35 84.12813 175.725Q83.75313 175.08438 82.90938 175.08438Q82.08125 175.08438 81.69063 175.725Q81.31563 176.35 81.31563 177.64688L81.31563 179.38126Q81.31563 180.75626 81.70625 181.42813Q82.1125 182.08438 82.925 182.08438Q83.72188 182.08438 84.1125 181.45938Q84.50313 180.83438 84.51875 179.50626L84.51875 177.725ZM92.6125 179.20938Q92.6125 181.11563 91.95625 182.05313Q91.31563 182.975 89.925 182.975Q88.56563 182.975 87.90938 182.06876Q87.25313 181.1625 87.22188 179.35L87.22188 177.9125Q87.22188 176.02188 87.8625 175.11563Q88.51875 174.19376 89.90938 174.19376Q91.28438 174.19376 91.94063 175.08438Q92.59688 175.95938 92.6125 177.80313L92.6125 179.20938ZM91.51875 177.725Q91.51875 176.35 91.12813 175.725Q90.75313 175.08438 89.90938 175.08438Q89.08125 175.08438 88.69063 175.725Q88.31563 176.35 88.31563 177.64688L88.31563 179.38126Q88.31563 180.75626 88.70625 181.42813Q89.1125 182.08438 89.925 182.08438Q90.72188 182.08438 91.1125 181.45938Q91.50313 180.83438 91.51875 179.50626L91.51875 177.725ZM99.6125 179.20938Q99.6125 181.11563 98.95625 182.05313Q98.31563 182.975 96.925 182.975Q95.56563 182.975 94.90938 182.06876Q94.25313 181.1625 94.22188 179.35L94.22188 177.9125Q94.22188 176.02188 94.8625 175.11563Q95.51875 174.19376 96.90938 174.19376Q98.28438 174.19376 98.94063 175.08438Q99.59688 175.95938 99.6125 177.80313L99.6125 179.20938ZM98.51875 177.725Q98.51875 176.35 98.12813 175.725Q97.75313 175.08438 96.90938 175.08438Q96.08125 175.08438 95.69063 175.725Q95.31563 176.35 95.31563 177.64688L95.31563 179.38126Q95.31563 180.75626 95.70625 181.42813Q96.1125 182.08438 96.925 182.08438Q97.72188 182.08438 98.1125 181.45938Q98.50313 180.83438 98.51875 179.50626L98.51875 177.725Z" fill-rule="nonzero"/><path fill="#757575" d="M56.83125 122.02396L58.01875 122.02396L58.01875 122.89896L56.83125 122.89896L56.83125 124.88333L55.753124 124.88333L55.753124 122.89896L51.8625 122.89896L51.8625 122.25833L55.675 116.35208L56.83125 116.35208L56.83125 122.02396ZM53.096874 122.02396L55.753124 122.02396L55.753124 117.83646L55.6125 118.07083L53.096874 122.02396ZM64.6125 121.24271Q64.6125 123.14896 63.95625 124.08646Q63.315624 125.00833 61.925 125.00833Q60.565624 125.00833 59.909374 124.10208Q59.253124 123.19583 59.221874 121.38333L59.221874 119.94583Q59.221874 118.05521 59.8625 117.14896Q60.51875 116.22708 61.909374 116.22708Q63.284374 116.22708 63.940624 117.11771Q64.59688 117.99271 64.6125 119.83646L64.6125 121.24271ZM63.51875 119.75833Q63.51875 118.38333 63.128124 117.75833Q62.753124 117.11771 61.909374 117.11771Q61.08125 117.11771 60.690624 117.75833Q60.315624 118.38333 60.315624 119.68021L60.315624 121.41458Q60.315624 122.78958 60.70625 123.46146Q61.1125 124.11771 61.925 124.11771Q62.721874 124.11771 63.1125 123.49271Q63.503124 122.86771 63.51875 121.53958L63.51875 119.75833ZM71.6125 121.24271Q71.6125 123.14896 70.95625 124.08646Q70.31563 125.00833 68.925 125.00833Q67.56563 125.00833 66.90938 124.10208Q66.25313 123.19583 66.22188 121.38333L66.22188 119.94583Q66.22188 118.05521 66.8625 117.14896Q67.51875 116.22708 68.90938 116.22708Q70.28438 116.22708 70.94063 117.11771Q71.59688 117.99271 71.6125 119.83646L71.6125 121.24271ZM70.51875 119.75833Q70.51875 118.38333 70.12813 117.75833Q69.75313 117.11771 68.90938 117.11771Q68.08125 117.11771 67.69063 117.75833Q67.31563 118.38333 67.31563 119.68021L67.31563 121.41458Q67.31563 122.78958 67.70625 123.46146Q68.1125 124.11771 68.925 124.11771Q69.72188 124.11771 70.1125 123.49271Q70.50313 122.86771 70.51875 121.53958L70.51875 119.75833ZM78.6125 121.24271Q78.6125 123.14896 77.95625 124.08646Q77.31563 125.00833 75.925 125.00833Q74.56563 125.00833 73.90938 124.10208Q73.25313 123.19583 73.22188 121.38333L73.22188 119.94583Q73.22188 118.05521 73.8625 117.14896Q74.51875 116.22708 75.90938 116.22708Q77.28438 116.22708 77.94063 117.11771Q78.59688 117.99271 78.6125 119.83646L78.6125 121.24271ZM77.51875 119.75833Q77.51875 118.38333 77.12813 117.75833Q76.75313 117.11771 75.90938 117.11771Q75.08125 117.11771 74.69063 117.75833Q74.31563 118.38333 74.31563 119.68021L74.31563 121.41458Q74.31563 122.78958 74.70625 123.46146Q75.1125 124.11771 75.925 124.11771Q76.72188 124.11771 77.1125 123.49271Q77.50313 122.86771 77.51875 121.53958L77.51875 119.75833ZM85.6125 121.24271Q85.6125 123.14896 84.95625 124.08646Q84.31563 125.00833 82.925 125.00833Q81.56563 125.00833 80.90938 124.10208Q80.25313 123.19583 80.22188 121.38333L80.22188 119.94583Q80.22188 118.05521 80.8625 117.14896Q81.51875 116.22708 82.90938 116.22708Q84.28438 116.22708 84.94063 117.11771Q85.59688 117.99271 85.6125 119.83646L85.6125 121.24271ZM84.51875 119.75833Q84.51875 118.38333 84.12813 117.75833Q83.75313 117.11771 82.90938 117.11771Q82.08125 117.11771 81.69063 117.75833Q81.31563 118.38333 81.31563 119.68021L81.31563 121.41458Q81.31563 122.78958 81.70625 123.46146Q82.1125 124.11771 82.925 124.11771Q83.72188 124.11771 84.1125 123.49271Q84.50313 122.86771 84.51875 121.53958L84.51875 119.75833ZM92.6125 121.24271Q92.6125 123.14896 91.95625 124.08646Q91.31563 125.00833 89.925 125.00833Q88.56563 125.00833 87.90938 124.10208Q87.25313 123.19583 87.22188 121.38333L87.22188 119.94583Q87.22188 118.05521 87.8625 117.14896Q88.51875 116.22708 89.90938 116.22708Q91.28438 116.22708 91.94063 117.11771Q92.59688 117.99271 92.6125 119.83646L92.6125 121.24271ZM91.51875 119.75833Q91.51875 118.38333 91.12813 117.75833Q90.75313 117.11771 89.90938 117.11771Q89.08125 117.11771 88.69063 117.75833Q88.31563 118.38333 88.31563 119.68021L88.31563 121.41458Q88.31563 122.78958 88.70625 123.46146Q89.1125 124.11771 89.925 124.11771Q90.72188 124.11771 91.1125 123.49271Q91.50313 122.86771 91.51875 121.53958L91.51875 119.75833ZM99.6125 121.24271Q99.6125 123.14896 98.95625 124.08646Q98.31563 125.00833 96.925 125.00833Q95.56563 125.00833 94.90938 124.10208Q94.25313 123.19583 94.22188 121.38333L94.22188 119.94583Q94.22188 118.05521 94.8625 117.14896Q95.51875 116.22708 96.90938 116.22708Q98.28438 116.22708 98.94063 117.11771Q99.59688 117.99271 99.6125 119.83646L99.6125 121.24271ZM98.51875 119.75833Q98.51875 118.38333 98.12813 117.75833Q97.75313 117.11771 96.90938 117.11771Q96.08125 117.11771 95.69063 117.75833Q95.31563 118.38333 95.31563 119.68021L95.31563 121.41458Q95.31563 122.78958 95.70625 123.46146Q96.1125 124.11771 96.925 124.11771Q97.72188 124.11771 98.1125 123.49271Q98.50313 122.86771 98.51875 121.53958L98.51875 119.75833Z" fill-rule="nonzero"/><path fill="#757575" d="M56.51875 58.385414L56.51875 59.291664L56.315624 59.291664Q55.05 59.322914 54.3 60.05729Q53.55 60.77604 53.425 62.08854Q54.1125 61.322914 55.26875 61.322914Q56.378124 61.322914 57.05 62.104164Q57.721874 62.885414 57.721874 64.135414Q57.721874 65.447914 57.003124 66.24479Q56.284374 67.041664 55.065624 67.041664Q53.846874 67.041664 53.08125 66.104164Q52.33125 65.15104 52.33125 63.666664L52.33125 63.260414Q52.33125 60.90104 53.33125 59.65104Q54.33125 58.40104 56.315624 58.385414L56.51875 58.385414ZM55.096874 62.229164Q54.534374 62.229164 54.065624 62.55729Q53.596874 62.885414 53.409374 63.40104L53.409374 63.791664Q53.409374 64.854164 53.878124 65.49479Q54.3625 66.135414 55.065624 66.135414Q55.8 66.135414 56.221874 65.604164Q56.64375 65.05729 56.64375 64.18229Q56.64375 63.30729 56.221874 62.77604Q55.8 62.229164 55.096874 62.229164ZM64.6125 63.27604Q64.6125 65.18229 63.95625 66.11979Q63.315624 67.041664 61.925 67.041664Q60.565624 67.041664 59.909374 66.135414Q59.253124 65.229164 59.221874 63.416664L59.221874 61.979164Q59.221874 60.08854 59.8625 59.18229Q60.51875 58.260414 61.909374 58.260414Q63.284374 58.260414 63.940624 59.15104Q64.59688 60.02604 64.6125 61.86979L64.6125 63.27604ZM63.51875 61.791664Q63.51875 60.416664 63.128124 59.791664Q62.753124 59.15104 61.909374 59.15104Q61.08125 59.15104 60.690624 59.791664Q60.315624 60.416664 60.315624 61.71354L60.315624 63.447914Q60.315624 64.822914 60.70625 65.49479Q61.1125 66.15104 61.925 66.15104Q62.721874 66.15104 63.1125 65.52604Q63.503124 64.90104 63.51875 63.572914L63.51875 61.791664ZM71.6125 63.27604Q71.6125 65.18229 70.95625 66.11979Q70.31563 67.041664 68.925 67.041664Q67.56563 67.041664 66.90938 66.135414Q66.25313 65.229164 66.22188 63.416664L66.22188 61.979164Q66.22188 60.08854 66.8625 59.18229Q67.51875 58.260414 68.90938 58.260414Q70.28438 58.260414 70.94063 59.15104Q71.59688 60.02604 71.6125 61.86979L71.6125 63.27604ZM70.51875 61.791664Q70.51875 60.416664 70.12813 59.791664Q69.75313 59.15104 68.90938 59.15104Q68.08125 59.15104 67.69063 59.791664Q67.31563 60.416664 67.31563 61.71354L67.31563 63.447914Q67.31563 64.822914 67.70625 65.49479Q68.1125 66.15104 68.925 66.15104Q69.72188 66.15104 70.1125 65.52604Q70.50313 64.90104 70.51875 63.572914L70.51875 61.791664ZM78.6125 63.27604Q78.6125 65.18229 77.95625 66.11979Q77.31563 67.041664 75.925 67.041664Q74.56563 67.041664 73.90938 66.135414Q73.25313 65.229164 73.22188 63.416664L73.22188 61.979164Q73.22188 60.08854 73.8625 59.18229Q74.51875 58.260414 75.90938 58.260414Q77.28438 58.260414 77.94063 59.15104Q78.59688 60.02604 78.6125 61.86979L78.6125 63.27604ZM77.51875 61.791664Q77.51875 60.416664 77.12813 59.791664Q76.75313 59.15104 75.90938 59.15104Q75.08125 59.15104 74.69063 59.791664Q74.31563 60.416664 74.31563 61.71354L74.31563 63.447914Q74.31563 64.822914 74.70625 65.49479Q75.1125 66.15104 75.925 66.15104Q76.72188 66.15104 77.1125 65.52604Q77.50313 64.90104 77.51875 63.572914L77.51875 61.791664ZM85.6125 63.27604Q85.6125 65.18229 84.95625 66.11979Q84.31563 67.041664 82.925 67.041664Q81.56563 67.041664 80.90938 66.135414Q80.25313 65.229164 80.22188 63.416664L80.22188 61.979164Q80.22188 60.08854 80.8625 59.18229Q81.51875 58.260414 82.90938 58.260414Q84.28438 58.260414 84.94063 59.15104Q85.59688 60.02604 85.6125 61.86979L85.6125 63.27604ZM84.51875 61.791664Q84.51875 60.416664 84.12813 59.791664Q83.75313 59.15104 82.90938 59.15104Q82.08125 59.15104 81.69063 59.791664Q81.31563 60.416664 81.31563 61.71354L81.31563 63.447914Q81.31563 64.822914 81.70625 65.49479Q82.1125 66.15104 82.925 66.15104Q83.72188 66.15104 84.1125 65.52604Q84.50313 64.90104 84.51875 63.572914L84.51875 61.791664ZM92.6125 63.27604Q92.6125 65.18229 91.95625 66.11979Q91.31563 67.041664 89.925 67.041664Q88.56563 67.041664 87.90938 66.135414Q87.25313 65.229164 87.22188 63.416664L87.22188 61.979164Q87.22188 60.08854 87.8625 59.18229Q88.51875 58.260414 89.90938 58.260414Q91.28438 58.260414 91.94063 59.15104Q92.59688 60.02604 92.6125 61.86979L92.6125 63.27604ZM91.51875 61.791664Q91.51875 60.416664 91.12813 59.791664Q90.75313 59.15104 89.90938 59.15104Q89.08125 59.15104 88.69063 59.791664Q88.31563 60.416664 88.31563 61.71354L88.31563 63.447914Q88.31563 64.822914 88.70625 65.49479Q89.1125 66.15104 89.925 66.15104Q90.72188 66.15104 91.1125 65.52604Q91.50313 64.90104 91.51875 63.572914L91.51875 61.791664ZM99.6125 63.27604Q99.6125 65.18229 98.95625 66.11979Q98.31563 67.041664 96.925 67.041664Q95.56563 67.041664 94.90938 66.135414Q94.25313 65.229164 94.22188 63.416664L94.22188 61.979164Q94.22188 60.08854 94.8625 59.18229Q95.51875 58.260414 96.90938 58.260414Q98.28438 58.260414 98.94063 59.15104Q99.59688 60.02604 99.6125 61.86979L99.6125 63.27604ZM98.51875 61.791664Q98.51875 60.416664 98.12813 59.791664Q97.75313 59.15104 96.90938 59.15104Q96.08125 59.15104 95.69063 59.791664Q95.31563 60.416664 95.31563 61.71354L95.31563 63.447914Q95.31563 64.822914 95.70625 65.49479Q96.1125 66.15104 96.925 66.15104Q97.72188 66.15104 98.1125 65.52604Q98.50313 64.90104 98.51875 63.572914L98.51875 61.791664Z" fill-rule="nonzero"/><path fill="#757575" d="M133.93355 267.64664Q133.73468 267.58032 133.34798 267.282Q133.38113 268.37582 132.64087 269.1161Q131.97797 269.779 131.17142 269.83423Q130.37593 269.87842 129.79034 269.29285Q129.0943 268.5968 129.23793 267.67978Q129.38156 266.76276 130.35382 265.79047L131.09409 265.05023L130.74052 264.69666Q130.34277 264.29892 129.86769 264.30997Q129.39261 264.29892 128.91751 264.77402Q128.50871 265.1828 128.44243 265.66895Q128.36508 266.144 128.6634 266.44232L127.89 267.21573Q127.54749 266.87323 127.47015 266.33185Q127.40386 265.77942 127.63589 265.19385Q127.85686 264.59723 128.34299 264.11108Q129.12744 263.32663 129.94502 263.28244Q130.77367 263.2272 131.46973 263.87906L133.53581 265.94516Q134.15453 266.56387 134.67381 266.7738L134.7401 266.8401L133.93355 267.64664ZM132.0774 268.33163Q132.442 267.96704 132.57458 267.4588Q132.70717 266.95056 132.55249 266.50864L131.63545 265.59158L131.03883 266.18823Q129.62462 267.60242 130.45326 268.43106Q130.80682 268.78464 131.25981 268.75146Q131.70175 268.70728 132.0774 268.33163ZM136.94981 264.63037L136.18745 265.39273L129.8235 259.02875L130.58585 258.26642L136.94981 264.63037ZM139.07112 262.50906L138.30878 263.2714L131.94481 256.90744L132.70717 256.14508L139.07112 262.50906Z" fill-rule="nonzero"/><path fill="#757575" d="M144.54073 295.05807Q145.38042 296.1187 145.31412 297.24567Q145.23679 298.36157 144.25346 299.3449Q143.18175 300.41663 141.7786 300.29507Q140.36438 300.1625 139.0717 298.8698L138.49718 298.2953Q137.65749 297.4556 137.31497 296.51648Q136.97247 295.57736 137.18239 294.6824Q137.39232 293.78748 138.11047 293.06934Q139.0717 292.1081 140.18759 292.07495Q141.31454 292.03076 142.35312 292.87045L141.55762 293.66595Q140.72897 293.0583 140.06607 293.08038Q139.40315 293.10248 138.77339 293.73224Q138.01103 294.4946 138.14362 295.48895Q138.2762 296.48334 139.31476 297.52188L139.90033 298.10745Q140.88365 299.0908 141.87802 299.26758Q142.86134 299.4333 143.6016 298.69305Q144.26451 298.03012 144.31975 297.37827Q144.36395 296.71536 143.74522 295.85358L144.54073 295.05807ZM150.3191 293.10248Q150.12024 293.0362 149.73354 292.73788Q149.7667 293.83167 149.02643 294.57193Q148.36353 295.23483 147.55698 295.2901Q146.76147 295.3343 146.1759 294.74872Q145.47986 294.05264 145.62349 293.13562Q145.76712 292.2186 146.73938 291.2463L147.47964 290.50607L147.12608 290.15253Q146.72833 289.75476 146.25325 289.7658Q145.77817 289.75476 145.30307 290.22986Q144.89427 290.63864 144.82799 291.1248Q144.75064 291.59988 145.04895 291.8982L144.27556 292.67157Q143.93306 292.32907 143.85571 291.7877Q143.78943 291.23526 144.02144 290.6497Q144.24242 290.05307 144.72855 289.56696Q145.513 288.7825 146.33058 288.7383Q147.15923 288.68304 147.85529 289.33493L149.92137 291.401Q150.54008 292.0197 151.05937 292.22964L151.12566 292.29593L150.3191 293.10248ZM148.46295 293.78748Q148.82756 293.42288 148.96014 292.91464Q149.09273 292.4064 148.93805 291.96448L148.02101 291.04745L147.4244 291.64407Q146.01018 293.0583 146.83882 293.88693Q147.19238 294.24048 147.64537 294.20734Q148.08731 294.16315 148.46295 293.78748ZM148.73917 285.711L149.25845 286.1861Q149.17006 285.12543 150.00975 284.28574Q150.94888 283.34662 152.00954 283.72226Q151.91011 283.18088 152.06479 282.62845Q152.23051 282.06497 152.71664 281.57886Q154.19716 280.09833 155.7771 281.6341L158.7823 284.63928L158.01994 285.40164L155.05894 282.44064Q154.58385 281.96555 154.13086 281.9545Q153.66682 281.9324 153.14754 282.4517Q152.71664 282.88257 152.6835 283.42395Q152.6614 283.95428 153.0481 284.42938L156.02016 287.40143L155.25781 288.1638L152.3189 285.22485Q151.34663 284.2526 150.3854 285.2138Q149.63411 285.96512 149.9987 286.88214L153.26907 290.15253L152.49568 290.9259L148.00996 286.44022L148.73917 285.711ZM161.88693 277.15942Q162.91446 278.18695 163.06914 279.2918Q163.22382 280.37454 162.42831 281.17004Q161.57758 282.02078 160.50587 281.87717L160.98096 282.44064L160.2849 283.1367L153.92094 276.77274L154.68329 276.01038L157.05873 278.3858Q156.94824 277.34726 157.76584 276.52966Q158.58342 275.71207 159.66618 275.86676Q160.73788 276.01038 161.82065 277.09314L161.88693 277.15942ZM161.0362 277.83337Q160.25175 277.04895 159.52255 276.93845Q158.79335 276.80588 158.22987 277.36935Q157.46751 278.1317 157.83212 279.1592L159.77667 281.10376Q160.83733 281.4573 161.57758 280.71707Q162.13 280.16464 162.00847 279.42438Q161.88693 278.6841 161.0362 277.83337ZM162.73767 276.1098Q162.08582 275.45795 161.8096 274.6735Q161.54443 273.87802 161.73225 273.13776Q161.90904 272.38644 162.49461 271.80087Q163.41164 270.88385 164.60487 270.95013Q165.80917 271.0054 166.86983 272.06604L166.92508 272.12128Q167.57693 272.77316 167.8421 273.54654Q168.10727 274.31995 167.94154 275.0823Q167.76477 275.8336 167.15709 276.44128Q166.25111 277.34726 165.04681 277.29202Q163.84253 277.21466 162.79292 276.16507L162.73767 276.1098ZM163.6105 275.43585Q164.35077 276.17612 165.14626 276.2866Q165.9528 276.38602 166.52733 275.8115Q167.1129 275.22592 167.00241 274.43045Q166.88087 273.6239 166.05225 272.79526Q165.32303 272.06604 164.5165 271.9666Q163.70995 271.8451 163.12437 272.43066Q162.5609 272.99414 162.66034 273.80066Q162.75977 274.5851 163.6105 275.43585ZM167.72057 271.14902Q166.682 270.11044 166.54942 269.0056Q166.40579 267.8897 167.2013 267.0942Q167.98573 266.30975 168.9801 266.37604L166.64886 264.0448L167.41121 263.28247L173.77518 269.64642L173.06807 270.35352L172.54878 269.90054Q172.65927 270.9391 171.84167 271.75668Q171.06828 272.5301 169.93028 272.38644Q168.80333 272.23178 167.77582 271.20425L167.72057 271.14902ZM168.5713 270.47507Q169.33366 271.2374 170.07391 271.35895Q170.82521 271.46942 171.37764 270.917Q172.10684 270.1878 171.78644 269.18237L169.7314 267.12735Q168.75912 266.8401 168.04097 267.55826Q167.47751 268.1217 167.58798 268.87302Q167.70952 269.61328 168.5713 270.47507ZM175.96278 267.4588L175.20044 268.22116L170.71472 263.73544L171.47708 262.97308L175.96278 267.4588ZM169.46623 262.61954Q169.27841 262.43173 169.25632 262.18866Q169.24527 261.93454 169.46623 261.71356Q169.68721 261.49258 169.93028 261.51468Q170.18439 261.52573 170.37222 261.71356Q170.549 261.89035 170.56004 262.14447Q170.57109 262.37646 170.35013 262.59744Q170.12915 262.81842 169.88608 262.81842Q169.64302 262.79633 169.46623 262.61954ZM180.0176 263.404Q179.81873 263.3377 179.43202 263.0394Q179.46516 264.1332 178.72491 264.87344Q178.06201 265.53635 177.25546 265.5916Q176.45996 265.6358 175.87439 265.05023Q175.17833 264.35416 175.32196 263.43713Q175.46559 262.5201 176.43787 261.54782L177.17812 260.8076L176.82457 260.45404Q176.42682 260.05627 175.95174 260.06732Q175.47665 260.05627 175.00156 260.53137Q174.59276 260.94016 174.52647 261.4263Q174.44913 261.9014 174.74744 262.1997L173.97404 262.97308Q173.63155 262.63058 173.5542 262.0892Q173.48792 261.53677 173.71992 260.9512Q173.9409 260.35458 174.42703 259.86847Q175.21149 259.084 176.02907 259.03983Q176.85771 258.9846 177.55377 259.63644L179.61986 261.7025Q180.23857 262.32123 180.75784 262.53116L180.82414 262.59744L180.0176 263.404ZM178.16144 264.089Q178.52605 263.7244 178.65863 263.21616Q178.79121 262.70795 178.63654 262.266L177.7195 261.34897L177.12288 261.9456Q175.70866 263.3598 176.53731 264.18845Q176.89085 264.542 177.34386 264.50885Q177.7858 264.46466 178.16144 264.089Z" fill-rule="nonzero"/><path fill="#757575" d="M205.92702 279.336L205.13152 280.13147L199.09901 274.09897L199.8945 273.3035L205.92702 279.336ZM203.3085 272.98306L203.89407 273.52444Q203.77255 272.36435 204.60118 271.5357Q206.02644 270.11044 207.63954 271.70145L210.60054 274.66245L209.82715 275.43585L206.85509 272.4638Q206.38 271.9887 205.92702 271.97766Q205.48508 271.95557 205.02103 272.4196Q204.64539 272.79526 204.55699 273.28137Q204.47966 273.75647 204.64539 274.23157L207.83841 277.4246L207.07607 278.18695L202.59035 273.70123L203.3085 272.98306ZM209.56198 271.14902Q208.52342 270.11044 208.39084 269.00558Q208.24721 267.8897 209.0427 267.0942Q209.82715 266.30975 210.82152 266.37604L208.49028 264.0448L209.25262 263.28244L215.61658 269.64642L214.90948 270.35352L214.3902 269.90054Q214.50069 270.9391 213.68309 271.75668Q212.9097 272.5301 211.7717 272.38644Q210.64474 272.23178 209.61722 271.20425L209.56198 271.14902ZM210.41272 270.47507Q211.17506 271.2374 211.91533 271.35895Q212.66663 271.46942 213.21906 270.917Q213.94826 270.1878 213.62785 269.18237L211.57281 267.12735Q210.60054 266.8401 209.88239 267.55823Q209.31891 268.1217 209.4294 268.87302Q209.55093 269.61328 210.41272 270.47507ZM217.8042 267.4588L217.04184 268.22116L212.55614 263.73544L213.31848 262.97308L217.8042 267.4588ZM211.30765 262.61954Q211.11983 262.4317 211.09773 262.18866Q211.08669 261.93454 211.30765 261.71356Q211.52863 261.49258 211.7717 261.51468Q212.0258 261.52573 212.21364 261.71356Q212.39041 261.89035 212.40146 262.14444Q212.4125 262.37646 212.19154 262.59744Q211.97057 262.81842 211.7275 262.81842Q211.48444 262.79633 211.30765 262.61954ZM221.85901 263.404Q221.66014 263.3377 221.27344 263.0394Q221.30658 264.13318 220.56633 264.87344Q219.90341 265.53635 219.09688 265.5916Q218.30138 265.6358 217.7158 265.05023Q217.01974 264.35416 217.16338 263.43713Q217.307 262.5201 218.27928 261.54782L219.01953 260.8076L218.66599 260.45404Q218.26823 260.05627 217.79315 260.06732Q217.31805 260.05627 216.84297 260.53137Q216.43417 260.94016 216.36789 261.4263Q216.29054 261.9014 216.58885 262.1997L215.81546 262.97308Q215.47295 262.63058 215.39561 262.0892Q215.32932 261.53677 215.56134 260.9512Q215.78232 260.35458 216.26845 259.86844Q217.0529 259.084 217.87048 259.03983Q218.69913 258.98456 219.39519 259.63644L221.46126 261.7025Q222.07999 262.32123 222.59926 262.53116L222.66556 262.59744L221.85901 263.404ZM220.00285 264.089Q220.36746 263.7244 220.50005 263.21616Q220.63263 262.70792 220.47795 262.266L219.56091 261.34897L218.9643 261.9456Q217.55008 263.3598 218.37872 264.18845Q218.73227 264.542 219.18526 264.50885Q219.62721 264.46466 220.00285 264.089Z" fill-rule="nonzero"/><path fill="#757575" d="M237.6811 284.0979L235.13994 286.63907L237.80264 289.30176L237.00714 290.09726L230.97464 284.06476L234.7201 280.3193L235.37196 280.97116L232.422 283.92114L234.48808 285.9872L237.02924 283.44604L237.6811 284.0979ZM242.67505 284.42935L241.9127 285.1917L237.42699 280.706L238.18933 279.94366L242.67505 284.42935ZM236.1785 279.5901Q235.99068 279.40228 235.96858 279.1592Q235.95753 278.9051 236.1785 278.6841Q236.39948 278.46313 236.64255 278.48526Q236.89665 278.4963 237.08449 278.6841Q237.26126 278.8609 237.27231 279.11502Q237.28336 279.34705 237.0624 279.568Q236.84142 279.78897 236.59834 279.78897Q236.35529 279.76688 236.1785 279.5901ZM240.20018 277.93283L240.78575 278.47418Q240.66422 277.3141 241.49286 276.48547Q242.9181 275.0602 244.53119 276.65118L247.4922 279.6122L246.71881 280.3856L243.74675 277.41354Q243.27167 276.93845 242.81868 276.9274Q242.37674 276.9053 241.9127 277.36935Q241.53705 277.745 241.44865 278.23114Q241.37132 278.7062 241.53705 279.1813L244.73007 282.37433L243.96773 283.1367L239.48203 278.65097L240.20018 277.93283ZM249.74611 277.3583L248.98375 278.12067L242.6198 271.75668L243.38214 270.99435L249.74611 277.3583ZM253.80092 273.3035Q253.60205 273.23718 253.21535 272.93887Q253.24849 274.03268 252.50824 274.77295Q251.84532 275.43585 251.03879 275.4911Q250.24329 275.5353 249.65771 274.9497Q248.96165 274.25366 249.10529 273.33664Q249.24892 272.41962 250.22119 271.44733L250.96144 270.7071L250.6079 270.35352Q250.21014 269.95578 249.73506 269.96683Q249.25996 269.95578 248.78488 270.43088Q248.37608 270.83966 248.3098 271.3258Q248.23245 271.80087 248.53076 272.0992L247.75737 272.8726Q247.41486 272.5301 247.33752 271.9887Q247.27122 271.43628 247.50325 270.8507Q247.72423 270.2541 248.21036 269.76794Q248.9948 268.98352 249.8124 268.9393Q250.64104 268.88406 251.3371 269.53595L253.40317 271.60202Q254.0219 272.22073 254.54117 272.43066L254.60747 272.49695L253.80092 273.3035ZM251.94476 273.9885Q252.30937 273.6239 252.44196 273.11566Q252.57452 272.60742 252.41985 272.1655L251.50282 271.24847L250.9062 271.8451Q249.49199 273.2593 250.32063 274.08792Q250.67418 274.4415 251.12717 274.40836Q251.5691 274.36414 251.94476 273.9885ZM252.22098 265.91202L252.80655 266.4534Q252.68501 265.2933 253.51366 264.46466Q254.93892 263.0394 256.552 264.63037L259.51303 267.5914L258.73962 268.36478L255.76756 265.39273Q255.29248 264.91763 254.83948 264.9066Q254.39754 264.8845 253.9335 265.34854Q253.55785 265.72418 253.46947 266.21033Q253.39212 266.68542 253.55785 267.1605L256.7509 270.35352L255.98853 271.11588L251.50282 266.63016L252.22098 265.91202ZM258.47446 264.07794Q257.43588 263.0394 257.3033 261.93454Q257.15967 260.81863 257.95517 260.02313Q258.73962 259.23868 259.73398 259.305L257.40274 256.97375L258.1651 256.2114L264.52905 262.57535L263.82196 263.28247L263.30267 262.82947Q263.41315 263.86804 262.59555 264.68564Q261.82217 265.459 260.68417 265.3154Q259.55722 265.1607 258.5297 264.1332L258.47446 264.07794ZM259.3252 263.404Q260.08755 264.16635 260.8278 264.28787Q261.5791 264.39838 262.13153 263.84595Q262.86072 263.11673 262.5403 262.11133L260.4853 260.05627Q259.51303 259.769 258.79486 260.48718Q258.23138 261.05066 258.34186 261.80194Q258.4634 262.5422 259.3252 263.404Z" fill-rule="nonzero"/><path fill="#757575" d="M265.81128 303.13455L265.01578 303.93002L257.326 302.31696L261.97742 306.96838L261.1709 307.77493L255.13838 301.74243L255.94493 300.93588L263.6568 302.57108L258.98328 297.89752L259.77878 297.10205L265.81128 303.13455ZM269.3689 299.7537Q268.45187 300.67072 267.28073 300.64862Q266.1096 300.60443 265.10416 299.599L264.9716 299.46643Q264.29764 298.79245 264.03247 298.01907Q263.75626 297.23462 263.92197 296.49435Q264.0877 295.73203 264.61804 295.2017Q265.49088 294.32886 266.55154 294.41724Q267.61218 294.5056 268.6839 295.57733L269.0043 295.89774L265.96594 298.9361Q266.65097 299.5769 267.42438 299.6211Q268.2088 299.65424 268.78333 299.0797Q269.1811 298.68198 269.29156 298.24005Q269.41312 297.78705 269.35785 297.28986L270.1865 297.19043Q270.49585 298.62674 269.3689 299.7537ZM265.2478 295.83145Q264.78375 296.2955 264.80585 296.9584Q264.82794 297.5992 265.36932 298.2732L267.61218 296.03033L267.55695 295.9751Q266.93823 295.42267 266.33057 295.38953Q265.73395 295.3453 265.2478 295.83145ZM267.13712 290.67178L268.21985 291.75455L269.0485 290.9259L269.6451 291.52252L268.81647 292.35117L271.58966 295.12436Q271.86588 295.40057 272.10895 295.42267Q272.35202 295.44476 272.6172 295.1796Q272.74976 295.047 272.9376 294.77078L273.5563 295.38953Q273.34637 295.7762 273.0591 296.06348Q272.5509 296.57172 271.97635 296.52753Q271.39078 296.47226 270.81625 295.89774L268.0431 293.12457L267.2255 293.94214L266.62888 293.34552L267.44647 292.52795L266.3637 291.4452L267.13712 290.67178ZM271.31345 289.7437Q271.20297 288.61676 272.02057 287.79916Q273.44583 286.3739 275.0589 287.9649L278.01993 290.9259L277.24652 291.6993L274.27448 288.72723Q273.79938 288.25217 273.34637 288.24112Q272.90445 288.219 272.4404 288.68304Q272.06476 289.0587 271.97635 289.54483Q271.89902 290.01993 272.06476 290.495L275.25778 293.68805L274.49542 294.45038L268.13147 288.08643L268.89383 287.32407L271.31345 289.7437ZM281.3897 287.73288Q280.4727 288.6499 279.30154 288.6278Q278.1304 288.58362 277.125 287.5782L276.9924 287.44562Q276.31845 286.77164 276.05328 285.99826Q275.77707 285.2138 275.94278 284.47354Q276.10852 283.7112 276.63885 283.18088Q277.5117 282.30804 278.57236 282.39642Q279.633 282.4848 280.7047 283.55652L281.02512 283.87692L277.9868 286.91528Q278.67178 287.5561 279.4452 287.60028Q280.2296 287.63342 280.80414 287.0589Q281.2019 286.66116 281.31238 286.2192Q281.43393 285.76624 281.37866 285.26904L282.2073 285.16962Q282.51666 286.60593 281.3897 287.73288ZM277.26862 283.81064Q276.80457 284.2747 276.82666 284.9376Q276.8488 285.5784 277.39014 286.25238L279.633 284.00952L279.57776 283.95428Q278.95905 283.40186 278.35138 283.36868Q277.75476 283.3245 277.26862 283.81064ZM282.05264 279.29178Q281.85376 279.44647 281.65488 279.64532Q280.89255 280.40768 281.2682 281.31366L284.45016 284.49564L283.6878 285.258L279.20212 280.77228L279.94235 280.03204L280.4727 280.54028Q280.2517 279.568 280.94778 278.87195Q281.16876 278.65097 281.34552 278.5847L282.05264 279.29178ZM287.34488 281.60092L286.58255 282.36328L280.21857 275.99933L280.98093 275.23697L287.34488 281.60092ZM291.3997 277.5461Q291.20084 277.47983 290.81412 277.18152Q290.8473 278.27533 290.10703 279.01556Q289.44412 279.6785 288.63757 279.73373Q287.84207 279.77792 287.2565 279.19235Q286.56046 278.49628 286.70407 277.57925Q286.84772 276.66223 287.81998 275.68997L288.56024 274.9497L288.20667 274.59616Q287.80893 274.1984 287.33383 274.20944Q286.85876 274.1984 286.38367 274.6735Q285.97485 275.08228 285.90857 275.56842Q285.83124 276.04352 286.12955 276.34183L285.35614 277.11523Q285.01364 276.7727 284.9363 276.23132Q284.87003 275.67892 285.10202 275.09335Q285.323 274.4967 285.80914 274.0106Q286.5936 273.22614 287.4112 273.18195Q288.2398 273.1267 288.93588 273.77856L291.00195 275.84464Q291.62067 276.46335 292.13995 276.67328L292.20624 276.73956L291.3997 277.5461ZM289.54355 278.2311Q289.90814 277.86652 290.04074 277.35828Q290.1733 276.85007 290.01865 276.4081L289.1016 275.4911L288.50497 276.0877Q287.09076 277.50192 287.9194 278.33057Q288.27298 278.6841 288.72595 278.65097Q289.1679 278.60678 289.54355 278.2311ZM289.81976 270.15463L290.40533 270.696Q290.2838 269.53592 291.11243 268.70728Q292.5377 267.282 294.1508 268.87302L297.1118 271.834L296.3384 272.60742L293.36633 269.63535Q292.89127 269.16028 292.43826 269.14923Q291.99634 269.12714 291.5323 269.59116Q291.15665 269.96683 291.06824 270.45294Q290.9909 270.92804 291.15665 271.40314L294.34967 274.59616L293.5873 275.3585L289.1016 270.8728L289.81976 270.15463ZM296.07324 268.3206Q295.03467 267.282 294.9021 266.17715Q294.75845 265.06125 295.55396 264.26578Q296.3384 263.48132 297.33276 263.5476L295.00153 261.21637L295.7639 260.454L302.12784 266.818L301.42075 267.5251L300.90146 267.07208Q301.01193 268.11066 300.19434 268.92825Q299.42096 269.70166 298.28296 269.558Q297.156 269.40335 296.12848 268.37582L296.07324 268.3206ZM296.92398 267.6466Q297.6863 268.40897 298.42657 268.53052Q299.1779 268.641 299.73032 268.08856Q300.4595 267.35934 300.1391 266.35394L298.08408 264.29892Q297.1118 264.01166 296.39365 264.7298Q295.83017 265.29327 295.94064 266.0446Q296.0622 266.78482 296.92398 267.6466ZM304.90103 261.6583Q304.59167 261.34894 304.18286 261.4263Q303.77408 261.48154 303.06696 261.94556Q302.3709 262.39856 301.85162 262.5643Q301.33234 262.73 300.9346 262.66373Q300.53683 262.57535 300.20538 262.2439Q299.65295 261.69147 299.74136 260.85178Q299.8187 260.00104 300.5479 259.27182Q301.31024 258.50946 302.17203 258.44318Q303.0338 258.3548 303.64148 258.96246L302.87915 259.72482Q302.5698 259.41547 302.0726 259.4707Q301.5754 259.50385 301.17767 259.90158Q300.7578 260.32144 300.70258 260.75232Q300.64734 261.16113 300.9346 261.4484Q301.21082 261.7246 301.5754 261.64725Q301.94 261.56992 302.64713 261.128Q303.34317 260.675 303.8735 260.4982Q304.40384 260.32144 304.82367 260.40982Q305.25458 260.48715 305.60812 260.84073Q306.2158 261.4484 306.09427 262.29913Q305.9838 263.13882 305.22144 263.90115Q304.68005 264.44254 304.0724 264.67456Q303.46472 264.8845 302.8902 264.774Q302.31567 264.6635 301.9179 264.26578L302.68027 263.50342Q303.08905 263.868 303.60834 263.81277Q304.11658 263.7465 304.59167 263.2714Q305.02255 262.8405 305.11093 262.39856Q305.19934 261.95663 304.90103 261.6583Z" fill-rule="nonzero"/><path fill="#757575" d="M296.99084 301.73138L301.08984 305.83038Q301.92953 306.69217 301.95163 307.77493Q301.96268 308.84665 301.123 309.8189L300.91306 310.05093Q299.92975 311.03427 298.8028 311.10056Q297.67584 311.14474 296.73672 310.20563L292.62665 306.09555L293.4111 305.3111L297.49905 309.39908Q298.15094 310.05093 298.86908 310.06198Q299.5983 310.06198 300.2612 309.39908Q300.94623 308.71405 300.93515 307.9959Q300.9241 307.27774 300.27225 306.6259L296.1843 302.53793L296.99084 301.73138ZM300.54846 301.26733L301.13403 301.80872Q301.0125 300.64862 301.84116 299.81998Q303.26642 298.3947 304.8795 299.98572L307.8405 302.94672L307.0671 303.72012L304.09506 300.74808Q303.61996 300.27298 303.16696 300.26193Q302.72504 300.23984 302.261 300.70386Q301.88535 301.07953 301.79697 301.56564Q301.7196 302.04074 301.88535 302.51584L305.07837 305.70886L304.316 306.47122L299.83032 301.9855L300.54846 301.26733ZM310.09442 300.6928L309.33206 301.45517L304.84634 296.96945L305.6087 296.20712L310.09442 300.6928ZM303.59787 295.85355Q303.41003 295.66574 303.38794 295.42267Q303.3769 295.16855 303.59787 294.94757Q303.81885 294.7266 304.0619 294.74872Q304.316 294.75977 304.50385 294.94757Q304.68063 295.12436 304.69168 295.37848Q304.70273 295.6105 304.48175 295.83145Q304.26077 296.05243 304.0177 296.05243Q303.77463 296.03033 303.59787 295.85355ZM306.85718 292.79312L307.93994 293.87585L308.7686 293.04724L309.3652 293.64386L308.53656 294.4725L311.30975 297.24567Q311.58597 297.52188 311.82904 297.54398Q312.07208 297.56607 312.33725 297.3009Q312.46985 297.16833 312.65768 296.89212L313.2764 297.51083Q313.06647 297.89755 312.7792 298.1848Q312.27097 298.69302 311.69644 298.64883Q311.11087 298.5936 310.53635 298.01907L307.76315 295.24588L306.9456 296.06348L306.34894 295.46686L307.16653 294.64926L306.0838 293.5665L306.85718 292.79312ZM316.16006 294.80396Q315.24304 295.72098 314.07187 295.69888Q312.90073 295.6547 311.89532 294.64926L311.76273 294.5167Q311.08878 293.8427 310.8236 293.06934Q310.5474 292.28488 310.71313 291.54462Q310.87885 290.7823 311.40918 290.25195Q312.282 289.37912 313.34268 289.4675Q314.40335 289.55588 315.47504 290.6276L315.79547 290.948L312.7571 293.98636Q313.4421 294.62717 314.2155 294.67136Q314.99997 294.7045 315.5745 294.12997Q315.97223 293.73224 316.08273 293.29028Q316.20425 292.8373 316.14902 292.34012L316.97766 292.2407Q317.28702 293.677 316.16006 294.80396ZM312.03894 290.8817Q311.57492 291.34576 311.59702 292.00867Q311.6191 292.64948 312.1605 293.32346L314.40335 291.0806L314.34808 291.02533Q313.72937 290.47293 313.1217 290.43976Q312.5251 290.39557 312.03894 290.8817ZM315.99432 290.2409Q314.95578 289.20233 314.82318 288.09747Q314.67957 286.98157 315.47504 286.1861Q316.2595 285.40164 317.25388 285.46793L314.9226 283.1367L315.68497 282.37433L322.04892 288.73828L321.34183 289.4454L320.82254 288.9924Q320.933 290.03098 320.11545 290.84857Q319.34204 291.62198 318.20404 291.47833Q317.0771 291.32367 316.04956 290.29614L315.99432 290.2409ZM316.84506 289.56693Q317.60742 290.32928 318.34766 290.4508Q319.09897 290.5613 319.6514 290.00888Q320.3806 289.27966 320.06018 288.27426L318.00516 286.21924Q317.0329 285.93198 316.31473 286.65012Q315.75125 287.2136 315.86176 287.9649Q315.98328 288.70514 316.84506 289.56693ZM324.73373 280.6839Q323.41895 281.40207 322.51297 281.44626Q321.61804 281.4794 320.98828 280.84964Q320.28116 280.14252 320.3806 279.11502Q320.48004 278.0654 321.39706 277.14838Q322.01578 276.52966 322.745 276.2866Q323.47418 276.04352 324.1592 276.1982Q324.85526 276.34183 325.3635 276.85007L324.55695 277.65662Q324.00452 277.1042 323.3416 277.14838Q322.68976 277.18152 322.05997 277.81128Q321.4744 278.39685 321.4081 278.99347Q321.33078 279.57904 321.78375 280.03204Q322.15942 280.40768 322.7229 280.35245Q323.29742 280.28616 324.25864 279.74478Q325.21985 279.2034 325.89383 279.0377Q326.57883 278.8609 327.1202 279.00452Q327.67264 279.13712 328.12564 279.5901Q328.86588 280.33035 328.7333 281.34683Q328.6007 282.36328 327.65054 283.31345Q327.02078 283.94324 326.23633 284.24155Q325.46292 284.5288 324.75583 284.4183Q324.0487 284.28574 323.52945 283.76645L324.32492 282.97095Q324.8663 283.51233 325.59552 283.42395Q326.3247 283.33557 326.9987 282.6616Q327.62845 282.03183 327.70578 281.44626Q327.77206 280.84964 327.33014 280.40768Q326.88818 279.96576 326.33575 280.03204Q325.78333 280.09833 324.73373 280.6839ZM325.94907 273.70123L327.03183 274.784L327.86047 273.95535L328.4571 274.55197L327.62845 275.3806L330.40164 278.15378Q330.67786 278.43 330.9209 278.4521Q331.16397 278.4742 331.42914 278.20905Q331.56174 278.07645 331.74954 277.80023L332.3683 278.41895Q332.15836 278.80566 331.8711 279.09293Q331.36285 279.60117 330.78833 279.55695Q330.20276 279.5017 329.62823 278.9272L326.85504 276.154L326.03745 276.9716L325.44083 276.37497L326.25842 275.55737L325.17566 274.47464L325.94907 273.70123ZM336.06952 274.71768Q335.87067 274.6514 335.48395 274.3531Q335.51712 275.4469 334.77686 276.18716Q334.11395 276.85007 333.3074 276.9053Q332.5119 276.9495 331.92633 276.36392Q331.2303 275.66788 331.3739 274.75085Q331.51755 273.8338 332.4898 272.86154L333.23007 272.12128L332.8765 271.76773Q332.47876 271.37 332.00366 271.38104Q331.5286 271.37 331.0535 271.84506Q330.64468 272.25388 330.5784 272.74Q330.50107 273.2151 330.79938 273.5134L330.02597 274.2868Q329.68347 273.9443 329.60614 273.40292Q329.53986 272.8505 329.77185 272.26492Q329.99283 271.6683 330.47897 271.18216Q331.26343 270.3977 332.08102 270.35352Q332.90964 270.29828 333.6057 270.95013L335.67178 273.0162Q336.2905 273.63495 336.80978 273.84485L336.87607 273.91116L336.06952 274.71768ZM334.21338 275.4027Q334.57797 275.03812 334.71057 274.52988Q334.84314 274.02164 334.68848 273.57968L333.77142 272.66266L333.1748 273.25928Q331.7606 274.6735 332.58923 275.50214Q332.9428 275.85568 333.39578 275.82254Q333.83774 275.77835 334.21338 275.4027ZM333.72723 265.92307L334.81 267.0058L335.63864 266.1772L336.23526 266.7738L335.40662 267.60245L338.1798 270.3756Q338.45602 270.65182 338.6991 270.67392Q338.94217 270.696 339.2073 270.43085Q339.3399 270.29828 339.52774 270.02206L340.14645 270.64078Q339.93652 271.02747 339.64926 271.31473Q339.14102 271.82297 338.5665 271.77878Q337.98093 271.72354 337.4064 271.14902L334.6332 268.37582L333.81564 269.19342L333.219 268.5968L334.0366 267.7792L332.95386 266.69644L333.72723 265.92307ZM343.03012 267.9339Q342.1131 268.85092 340.94196 268.82883Q339.77078 268.78464 338.76538 267.7792L338.63278 267.64664Q337.95883 266.97266 337.69366 266.19928Q337.41745 265.41483 337.5832 264.67456Q337.7489 263.91223 338.27924 263.3819Q339.15207 262.50906 340.21274 262.59744Q341.2734 262.68582 342.3451 263.75754L342.66553 264.07794L339.62717 267.1163Q340.31216 267.7571 341.08557 267.8013Q341.87003 267.83444 342.44455 267.25992Q342.8423 266.86218 342.9528 266.42023Q343.0743 265.96725 343.01907 265.47006L343.84772 265.37064Q344.15707 266.80695 343.03012 267.9339ZM338.909 264.01166Q338.44498 264.4757 338.46707 265.1386Q338.48917 265.77942 339.03055 266.45337L341.2734 264.21054L341.21814 264.15527Q340.59943 263.60287 339.99176 263.5697Q339.39514 263.5255 338.909 264.01166ZM346.74243 261.65833Q346.43307 261.34897 346.02426 261.4263Q345.61548 261.48154 344.90836 261.9456Q344.2123 262.39856 343.69302 262.5643Q343.17374 262.73 342.776 262.66373Q342.37827 262.57535 342.04678 262.2439Q341.49435 261.69147 341.58276 260.85178Q341.6601 260.00104 342.3893 259.27182Q343.15164 258.5095 344.01343 258.44318Q344.8752 258.3548 345.48288 258.96246L344.72055 259.72482Q344.4112 259.41547 343.914 259.4707Q343.4168 259.50385 343.01907 259.9016Q342.5992 260.32144 342.54398 260.75235Q342.48874 261.16113 342.776 261.4484Q343.05222 261.7246 343.4168 261.64728Q343.7814 261.56992 344.48853 261.128Q345.18457 260.675 345.7149 260.49823Q346.24524 260.32144 346.6651 260.40982Q347.09598 260.48718 347.44952 260.84073Q348.0572 261.4484 347.93567 262.29913Q347.8252 263.13882 347.06284 263.90118Q346.52145 264.44254 345.9138 264.67456Q345.30612 264.8845 344.7316 264.77402Q344.15707 264.6635 343.7593 264.26578L344.52167 263.50342Q344.93045 263.868 345.44974 263.81277Q345.95798 263.7465 346.43307 263.2714Q346.86395 262.8405 346.95236 262.39856Q347.04074 261.95663 346.74243 261.65833Z" fill-rule="nonzero"/><path fill="#757575" d="M371.42545 277.3804Q372.26514 278.44107 372.19885 279.56802Q372.1215 280.68393 371.13818 281.66724Q370.06647 282.73895 368.6633 282.6174Q367.24908 282.48483 365.95642 281.19214L365.3819 280.6176Q364.5422 279.77792 364.1997 278.8388Q363.85718 277.8997 364.0671 277.00476Q364.27704 276.10983 364.99518 275.39166Q365.95642 274.43045 367.07233 274.3973Q368.19928 274.3531 369.23782 275.19278L368.44232 275.98828Q367.6137 275.3806 366.95078 275.4027Q366.28787 275.4248 365.6581 276.05457Q364.89575 276.81693 365.02832 277.81128Q365.16092 278.80566 366.1995 279.84424L366.78506 280.4298Q367.76837 281.41312 368.76276 281.5899Q369.74606 281.7556 370.48633 281.01538Q371.14923 280.35245 371.20447 279.7006Q371.24866 279.0377 370.62994 278.1759L371.42545 277.3804ZM371.2597 273.48026Q371.14923 272.3533 371.96683 271.5357Q373.3921 270.11047 375.00516 271.70145L377.9662 274.66245L377.19278 275.43585L374.22073 272.4638Q373.74564 271.9887 373.29263 271.97766Q372.8507 271.95557 372.38666 272.41962Q372.01102 272.79526 371.92264 273.2814Q371.84528 273.75647 372.01102 274.23157L375.20404 277.4246L374.44168 278.18695L368.07773 271.82297L368.8401 271.06064L371.2597 273.48026ZM380.2201 272.40857L379.45773 273.1709L374.97202 268.6852L375.73438 267.92285L380.2201 272.40857ZM373.72354 267.5693Q373.5357 267.38147 373.5136 267.1384Q373.50256 266.88428 373.72354 266.6633Q373.94452 266.44235 374.1876 266.46445Q374.44168 266.4755 374.62952 266.6633Q374.8063 266.8401 374.81735 267.0942Q374.8284 267.32623 374.60742 267.5472Q374.38644 267.76816 374.14337 267.76816Q373.90033 267.74606 373.72354 267.5693ZM377.7452 265.91202L378.33078 266.4534Q378.20926 265.2933 379.0379 264.46466Q380.46313 263.0394 382.07623 264.63037L385.03726 267.5914L384.26385 268.36478L381.29178 265.39273Q380.8167 264.91763 380.3637 264.9066Q379.92178 264.8845 379.45773 265.34854Q379.0821 265.72418 378.99368 266.21033Q378.91635 266.68542 379.0821 267.1605L382.27512 270.35352L381.51276 271.11588L377.02704 266.63016L377.7452 265.91202ZM389.22464 263.404Q389.02576 263.3377 388.63907 263.0394Q388.6722 264.1332 387.93198 264.87344Q387.26904 265.53635 386.4625 265.5916Q385.66702 265.6358 385.08145 265.05023Q384.38538 264.35416 384.52902 263.43713Q384.67264 262.5201 385.64493 261.54785L386.38516 260.8076L386.03162 260.45404Q385.63388 260.05627 385.15878 260.06732Q384.6837 260.05627 384.20862 260.53137Q383.7998 260.94016 383.73352 261.4263Q383.6562 261.9014 383.9545 262.1997L383.1811 262.9731Q382.8386 262.63058 382.76126 262.0892Q382.69495 261.53677 382.92697 260.9512Q383.14795 260.35458 383.6341 259.86847Q384.41852 259.084 385.2361 259.03983Q386.06476 258.9846 386.76083 259.63644L388.8269 261.7025Q389.44562 262.32123 389.9649 262.53116L390.0312 262.59744L389.22464 263.404ZM387.3685 264.089Q387.7331 263.7244 387.86566 263.21616Q387.99826 262.70795 387.84357 262.266L386.92654 261.34897L386.32993 261.9456Q384.9157 263.3598 385.74435 264.18845Q386.0979 264.542 386.5509 264.50885Q386.99283 264.46466 387.3685 264.089Z" fill-rule="nonzero"/><path fill="#757575" d="M402.38406 290.495Q402.51663 291.2463 402.18518 292.0197Q401.85373 292.7931 401.1245 293.5223Q400.39532 294.25153 399.47827 294.48352Q398.5502 294.7045 397.60004 294.37305Q396.64987 294.0416 395.79913 293.21295L395.27985 292.69366Q393.90982 291.32364 393.78827 289.94257Q393.6778 288.55048 394.82684 287.40143Q395.777 286.45123 396.83768 286.36285Q397.89835 286.27448 398.9148 287.02576L398.11932 287.82126Q396.69406 286.86005 395.5008 288.05328Q394.69427 288.85983 394.84894 289.8321Q394.99258 290.7933 396.05322 291.87607L396.53937 292.3622Q397.55585 293.37866 398.62753 293.5223Q399.6882 293.65488 400.4837 292.8594Q400.92563 292.41745 401.15765 291.98657Q401.40073 291.54462 401.37863 291.08057L400.0307 289.73267L398.63858 291.1248L397.98672 290.4729L400.17435 288.2853L402.38406 290.495ZM406.20685 288.43997Q405.28983 289.357 404.11868 289.3349Q402.94754 289.2907 401.9421 288.2853L401.80954 288.1527Q401.13556 287.47876 400.8704 286.70535Q400.59418 285.9209 400.75992 285.18066Q400.92563 284.4183 401.45596 283.88797Q402.3288 283.01514 403.38947 283.10352Q404.45013 283.19193 405.52185 284.26364L405.84225 284.58405L402.8039 287.62238Q403.4889 288.2632 404.2623 288.3074Q405.04675 288.34055 405.62128 287.76602Q406.019 287.36826 406.12952 286.92633Q406.25104 286.47333 406.1958 285.97617L407.02444 285.8767Q407.3338 287.31302 406.20685 288.43997ZM402.08575 284.51773Q401.6217 284.98178 401.6438 285.64468Q401.6659 286.28552 402.20728 286.95947L404.45013 284.7166L404.3949 284.66138Q403.77615 284.10895 403.1685 284.0758Q402.57187 284.03162 402.08575 284.51773ZM406.86975 279.9989Q406.6709 280.15356 406.47202 280.35245Q405.70966 281.1148 406.08533 282.02078L409.2673 285.20276L408.50494 285.96512L404.01923 281.4794L404.7595 280.73914L405.28983 281.24738Q405.06885 280.27512 405.7649 279.57904Q405.98587 279.35806 406.16266 279.29178L406.86975 279.9989ZM407.56583 277.9328L408.0851 278.4079Q407.9967 277.34723 408.8364 276.50754Q409.7755 275.56842 410.83618 275.94406Q410.73676 275.4027 410.89142 274.85028Q411.05716 274.2868 411.5433 273.80066Q413.0238 272.32016 414.60373 273.8559L417.60895 276.8611L416.8466 277.62344L413.8856 274.66245Q413.4105 274.18735 412.95752 274.1763Q412.49347 274.1542 411.97418 274.6735Q411.5433 275.10437 411.51016 275.64575Q411.48804 276.1761 411.87476 276.65118L414.8468 279.62323L414.08447 280.3856L411.14554 277.4467Q410.17328 276.4744 409.21204 277.43564Q408.46075 278.18692 408.82535 279.10394L412.09573 282.37433L411.32233 283.14774L406.8366 278.66202L407.56583 277.9328ZM421.8737 272.59637Q421.6748 272.53006 421.28812 272.23175Q421.32126 273.32556 420.581 274.06583Q419.9181 274.72873 419.11154 274.78397Q418.31604 274.8282 417.73047 274.24258Q417.03442 273.54654 417.17804 272.62952Q417.3217 271.7125 418.29395 270.7402L419.0342 269.99997L418.68066 269.6464Q418.2829 269.24866 417.80783 269.2597Q417.33273 269.24866 416.85764 269.72375Q416.44885 270.13254 416.38257 270.61868Q416.3052 271.09375 416.60352 271.3921L415.83014 272.16547Q415.4876 271.82297 415.41028 271.2816Q415.344 270.72916 415.57602 270.1436Q415.797 269.54697 416.2831 269.06082Q417.06757 268.2764 417.88516 268.23218Q418.7138 268.17694 419.40985 268.82883L421.47592 270.8949Q422.09467 271.5136 422.61392 271.72354L422.68024 271.78983L421.8737 272.59637ZM420.01752 273.28137Q420.38214 272.91678 420.5147 272.40854Q420.64728 271.9003 420.4926 271.45837L419.5756 270.54135L418.97897 271.13797Q417.56476 272.5522 418.3934 273.3808Q418.74695 273.73438 419.19992 273.70123Q419.64188 273.657 420.01752 273.28137ZM420.29373 265.2049L420.8793 265.74628Q420.75778 264.58618 421.58643 263.75754Q423.0117 262.33228 424.62476 263.92325L427.5858 266.88428L426.81238 267.65765L423.84033 264.6856Q423.36523 264.2105 422.91223 264.19946Q422.4703 264.17737 422.00626 264.64142Q421.6306 265.01706 421.54224 265.5032Q421.46487 265.9783 421.6306 266.45337L424.82364 269.6464L424.06128 270.40875L419.5756 265.92303L420.29373 265.2049ZM429.3425 262.87366L427.03336 258.46527L427.85095 257.64767L431.2318 264.63037Q431.92786 266.1661 431.02188 267.07208L430.85614 267.21573L430.5247 267.4367L429.90598 266.81796L430.1159 266.63016Q430.51364 266.2324 430.56888 265.8678Q430.63516 265.49216 430.35895 264.92868L430.06064 264.29892L424.02814 261.4705L424.86783 260.6308L429.3425 262.87366Z" fill-rule="nonzero"/><path fill="#757575" d="M439.2978 295.70993L442.15936 292.84836L442.81125 293.5002L439.14313 297.16833L433.11063 291.13583L433.91718 290.32928L439.2978 295.70993ZM444.1039 292.20755L443.34158 292.96988L438.85587 288.4842L439.61823 287.72183L444.1039 292.20755ZM437.60736 287.3683Q437.41956 287.18045 437.39746 286.93738Q437.3864 286.68326 437.60736 286.46228Q437.82834 286.24133 438.0714 286.26343Q438.32553 286.27448 438.51337 286.46228Q438.69012 286.63907 438.70117 286.8932Q438.71222 287.1252 438.49127 287.3462Q438.2703 287.56714 438.02722 287.56714Q437.78415 287.54504 437.60736 287.3683ZM440.8667 284.30783L441.94946 285.3906L442.7781 284.56195L443.37473 285.15857L442.54608 285.9872L445.31924 288.7604Q445.59546 289.0366 445.83853 289.05872Q446.0816 289.0808 446.34677 288.81564Q446.47937 288.68304 446.66718 288.40683L447.2859 289.02554Q447.076 289.41226 446.78873 289.69952Q446.2805 290.20776 445.70596 290.16354Q445.1204 290.1083 444.54587 289.53378L441.77267 286.76062L440.95508 287.5782L440.35846 286.98157L441.17606 286.16397L440.0933 285.08124L440.8667 284.30783ZM445.04306 283.37976Q444.93256 282.2528 445.75015 281.4352Q447.1754 280.00995 448.7885 281.60092L451.7495 284.56195L450.9761 285.33536L448.00406 282.36328Q447.52896 281.88818 447.076 281.87714Q446.63403 281.85504 446.16998 282.3191Q445.79434 282.69473 445.70596 283.18088Q445.62863 283.65598 445.79434 284.13104L448.98737 287.32407L448.22504 288.08643L441.86105 281.72247L442.6234 280.9601L445.04306 283.37976ZM455.49496 279.93262Q455.58334 280.90488 454.7105 281.7777Q453.99237 282.49588 453.19687 282.45166Q452.40137 282.40747 451.58377 281.58987L448.66696 278.67307L449.42932 277.91074L452.32404 280.80545Q453.35156 281.83295 454.1802 281.0043Q455.0641 280.12042 454.68842 279.17026L451.4291 275.91095L452.2025 275.13754L456.6882 279.62326L455.959 280.35245L455.49496 279.93262ZM460.88666 275.4248Q460.68777 275.35852 460.3011 275.0602Q460.33423 276.154 459.59396 276.89426Q458.93106 277.55716 458.1245 277.6124Q457.32904 277.65662 456.74344 277.07104Q456.0474 276.37497 456.19104 275.45795Q456.33466 274.54092 457.30692 273.56863L458.04718 272.8284L457.69363 272.47485Q457.29587 272.0771 456.8208 272.08813Q456.3457 272.0771 455.8706 272.5522Q455.46182 272.96097 455.39554 273.4471Q455.31818 273.9222 455.61652 274.22052L454.8431 274.9939Q454.5006 274.6514 454.42325 274.11002Q454.35696 273.5576 454.589 272.97202Q454.80997 272.3754 455.29608 271.88925Q456.08054 271.10483 456.89813 271.06064Q457.72678 271.00537 458.42282 271.65726L460.48892 273.72333Q461.10764 274.34204 461.62692 274.55197L461.6932 274.61826L460.88666 275.4248ZM459.0305 276.1098Q459.3951 275.7452 459.52768 275.23697Q459.66028 274.72873 459.50558 274.2868L458.58856 273.36978L457.99194 273.9664Q456.57773 275.3806 457.40637 276.20926Q457.75992 276.5628 458.21292 276.52966Q458.65485 276.48547 459.0305 276.1098ZM459.3067 268.03333L459.89227 268.5747Q459.77075 267.4146 460.5994 266.58597Q462.02466 265.1607 463.63776 266.75168L466.59875 269.7127L465.82535 270.4861L462.8533 267.51404Q462.3782 267.03894 461.92523 267.0279Q461.48328 267.0058 461.01923 267.46985Q460.6436 267.8455 460.5552 268.33163Q460.47787 268.80673 460.6436 269.2818L463.8366 272.47485L463.07428 273.23718L458.58856 268.75146L459.3067 268.03333ZM468.85266 267.4588L468.0903 268.22116L463.60458 263.73544L464.36694 262.97308L468.85266 267.4588ZM462.3561 262.61954Q462.16827 262.4317 462.14618 262.18866Q462.13513 261.93454 462.3561 261.71356Q462.5771 261.49258 462.82016 261.51468Q463.07428 261.52573 463.2621 261.71356Q463.43887 261.89032 463.44992 262.14444Q463.46097 262.37646 463.24 262.59744Q463.019 262.81842 462.77597 262.81842Q462.5329 262.79633 462.3561 262.61954ZM472.90747 263.404Q472.7086 263.3377 472.3219 263.03937Q472.35504 264.13318 471.6148 264.87344Q470.95187 265.53635 470.14532 265.59158Q469.34985 265.6358 468.76428 265.05023Q468.0682 264.35416 468.21185 263.43713Q468.35547 262.5201 469.32776 261.54782L470.068 260.8076L469.71445 260.454Q469.31668 260.05627 468.8416 260.06732Q468.36652 260.05627 467.89142 260.53137Q467.48264 260.94016 467.41635 261.4263Q467.33902 261.9014 467.63733 262.1997L466.86392 262.97308Q466.52142 262.63058 466.44406 262.0892Q466.37778 261.53677 466.6098 260.9512Q466.83078 260.35458 467.3169 259.86844Q468.10135 259.084 468.91895 259.0398Q469.7476 258.98456 470.44363 259.63644L472.50974 261.7025Q473.12845 262.32123 473.64774 262.53116L473.71402 262.59744L472.90747 263.404ZM471.05133 264.089Q471.41592 263.7244 471.5485 263.21616Q471.6811 262.70792 471.5264 262.266L470.60938 261.34897L470.01276 261.9456Q468.59854 263.3598 469.4272 264.18845Q469.78073 264.542 470.23373 264.50885Q470.67566 264.46463 471.05133 264.089Z" fill-rule="nonzero"/><path fill="#757575" d="M471.79214 306.36072L465.75964 300.32822L467.73734 298.35052Q468.72064 297.36722 469.61557 297.2899Q470.5105 297.19043 471.306 297.98593Q471.7369 298.41684 471.8253 298.99136Q471.91367 299.54376 471.6706 300.1404Q472.30038 299.7758 472.9633 299.8863Q473.6262 299.97467 474.15652 300.505Q474.97412 301.3226 474.90784 302.31696Q474.8526 303.3003 473.89136 304.2615L471.79214 306.36072ZM469.77026 302.74786L471.93576 304.91336L473.25055 303.5986Q473.81403 303.03513 473.84717 302.42746Q473.8803 301.81976 473.37207 301.31155Q472.28934 300.2288 471.09607 301.42203L469.77026 302.74786ZM469.12943 302.10703L470.33374 300.90274Q470.85303 300.38345 470.90826 299.81998Q470.9635 299.2344 470.5105 298.78143Q470.01334 298.28424 469.5051 298.35052Q468.9858 298.40576 468.3892 299.0024L467.207 300.1846L469.12943 302.10703ZM479.39352 298.75934Q479.19467 298.69305 478.80795 298.3947Q478.8411 299.48853 478.10086 300.2288Q477.43796 300.8917 476.6314 300.94693Q475.8359 300.99115 475.25034 300.40555Q474.55426 299.7095 474.6979 298.79248Q474.84152 297.87546 475.8138 296.90317L476.55405 296.16293L476.2005 295.80936Q475.80276 295.41162 475.32767 295.42267Q474.8526 295.41162 474.3775 295.88672Q473.9687 296.2955 473.9024 296.78165Q473.82507 297.2567 474.12338 297.55505L473.34998 298.32843Q473.00748 297.98593 472.93015 297.44455Q472.86386 296.89212 473.09586 296.30655Q473.31683 295.70993 473.80298 295.2238Q474.58743 294.43936 475.405 294.39514Q476.23364 294.3399 476.92972 294.9918L478.9958 297.05786Q479.6145 297.67657 480.1338 297.8865L480.20007 297.9528L479.39352 298.75934ZM477.53738 299.44434Q477.90198 299.07974 478.03458 298.5715Q478.16714 298.06326 478.01248 297.62134L477.09543 296.7043L476.4988 297.30093Q475.0846 298.71515 475.91324 299.54376Q476.26678 299.89734 476.7198 299.8642Q477.16174 299.81998 477.53738 299.44434ZM477.8136 291.36786L478.39917 291.90924Q478.27762 290.74915 479.10626 289.9205Q480.53152 288.49524 482.14462 290.0862L485.10562 293.04724L484.33224 293.82062L481.36017 290.84857Q480.8851 290.37347 480.4321 290.36243Q479.99014 290.34033 479.52612 290.80438Q479.15048 291.18002 479.06207 291.66617Q478.98474 292.14127 479.15048 292.61633L482.3435 295.80936L481.58115 296.57172L477.09543 292.086L477.8136 291.36786ZM484.06708 289.53378Q483.01746 288.4842 482.8849 287.37933Q482.7523 286.27448 483.5478 285.47897Q484.3654 284.66138 485.40393 284.77188L484.9399 284.24155L485.647 283.53442L490.02225 287.90967Q490.89508 288.7825 490.873 289.79895Q490.86194 290.82648 490.00015 291.68826Q489.514 292.1744 488.84003 292.42853Q488.16608 292.68262 487.56946 292.57214L487.50317 291.71036Q488.597 291.83188 489.31512 291.11374Q489.86755 290.5613 489.8565 289.93155Q489.86755 289.3018 489.29303 288.72726L488.90634 288.34055Q488.98367 289.34598 488.18817 290.14148Q487.40372 290.9259 486.28784 290.7823Q485.1609 290.6276 484.06708 289.53378ZM484.92886 288.8488Q485.68015 289.6001 486.43146 289.73267Q487.17172 289.85422 487.7352 289.29074Q488.45334 288.57257 488.13293 287.56717L486.08896 285.52316Q485.09457 285.2359 484.38748 285.94302Q483.83505 286.49545 483.94553 287.24673Q484.06708 287.987 484.92886 288.8488ZM492.3093 285.8436L491.54694 286.60593L485.18298 280.24197L485.9453 279.4796L492.3093 285.8436ZM496.3641 281.78876Q496.16522 281.72247 495.77853 281.42416Q495.81168 282.51797 495.0714 283.2582Q494.4085 283.92114 493.60196 283.97638Q492.80646 284.02057 492.2209 283.435Q491.52484 282.73895 491.66846 281.8219Q491.8121 280.90488 492.78436 279.93262L493.52463 279.19235L493.17108 278.8388Q492.77332 278.44107 492.29825 278.45212Q491.82315 278.44107 491.34805 278.91614Q490.93927 279.32495 490.873 279.81107Q490.79562 280.28616 491.09393 280.58447L490.32056 281.35788Q489.97803 281.01538 489.9007 280.474Q489.8344 279.92157 490.06644 279.336Q490.2874 278.73938 490.77353 278.25323Q491.55798 277.46878 492.37558 277.4246Q493.20422 277.36935 493.90027 278.0212L495.96634 280.08728Q496.58508 280.70602 497.10434 280.91592L497.17065 280.98224L496.3641 281.78876ZM494.50793 282.4738Q494.87256 282.10916 495.00513 281.60095Q495.13773 281.0927 494.98303 280.65076L494.066 279.73373L493.4694 280.33035Q492.05518 281.74457 492.88382 282.5732Q493.23737 282.92676 493.69034 282.89362Q494.1323 282.84943 494.50793 282.4738ZM496.0879 277.51297Q495.04932 276.47443 494.91675 275.36957Q494.7731 274.25366 495.5686 273.45816Q496.35306 272.6737 497.3474 272.74002L495.01617 270.40878L495.77853 269.64642L502.1425 276.01038L501.4354 276.7175L500.9161 276.2645Q501.02658 277.30307 500.20898 278.12064Q499.4356 278.89404 498.2976 278.75043Q497.17065 278.59573 496.14313 277.56824L496.0879 277.51297ZM496.93863 276.83902Q497.70096 277.60138 498.44122 277.7229Q499.19254 277.83337 499.74496 277.28098Q500.47415 276.55176 500.15375 275.54633L498.09872 273.4913Q497.12643 273.20404 496.4083 273.9222Q495.84482 274.4857 495.9553 275.23697Q496.07684 275.97723 496.93863 276.83902ZM505.446 272.88364Q504.52896 273.80066 503.35782 273.77856Q502.18668 273.73438 501.18127 272.72897L501.04868 272.59637Q500.37473 271.92242 500.10956 271.14902Q499.83334 270.36456 499.99908 269.62433Q500.1648 268.86197 500.69513 268.33163Q501.56796 267.4588 502.62863 267.54718Q503.68927 267.6356 504.761 268.7073L505.0814 269.0277L502.04306 272.06604Q502.72806 272.70688 503.50146 272.75107Q504.28592 272.7842 504.86044 272.2097Q505.25818 271.81192 505.36865 271.37Q505.4902 270.917 505.43497 270.41983L506.26358 270.32037Q506.57297 271.75668 505.446 272.88364ZM501.3249 268.9614Q500.86087 269.42545 500.88297 270.08835Q500.90506 270.7292 501.44644 271.40314L503.68927 269.16028L503.63403 269.10504Q503.01532 268.5526 502.40765 268.51947Q501.81104 268.47528 501.3249 268.9614ZM509.15833 266.60806Q508.84894 266.2987 508.44016 266.37604Q508.03137 266.4313 507.32425 266.89532Q506.6282 267.34833 506.10892 267.51404Q505.58963 267.67978 505.1919 267.6135Q504.79413 267.5251 504.46268 267.19363Q503.91025 266.6412 503.99866 265.8015Q504.076 264.95078 504.80518 264.2216Q505.56754 263.45923 506.42932 263.39294Q507.2911 263.30457 507.89877 263.91223L507.13644 264.67456Q506.82706 264.3652 506.3299 264.42047Q505.8327 264.4536 505.43497 264.85135Q505.0151 265.2712 504.95987 265.7021Q504.90463 266.11087 505.1919 266.39813Q505.4681 266.67435 505.8327 266.59702Q506.1973 266.51968 506.90442 266.07773Q507.60046 265.62476 508.1308 265.44797Q508.66113 265.2712 509.08096 265.3596Q509.51187 265.43692 509.86542 265.79047Q510.47308 266.39813 510.35156 267.24887Q510.24106 268.08856 509.47873 268.85092Q508.93735 269.3923 508.32968 269.62433Q507.72202 269.83423 507.1475 269.72375Q506.57297 269.61328 506.1752 269.2155L506.93756 268.4532Q507.34634 268.81778 507.86563 268.76254Q508.37387 268.69626 508.84894 268.22116Q509.27985 267.79025 509.36823 267.34833Q509.45663 266.90637 509.15833 266.60806ZM508.80475 261.45944Q508.69427 260.3325 509.51187 259.5149Q510.93713 258.08963 512.55023 259.68063L515.5112 262.64163L514.73785 263.41504L511.76578 260.443Q511.29068 259.9679 510.83768 259.95685Q510.39575 259.93475 509.9317 260.39877Q509.55606 260.77444 509.46768 261.26056Q509.39032 261.73566 509.55606 262.21075L512.7491 265.40378L511.98672 266.16614L505.62277 259.80215L506.38513 259.03983L508.80475 261.45944Z" fill-rule="nonzero"/><path fill="#757575" d="M533.49884 282.1202Q534.5153 283.1367 534.681 284.23047Q534.84674 285.32428 534.0402 286.13083Q533.22266 286.94843 532.2393 286.8932L534.3938 289.04764L533.6314 289.81L527.4221 283.6007L528.1182 282.90466L528.64856 283.36868Q528.5491 282.3191 529.37775 281.49045Q530.18427 280.6839 531.256 280.8275Q532.33875 280.9601 533.4215 282.04288L533.49884 282.1202ZM532.64813 282.79416Q531.88574 282.03183 531.1234 281.93237Q530.3611 281.81085 529.7976 282.37433Q529.1015 283.07037 529.3667 284.02057L531.51013 286.16397Q532.4713 286.4402 533.1784 285.7331Q533.73083 285.18066 533.62036 284.42935Q533.5099 283.65594 532.64813 282.79416ZM534.36066 281.05954Q533.70874 280.40768 533.43256 279.62323Q533.16736 278.82773 533.3552 278.0875Q533.532 277.33618 534.11755 276.7506Q535.0346 275.8336 536.22784 275.89987Q537.4321 275.9551 538.4928 277.01578L538.54803 277.071Q539.1999 277.7229 539.4651 278.49628Q539.7302 279.26968 539.5645 280.03204Q539.3877 280.78333 538.78 281.391Q537.8741 282.297 536.6698 282.24173Q535.4655 282.1644 534.4159 281.11478L534.36066 281.05954ZM535.23346 280.3856Q535.9737 281.12585 536.7692 281.23633Q537.57574 281.33575 538.15027 280.76123Q538.73584 280.17566 538.62537 279.38016Q538.50385 278.57364 537.6752 277.745Q536.946 277.01578 536.13947 276.91635Q535.3329 276.7948 534.7473 277.38037Q534.18384 277.94385 534.28326 278.7504Q534.38275 279.53485 535.23346 280.3856ZM542.636 277.35828L541.87366 278.12064L535.5097 271.75668L536.27203 270.99432L542.636 277.35828ZM546.6908 273.30347Q546.49194 273.23718 546.1052 272.93887Q546.13837 274.03268 545.39813 274.77292Q544.7352 275.43585 543.92865 275.4911Q543.1332 275.53528 542.5476 274.9497Q541.85156 274.25363 541.9952 273.3366Q542.1388 272.4196 543.1111 271.44733L543.8513 270.70706L543.4978 270.35352Q543.10004 269.95575 542.62494 269.9668Q542.14984 269.95575 541.67474 270.43085Q541.266 270.83966 541.1997 271.32578Q541.1223 271.80087 541.42065 272.09918L540.6473 272.8726Q540.30475 272.53006 540.2274 271.9887Q540.16113 271.43628 540.3931 270.8507Q540.61414 270.25406 541.1002 269.76794Q541.8847 268.9835 542.7023 268.9393Q543.53094 268.88406 544.227 269.53592L546.293 271.602Q546.9118 272.2207 547.431 272.43063L547.4974 272.49692L546.6908 273.30347ZM544.83466 273.9885Q545.1993 273.62387 545.33185 273.11563Q545.4644 272.60742 545.30975 272.16547L544.3927 271.24844L543.7961 271.84506Q542.3819 273.25928 543.2105 274.08792Q543.5641 274.44147 544.017 274.40833Q544.459 274.36414 544.83466 273.9885ZM545.11084 265.912L545.6964 266.45337Q545.5749 265.29327 546.40356 264.46463Q547.8288 263.03937 549.4419 264.63037L552.4029 267.59137L551.6295 268.36478L548.6575 265.3927Q548.1824 264.91763 547.7294 264.9066Q547.2874 264.8845 546.82336 265.3485Q546.44775 265.72418 546.3594 266.2103Q546.282 266.6854 546.44775 267.1605L549.64075 270.35352L548.8784 271.11584L544.3927 266.63016L545.11084 265.912ZM551.3643 264.07794Q550.3258 263.03937 550.1932 261.9345Q550.04956 260.8186 550.84503 260.02313Q551.6295 259.23868 552.6239 259.30496L550.2926 256.97372L551.055 256.21136L557.41895 262.57535L556.71185 263.28244L556.19257 262.82944Q556.30304 263.868 555.4855 264.6856Q554.71204 265.459 553.57404 265.31537Q552.4471 265.1607 551.41956 264.13318L551.3643 264.07794ZM552.2151 263.40396Q552.9774 264.16632 553.71765 264.28787Q554.469 264.39835 555.0214 263.84592Q555.7506 263.1167 555.4302 262.1113L553.3752 260.05627Q552.4029 259.769 551.68475 260.48715Q551.1213 261.05063 551.23175 261.80194Q551.3533 262.54218 552.2151 263.40396Z" fill-rule="nonzero"/><path fill="#757575" d="M22.3625 24.425L22.3625 26.9875L24.346874 26.9875L24.346874 28.378124L22.3625 28.378124L22.3625 34.925Q22.3625 35.565624 22.628124 35.89375Q22.89375 36.20625 23.534374 36.20625Q23.846874 36.20625 24.39375 36.08125L24.39375 37.55Q23.675 37.753124 23.003124 37.753124Q21.8 37.753124 21.175 37.01875Q20.565624 36.284374 20.565624 34.925L20.565624 28.378124L18.64375 28.378124L18.64375 26.9875L20.565624 26.9875L20.565624 24.425L22.3625 24.425ZM26.440624 32.175Q26.440624 30.6125 27.05 29.378124Q27.659374 28.128124 28.7375 27.45625Q29.83125 26.784374 31.2375 26.784374Q33.39375 26.784374 34.721874 28.284374Q36.065624 29.76875 36.065624 32.253124L36.065624 32.378124Q36.065624 33.925 35.471874 35.159374Q34.878124 36.378124 33.76875 37.065624Q32.675 37.753124 31.253124 37.753124Q29.1125 37.753124 27.76875 36.253124Q26.440624 34.753124 26.440624 32.3L26.440624 32.175ZM28.253124 32.378124Q28.253124 34.14375 29.065624 35.20625Q29.89375 36.26875 31.253124 36.26875Q32.628124 36.26875 33.440624 35.190624Q34.253124 34.1125 34.253124 32.175Q34.253124 30.425 33.425 29.346874Q32.596874 28.26875 31.2375 28.26875Q29.89375 28.26875 29.065624 29.33125Q28.253124 30.39375 28.253124 32.378124ZM40.3625 24.425L40.3625 26.9875L42.346874 26.9875L42.346874 28.378124L40.3625 28.378124L40.3625 34.925Q40.3625 35.565624 40.628124 35.89375Q40.89375 36.20625 41.534374 36.20625Q41.846874 36.20625 42.39375 36.08125L42.39375 37.55Q41.675 37.753124 41.003124 37.753124Q39.8 37.753124 39.175 37.01875Q38.565624 36.284374 38.565624 34.925L38.565624 28.378124L36.64375 28.378124L36.64375 26.9875L38.565624 26.9875L38.565624 24.425L40.3625 24.425ZM51.440624 37.55Q51.284374 37.2375 51.190624 36.440624Q49.925 37.753124 48.175 37.753124Q46.6125 37.753124 45.6125 36.8625Q44.6125 35.971874 44.6125 34.6125Q44.6125 32.971874 45.8625 32.065624Q47.128124 31.14375 49.39375 31.14375L51.159374 31.14375L51.159374 30.315624Q51.159374 29.3625 50.58125 28.8Q50.01875 28.2375 48.925 28.2375Q47.95625 28.2375 47.3 28.7375Q46.64375 29.221874 46.64375 29.909374L44.83125 29.909374Q44.83125 29.128124 45.39375 28.39375Q45.95625 27.64375 46.909374 27.221874Q47.878124 26.784374 49.034374 26.784374Q50.8625 26.784374 51.89375 27.70625Q52.925 28.6125 52.971874 30.221874L52.971874 35.08125Q52.971874 36.534374 53.33125 37.39375L53.33125 37.55L51.440624 37.55ZM48.440624 36.175Q49.3 36.175 50.05 35.7375Q50.815624 35.3 51.159374 34.596874L51.159374 32.425L49.7375 32.425Q46.425 32.425 46.425 34.3625Q46.425 35.221874 46.9875 35.70625Q47.55 36.175 48.440624 36.175ZM57.878124 37.55L56.08125 37.55L56.08125 22.55L57.878124 22.55L57.878124 37.55ZM68.53438 39.01875L59.596874 39.01875L59.596874 37.55L68.53438 37.55L68.53438 39.01875ZM69.47188 32.175Q69.47188 29.690624 70.6125 28.2375Q71.76875 26.784374 73.69063 26.784374Q75.56563 26.784374 76.64375 28.05L76.72188 26.9875L78.37813 26.9875L78.37813 41.6125L76.58125 41.6125L76.58125 36.565624Q75.4875 37.753124 73.675 37.753124Q71.75313 37.753124 70.6125 36.26875Q69.47188 34.76875 69.47188 32.3L69.47188 32.175ZM71.28438 32.378124Q71.28438 34.20625 72.05 35.2375Q72.81563 36.26875 74.1125 36.26875Q75.72188 36.26875 76.58125 34.846874L76.58125 29.675Q75.72188 28.26875 74.14375 28.26875Q72.83125 28.26875 72.05 29.315624Q71.28438 30.346874 71.28438 32.378124ZM87.44063 36.503124Q86.39375 37.753124 84.34688 37.753124Q82.65938 37.753124 81.76875 36.76875Q80.89375 35.784374 80.87813 33.8625L80.87813 26.9875L82.69063 26.9875L82.69063 33.815624Q82.69063 36.20625 84.64375 36.20625Q86.70625 36.20625 87.39375 34.675L87.39375 26.9875L89.20625 26.9875L89.20625 37.55L87.4875 37.55L87.44063 36.503124ZM98.44063 37.55Q98.28438 37.2375 98.19063 36.440624Q96.925 37.753124 95.175 37.753124Q93.6125 37.753124 92.6125 36.8625Q91.6125 35.971874 91.6125 34.6125Q91.6125 32.971874 92.8625 32.065624Q94.12813 31.14375 96.39375 31.14375L98.15938 31.14375L98.15938 30.315624Q98.15938 29.3625 97.58125 28.8Q97.01875 28.2375 95.925 28.2375Q94.95625 28.2375 94.3 28.7375Q93.64375 29.221874 93.64375 29.909374L91.83125 29.909374Q91.83125 29.128124 92.39375 28.39375Q92.95625 27.64375 93.90938 27.221874Q94.87813 26.784374 96.03438 26.784374Q97.8625 26.784374 98.89375 27.70625Q99.925 28.6125 99.97188 30.221874L99.97188 35.08125Q99.97188 36.534374 100.33125 37.39375L100.33125 37.55L98.44063 37.55ZM95.44063 36.175Q96.3 36.175 97.05 35.7375Q97.81563 35.3 98.15938 34.596874L98.15938 32.425L96.7375 32.425Q93.425 32.425 93.425 34.3625Q93.425 35.221874 93.9875 35.70625Q94.55 36.175 95.44063 36.175ZM104.62813 26.9875L104.69063 28.315624Q105.89375 26.784374 107.84688 26.784374Q111.20625 26.784374 111.22188 30.565624L111.22188 37.55L109.425 37.55L109.425 30.55Q109.40938 29.409374 108.89375 28.8625Q108.39375 28.315624 107.3 28.315624Q106.425 28.315624 105.75313 28.784374Q105.09688 29.253124 104.72188 30.01875L104.72188 37.55L102.925 37.55L102.925 26.9875L104.62813 26.9875ZM116.3625 24.425L116.3625 26.9875L118.34688 26.9875L118.34688 28.378124L116.3625 28.378124L116.3625 34.925Q116.3625 35.565624 116.62813 35.89375Q116.89375 36.20625 117.53438 36.20625Q117.84688 36.20625 118.39375 36.08125L118.39375 37.55Q117.675 37.753124 117.00313 37.753124Q115.8 37.753124 115.175 37.01875Q114.56563 36.284374 114.56563 34.925L114.56563 28.378124L112.64375 28.378124L112.64375 26.9875L114.56563 26.9875L114.56563 24.425L116.3625 24.425ZM122.87813 37.55L121.08125 37.55L121.08125 26.9875L122.87813 26.9875L122.87813 37.55ZM120.925 24.175Q120.925 23.7375 121.19063 23.440624Q121.47188 23.128124 121.9875 23.128124Q122.51875 23.128124 122.78438 23.440624Q123.06563 23.7375 123.06563 24.175Q123.06563 24.6125 122.78438 24.909374Q122.51875 25.20625 121.9875 25.20625Q121.47188 25.20625 121.19063 24.909374Q120.925 24.6125 120.925 24.175ZM128.3625 24.425L128.3625 26.9875L130.34688 26.9875L130.34688 28.378124L128.3625 28.378124L128.3625 34.925Q128.3625 35.565624 128.62813 35.89375Q128.89375 36.20625 129.53438 36.20625Q129.84688 36.20625 130.39375 36.08125L130.39375 37.55Q129.675 37.753124 129.00313 37.753124Q127.8 37.753124 127.175 37.01875Q126.56563 36.284374 126.56563 34.925L126.56563 28.378124L124.64375 28.378124L124.64375 26.9875L126.56563 26.9875L126.56563 24.425L128.3625 24.425ZM136.37813 34.909374L138.83125 26.9875L140.76875 26.9875L136.51875 39.175Q135.53438 41.815624 133.39375 41.815624L133.05 41.784374L132.37813 41.659374L132.37813 40.190624L132.8625 40.2375Q133.78438 40.2375 134.28438 39.8625Q134.8 39.4875 135.12813 38.503124L135.53438 37.425L131.76875 26.9875L133.7375 26.9875L136.37813 34.909374ZM150.40938 35.096874L153.01875 26.9875L154.8625 26.9875L151.08125 37.55L149.70625 37.55L145.87813 26.9875L147.72188 26.9875L150.40938 35.096874ZM163.06563 34.753124Q163.06563 34.01875 162.51875 33.6125Q161.97188 33.20625 160.59688 32.909374Q159.22188 32.6125 158.40938 32.20625Q157.6125 31.8 157.22188 31.2375Q156.84688 30.659374 156.84688 29.878124Q156.84688 28.58125 157.94063 27.690624Q159.03438 26.784374 160.75313 26.784374Q162.55 26.784374 163.65938 27.721874Q164.78438 28.64375 164.78438 30.08125L162.95625 30.08125Q162.95625 29.346874 162.33125 28.815624Q161.70625 28.26875 160.75313 28.26875Q159.75313 28.26875 159.19063 28.70625Q158.64375 29.128124 158.64375 29.83125Q158.64375 30.471874 159.15938 30.815624Q159.675 31.14375 161.03438 31.45625Q162.39375 31.753124 163.22188 32.175Q164.06563 32.58125 164.47188 33.175Q164.87813 33.76875 164.87813 34.6125Q164.87813 36.034374 163.7375 36.89375Q162.6125 37.753124 160.8 37.753124Q159.53438 37.753124 158.55 37.3Q157.58125 36.846874 157.01875 36.05Q156.47188 35.2375 156.47188 34.3L158.28438 34.3Q158.33125 35.20625 159.00313 35.7375Q159.69063 36.26875 160.8 36.26875Q161.83125 36.26875 162.44063 35.8625Q163.06563 35.440624 163.06563 34.753124ZM166.95625 36.596874Q166.95625 36.128124 167.2375 35.815624Q167.51875 35.503124 168.06563 35.503124Q168.62813 35.503124 168.90938 35.815624Q169.20625 36.128124 169.20625 36.596874Q169.20625 37.05 168.90938 37.3625Q168.62813 37.659374 168.06563 37.659374Q167.51875 37.659374 167.2375 37.3625Q166.95625 37.05 166.95625 36.596874ZM178.6125 26.9875L178.65938 28.159374Q179.83125 26.784374 181.8 26.784374Q184.01875 26.784374 184.81563 28.4875Q185.34688 27.721874 186.19063 27.253124Q187.03438 26.784374 188.19063 26.784374Q191.65938 26.784374 191.72188 30.471874L191.72188 37.55L189.90938 37.55L189.90938 30.58125Q189.90938 29.440624 189.39375 28.878124Q188.87813 28.315624 187.65938 28.315624Q186.65938 28.315624 185.9875 28.925Q185.33125 29.51875 185.22188 30.534374L185.22188 37.55L183.40938 37.55L183.40938 30.628124Q183.40938 28.315624 181.14375 28.315624Q179.3625 28.315624 178.72188 29.83125L178.72188 37.55L176.90938 37.55L176.90938 26.9875L178.6125 26.9875ZM201.44063 37.55Q201.28438 37.2375 201.19063 36.440624Q199.925 37.753124 198.175 37.753124Q196.6125 37.753124 195.6125 36.8625Q194.6125 35.971874 194.6125 34.6125Q194.6125 32.971874 195.8625 32.065624Q197.12813 31.14375 199.39375 31.14375L201.15938 31.14375L201.15938 30.315624Q201.15938 29.3625 200.58125 28.8Q200.01875 28.2375 198.925 28.2375Q197.95625 28.2375 197.3 28.7375Q196.64375 29.221874 196.64375 29.909374L194.83125 29.909374Q194.83125 29.128124 195.39375 28.39375Q195.95625 27.64375 196.90938 27.221874Q197.87813 26.784374 199.03438 26.784374Q200.8625 26.784374 201.89375 27.70625Q202.925 28.6125 202.97188 30.221874L202.97188 35.08125Q202.97188 36.534374 203.33125 37.39375L203.33125 37.55L201.44063 37.55ZM198.44063 36.175Q199.3 36.175 200.05 35.7375Q200.81563 35.3 201.15938 34.596874L201.15938 32.425L199.7375 32.425Q196.425 32.425 196.425 34.3625Q196.425 35.221874 196.9875 35.70625Q197.55 36.175 198.44063 36.175ZM207.62813 26.9875L207.69063 28.315624Q208.89375 26.784374 210.84688 26.784374Q214.20625 26.784374 214.22188 30.565624L214.22188 37.55L212.425 37.55L212.425 30.55Q212.40938 29.409374 211.89375 28.8625Q211.39375 28.315624 210.3 28.315624Q209.425 28.315624 208.75313 28.784374Q208.09688 29.253124 207.72188 30.01875L207.72188 37.55L205.925 37.55L205.925 26.9875L207.62813 26.9875ZM224.53438 39.01875L215.59688 39.01875L215.59688 37.55L224.53438 37.55L224.53438 39.01875ZM230.15938 36.26875Q231.12813 36.26875 231.84688 35.690624Q232.56563 35.096874 232.64375 34.221874L234.3625 34.221874Q234.3 35.128124 233.72188 35.95625Q233.15938 36.76875 232.19063 37.26875Q231.2375 37.753124 230.15938 37.753124Q228.00313 37.753124 226.72188 36.315624Q225.45625 34.8625 225.45625 32.3625L225.45625 32.065624Q225.45625 30.51875 226.01875 29.315624Q226.58125 28.1125 227.64375 27.45625Q228.70625 26.784374 230.14375 26.784374Q231.925 26.784374 233.09688 27.846874Q234.28438 28.909374 234.3625 30.6125L232.64375 30.6125Q232.56563 29.596874 231.8625 28.940624Q231.175 28.26875 230.14375 28.26875Q228.76875 28.26875 228.00313 29.26875Q227.25313 30.253124 227.25313 32.128124L227.25313 32.471874Q227.25313 34.3 228.00313 35.284374Q228.75313 36.26875 230.15938 36.26875ZM235.44063 32.175Q235.44063 30.6125 236.05 29.378124Q236.65938 28.128124 237.7375 27.45625Q238.83125 26.784374 240.2375 26.784374Q242.39375 26.784374 243.72188 28.284374Q245.06563 29.76875 245.06563 32.253124L245.06563 32.378124Q245.06563 33.925 244.47188 35.159374Q243.87813 36.378124 242.76875 37.065624Q241.675 37.753124 240.25313 37.753124Q238.1125 37.753124 236.76875 36.253124Q235.44063 34.753124 235.44063 32.3L235.44063 32.175ZM237.25313 32.378124Q237.25313 34.14375 238.06563 35.20625Q238.89375 36.26875 240.25313 36.26875Q241.62813 36.26875 242.44063 35.190624Q243.25313 34.1125 243.25313 32.175Q243.25313 30.425 242.425 29.346874Q241.59688 28.26875 240.2375 28.26875Q238.89375 28.26875 238.06563 29.33125Q237.25313 30.39375 237.25313 32.378124ZM253.44063 36.503124Q252.39375 37.753124 250.34688 37.753124Q248.65938 37.753124 247.76875 36.76875Q246.89375 35.784374 246.87813 33.8625L246.87813 26.9875L248.69063 26.9875L248.69063 33.815624Q248.69063 36.20625 250.64375 36.20625Q252.70625 36.20625 253.39375 34.675L253.39375 26.9875L255.20625 26.9875L255.20625 37.55L253.4875 37.55L253.44063 36.503124ZM259.6281 26.9875L259.6906 28.315624Q260.89374 26.784374 262.84686 26.784374Q266.20624 26.784374 266.22186 30.565624L266.22186 37.55L264.425 37.55L264.425 30.55Q264.40936 29.409374 263.89374 28.8625Q263.39374 28.315624 262.3 28.315624Q261.425 28.315624 260.7531 28.784374Q260.09686 29.253124 259.72186 30.01875L259.72186 37.55L257.925 37.55L257.925 26.9875L259.6281 26.9875ZM271.3625 24.425L271.3625 26.9875L273.34686 26.9875L273.34686 28.378124L271.3625 28.378124L271.3625 34.925Q271.3625 35.565624 271.6281 35.89375Q271.89374 36.20625 272.53436 36.20625Q272.84686 36.20625 273.39374 36.08125L273.39374 37.55Q272.675 37.753124 272.0031 37.753124Q270.8 37.753124 270.175 37.01875Q269.5656 36.284374 269.5656 34.925L269.5656 28.378124L267.64374 28.378124L267.64374 26.9875L269.5656 26.9875L269.5656 24.425L271.3625 24.425ZM281.01874 28.596874Q280.6125 28.534374 280.14374 28.534374Q278.3625 28.534374 277.72186 30.05L277.72186 37.55L275.925 37.55L275.925 26.9875L277.675 26.9875L277.70624 28.20625Q278.59686 26.784374 280.22186 26.784374Q280.7531 26.784374 281.01874 26.925L281.01874 28.596874ZM286.3781 34.909374L288.83124 26.9875L290.76874 26.9875L286.51874 39.175Q285.53436 41.815624 283.39374 41.815624L283.05 41.784374L282.3781 41.659374L282.3781 40.190624L282.8625 40.2375Q283.78436 40.2375 284.28436 39.8625Q284.8 39.4875 285.1281 38.503124L285.53436 37.425L281.76874 26.9875L283.7375 26.9875L286.3781 34.909374Z" fill-rule="nonzero"/></svg>