<svg version="1.1" viewBox="0.0 0.0 600.0 371.0" fill="none" stroke="none" stroke-linecap="square" stroke-miterlimit="10" width="600" height="371" xmlns:xlink="http://www.w3.org/1999/xlink" xmlns="http://www.w3.org/2000/svg"><path fill="#ffffff" d="M0 0L600.0 0L600.0 371.0L0 371.0L0 0Z" fill-rule="nonzero"/><path stroke="#333333" stroke-width="1.0" stroke-linecap="butt" d="M126.5 278.5L581.5 278.5" fill-rule="nonzero"/><path fill="#eeeeee" d="M106.5 298.5L126.5 279.5L581.5 279.5L561.5 298.5Z" fill-rule="nonzero"/><path stroke="#cccccc" stroke-width="1.0" stroke-linecap="butt" d="M126.5 224.5L581.5 224.5" fill-rule="nonzero"/><path stroke="#cccccc" stroke-width="1.0" stroke-linecap="butt" d="M126.5 170.5L581.5 170.5" fill-rule="nonzero"/><path stroke="#cccccc" stroke-width="1.0" stroke-linecap="butt" d="M126.5 116.5L581.5 116.5" fill-rule="nonzero"/><path stroke="#cccccc" stroke-width="1.0" stroke-linecap="butt" d="M126.5 62.5L581.5 62.5" fill-rule="nonzero"/><clipPath id="id_0"><path d="M106.55 62.416668L581.45 62.416668L581.45 298.45L106.55 298.45L106.55 62.416668Z" clip-rule="nonzero"/></clipPath><path fill="#a07446" clip-path="url(#id_0)" d="M203.0 62.0L203.0 278.0L188.0 293.0L188.0 77.0Z" fill-rule="nonzero"/><path fill="#f8c189" clip-path="url(#id_0)" d="M188.0 77.0L130.0 77.0L145.0 62.0L203.0 62.0Z" fill-rule="nonzero"/><path stroke="#000000" stroke-width="2.0" stroke-linecap="butt" stroke-opacity="0.0" clip-path="url(#id_0)" d="M188.0 293.0L130.0 293.0L130.0 77.0L188.0 77.0Z" fill-rule="nonzero"/><path fill="#f6b26b" clip-path="url(#id_0)" d="M188.0 293.0L130.0 293.0L130.0 77.0L188.0 77.0Z" fill-rule="nonzero"/><path fill="#a07446" clip-path="url(#id_0)" d="M292.0 101.0L292.0 278.0L277.0 293.0L277.0 116.0Z" fill-rule="nonzero"/><path fill="#f8c189" clip-path="url(#id_0)" d="M277.0 116.0L219.0 116.0L234.0 101.0L292.0 101.0Z" fill-rule="nonzero"/><path stroke="#000000" stroke-width="2.0" stroke-linecap="butt" stroke-opacity="0.0" clip-path="url(#id_0)" d="M277.0 293.0L219.0 293.0L219.0 116.0L277.0 116.0Z" fill-rule="nonzero"/><path fill="#f6b26b" clip-path="url(#id_0)" d="M277.0 293.0L219.0 293.0L219.0 116.0L277.0 116.0Z" fill-rule="nonzero"/><path fill="#a07446" clip-path="url(#id_0)" d="M381.0 255.0L381.0 278.0L366.0 293.0L366.0 270.0Z" fill-rule="nonzero"/><path fill="#f8c189" clip-path="url(#id_0)" d="M366.0 270.0L308.0 270.0L323.0 255.0L381.0 255.0Z" fill-rule="nonzero"/><path stroke="#000000" stroke-width="2.0" stroke-linecap="butt" stroke-opacity="0.0" clip-path="url(#id_0)" d="M366.0 293.0L308.0 293.0L308.0 270.0L366.0 270.0Z" fill-rule="nonzero"/><path fill="#f6b26b" clip-path="url(#id_0)" d="M366.0 293.0L308.0 293.0L308.0 270.0L366.0 270.0Z" fill-rule="nonzero"/><path fill="#a07446" clip-path="url(#id_0)" d="M469.0 271.0L469.0 278.0L454.0 293.0L454.0 286.0Z" fill-rule="nonzero"/><path fill="#f8c189" clip-path="url(#id_0)" d="M454.0 286.0L396.0 286.0L411.0 271.0L469.0 271.0Z" fill-rule="nonzero"/><path stroke="#000000" stroke-width="2.0" stroke-linecap="butt" stroke-opacity="0.0" clip-path="url(#id_0)" d="M454.0 293.0L396.0 293.0L396.0 286.0L454.0 286.0Z" fill-rule="nonzero"/><path fill="#f6b26b" clip-path="url(#id_0)" d="M454.0 293.0L396.0 293.0L396.0 286.0L454.0 286.0Z" fill-rule="nonzero"/><path fill="#a07446" clip-path="url(#id_0)" d="M558.0 271.0L558.0 278.0L543.0 293.0L543.0 286.0Z" fill-rule="nonzero"/><path fill="#f8c189" clip-path="url(#id_0)" d="M543.0 286.0L485.0 286.0L500.0 271.0L558.0 271.0Z" fill-rule="nonzero"/><path stroke="#000000" stroke-width="2.0" stroke-linecap="butt" stroke-opacity="0.0" clip-path="url(#id_0)" d="M543.0 293.0L485.0 293.0L485.0 286.0L543.0 286.0Z" fill-rule="nonzero"/><path fill="#f6b26b" clip-path="url(#id_0)" d="M543.0 293.0L485.0 293.0L485.0 286.0L543.0 286.0Z" fill-rule="nonzero"/><path fill="#424242" d="M323.5625 346.23126Q323.5625 344.7625 324.25 343.8875Q324.9375 342.9969 326.0625 342.9969Q327.17188 342.9969 327.82812 343.7469L327.82812 340.45L328.90625 340.45L328.90625 349.45L327.90625 349.45L327.85938 348.7625Q327.20312 349.575 326.04688 349.575Q324.95312 349.575 324.25 348.66876Q323.5625 347.7625 323.5625 346.3094L323.5625 346.23126ZM324.64062 346.35626Q324.64062 347.4344 325.07812 348.04376Q325.53125 348.65314 326.3125 348.65314Q327.34375 348.65314 327.82812 347.71564L327.82812 344.8094Q327.34375 343.91876 326.32812 343.91876Q325.53125 343.91876 325.07812 344.52814Q324.64062 345.1375 324.64062 346.35626ZM332.0 349.45L330.92188 349.45L330.92188 343.10626L332.0 343.10626L332.0 349.45ZM330.82812 341.4344Q330.82812 341.16876 330.98438 340.98126Q331.15625 340.79376 331.46875 340.79376Q331.78125 340.79376 331.9375 340.98126Q332.10938 341.16876 332.10938 341.4344Q332.10938 341.6844 331.9375 341.8719Q331.78125 342.04376 331.46875 342.04376Q331.15625 342.04376 330.98438 341.8719Q330.82812 341.6844 330.82812 341.4344ZM335.90625 347.98126L337.48438 343.10626L338.59375 343.10626L336.3125 349.45L335.48438 349.45L333.1875 343.10626L334.29688 343.10626L335.90625 347.98126ZM341.0 349.45L339.92188 349.45L339.92188 343.10626L341.0 343.10626L341.0 349.45ZM339.82812 341.4344Q339.82812 341.16876 339.98438 340.98126Q340.15625 340.79376 340.46875 340.79376Q340.78125 340.79376 340.9375 340.98126Q341.10938 341.16876 341.10938 341.4344Q341.10938 341.6844 340.9375 341.8719Q340.78125 342.04376 340.46875 342.04376Q340.15625 342.04376 339.98438 341.8719Q339.82812 341.6844 339.82812 341.4344ZM346.51562 347.7625Q346.51562 347.325 346.17188 347.09064Q345.84375 346.84064 345.01562 346.66876Q344.20312 346.4969 343.71875 346.2469Q343.23438 345.9969 343.0 345.66876Q342.78125 345.325 342.78125 344.85626Q342.78125 344.075 343.4375 343.54376Q344.09375 342.9969 345.125 342.9969Q346.20312 342.9969 346.85938 343.5594Q347.53125 344.10626 347.53125 344.96564L346.45312 344.96564Q346.45312 344.52814 346.0625 344.21564Q345.6875 343.8875 345.125 343.8875Q344.53125 343.8875 344.1875 344.15314Q343.85938 344.40314 343.85938 344.8094Q343.85938 345.2 344.17188 345.40314Q344.48438 345.60626 345.29688 345.79376Q346.10938 345.96564 346.60938 346.21564Q347.10938 346.46564 347.34375 346.825Q347.59375 347.1844 347.59375 347.6844Q347.59375 348.54376 346.90625 349.0594Q346.23438 349.575 345.15625 349.575Q344.39062 349.575 343.79688 349.3094Q343.21875 349.02814 342.89062 348.54376Q342.5625 348.0594 342.5625 347.4969L343.64062 347.4969Q343.67188 348.04376 344.07812 348.3719Q344.48438 348.6844 345.15625 348.6844Q345.76562 348.6844 346.14062 348.4344Q346.51562 348.1844 346.51562 347.7625ZM350.0 349.45L348.92188 349.45L348.92188 343.10626L350.0 343.10626L350.0 349.45ZM348.82812 341.4344Q348.82812 341.16876 348.98438 340.98126Q349.15625 340.79376 349.46875 340.79376Q349.78125 340.79376 349.9375 340.98126Q350.10938 341.16876 350.10938 341.4344Q350.10938 341.6844 349.9375 341.8719Q349.78125 342.04376 349.46875 342.04376Q349.15625 342.04376 348.98438 341.8719Q348.82812 341.6844 348.82812 341.4344ZM351.53125 346.21564Q351.53125 345.29376 351.89062 344.54376Q352.26562 343.79376 352.92188 343.40314Q353.57812 342.9969 354.40625 342.9969Q355.70312 342.9969 356.5 343.8875Q357.3125 344.77814 357.3125 346.27814L357.3125 346.35626Q357.3125 347.27814 356.95312 348.0125Q356.59375 348.7469 355.9375 349.16876Q355.28125 349.575 354.42188 349.575Q353.14062 349.575 352.32812 348.6844Q351.53125 347.77814 351.53125 346.29376L351.53125 346.21564ZM352.625 346.35626Q352.625 347.40314 353.10938 348.04376Q353.60938 348.6844 354.42188 348.6844Q355.25 348.6844 355.73438 348.04376Q356.21875 347.3875 356.21875 346.21564Q356.21875 345.1844 355.71875 344.54376Q355.23438 343.8875 354.40625 343.8875Q353.60938 343.8875 353.10938 344.52814Q352.625 345.15314 352.625 346.35626ZM359.84375 343.10626L359.875 343.90314Q360.60938 342.9969 361.78125 342.9969Q363.79688 342.9969 363.8125 345.2625L363.8125 349.45L362.71875 349.45L362.71875 345.2469Q362.71875 344.575 362.40625 344.2469Q362.10938 343.91876 361.45312 343.91876Q360.92188 343.91876 360.51562 344.2Q360.125 344.48126 359.90625 344.9344L359.90625 349.45L358.82812 349.45L358.82812 343.10626L359.84375 343.10626Z" fill-rule="nonzero"/><path fill="#424242" d="M22.675013 214.88646L24.206263 214.88646L24.206263 213.71458L25.050013 213.71458L25.050013 214.88646L28.971888 214.88646Q29.362513 214.88646 29.550013 214.73021Q29.737513 214.57396 29.737513 214.19896Q29.737513 214.01146 29.675013 213.68333L30.550013 213.68333Q30.675013 214.10521 30.675013 214.51146Q30.675013 215.23021 30.237513 215.60521Q29.784388 215.98021 28.971888 215.98021L25.050013 215.98021L25.050013 217.13646L24.206263 217.13646L24.206263 215.98021L22.675013 215.98021L22.675013 214.88646ZM27.315638 212.65208Q26.393763 212.65208 25.643763 212.29271Q24.893763 211.91771 24.503138 211.26146Q24.096888 210.60521 24.096888 209.77708Q24.096888 208.48021 24.987513 207.68333Q25.878138 206.87083 27.378138 206.87083L27.456263 206.87083Q28.378138 206.87083 29.112513 207.23021Q29.846888 207.58958 30.268763 208.24583Q30.675013 208.90208 30.675013 209.76146Q30.675013 211.04271 29.784388 211.85521Q28.878138 212.65208 27.393763 212.65208L27.315638 212.65208ZM27.456263 211.55833Q28.503138 211.55833 29.143763 211.07396Q29.784388 210.57396 29.784388 209.76146Q29.784388 208.93333 29.143763 208.44896Q28.487513 207.96458 27.315638 207.96458Q26.284388 207.96458 25.643763 208.46458Q24.987513 208.94896 24.987513 209.77708Q24.987513 210.57396 25.628138 211.07396Q26.253138 211.55833 27.456263 211.55833ZM22.675013 203.88646L24.206263 203.88646L24.206263 202.71458L25.050013 202.71458L25.050013 203.88646L28.971888 203.88646Q29.362513 203.88646 29.550013 203.73021Q29.737513 203.57396 29.737513 203.19896Q29.737513 203.01146 29.675013 202.68333L30.550013 202.68333Q30.675013 203.10521 30.675013 203.51146Q30.675013 204.23021 30.237513 204.60521Q29.784388 204.98021 28.971888 204.98021L25.050013 204.98021L25.050013 206.13646L24.206263 206.13646L24.206263 204.98021L22.675013 204.98021L22.675013 203.88646ZM30.550013 197.44896Q30.362513 197.54271 29.878138 197.60521Q30.675013 198.35521 30.675013 199.40208Q30.675013 200.33958 30.143763 200.94896Q29.612513 201.54271 28.784388 201.54271Q27.800013 201.54271 27.253138 200.79271Q26.706263 200.04271 26.706263 198.66771L26.706263 197.62083L26.206263 197.62083Q25.643763 197.62083 25.315638 197.96458Q24.971888 198.29271 24.971888 198.96458Q24.971888 199.54271 25.268763 199.93333Q25.550013 200.32396 25.971888 200.32396L25.971888 201.41771Q25.487513 201.41771 25.050013 201.08958Q24.612513 200.74583 24.362513 200.16771Q24.096888 199.58958 24.096888 198.90208Q24.096888 197.79271 24.643763 197.18333Q25.190638 196.55833 26.143763 196.52708L29.065638 196.52708Q29.940638 196.52708 30.456263 196.30833L30.550013 196.30833L30.550013 197.44896ZM29.721888 199.24583Q29.721888 198.73021 29.456263 198.27708Q29.190638 197.82396 28.768763 197.62083L27.471888 197.62083L27.471888 198.46458Q27.471888 200.46458 28.643763 200.46458Q29.143763 200.46458 29.440638 200.12083Q29.721888 199.77708 29.721888 199.24583ZM30.550013 193.18333L30.550013 194.26146L21.550013 194.26146L21.550013 193.18333L30.550013 193.18333ZM31.440638 186.79271L31.440638 192.15208L30.550013 192.15208L30.550013 186.79271L31.440638 186.79271ZM27.456263 180.99583Q28.909388 180.99583 29.800013 181.66771Q30.675013 182.32396 30.675013 183.44896Q30.675013 184.65208 29.815638 185.30833L30.550013 185.37083L30.550013 186.35521L21.550013 186.35521L21.550013 185.27708L24.909388 185.27708Q24.096888 184.62083 24.096888 183.46458Q24.096888 182.30833 24.971888 181.65208Q25.831263 180.99583 27.362513 180.99583L27.456263 180.99583ZM27.331263 182.07396Q26.221888 182.07396 25.628138 182.51146Q25.018763 182.93333 25.018763 183.73021Q25.018763 184.80833 26.003138 185.27708L28.753138 185.27708Q29.753138 184.77708 29.753138 183.73021Q29.753138 182.94896 29.143763 182.51146Q28.534388 182.07396 27.331263 182.07396ZM29.925013 175.44896Q30.675013 176.07396 30.675013 177.30833Q30.675013 178.32396 30.081263 178.85521Q29.487513 179.38646 28.331263 179.38646L24.206263 179.38646L24.206263 178.30833L28.300013 178.30833Q29.753138 178.30833 29.753138 177.13646Q29.753138 175.88646 28.815638 175.48021L24.206263 175.48021L24.206263 174.38646L30.550013 174.38646L30.550013 175.41771L29.925013 175.44896ZM28.956263 170.29271L24.206263 168.80833L24.206263 167.65208L31.534388 170.19896Q33.11251 170.79271 33.11251 172.07396L33.096886 172.29271L33.01876 172.68333L32.14376 172.68333L32.159386 172.40208Q32.159386 171.83958 31.940638 171.54271Q31.721888 171.23021 31.128138 171.02708L30.471888 170.79271L24.206263 173.05833L24.206263 171.87083L28.956263 170.29271ZM30.675013 163.73021Q30.675013 165.02708 29.831263 165.83958Q28.971888 166.63646 27.550013 166.63646L27.362513 166.63646Q26.409388 166.63646 25.675013 166.27708Q24.925013 165.91771 24.518763 165.27708Q24.096888 164.62083 24.096888 163.87083Q24.096888 162.63646 24.909388 161.94896Q25.721888 161.26146 27.237513 161.26146L27.690638 161.26146L27.690638 165.55833Q28.628138 165.52708 29.206263 165.01146Q29.784388 164.48021 29.784388 163.66771Q29.784388 163.10521 29.550013 162.71458Q29.315638 162.30833 28.925013 161.99583L29.440638 161.33958Q30.675013 162.13646 30.675013 163.73021ZM24.987513 163.87083Q24.987513 164.52708 25.471888 164.98021Q25.940638 165.41771 26.800013 165.51146L26.800013 162.33958L26.721888 162.33958Q25.893763 162.38646 25.440638 162.79271Q24.987513 163.18333 24.987513 163.87083ZM25.175013 157.29271Q25.143763 157.54271 25.143763 157.82396Q25.143763 158.90208 26.050013 159.27708L30.550013 159.27708L30.550013 160.35521L24.206263 160.35521L24.206263 159.30833L24.940638 159.29271Q24.096888 158.76146 24.096888 157.77708Q24.096888 157.46458 24.175013 157.29271L25.175013 157.29271Z" fill-rule="nonzero"/><path fill="#757575" d="M99.6125 279.3094Q99.6125 281.21564 98.95625 282.15314Q98.31563 283.075 96.925 283.075Q95.56563 283.075 94.90938 282.16876Q94.25313 281.2625 94.22188 279.45L94.22188 278.0125Q94.22188 276.1219 94.8625 275.21564Q95.51875 274.29376 96.90938 274.29376Q98.28438 274.29376 98.94063 275.1844Q99.59688 276.0594 99.6125 277.90314L99.6125 279.3094ZM98.51875 277.825Q98.51875 276.45 98.12813 275.825Q97.75313 275.1844 96.90938 275.1844Q96.08125 275.1844 95.69063 275.825Q95.31563 276.45 95.31563 277.7469L95.31563 279.48126Q95.31563 280.85626 95.70625 281.52814Q96.1125 282.1844 96.925 282.1844Q97.72188 282.1844 98.1125 281.5594Q98.50313 280.9344 98.51875 279.60626L98.51875 277.825Z" fill-rule="nonzero"/><path fill="#757575" d="M64.84688 228.94167L59.253124 228.94167L59.253124 228.16042L62.20625 224.87917Q62.8625 224.12917 63.1125 223.67604Q63.3625 223.20729 63.3625 222.70729Q63.3625 222.03542 62.95625 221.61354Q62.565624 221.17604 61.878124 221.17604Q61.08125 221.17604 60.628124 221.64479Q60.175 222.09792 60.175 222.92604L59.096874 222.92604Q59.096874 221.73854 59.846874 221.01979Q60.6125 220.28542 61.878124 220.28542Q63.08125 220.28542 63.76875 220.91042Q64.45625 221.53542 64.45625 222.58229Q64.45625 223.83229 62.846874 225.58229L60.565624 228.05104L64.84688 228.05104L64.84688 228.94167ZM66.75313 224.66042L67.19063 220.41042L71.56563 220.41042L71.56563 221.41042L68.1125 221.41042L67.84688 223.73854Q68.4875 223.36354 69.28438 223.36354Q70.44063 223.36354 71.12813 224.14479Q71.81563 224.91042 71.81563 226.22292Q71.81563 227.53542 71.09688 228.30104Q70.39375 229.06667 69.1125 229.06667Q67.9875 229.06667 67.26875 228.44167Q66.55 227.80104 66.45625 226.69167L67.47188 226.69167Q67.58125 227.42604 68.00313 227.80104Q68.425 228.17604 69.1125 228.17604Q69.8625 228.17604 70.3 227.66042Q70.7375 227.14479 70.7375 226.23854Q70.7375 225.37917 70.26875 224.86354Q69.8 224.34792 69.01875 224.34792Q68.31563 224.34792 67.90938 224.64479L67.62813 224.87917L66.75313 224.66042ZM78.6125 225.30104Q78.6125 227.20729 77.95625 228.14479Q77.31563 229.06667 75.925 229.06667Q74.56563 229.06667 73.90938 228.16042Q73.25313 227.25417 73.22188 225.44167L73.22188 224.00417Q73.22188 222.11354 73.8625 221.20729Q74.51875 220.28542 75.90938 220.28542Q77.28438 220.28542 77.94063 221.17604Q78.59688 222.05104 78.6125 223.89479L78.6125 225.30104ZM77.51875 223.81667Q77.51875 222.44167 77.12813 221.81667Q76.75313 221.17604 75.90938 221.17604Q75.08125 221.17604 74.69063 221.81667Q74.31563 222.44167 74.31563 223.73854L74.31563 225.47292Q74.31563 226.84792 74.70625 227.51979Q75.1125 228.17604 75.925 228.17604Q76.72188 228.17604 77.1125 227.55104Q77.50313 226.92604 77.51875 225.59792L77.51875 223.81667ZM85.6125 225.30104Q85.6125 227.20729 84.95625 228.14479Q84.31563 229.06667 82.925 229.06667Q81.56563 229.06667 80.90938 228.16042Q80.25313 227.25417 80.22188 225.44167L80.22188 224.00417Q80.22188 222.11354 80.8625 221.20729Q81.51875 220.28542 82.90938 220.28542Q84.28438 220.28542 84.94063 221.17604Q85.59688 222.05104 85.6125 223.89479L85.6125 225.30104ZM84.51875 223.81667Q84.51875 222.44167 84.12813 221.81667Q83.75313 221.17604 82.90938 221.17604Q82.08125 221.17604 81.69063 221.81667Q81.31563 222.44167 81.31563 223.73854L81.31563 225.47292Q81.31563 226.84792 81.70625 227.51979Q82.1125 228.17604 82.925 228.17604Q83.72188 228.17604 84.1125 227.55104Q84.50313 226.92604 84.51875 225.59792L84.51875 223.81667ZM92.6125 225.30104Q92.6125 227.20729 91.95625 228.14479Q91.31563 229.06667 89.925 229.06667Q88.56563 229.06667 87.90938 228.16042Q87.25313 227.25417 87.22188 225.44167L87.22188 224.00417Q87.22188 222.11354 87.8625 221.20729Q88.51875 220.28542 89.90938 220.28542Q91.28438 220.28542 91.94063 221.17604Q92.59688 222.05104 92.6125 223.89479L92.6125 225.30104ZM91.51875 223.81667Q91.51875 222.44167 91.12813 221.81667Q90.75313 221.17604 89.90938 221.17604Q89.08125 221.17604 88.69063 221.81667Q88.31563 222.44167 88.31563 223.73854L88.31563 225.47292Q88.31563 226.84792 88.70625 227.51979Q89.1125 228.17604 89.925 228.17604Q90.72188 228.17604 91.1125 227.55104Q91.50313 226.92604 91.51875 225.59792L91.51875 223.81667ZM99.6125 225.30104Q99.6125 227.20729 98.95625 228.14479Q98.31563 229.06667 96.925 229.06667Q95.56563 229.06667 94.90938 228.16042Q94.25313 227.25417 94.22188 225.44167L94.22188 224.00417Q94.22188 222.11354 94.8625 221.20729Q95.51875 220.28542 96.90938 220.28542Q98.28438 220.28542 98.94063 221.17604Q99.59688 222.05104 99.6125 223.89479L99.6125 225.30104ZM98.51875 223.81667Q98.51875 222.44167 98.12813 221.81667Q97.75313 221.17604 96.90938 221.17604Q96.08125 221.17604 95.69063 221.81667Q95.31563 222.44167 95.31563 223.73854L95.31563 225.47292Q95.31563 226.84792 95.70625 227.51979Q96.1125 228.17604 96.925 228.17604Q97.72188 228.17604 98.1125 227.55104Q98.50313 226.92604 98.51875 225.59792L98.51875 223.81667Z" fill-rule="nonzero"/><path fill="#757575" d="M59.753124 170.65208L60.190624 166.40208L64.56563 166.40208L64.56563 167.40208L61.1125 167.40208L60.846874 169.73021Q61.4875 169.35521 62.284374 169.35521Q63.440624 169.35521 64.12813 170.13646Q64.81563 170.90208 64.81563 172.21458Q64.81563 173.52708 64.09688 174.29271Q63.39375 175.05833 62.1125 175.05833Q60.9875 175.05833 60.26875 174.43333Q59.55 173.79271 59.45625 172.68333L60.471874 172.68333Q60.58125 173.41771 61.003124 173.79271Q61.425 174.16771 62.1125 174.16771Q62.8625 174.16771 63.3 173.65208Q63.7375 173.13646 63.7375 172.23021Q63.7375 171.37083 63.26875 170.85521Q62.8 170.33958 62.01875 170.33958Q61.315624 170.33958 60.909374 170.63646L60.628124 170.87083L59.753124 170.65208ZM71.6125 171.29271Q71.6125 173.19896 70.95625 174.13646Q70.31563 175.05833 68.925 175.05833Q67.56563 175.05833 66.90938 174.15208Q66.25313 173.24583 66.22188 171.43333L66.22188 169.99583Q66.22188 168.10521 66.8625 167.19896Q67.51875 166.27708 68.90938 166.27708Q70.28438 166.27708 70.94063 167.16771Q71.59688 168.04271 71.6125 169.88646L71.6125 171.29271ZM70.51875 169.80833Q70.51875 168.43333 70.12813 167.80833Q69.75313 167.16771 68.90938 167.16771Q68.08125 167.16771 67.69063 167.80833Q67.31563 168.43333 67.31563 169.73021L67.31563 171.46458Q67.31563 172.83958 67.70625 173.51146Q68.1125 174.16771 68.925 174.16771Q69.72188 174.16771 70.1125 173.54271Q70.50313 172.91771 70.51875 171.58958L70.51875 169.80833ZM78.6125 171.29271Q78.6125 173.19896 77.95625 174.13646Q77.31563 175.05833 75.925 175.05833Q74.56563 175.05833 73.90938 174.15208Q73.25313 173.24583 73.22188 171.43333L73.22188 169.99583Q73.22188 168.10521 73.8625 167.19896Q74.51875 166.27708 75.90938 166.27708Q77.28438 166.27708 77.94063 167.16771Q78.59688 168.04271 78.6125 169.88646L78.6125 171.29271ZM77.51875 169.80833Q77.51875 168.43333 77.12813 167.80833Q76.75313 167.16771 75.90938 167.16771Q75.08125 167.16771 74.69063 167.80833Q74.31563 168.43333 74.31563 169.73021L74.31563 171.46458Q74.31563 172.83958 74.70625 173.51146Q75.1125 174.16771 75.925 174.16771Q76.72188 174.16771 77.1125 173.54271Q77.50313 172.91771 77.51875 171.58958L77.51875 169.80833ZM85.6125 171.29271Q85.6125 173.19896 84.95625 174.13646Q84.31563 175.05833 82.925 175.05833Q81.56563 175.05833 80.90938 174.15208Q80.25313 173.24583 80.22188 171.43333L80.22188 169.99583Q80.22188 168.10521 80.8625 167.19896Q81.51875 166.27708 82.90938 166.27708Q84.28438 166.27708 84.94063 167.16771Q85.59688 168.04271 85.6125 169.88646L85.6125 171.29271ZM84.51875 169.80833Q84.51875 168.43333 84.12813 167.80833Q83.75313 167.16771 82.90938 167.16771Q82.08125 167.16771 81.69063 167.80833Q81.31563 168.43333 81.31563 169.73021L81.31563 171.46458Q81.31563 172.83958 81.70625 173.51146Q82.1125 174.16771 82.925 174.16771Q83.72188 174.16771 84.1125 173.54271Q84.50313 172.91771 84.51875 171.58958L84.51875 169.80833ZM92.6125 171.29271Q92.6125 173.19896 91.95625 174.13646Q91.31563 175.05833 89.925 175.05833Q88.56563 175.05833 87.90938 174.15208Q87.25313 173.24583 87.22188 171.43333L87.22188 169.99583Q87.22188 168.10521 87.8625 167.19896Q88.51875 166.27708 89.90938 166.27708Q91.28438 166.27708 91.94063 167.16771Q92.59688 168.04271 92.6125 169.88646L92.6125 171.29271ZM91.51875 169.80833Q91.51875 168.43333 91.12813 167.80833Q90.75313 167.16771 89.90938 167.16771Q89.08125 167.16771 88.69063 167.80833Q88.31563 168.43333 88.31563 169.73021L88.31563 171.46458Q88.31563 172.83958 88.70625 173.51146Q89.1125 174.16771 89.925 174.16771Q90.72188 174.16771 91.1125 173.54271Q91.50313 172.91771 91.51875 171.58958L91.51875 169.80833ZM99.6125 171.29271Q99.6125 173.19896 98.95625 174.13646Q98.31563 175.05833 96.925 175.05833Q95.56563 175.05833 94.90938 174.15208Q94.25313 173.24583 94.22188 171.43333L94.22188 169.99583Q94.22188 168.10521 94.8625 167.19896Q95.51875 166.27708 96.90938 166.27708Q98.28438 166.27708 98.94063 167.16771Q99.59688 168.04271 99.6125 169.88646L99.6125 171.29271ZM98.51875 169.80833Q98.51875 168.43333 98.12813 167.80833Q97.75313 167.16771 96.90938 167.16771Q96.08125 167.16771 95.69063 167.80833Q95.31563 168.43333 95.31563 169.73021L95.31563 171.46458Q95.31563 172.83958 95.70625 173.51146Q96.1125 174.16771 96.925 174.16771Q97.72188 174.16771 98.1125 173.54271Q98.50313 172.91771 98.51875 171.58958L98.51875 169.80833Z" fill-rule="nonzero"/><path fill="#757575" d="M64.76875 113.00313L61.2375 120.925L60.096874 120.925L63.6125 113.28438L59.003124 113.28438L59.003124 112.39375L64.76875 112.39375L64.76875 113.00313ZM66.75313 116.64375L67.19063 112.39375L71.56563 112.39375L71.56563 113.39375L68.1125 113.39375L67.84688 115.72188Q68.4875 115.34688 69.28438 115.34688Q70.44063 115.34688 71.12813 116.12813Q71.81563 116.89375 71.81563 118.20625Q71.81563 119.51875 71.09688 120.28438Q70.39375 121.05 69.1125 121.05Q67.9875 121.05 67.26875 120.425Q66.55 119.78438 66.45625 118.675L67.47188 118.675Q67.58125 119.40938 68.00313 119.78438Q68.425 120.15938 69.1125 120.15938Q69.8625 120.15938 70.3 119.64375Q70.7375 119.12813 70.7375 118.22188Q70.7375 117.3625 70.26875 116.84688Q69.8 116.33125 69.01875 116.33125Q68.31563 116.33125 67.90938 116.62813L67.62813 116.8625L66.75313 116.64375ZM78.6125 117.28438Q78.6125 119.19063 77.95625 120.12813Q77.31563 121.05 75.925 121.05Q74.56563 121.05 73.90938 120.14375Q73.25313 119.2375 73.22188 117.425L73.22188 115.9875Q73.22188 114.09688 73.8625 113.19063Q74.51875 112.26875 75.90938 112.26875Q77.28438 112.26875 77.94063 113.15938Q78.59688 114.03438 78.6125 115.87813L78.6125 117.28438ZM77.51875 115.8Q77.51875 114.425 77.12813 113.8Q76.75313 113.15938 75.90938 113.15938Q75.08125 113.15938 74.69063 113.8Q74.31563 114.425 74.31563 115.72188L74.31563 117.45625Q74.31563 118.83125 74.70625 119.50313Q75.1125 120.15938 75.925 120.15938Q76.72188 120.15938 77.1125 119.53438Q77.50313 118.90938 77.51875 117.58125L77.51875 115.8ZM85.6125 117.28438Q85.6125 119.19063 84.95625 120.12813Q84.31563 121.05 82.925 121.05Q81.56563 121.05 80.90938 120.14375Q80.25313 119.2375 80.22188 117.425L80.22188 115.9875Q80.22188 114.09688 80.8625 113.19063Q81.51875 112.26875 82.90938 112.26875Q84.28438 112.26875 84.94063 113.15938Q85.59688 114.03438 85.6125 115.87813L85.6125 117.28438ZM84.51875 115.8Q84.51875 114.425 84.12813 113.8Q83.75313 113.15938 82.90938 113.15938Q82.08125 113.15938 81.69063 113.8Q81.31563 114.425 81.31563 115.72188L81.31563 117.45625Q81.31563 118.83125 81.70625 119.50313Q82.1125 120.15938 82.925 120.15938Q83.72188 120.15938 84.1125 119.53438Q84.50313 118.90938 84.51875 117.58125L84.51875 115.8ZM92.6125 117.28438Q92.6125 119.19063 91.95625 120.12813Q91.31563 121.05 89.925 121.05Q88.56563 121.05 87.90938 120.14375Q87.25313 119.2375 87.22188 117.425L87.22188 115.9875Q87.22188 114.09688 87.8625 113.19063Q88.51875 112.26875 89.90938 112.26875Q91.28438 112.26875 91.94063 113.15938Q92.59688 114.03438 92.6125 115.87813L92.6125 117.28438ZM91.51875 115.8Q91.51875 114.425 91.12813 113.8Q90.75313 113.15938 89.90938 113.15938Q89.08125 113.15938 88.69063 113.8Q88.31563 114.425 88.31563 115.72188L88.31563 117.45625Q88.31563 118.83125 88.70625 119.50313Q89.1125 120.15938 89.925 120.15938Q90.72188 120.15938 91.1125 119.53438Q91.50313 118.90938 91.51875 117.58125L91.51875 115.8ZM99.6125 117.28438Q99.6125 119.19063 98.95625 120.12813Q98.31563 121.05 96.925 121.05Q95.56563 121.05 94.90938 120.14375Q94.25313 119.2375 94.22188 117.425L94.22188 115.9875Q94.22188 114.09688 94.8625 113.19063Q95.51875 112.26875 96.90938 112.26875Q98.28438 112.26875 98.94063 113.15938Q99.59688 114.03438 99.6125 115.87813L99.6125 117.28438ZM98.51875 115.8Q98.51875 114.425 98.12813 113.8Q97.75313 113.15938 96.90938 113.15938Q96.08125 113.15938 95.69063 113.8Q95.31563 114.425 95.31563 115.72188L95.31563 117.45625Q95.31563 118.83125 95.70625 119.50313Q96.1125 120.15938 96.925 120.15938Q97.72188 120.15938 98.1125 119.53438Q98.50313 118.90938 98.51875 117.58125L98.51875 115.8Z" fill-rule="nonzero"/><path fill="#757575" d="M55.815624 66.916664L54.7375 66.916664L54.7375 59.697914L52.55 60.49479L52.55 59.510414L55.659374 58.33854L55.815624 58.33854L55.815624 66.916664ZM64.6125 63.27604Q64.6125 65.18229 63.95625 66.11979Q63.315624 67.041664 61.925 67.041664Q60.565624 67.041664 59.909374 66.135414Q59.253124 65.229164 59.221874 63.416664L59.221874 61.979164Q59.221874 60.08854 59.8625 59.18229Q60.51875 58.260414 61.909374 58.260414Q63.284374 58.260414 63.940624 59.15104Q64.59688 60.02604 64.6125 61.86979L64.6125 63.27604ZM63.51875 61.791664Q63.51875 60.416664 63.128124 59.791664Q62.753124 59.15104 61.909374 59.15104Q61.08125 59.15104 60.690624 59.791664Q60.315624 60.416664 60.315624 61.71354L60.315624 63.447914Q60.315624 64.822914 60.70625 65.49479Q61.1125 66.15104 61.925 66.15104Q62.721874 66.15104 63.1125 65.52604Q63.503124 64.90104 63.51875 63.572914L63.51875 61.791664ZM71.6125 63.27604Q71.6125 65.18229 70.95625 66.11979Q70.31563 67.041664 68.925 67.041664Q67.56563 67.041664 66.90938 66.135414Q66.25313 65.229164 66.22188 63.416664L66.22188 61.979164Q66.22188 60.08854 66.8625 59.18229Q67.51875 58.260414 68.90938 58.260414Q70.28438 58.260414 70.94063 59.15104Q71.59688 60.02604 71.6125 61.86979L71.6125 63.27604ZM70.51875 61.791664Q70.51875 60.416664 70.12813 59.791664Q69.75313 59.15104 68.90938 59.15104Q68.08125 59.15104 67.69063 59.791664Q67.31563 60.416664 67.31563 61.71354L67.31563 63.447914Q67.31563 64.822914 67.70625 65.49479Q68.1125 66.15104 68.925 66.15104Q69.72188 66.15104 70.1125 65.52604Q70.50313 64.90104 70.51875 63.572914L70.51875 61.791664ZM78.6125 63.27604Q78.6125 65.18229 77.95625 66.11979Q77.31563 67.041664 75.925 67.041664Q74.56563 67.041664 73.90938 66.135414Q73.25313 65.229164 73.22188 63.416664L73.22188 61.979164Q73.22188 60.08854 73.8625 59.18229Q74.51875 58.260414 75.90938 58.260414Q77.28438 58.260414 77.94063 59.15104Q78.59688 60.02604 78.6125 61.86979L78.6125 63.27604ZM77.51875 61.791664Q77.51875 60.416664 77.12813 59.791664Q76.75313 59.15104 75.90938 59.15104Q75.08125 59.15104 74.69063 59.791664Q74.31563 60.416664 74.31563 61.71354L74.31563 63.447914Q74.31563 64.822914 74.70625 65.49479Q75.1125 66.15104 75.925 66.15104Q76.72188 66.15104 77.1125 65.52604Q77.50313 64.90104 77.51875 63.572914L77.51875 61.791664ZM85.6125 63.27604Q85.6125 65.18229 84.95625 66.11979Q84.31563 67.041664 82.925 67.041664Q81.56563 67.041664 80.90938 66.135414Q80.25313 65.229164 80.22188 63.416664L80.22188 61.979164Q80.22188 60.08854 80.8625 59.18229Q81.51875 58.260414 82.90938 58.260414Q84.28438 58.260414 84.94063 59.15104Q85.59688 60.02604 85.6125 61.86979L85.6125 63.27604ZM84.51875 61.791664Q84.51875 60.416664 84.12813 59.791664Q83.75313 59.15104 82.90938 59.15104Q82.08125 59.15104 81.69063 59.791664Q81.31563 60.416664 81.31563 61.71354L81.31563 63.447914Q81.31563 64.822914 81.70625 65.49479Q82.1125 66.15104 82.925 66.15104Q83.72188 66.15104 84.1125 65.52604Q84.50313 64.90104 84.51875 63.572914L84.51875 61.791664ZM92.6125 63.27604Q92.6125 65.18229 91.95625 66.11979Q91.31563 67.041664 89.925 67.041664Q88.56563 67.041664 87.90938 66.135414Q87.25313 65.229164 87.22188 63.416664L87.22188 61.979164Q87.22188 60.08854 87.8625 59.18229Q88.51875 58.260414 89.90938 58.260414Q91.28438 58.260414 91.94063 59.15104Q92.59688 60.02604 92.6125 61.86979L92.6125 63.27604ZM91.51875 61.791664Q91.51875 60.416664 91.12813 59.791664Q90.75313 59.15104 89.90938 59.15104Q89.08125 59.15104 88.69063 59.791664Q88.31563 60.416664 88.31563 61.71354L88.31563 63.447914Q88.31563 64.822914 88.70625 65.49479Q89.1125 66.15104 89.925 66.15104Q90.72188 66.15104 91.1125 65.52604Q91.50313 64.90104 91.51875 63.572914L91.51875 61.791664ZM99.6125 63.27604Q99.6125 65.18229 98.95625 66.11979Q98.31563 67.041664 96.925 67.041664Q95.56563 67.041664 94.90938 66.135414Q94.25313 65.229164 94.22188 63.416664L94.22188 61.979164Q94.22188 60.08854 94.8625 59.18229Q95.51875 58.260414 96.90938 58.260414Q98.28438 58.260414 98.94063 59.15104Q99.59688 60.02604 99.6125 61.86979L99.6125 63.27604ZM98.51875 61.791664Q98.51875 60.416664 98.12813 59.791664Q97.75313 59.15104 96.90938 59.15104Q96.08125 59.15104 95.69063 59.791664Q95.31563 60.416664 95.31563 61.71354L95.31563 63.447914Q95.31563 64.822914 95.70625 65.49479Q96.1125 66.15104 96.925 66.15104Q97.72188 66.15104 98.1125 65.52604Q98.50313 64.90104 98.51875 63.572914L98.51875 61.791664Z" fill-rule="nonzero"/><path fill="#757575" d="M134.70166 316.45Q134.60791 316.2625 134.54541 315.77814Q133.79541 316.575 132.74854 316.575Q131.81104 316.575 131.20166 316.04376Q130.60791 315.5125 130.60791 314.6844Q130.60791 313.7 131.35791 313.15314Q132.10791 312.60626 133.48291 312.60626L134.52979 312.60626L134.52979 312.10626Q134.52979 311.54376 134.18604 311.21564Q133.85791 310.8719 133.18604 310.8719Q132.60791 310.8719 132.21729 311.16876Q131.82666 311.45 131.82666 311.8719L130.73291 311.8719Q130.73291 311.3875 131.06104 310.95Q131.40479 310.5125 131.98291 310.2625Q132.56104 309.9969 133.24854 309.9969Q134.35791 309.9969 134.96729 310.54376Q135.59229 311.09064 135.62354 312.04376L135.62354 314.96564Q135.62354 315.84064 135.84229 316.35626L135.84229 316.45L134.70166 316.45ZM132.90479 315.6219Q133.42041 315.6219 133.87354 315.35626Q134.32666 315.09064 134.52979 314.66876L134.52979 313.3719L133.68604 313.3719Q131.68604 313.3719 131.68604 314.54376Q131.68604 315.04376 132.02979 315.34064Q132.37354 315.6219 132.90479 315.6219ZM138.96729 316.45L137.88916 316.45L137.88916 307.45L138.96729 307.45L138.96729 316.45ZM141.96729 316.45L140.88916 316.45L140.88916 307.45L141.96729 307.45L141.96729 316.45ZM146.52979 313.23126Q146.52979 311.7625 147.21729 310.8875Q147.90479 309.9969 149.02979 309.9969Q150.13916 309.9969 150.79541 310.7469L150.79541 307.45L151.87354 307.45L151.87354 316.45L150.87354 316.45L150.82666 315.7625Q150.17041 316.575 149.01416 316.575Q147.92041 316.575 147.21729 315.66876Q146.52979 314.7625 146.52979 313.3094L146.52979 313.23126ZM147.60791 313.35626Q147.60791 314.4344 148.04541 315.04376Q148.49854 315.65314 149.27979 315.65314Q150.31104 315.65314 150.79541 314.71564L150.79541 311.8094Q150.31104 310.91876 149.29541 310.91876Q148.49854 310.91876 148.04541 311.52814Q147.60791 312.1375 147.60791 313.35626ZM154.96729 316.45L153.88916 316.45L153.88916 310.10626L154.96729 310.10626L154.96729 316.45ZM153.79541 308.4344Q153.79541 308.16876 153.95166 307.98126Q154.12354 307.79376 154.43604 307.79376Q154.74854 307.79376 154.90479 307.98126Q155.07666 308.16876 155.07666 308.4344Q155.07666 308.6844 154.90479 308.8719Q154.74854 309.04376 154.43604 309.04376Q154.12354 309.04376 153.95166 308.8719Q153.79541 308.6844 153.79541 308.4344ZM158.87354 314.98126L160.45166 310.10626L161.56104 310.10626L159.27979 316.45L158.45166 316.45L156.15479 310.10626L157.26416 310.10626L158.87354 314.98126ZM163.96729 316.45L162.88916 316.45L162.88916 310.10626L163.96729 310.10626L163.96729 316.45ZM162.79541 308.4344Q162.79541 308.16876 162.95166 307.98126Q163.12354 307.79376 163.43604 307.79376Q163.74854 307.79376 163.90479 307.98126Q164.07666 308.16876 164.07666 308.4344Q164.07666 308.6844 163.90479 308.8719Q163.74854 309.04376 163.43604 309.04376Q163.12354 309.04376 162.95166 308.8719Q162.79541 308.6844 162.79541 308.4344ZM169.48291 314.7625Q169.48291 314.325 169.13916 314.09064Q168.81104 313.84064 167.98291 313.66876Q167.17041 313.4969 166.68604 313.2469Q166.20166 312.9969 165.96729 312.66876Q165.74854 312.325 165.74854 311.85626Q165.74854 311.075 166.40479 310.54376Q167.06104 309.9969 168.09229 309.9969Q169.17041 309.9969 169.82666 310.5594Q170.49854 311.10626 170.49854 311.96564L169.42041 311.96564Q169.42041 311.52814 169.02979 311.21564Q168.65479 310.8875 168.09229 310.8875Q167.49854 310.8875 167.15479 311.15314Q166.82666 311.40314 166.82666 311.8094Q166.82666 312.2 167.13916 312.40314Q167.45166 312.60626 168.26416 312.79376Q169.07666 312.96564 169.57666 313.21564Q170.07666 313.46564 170.31104 313.825Q170.56104 314.1844 170.56104 314.6844Q170.56104 315.54376 169.87354 316.0594Q169.20166 316.575 168.12354 316.575Q167.35791 316.575 166.76416 316.3094Q166.18604 316.02814 165.85791 315.54376Q165.52979 315.0594 165.52979 314.4969L166.60791 314.4969Q166.63916 315.04376 167.04541 315.3719Q167.45166 315.6844 168.12354 315.6844Q168.73291 315.6844 169.10791 315.4344Q169.48291 315.1844 169.48291 314.7625ZM172.96729 316.45L171.88916 316.45L171.88916 310.10626L172.96729 310.10626L172.96729 316.45ZM171.79541 308.4344Q171.79541 308.16876 171.95166 307.98126Q172.12354 307.79376 172.43604 307.79376Q172.74854 307.79376 172.90479 307.98126Q173.07666 308.16876 173.07666 308.4344Q173.07666 308.6844 172.90479 308.8719Q172.74854 309.04376 172.43604 309.04376Q172.12354 309.04376 171.95166 308.8719Q171.79541 308.6844 171.79541 308.4344ZM174.49854 313.21564Q174.49854 312.29376 174.85791 311.54376Q175.23291 310.79376 175.88916 310.40314Q176.54541 309.9969 177.37354 309.9969Q178.67041 309.9969 179.46729 310.8875Q180.27979 311.77814 180.27979 313.27814L180.27979 313.35626Q180.27979 314.27814 179.92041 315.0125Q179.56104 315.7469 178.90479 316.16876Q178.24854 316.575 177.38916 316.575Q176.10791 316.575 175.29541 315.6844Q174.49854 314.77814 174.49854 313.29376L174.49854 313.21564ZM175.59229 313.35626Q175.59229 314.40314 176.07666 315.04376Q176.57666 315.6844 177.38916 315.6844Q178.21729 315.6844 178.70166 315.04376Q179.18604 314.3875 179.18604 313.21564Q179.18604 312.1844 178.68604 311.54376Q178.20166 310.8875 177.37354 310.8875Q176.57666 310.8875 176.07666 311.52814Q175.59229 312.15314 175.59229 313.35626ZM182.81104 310.10626L182.84229 310.90314Q183.57666 309.9969 184.74854 309.9969Q186.76416 309.9969 186.77979 312.2625L186.77979 316.45L185.68604 316.45L185.68604 312.2469Q185.68604 311.575 185.37354 311.2469Q185.07666 310.91876 184.42041 310.91876Q183.88916 310.91876 183.48291 311.2Q183.09229 311.48126 182.87354 311.9344L182.87354 316.45L181.79541 316.45L181.79541 310.10626L182.81104 310.10626Z" fill-rule="nonzero"/><path fill="#757575" d="M231.21802 316.45L231.21802 307.91876L233.6399 307.91876Q234.74927 307.91876 235.59302 308.41876Q236.4524 308.90314 236.92114 309.8094Q237.3899 310.71564 237.3899 311.90314L237.3899 312.4344Q237.3899 313.65314 236.92114 314.5594Q236.46802 315.46564 235.59302 315.95Q234.73364 316.4344 233.59302 316.45L231.21802 316.45ZM232.34302 308.84064L232.34302 315.52814L233.53052 315.52814Q234.8274 315.52814 235.54614 314.73126Q236.28052 313.91876 236.28052 312.41876L236.28052 311.91876Q236.28052 310.46564 235.59302 309.66876Q234.92114 308.85626 233.65552 308.84064L232.34302 308.84064ZM240.1399 310.8719Q240.85864 309.9969 242.0149 309.9969Q244.03052 309.9969 244.04614 312.2625L244.04614 316.45L242.9524 316.45L242.9524 312.2469Q242.9524 311.575 242.6399 311.2469Q242.34302 310.91876 241.68677 310.91876Q241.15552 310.91876 240.74927 311.2Q240.35864 311.48126 240.1399 311.9344L240.1399 316.45L239.06177 316.45L239.06177 307.45L240.1399 307.45L240.1399 310.8719ZM249.96802 316.45Q249.87427 316.2625 249.81177 315.77814Q249.06177 316.575 248.0149 316.575Q247.0774 316.575 246.46802 316.04376Q245.87427 315.5125 245.87427 314.6844Q245.87427 313.7 246.62427 313.15314Q247.37427 312.60626 248.74927 312.60626L249.79614 312.60626L249.79614 312.10626Q249.79614 311.54376 249.4524 311.21564Q249.12427 310.8719 248.4524 310.8719Q247.87427 310.8719 247.48364 311.16876Q247.09302 311.45 247.09302 311.8719L245.99927 311.8719Q245.99927 311.3875 246.3274 310.95Q246.67114 310.5125 247.24927 310.2625Q247.8274 309.9969 248.5149 309.9969Q249.62427 309.9969 250.23364 310.54376Q250.85864 311.09064 250.8899 312.04376L250.8899 314.96564Q250.8899 315.84064 251.10864 316.35626L251.10864 316.45L249.96802 316.45ZM248.17114 315.6219Q248.68677 315.6219 249.1399 315.35626Q249.59302 315.09064 249.79614 314.66876L249.79614 313.3719L248.9524 313.3719Q246.9524 313.3719 246.9524 314.54376Q246.9524 315.04376 247.29614 315.34064Q247.6399 315.6219 248.17114 315.6219ZM254.8274 313.5125L254.1399 314.21564L254.1399 316.45L253.06177 316.45L253.06177 307.45L254.1399 307.45L254.1399 312.8875L254.71802 312.2L256.7024 310.10626L258.0149 310.10626L255.54614 312.7625L258.31177 316.45L257.03052 316.45L254.8274 313.5125ZM262.96802 316.45Q262.87427 316.2625 262.81177 315.77814Q262.06177 316.575 261.0149 316.575Q260.0774 316.575 259.46802 316.04376Q258.87427 315.5125 258.87427 314.6844Q258.87427 313.7 259.62427 313.15314Q260.37427 312.60626 261.74927 312.60626L262.79614 312.60626L262.79614 312.10626Q262.79614 311.54376 262.4524 311.21564Q262.12427 310.8719 261.4524 310.8719Q260.87427 310.8719 260.48364 311.16876Q260.09302 311.45 260.09302 311.8719L258.99927 311.8719Q258.99927 311.3875 259.3274 310.95Q259.67114 310.5125 260.24927 310.2625Q260.8274 309.9969 261.5149 309.9969Q262.62427 309.9969 263.23364 310.54376Q263.85864 311.09064 263.8899 312.04376L263.8899 314.96564Q263.8899 315.84064 264.10864 316.35626L264.10864 316.45L262.96802 316.45ZM261.17114 315.6219Q261.68677 315.6219 262.1399 315.35626Q262.59302 315.09064 262.79614 314.66876L262.79614 313.3719L261.9524 313.3719Q259.9524 313.3719 259.9524 314.54376Q259.9524 315.04376 260.29614 315.34064Q260.6399 315.6219 261.17114 315.6219Z" fill-rule="nonzero"/><path fill="#757575" d="M313.26562 313.7469Q313.10938 315.09064 312.26562 315.84064Q311.42188 316.575 310.03125 316.575Q308.51562 316.575 307.60938 315.4969Q306.70312 314.40314 306.70312 312.575L306.70312 311.7625Q306.70312 310.575 307.125 309.66876Q307.54688 308.7625 308.32812 308.27814Q309.10938 307.79376 310.125 307.79376Q311.48438 307.79376 312.29688 308.5594Q313.125 309.325 313.26562 310.65314L312.14062 310.65314Q311.98438 309.6375 311.5 309.1844Q311.01562 308.73126 310.125 308.73126Q309.04688 308.73126 308.4375 309.52814Q307.82812 310.325 307.82812 311.79376L307.82812 312.6219Q307.82812 314.0125 308.40625 314.84064Q308.98438 315.65314 310.03125 315.65314Q310.96875 315.65314 311.46875 315.23126Q311.96875 314.79376 312.14062 313.7469L313.26562 313.7469ZM315.90625 310.8719Q316.625 309.9969 317.78125 309.9969Q319.79688 309.9969 319.8125 312.2625L319.8125 316.45L318.71875 316.45L318.71875 312.2469Q318.71875 311.575 318.40625 311.2469Q318.10938 310.91876 317.45312 310.91876Q316.92188 310.91876 316.51562 311.2Q316.125 311.48126 315.90625 311.9344L315.90625 316.45L314.82812 316.45L314.82812 307.45L315.90625 307.45L315.90625 310.8719ZM323.0 316.45L321.92188 316.45L321.92188 310.10626L323.0 310.10626L323.0 316.45ZM321.82812 308.4344Q321.82812 308.16876 321.98438 307.98126Q322.15625 307.79376 322.46875 307.79376Q322.78125 307.79376 322.9375 307.98126Q323.10938 308.16876 323.10938 308.4344Q323.10938 308.6844 322.9375 308.8719Q322.78125 309.04376 322.46875 309.04376Q322.15625 309.04376 321.98438 308.8719Q321.82812 308.6844 321.82812 308.4344ZM326.29688 308.575L326.29688 310.10626L327.46875 310.10626L327.46875 310.95L326.29688 310.95L326.29688 314.8719Q326.29688 315.2625 326.45312 315.45Q326.60938 315.6375 326.98438 315.6375Q327.17188 315.6375 327.5 315.575L327.5 316.45Q327.07812 316.575 326.67188 316.575Q325.95312 316.575 325.57812 316.1375Q325.20312 315.6844 325.20312 314.8719L325.20312 310.95L324.04688 310.95L324.04688 310.10626L325.20312 310.10626L325.20312 308.575L326.29688 308.575ZM330.29688 308.575L330.29688 310.10626L331.46875 310.10626L331.46875 310.95L330.29688 310.95L330.29688 314.8719Q330.29688 315.2625 330.45312 315.45Q330.60938 315.6375 330.98438 315.6375Q331.17188 315.6375 331.5 315.575L331.5 316.45Q331.07812 316.575 330.67188 316.575Q329.95312 316.575 329.57812 316.1375Q329.20312 315.6844 329.20312 314.8719L329.20312 310.95L328.04688 310.95L328.04688 310.10626L329.20312 310.10626L329.20312 308.575L330.29688 308.575ZM336.73438 316.45Q336.64062 316.2625 336.57812 315.77814Q335.82812 316.575 334.78125 316.575Q333.84375 316.575 333.23438 316.04376Q332.64062 315.5125 332.64062 314.6844Q332.64062 313.7 333.39062 313.15314Q334.14062 312.60626 335.51562 312.60626L336.5625 312.60626L336.5625 312.10626Q336.5625 311.54376 336.21875 311.21564Q335.89062 310.8719 335.21875 310.8719Q334.64062 310.8719 334.25 311.16876Q333.85938 311.45 333.85938 311.8719L332.76562 311.8719Q332.76562 311.3875 333.09375 310.95Q333.4375 310.5125 334.01562 310.2625Q334.59375 309.9969 335.28125 309.9969Q336.39062 309.9969 337.0 310.54376Q337.625 311.09064 337.65625 312.04376L337.65625 314.96564Q337.65625 315.84064 337.875 316.35626L337.875 316.45L336.73438 316.45ZM334.9375 315.6219Q335.45312 315.6219 335.90625 315.35626Q336.35938 315.09064 336.5625 314.66876L336.5625 313.3719L335.71875 313.3719Q333.71875 313.3719 333.71875 314.54376Q333.71875 315.04376 334.0625 315.34064Q334.40625 315.6219 334.9375 315.6219ZM339.5625 313.23126Q339.5625 311.7469 340.25 310.8719Q340.9375 309.9969 342.0625 309.9969Q343.21875 309.9969 343.875 310.8094L343.92188 310.10626L344.92188 310.10626L344.92188 316.29376Q344.92188 317.52814 344.1875 318.23126Q343.45312 318.95 342.23438 318.95Q341.54688 318.95 340.89062 318.65314Q340.23438 318.35626 339.89062 317.85626L340.45312 317.2Q341.14062 318.0594 342.15625 318.0594Q342.9375 318.0594 343.375 317.60626Q343.82812 317.16876 343.82812 316.35626L343.82812 315.8094Q343.17188 316.575 342.04688 316.575Q340.9375 316.575 340.25 315.6844Q339.5625 314.77814 339.5625 313.23126ZM340.65625 313.35626Q340.65625 314.41876 341.09375 315.04376Q341.53125 315.65314 342.32812 315.65314Q343.34375 315.65314 343.82812 314.71564L343.82812 311.825Q343.32812 310.91876 342.32812 310.91876Q341.54688 310.91876 341.09375 311.52814Q340.65625 312.1375 340.65625 313.35626ZM346.53125 313.21564Q346.53125 312.29376 346.89062 311.54376Q347.26562 310.79376 347.92188 310.40314Q348.57812 309.9969 349.40625 309.9969Q350.70312 309.9969 351.5 310.8875Q352.3125 311.77814 352.3125 313.27814L352.3125 313.35626Q352.3125 314.27814 351.95312 315.0125Q351.59375 315.7469 350.9375 316.16876Q350.28125 316.575 349.42188 316.575Q348.14062 316.575 347.32812 315.6844Q346.53125 314.77814 346.53125 313.29376L346.53125 313.21564ZM347.625 313.35626Q347.625 314.40314 348.10938 315.04376Q348.60938 315.6844 349.42188 315.6844Q350.25 315.6844 350.73438 315.04376Q351.21875 314.3875 351.21875 313.21564Q351.21875 312.1844 350.71875 311.54376Q350.23438 310.8875 349.40625 310.8875Q348.60938 310.8875 348.10938 311.52814Q347.625 312.15314 347.625 313.35626ZM354.84375 310.10626L354.875 310.90314Q355.60938 309.9969 356.78125 309.9969Q358.79688 309.9969 358.8125 312.2625L358.8125 316.45L357.71875 316.45L357.71875 312.2469Q357.71875 311.575 357.40625 311.2469Q357.10938 310.91876 356.45312 310.91876Q355.92188 310.91876 355.51562 311.2Q355.125 311.48126 354.90625 311.9344L354.90625 316.45L353.82812 316.45L353.82812 310.10626L354.84375 310.10626ZM360.5625 313.23126Q360.5625 311.7469 361.25 310.8719Q361.9375 309.9969 363.0625 309.9969Q364.21875 309.9969 364.875 310.8094L364.92188 310.10626L365.92188 310.10626L365.92188 316.29376Q365.92188 317.52814 365.1875 318.23126Q364.45312 318.95 363.23438 318.95Q362.54688 318.95 361.89062 318.65314Q361.23438 318.35626 360.89062 317.85626L361.45312 317.2Q362.14062 318.0594 363.15625 318.0594Q363.9375 318.0594 364.375 317.60626Q364.82812 317.16876 364.82812 316.35626L364.82812 315.8094Q364.17188 316.575 363.04688 316.575Q361.9375 316.575 361.25 315.6844Q360.5625 314.77814 360.5625 313.23126ZM361.65625 313.35626Q361.65625 314.41876 362.09375 315.04376Q362.53125 315.65314 363.32812 315.65314Q364.34375 315.65314 364.82812 314.71564L364.82812 311.825Q364.32812 310.91876 363.32812 310.91876Q362.54688 310.91876 362.09375 311.52814Q361.65625 312.1375 361.65625 313.35626Z" fill-rule="nonzero"/><path fill="#757575" d="M404.25073 316.45L404.25073 307.91876L407.0476 307.91876Q408.43823 307.91876 409.12573 308.4969Q409.82886 309.0594 409.82886 310.1844Q409.82886 310.79376 409.4851 311.2625Q409.15698 311.71564 408.56323 311.96564Q409.26636 312.15314 409.65698 312.7Q410.06323 313.23126 410.06323 313.98126Q410.06323 315.1375 409.31323 315.79376Q408.57886 316.45 407.21948 316.45L404.25073 316.45ZM405.37573 312.46564L405.37573 315.52814L407.2351 315.52814Q408.03198 315.52814 408.4851 315.1219Q408.93823 314.71564 408.93823 313.9969Q408.93823 312.46564 407.25073 312.46564L405.37573 312.46564ZM405.37573 311.5594L407.07886 311.5594Q407.81323 311.5594 408.25073 311.2Q408.70386 310.825 408.70386 310.1844Q408.70386 309.48126 408.2976 309.16876Q407.89136 308.84064 407.0476 308.84064L405.37573 308.84064L405.37573 311.5594ZM415.00073 316.45Q414.90698 316.2625 414.84448 315.77814Q414.09448 316.575 413.0476 316.575Q412.1101 316.575 411.50073 316.04376Q410.90698 315.5125 410.90698 314.6844Q410.90698 313.7 411.65698 313.15314Q412.40698 312.60626 413.78198 312.60626L414.82886 312.60626L414.82886 312.10626Q414.82886 311.54376 414.4851 311.21564Q414.15698 310.8719 413.4851 310.8719Q412.90698 310.8719 412.51636 311.16876Q412.12573 311.45 412.12573 311.8719L411.03198 311.8719Q411.03198 311.3875 411.3601 310.95Q411.70386 310.5125 412.28198 310.2625Q412.8601 309.9969 413.5476 309.9969Q414.65698 309.9969 415.26636 310.54376Q415.89136 311.09064 415.9226 312.04376L415.9226 314.96564Q415.9226 315.84064 416.14136 316.35626L416.14136 316.45L415.00073 316.45ZM413.20386 315.6219Q413.71948 315.6219 414.1726 315.35626Q414.62573 315.09064 414.82886 314.66876L414.82886 313.3719L413.9851 313.3719Q411.9851 313.3719 411.9851 314.54376Q411.9851 315.04376 412.32886 315.34064Q412.6726 315.6219 413.20386 315.6219ZM421.15698 311.075Q420.90698 311.04376 420.62573 311.04376Q419.5476 311.04376 419.1726 311.95L419.1726 316.45L418.09448 316.45L418.09448 310.10626L419.14136 310.10626L419.15698 310.84064Q419.68823 309.9969 420.6726 309.9969Q420.9851 309.9969 421.15698 310.075L421.15698 311.075ZM423.26636 316.45L422.18823 316.45L422.18823 310.10626L423.26636 310.10626L423.26636 316.45ZM422.09448 308.4344Q422.09448 308.16876 422.25073 307.98126Q422.4226 307.79376 422.7351 307.79376Q423.0476 307.79376 423.20386 307.98126Q423.37573 308.16876 423.37573 308.4344Q423.37573 308.6844 423.20386 308.8719Q423.0476 309.04376 422.7351 309.04376Q422.4226 309.04376 422.25073 308.8719Q422.09448 308.6844 422.09448 308.4344ZM428.78198 314.7625Q428.78198 314.325 428.43823 314.09064Q428.1101 313.84064 427.28198 313.66876Q426.46948 313.4969 425.9851 313.2469Q425.50073 312.9969 425.26636 312.66876Q425.0476 312.325 425.0476 311.85626Q425.0476 311.075 425.70386 310.54376Q426.3601 309.9969 427.39136 309.9969Q428.46948 309.9969 429.12573 310.5594Q429.7976 311.10626 429.7976 311.96564L428.71948 311.96564Q428.71948 311.52814 428.32886 311.21564Q427.95386 310.8875 427.39136 310.8875Q426.7976 310.8875 426.45386 311.15314Q426.12573 311.40314 426.12573 311.8094Q426.12573 312.2 426.43823 312.40314Q426.75073 312.60626 427.56323 312.79376Q428.37573 312.96564 428.87573 313.21564Q429.37573 313.46564 429.6101 313.825Q429.8601 314.1844 429.8601 314.6844Q429.8601 315.54376 429.1726 316.0594Q428.50073 316.575 427.4226 316.575Q426.65698 316.575 426.06323 316.3094Q425.4851 316.02814 425.15698 315.54376Q424.82886 315.0594 424.82886 314.4969L425.90698 314.4969Q425.93823 315.04376 426.34448 315.3719Q426.75073 315.6844 427.4226 315.6844Q428.03198 315.6844 428.40698 315.4344Q428.78198 315.1844 428.78198 314.7625ZM432.1726 310.8719Q432.89136 309.9969 434.0476 309.9969Q436.06323 309.9969 436.07886 312.2625L436.07886 316.45L434.9851 316.45L434.9851 312.2469Q434.9851 311.575 434.6726 311.2469Q434.37573 310.91876 433.71948 310.91876Q433.18823 310.91876 432.78198 311.2Q432.39136 311.48126 432.1726 311.9344L432.1726 316.45L431.09448 316.45L431.09448 307.45L432.1726 307.45L432.1726 310.8719ZM442.00073 316.45Q441.90698 316.2625 441.84448 315.77814Q441.09448 316.575 440.0476 316.575Q439.1101 316.575 438.50073 316.04376Q437.90698 315.5125 437.90698 314.6844Q437.90698 313.7 438.65698 313.15314Q439.40698 312.60626 440.78198 312.60626L441.82886 312.60626L441.82886 312.10626Q441.82886 311.54376 441.4851 311.21564Q441.15698 310.8719 440.4851 310.8719Q439.90698 310.8719 439.51636 311.16876Q439.12573 311.45 439.12573 311.8719L438.03198 311.8719Q438.03198 311.3875 438.3601 310.95Q438.70386 310.5125 439.28198 310.2625Q439.8601 309.9969 440.5476 309.9969Q441.65698 309.9969 442.26636 310.54376Q442.89136 311.09064 442.9226 312.04376L442.9226 314.96564Q442.9226 315.84064 443.14136 316.35626L443.14136 316.45L442.00073 316.45ZM440.20386 315.6219Q440.71948 315.6219 441.1726 315.35626Q441.62573 315.09064 441.82886 314.66876L441.82886 313.3719L440.9851 313.3719Q438.9851 313.3719 438.9851 314.54376Q438.9851 315.04376 439.32886 315.34064Q439.6726 315.6219 440.20386 315.6219ZM446.26636 316.45L445.18823 316.45L445.18823 307.45L446.26636 307.45L446.26636 316.45Z" fill-rule="nonzero"/><path fill="#757575" d="M501.0327 312.65314Q499.5952 312.23126 498.92334 311.6219Q498.2671 311.0125 498.2671 310.1219Q498.2671 309.1219 499.06396 308.46564Q499.87646 307.79376 501.17334 307.79376Q502.04834 307.79376 502.73584 308.1375Q503.42334 308.48126 503.79834 309.075Q504.18896 309.66876 504.18896 310.3875L503.04834 310.3875Q503.04834 309.60626 502.54834 309.16876Q502.06396 308.73126 501.17334 308.73126Q500.3452 308.73126 499.87646 309.10626Q499.4077 309.46564 499.4077 310.10626Q499.4077 310.6375 499.8452 310.9969Q500.29834 311.35626 501.36084 311.65314Q502.42334 311.95 503.0171 312.3094Q503.62646 312.66876 503.9077 313.15314Q504.2046 313.6375 504.2046 314.27814Q504.2046 315.325 503.3921 315.95Q502.5796 316.575 501.23584 316.575Q500.3452 316.575 499.5796 316.23126Q498.8296 315.8875 498.4077 315.3094Q498.00146 314.71564 498.00146 313.98126L499.12646 313.98126Q499.12646 314.7469 499.7046 315.2Q500.2827 315.65314 501.23584 315.65314Q502.12646 315.65314 502.5952 315.29376Q503.06396 314.91876 503.06396 314.29376Q503.06396 313.66876 502.62646 313.325Q502.18896 312.98126 501.0327 312.65314ZM507.42334 314.85626L508.9077 310.10626L510.06396 310.10626L507.5171 317.4344Q506.92334 319.0125 505.6421 319.0125L505.42334 318.9969L505.0327 318.91876L505.0327 318.04376L505.31396 318.0594Q505.87646 318.0594 506.17334 317.84064Q506.48584 317.6219 506.68896 317.02814L506.92334 316.3719L504.6577 310.10626L505.8452 310.10626L507.42334 314.85626ZM512.5327 316.45L511.4546 316.45L511.4546 307.45L512.5327 307.45L512.5327 316.45ZM515.43896 310.8719Q516.1577 309.9969 517.31396 309.9969Q519.3296 309.9969 519.3452 312.2625L519.3452 316.45L518.25146 316.45L518.25146 312.2469Q518.25146 311.575 517.93896 311.2469Q517.6421 310.91876 516.98584 310.91876Q516.4546 310.91876 516.04834 311.2Q515.6577 311.48126 515.43896 311.9344L515.43896 316.45L514.36084 316.45L514.36084 307.45L515.43896 307.45L515.43896 310.8719ZM523.98584 316.575Q522.68896 316.575 521.87646 315.73126Q521.0796 314.8719 521.0796 313.45L521.0796 313.2625Q521.0796 312.3094 521.43896 311.575Q521.79834 310.825 522.43896 310.41876Q523.0952 309.9969 523.8452 309.9969Q525.0796 309.9969 525.7671 310.8094Q526.4546 311.6219 526.4546 313.1375L526.4546 313.59064L522.1577 313.59064Q522.18896 314.52814 522.7046 315.10626Q523.23584 315.6844 524.04834 315.6844Q524.61084 315.6844 525.00146 315.45Q525.4077 315.21564 525.7202 314.825L526.37646 315.34064Q525.5796 316.575 523.98584 316.575ZM523.8452 310.8875Q523.18896 310.8875 522.73584 311.3719Q522.29834 311.84064 522.2046 312.7L525.37646 312.7L525.37646 312.6219Q525.3296 311.79376 524.92334 311.34064Q524.5327 310.8875 523.8452 310.8875ZM528.8296 308.575L528.8296 310.10626L530.00146 310.10626L530.00146 310.95L528.8296 310.95L528.8296 314.8719Q528.8296 315.2625 528.98584 315.45Q529.1421 315.6375 529.5171 315.6375Q529.7046 315.6375 530.0327 315.575L530.0327 316.45Q529.61084 316.575 529.2046 316.575Q528.48584 316.575 528.11084 316.1375Q527.73584 315.6844 527.73584 314.8719L527.73584 310.95L526.5796 310.95L526.5796 310.10626L527.73584 310.10626L527.73584 308.575L528.8296 308.575Z" fill-rule="nonzero"/><path fill="#757575" d="M22.3625 24.425L22.3625 26.9875L24.346874 26.9875L24.346874 28.378124L22.3625 28.378124L22.3625 34.925Q22.3625 35.565624 22.628124 35.89375Q22.89375 36.20625 23.534374 36.20625Q23.846874 36.20625 24.39375 36.08125L24.39375 37.55Q23.675 37.753124 23.003124 37.753124Q21.8 37.753124 21.175 37.01875Q20.565624 36.284374 20.565624 34.925L20.565624 28.378124L18.64375 28.378124L18.64375 26.9875L20.565624 26.9875L20.565624 24.425L22.3625 24.425ZM26.440624 32.175Q26.440624 30.6125 27.05 29.378124Q27.659374 28.128124 28.7375 27.45625Q29.83125 26.784374 31.2375 26.784374Q33.39375 26.784374 34.721874 28.284374Q36.065624 29.76875 36.065624 32.253124L36.065624 32.378124Q36.065624 33.925 35.471874 35.159374Q34.878124 36.378124 33.76875 37.065624Q32.675 37.753124 31.253124 37.753124Q29.1125 37.753124 27.76875 36.253124Q26.440624 34.753124 26.440624 32.3L26.440624 32.175ZM28.253124 32.378124Q28.253124 34.14375 29.065624 35.20625Q29.89375 36.26875 31.253124 36.26875Q32.628124 36.26875 33.440624 35.190624Q34.253124 34.1125 34.253124 32.175Q34.253124 30.425 33.425 29.346874Q32.596874 28.26875 31.2375 28.26875Q29.89375 28.26875 29.065624 29.33125Q28.253124 30.39375 28.253124 32.378124ZM40.3625 24.425L40.3625 26.9875L42.346874 26.9875L42.346874 28.378124L40.3625 28.378124L40.3625 34.925Q40.3625 35.565624 40.628124 35.89375Q40.89375 36.20625 41.534374 36.20625Q41.846874 36.20625 42.39375 36.08125L42.39375 37.55Q41.675 37.753124 41.003124 37.753124Q39.8 37.753124 39.175 37.01875Q38.565624 36.284374 38.565624 34.925L38.565624 28.378124L36.64375 28.378124L36.64375 26.9875L38.565624 26.9875L38.565624 24.425L40.3625 24.425ZM51.440624 37.55Q51.284374 37.2375 51.190624 36.440624Q49.925 37.753124 48.175 37.753124Q46.6125 37.753124 45.6125 36.8625Q44.6125 35.971874 44.6125 34.6125Q44.6125 32.971874 45.8625 32.065624Q47.128124 31.14375 49.39375 31.14375L51.159374 31.14375L51.159374 30.315624Q51.159374 29.3625 50.58125 28.8Q50.01875 28.2375 48.925 28.2375Q47.95625 28.2375 47.3 28.7375Q46.64375 29.221874 46.64375 29.909374L44.83125 29.909374Q44.83125 29.128124 45.39375 28.39375Q45.95625 27.64375 46.909374 27.221874Q47.878124 26.784374 49.034374 26.784374Q50.8625 26.784374 51.89375 27.70625Q52.925 28.6125 52.971874 30.221874L52.971874 35.08125Q52.971874 36.534374 53.33125 37.39375L53.33125 37.55L51.440624 37.55ZM48.440624 36.175Q49.3 36.175 50.05 35.7375Q50.815624 35.3 51.159374 34.596874L51.159374 32.425L49.7375 32.425Q46.425 32.425 46.425 34.3625Q46.425 35.221874 46.9875 35.70625Q47.55 36.175 48.440624 36.175ZM57.878124 37.55L56.08125 37.55L56.08125 22.55L57.878124 22.55L57.878124 37.55ZM68.53438 39.01875L59.596874 39.01875L59.596874 37.55L68.53438 37.55L68.53438 39.01875ZM78.8625 32.378124Q78.8625 34.8 77.75313 36.284374Q76.64375 37.753124 74.76875 37.753124Q72.75313 37.753124 71.65938 36.33125L71.58125 37.55L69.925 37.55L69.925 22.55L71.72188 22.55L71.72188 28.14375Q72.81563 26.784374 74.7375 26.784374Q76.65938 26.784374 77.75313 28.2375Q78.8625 29.690624 78.8625 32.221874L78.8625 32.378124ZM77.05 32.175Q77.05 30.33125 76.33125 29.33125Q75.62813 28.315624 74.3 28.315624Q72.50313 28.315624 71.72188 29.9875L71.72188 34.55Q72.55 36.20625 74.31563 36.20625Q75.6125 36.20625 76.33125 35.20625Q77.05 34.20625 77.05 32.175ZM87.44063 36.503124Q86.39375 37.753124 84.34688 37.753124Q82.65938 37.753124 81.76875 36.76875Q80.89375 35.784374 80.87813 33.8625L80.87813 26.9875L82.69063 26.9875L82.69063 33.815624Q82.69063 36.20625 84.64375 36.20625Q86.70625 36.20625 87.39375 34.675L87.39375 26.9875L89.20625 26.9875L89.20625 37.55L87.4875 37.55L87.44063 36.503124ZM95.37813 34.909374L97.83125 26.9875L99.76875 26.9875L95.51875 39.175Q94.53438 41.815624 92.39375 41.815624L92.05 41.784374L91.37813 41.659374L91.37813 40.190624L91.8625 40.2375Q92.78438 40.2375 93.28438 39.8625Q93.8 39.4875 94.12813 38.503124L94.53438 37.425L90.76875 26.9875L92.7375 26.9875L95.37813 34.909374ZM105.3 37.753124Q103.15938 37.753124 101.8 36.346874Q100.45625 34.925 100.45625 32.565624L100.45625 32.221874Q100.45625 30.659374 101.05 29.425Q101.65938 28.190624 102.7375 27.4875Q103.81563 26.784374 105.08125 26.784374Q107.14375 26.784374 108.28438 28.14375Q109.425 29.503124 109.425 32.034374L109.425 32.784374L102.26875 32.784374Q102.3 34.346874 103.175 35.315624Q104.05 36.26875 105.39375 36.26875Q106.3625 36.26875 107.01875 35.878124Q107.69063 35.4875 108.19063 34.846874L109.28438 35.70625Q107.95625 37.753124 105.3 37.753124ZM105.08125 28.26875Q103.9875 28.26875 103.2375 29.065624Q102.50313 29.8625 102.33125 31.3L107.6125 31.3L107.6125 31.159374Q107.53438 29.784374 106.8625 29.034374Q106.20625 28.26875 105.08125 28.26875ZM117.01875 28.596874Q116.6125 28.534374 116.14375 28.534374Q114.3625 28.534374 113.72188 30.05L113.72188 37.55L111.925 37.55L111.925 26.9875L113.675 26.9875L113.70625 28.20625Q114.59688 26.784374 116.22188 26.784374Q116.75313 26.784374 117.01875 26.925L117.01875 28.596874ZM127.40938 35.096874L130.01875 26.9875L131.8625 26.9875L128.08125 37.55L126.70625 37.55L122.87813 26.9875L124.72188 26.9875L127.40938 35.096874ZM140.06563 34.753124Q140.06563 34.01875 139.51875 33.6125Q138.97188 33.20625 137.59688 32.909374Q136.22188 32.6125 135.40938 32.20625Q134.6125 31.8 134.22188 31.2375Q133.84688 30.659374 133.84688 29.878124Q133.84688 28.58125 134.94063 27.690624Q136.03438 26.784374 137.75313 26.784374Q139.55 26.784374 140.65938 27.721874Q141.78438 28.64375 141.78438 30.08125L139.95625 30.08125Q139.95625 29.346874 139.33125 28.815624Q138.70625 28.26875 137.75313 28.26875Q136.75313 28.26875 136.19063 28.70625Q135.64375 29.128124 135.64375 29.83125Q135.64375 30.471874 136.15938 30.815624Q136.675 31.14375 138.03438 31.45625Q139.39375 31.753124 140.22188 32.175Q141.06563 32.58125 141.47188 33.175Q141.87813 33.76875 141.87813 34.6125Q141.87813 36.034374 140.7375 36.89375Q139.6125 37.753124 137.8 37.753124Q136.53438 37.753124 135.55 37.3Q134.58125 36.846874 134.01875 36.05Q133.47188 35.2375 133.47188 34.3L135.28438 34.3Q135.33125 35.20625 136.00313 35.7375Q136.69063 36.26875 137.8 36.26875Q138.83125 36.26875 139.44063 35.8625Q140.06563 35.440624 140.06563 34.753124ZM143.95625 36.596874Q143.95625 36.128124 144.2375 35.815624Q144.51875 35.503124 145.06563 35.503124Q145.62813 35.503124 145.90938 35.815624Q146.20625 36.128124 146.20625 36.596874Q146.20625 37.05 145.90938 37.3625Q145.62813 37.659374 145.06563 37.659374Q144.51875 37.659374 144.2375 37.3625Q143.95625 37.05 143.95625 36.596874ZM153.47188 32.175Q153.47188 29.753124 154.62813 28.26875Q155.78438 26.784374 157.64375 26.784374Q159.50313 26.784374 160.58125 28.05L160.58125 22.55L162.39375 22.55L162.39375 37.55L160.7375 37.55L160.64375 36.409374Q159.56563 37.753124 157.62813 37.753124Q155.8 37.753124 154.62813 36.253124Q153.47188 34.7375 153.47188 32.315624L153.47188 32.175ZM155.28438 32.378124Q155.28438 34.175 156.01875 35.190624Q156.76875 36.20625 158.08125 36.20625Q159.8 36.20625 160.58125 34.675L160.58125 29.815624Q159.78438 28.315624 158.09688 28.315624Q156.76875 28.315624 156.01875 29.346874Q155.28438 30.378124 155.28438 32.378124ZM166.87813 37.55L165.08125 37.55L165.08125 26.9875L166.87813 26.9875L166.87813 37.55ZM164.925 24.175Q164.925 23.7375 165.19063 23.440624Q165.47188 23.128124 165.9875 23.128124Q166.51875 23.128124 166.78438 23.440624Q167.06563 23.7375 167.06563 24.175Q167.06563 24.6125 166.78438 24.909374Q166.51875 25.20625 165.9875 25.20625Q165.47188 25.20625 165.19063 24.909374Q164.925 24.6125 164.925 24.175ZM173.40938 35.096874L176.01875 26.9875L177.8625 26.9875L174.08125 37.55L172.70625 37.55L168.87813 26.9875L170.72188 26.9875L173.40938 35.096874ZM181.87813 37.55L180.08125 37.55L180.08125 26.9875L181.87813 26.9875L181.87813 37.55ZM179.925 24.175Q179.925 23.7375 180.19063 23.440624Q180.47188 23.128124 180.9875 23.128124Q181.51875 23.128124 181.78438 23.440624Q182.06563 23.7375 182.06563 24.175Q182.06563 24.6125 181.78438 24.909374Q181.51875 25.20625 180.9875 25.20625Q180.47188 25.20625 180.19063 24.909374Q179.925 24.6125 179.925 24.175ZM191.06563 34.753124Q191.06563 34.01875 190.51875 33.6125Q189.97188 33.20625 188.59688 32.909374Q187.22188 32.6125 186.40938 32.20625Q185.6125 31.8 185.22188 31.2375Q184.84688 30.659374 184.84688 29.878124Q184.84688 28.58125 185.94063 27.690624Q187.03438 26.784374 188.75313 26.784374Q190.55 26.784374 191.65938 27.721874Q192.78438 28.64375 192.78438 30.08125L190.95625 30.08125Q190.95625 29.346874 190.33125 28.815624Q189.70625 28.26875 188.75313 28.26875Q187.75313 28.26875 187.19063 28.70625Q186.64375 29.128124 186.64375 29.83125Q186.64375 30.471874 187.15938 30.815624Q187.675 31.14375 189.03438 31.45625Q190.39375 31.753124 191.22188 32.175Q192.06563 32.58125 192.47188 33.175Q192.87813 33.76875 192.87813 34.6125Q192.87813 36.034374 191.7375 36.89375Q190.6125 37.753124 188.8 37.753124Q187.53438 37.753124 186.55 37.3Q185.58125 36.846874 185.01875 36.05Q184.47188 35.2375 184.47188 34.3L186.28438 34.3Q186.33125 35.20625 187.00313 35.7375Q187.69063 36.26875 188.8 36.26875Q189.83125 36.26875 190.44063 35.8625Q191.06563 35.440624 191.06563 34.753124ZM196.87813 37.55L195.08125 37.55L195.08125 26.9875L196.87813 26.9875L196.87813 37.55ZM194.925 24.175Q194.925 23.7375 195.19063 23.440624Q195.47188 23.128124 195.9875 23.128124Q196.51875 23.128124 196.78438 23.440624Q197.06563 23.7375 197.06563 24.175Q197.06563 24.6125 196.78438 24.909374Q196.51875 25.20625 195.9875 25.20625Q195.47188 25.20625 195.19063 24.909374Q194.925 24.6125 194.925 24.175ZM199.44063 32.175Q199.44063 30.6125 200.05 29.378124Q200.65938 28.128124 201.7375 27.45625Q202.83125 26.784374 204.2375 26.784374Q206.39375 26.784374 207.72188 28.284374Q209.06563 29.76875 209.06563 32.253124L209.06563 32.378124Q209.06563 33.925 208.47188 35.159374Q207.87813 36.378124 206.76875 37.065624Q205.675 37.753124 204.25313 37.753124Q202.1125 37.753124 200.76875 36.253124Q199.44063 34.753124 199.44063 32.3L199.44063 32.175ZM201.25313 32.378124Q201.25313 34.14375 202.06563 35.20625Q202.89375 36.26875 204.25313 36.26875Q205.62813 36.26875 206.44063 35.190624Q207.25313 34.1125 207.25313 32.175Q207.25313 30.425 206.425 29.346874Q205.59688 28.26875 204.2375 28.26875Q202.89375 28.26875 202.06563 29.33125Q201.25313 30.39375 201.25313 32.378124ZM212.62813 26.9875L212.69063 28.315624Q213.89375 26.784374 215.84688 26.784374Q219.20625 26.784374 219.22188 30.565624L219.22188 37.55L217.425 37.55L217.425 30.55Q217.40938 29.409374 216.89375 28.8625Q216.39375 28.315624 215.3 28.315624Q214.425 28.315624 213.75313 28.784374Q213.09688 29.253124 212.72188 30.01875L212.72188 37.55L210.925 37.55L210.925 26.9875L212.62813 26.9875Z" fill-rule="nonzero"/></svg>