<svg version="1.1" viewBox="0.0 0.0 600.0 371.0" fill="none" stroke="none" stroke-linecap="square" stroke-miterlimit="10" width="600" height="371" xmlns:xlink="http://www.w3.org/1999/xlink" xmlns="http://www.w3.org/2000/svg"><path fill="#ffffff" d="M0 0L600.0 0L600.0 371.0L0 371.0L0 0Z" fill-rule="nonzero"/><path stroke="#333333" stroke-width="1.0" stroke-linecap="butt" d="M123.5 284.5L581.5 284.5" fill-rule="nonzero"/><path fill="#eeeeee" d="M109.5 298.5L123.5 285.5L581.5 285.5L567.5 298.5Z" fill-rule="nonzero"/><path stroke="#cccccc" stroke-width="1.0" stroke-linecap="butt" d="M123.5 240.5L581.5 240.5" fill-rule="nonzero"/><path stroke="#cccccc" stroke-width="1.0" stroke-linecap="butt" d="M123.5 195.5L581.5 195.5" fill-rule="nonzero"/><path stroke="#cccccc" stroke-width="1.0" stroke-linecap="butt" d="M123.5 151.5L581.5 151.5" fill-rule="nonzero"/><path stroke="#cccccc" stroke-width="1.0" stroke-linecap="butt" d="M123.5 106.5L581.5 106.5" fill-rule="nonzero"/><path stroke="#cccccc" stroke-width="1.0" stroke-linecap="butt" d="M123.5 62.5L581.5 62.5" fill-rule="nonzero"/><clipPath id="id_0"><path d="M109.55 62.416668L581.45 62.416668L581.45 298.45L109.55 298.45L109.55 62.416668Z" clip-rule="nonzero"/></clipPath><path fill="#7e5068" clip-path="url(#id_0)" d="M171.0 98.0L171.0 284.0L162.0 293.0L162.0 107.0Z" fill-rule="nonzero"/><path fill="#ce95b3" clip-path="url(#id_0)" d="M162.0 107.0L125.0 107.0L134.0 98.0L171.0 98.0Z" fill-rule="nonzero"/><path stroke="#000000" stroke-width="2.0" stroke-linecap="butt" stroke-opacity="0.0" clip-path="url(#id_0)" d="M162.0 293.0L125.0 293.0L125.0 107.0L162.0 107.0Z" fill-rule="nonzero"/><path fill="#c27ba0" clip-path="url(#id_0)" d="M162.0 293.0L125.0 293.0L125.0 107.0L162.0 107.0Z" fill-rule="nonzero"/><path fill="#7e5068" clip-path="url(#id_0)" d="M228.0 136.0L228.0 284.0L219.0 293.0L219.0 145.0Z" fill-rule="nonzero"/><path fill="#ce95b3" clip-path="url(#id_0)" d="M219.0 145.0L182.0 145.0L191.0 136.0L228.0 136.0Z" fill-rule="nonzero"/><path stroke="#000000" stroke-width="2.0" stroke-linecap="butt" stroke-opacity="0.0" clip-path="url(#id_0)" d="M219.0 293.0L182.0 293.0L182.0 145.0L219.0 145.0Z" fill-rule="nonzero"/><path fill="#c27ba0" clip-path="url(#id_0)" d="M219.0 293.0L182.0 293.0L182.0 145.0L219.0 145.0Z" fill-rule="nonzero"/><path fill="#7e5068" clip-path="url(#id_0)" d="M284.0 278.0L284.0 284.0L275.0 293.0L275.0 287.0Z" fill-rule="nonzero"/><path fill="#ce95b3" clip-path="url(#id_0)" d="M275.0 287.0L238.0 287.0L247.0 278.0L284.0 278.0Z" fill-rule="nonzero"/><path stroke="#000000" stroke-width="2.0" stroke-linecap="butt" stroke-opacity="0.0" clip-path="url(#id_0)" d="M275.0 293.0L238.0 293.0L238.0 287.0L275.0 287.0Z" fill-rule="nonzero"/><path fill="#c27ba0" clip-path="url(#id_0)" d="M275.0 293.0L238.0 293.0L238.0 287.0L275.0 287.0Z" fill-rule="nonzero"/><path fill="#7e5068" clip-path="url(#id_0)" d="M341.0 278.0L341.0 284.0L332.0 293.0L332.0 287.0Z" fill-rule="nonzero"/><path fill="#ce95b3" clip-path="url(#id_0)" d="M332.0 287.0L295.0 287.0L304.0 278.0L341.0 278.0Z" fill-rule="nonzero"/><path stroke="#000000" stroke-width="2.0" stroke-linecap="butt" stroke-opacity="0.0" clip-path="url(#id_0)" d="M332.0 293.0L295.0 293.0L295.0 287.0L332.0 287.0Z" fill-rule="nonzero"/><path fill="#c27ba0" clip-path="url(#id_0)" d="M332.0 293.0L295.0 293.0L295.0 287.0L332.0 287.0Z" fill-rule="nonzero"/><path fill="#7e5068" clip-path="url(#id_0)" d="M397.0 278.0L397.0 284.0L388.0 293.0L388.0 287.0Z" fill-rule="nonzero"/><path fill="#ce95b3" clip-path="url(#id_0)" d="M388.0 287.0L351.0 287.0L360.0 278.0L397.0 278.0Z" fill-rule="nonzero"/><path stroke="#000000" stroke-width="2.0" stroke-linecap="butt" stroke-opacity="0.0" clip-path="url(#id_0)" d="M388.0 293.0L351.0 293.0L351.0 287.0L388.0 287.0Z" fill-rule="nonzero"/><path fill="#c27ba0" clip-path="url(#id_0)" d="M388.0 293.0L351.0 293.0L351.0 287.0L388.0 287.0Z" fill-rule="nonzero"/><path fill="#7e5068" clip-path="url(#id_0)" d="M454.0 278.0L454.0 284.0L445.0 293.0L445.0 287.0Z" fill-rule="nonzero"/><path fill="#ce95b3" clip-path="url(#id_0)" d="M445.0 287.0L408.0 287.0L417.0 278.0L454.0 278.0Z" fill-rule="nonzero"/><path stroke="#000000" stroke-width="2.0" stroke-linecap="butt" stroke-opacity="0.0" clip-path="url(#id_0)" d="M445.0 293.0L408.0 293.0L408.0 287.0L445.0 287.0Z" fill-rule="nonzero"/><path fill="#c27ba0" clip-path="url(#id_0)" d="M445.0 293.0L408.0 293.0L408.0 287.0L445.0 287.0Z" fill-rule="nonzero"/><path fill="#7e5068" clip-path="url(#id_0)" d="M510.0 278.0L510.0 284.0L501.0 293.0L501.0 287.0Z" fill-rule="nonzero"/><path fill="#ce95b3" clip-path="url(#id_0)" d="M501.0 287.0L464.0 287.0L473.0 278.0L510.0 278.0Z" fill-rule="nonzero"/><path stroke="#000000" stroke-width="2.0" stroke-linecap="butt" stroke-opacity="0.0" clip-path="url(#id_0)" d="M501.0 293.0L464.0 293.0L464.0 287.0L501.0 287.0Z" fill-rule="nonzero"/><path fill="#c27ba0" clip-path="url(#id_0)" d="M501.0 293.0L464.0 293.0L464.0 287.0L501.0 287.0Z" fill-rule="nonzero"/><path fill="#7e5068" clip-path="url(#id_0)" d="M567.0 278.0L567.0 284.0L558.0 293.0L558.0 287.0Z" fill-rule="nonzero"/><path fill="#ce95b3" clip-path="url(#id_0)" d="M558.0 287.0L521.0 287.0L530.0 278.0L567.0 278.0Z" fill-rule="nonzero"/><path stroke="#000000" stroke-width="2.0" stroke-linecap="butt" stroke-opacity="0.0" clip-path="url(#id_0)" d="M558.0 293.0L521.0 293.0L521.0 287.0L558.0 287.0Z" fill-rule="nonzero"/><path fill="#c27ba0" clip-path="url(#id_0)" d="M558.0 293.0L521.0 293.0L521.0 287.0L558.0 287.0Z" fill-rule="nonzero"/><path fill="#424242" d="M327.5625 346.23126Q327.5625 344.7625 328.25 343.8875Q328.9375 342.9969 330.0625 342.9969Q331.17188 342.9969 331.82812 343.7469L331.82812 340.45L332.90625 340.45L332.90625 349.45L331.90625 349.45L331.85938 348.7625Q331.20312 349.575 330.04688 349.575Q328.95312 349.575 328.25 348.66876Q327.5625 347.7625 327.5625 346.3094L327.5625 346.23126ZM328.64062 346.35626Q328.64062 347.4344 329.07812 348.04376Q329.53125 348.65314 330.3125 348.65314Q331.34375 348.65314 331.82812 347.71564L331.82812 344.8094Q331.34375 343.91876 330.32812 343.91876Q329.53125 343.91876 329.07812 344.52814Q328.64062 345.1375 328.64062 346.35626ZM336.0 349.45L334.92188 349.45L334.92188 343.10626L336.0 343.10626L336.0 349.45ZM334.82812 341.4344Q334.82812 341.16876 334.98438 340.98126Q335.15625 340.79376 335.46875 340.79376Q335.78125 340.79376 335.9375 340.98126Q336.10938 341.16876 336.10938 341.4344Q336.10938 341.6844 335.9375 341.8719Q335.78125 342.04376 335.46875 342.04376Q335.15625 342.04376 334.98438 341.8719Q334.82812 341.6844 334.82812 341.4344ZM341.51562 347.7625Q341.51562 347.325 341.17188 347.09064Q340.84375 346.84064 340.01562 346.66876Q339.20312 346.4969 338.71875 346.2469Q338.23438 345.9969 338.0 345.66876Q337.78125 345.325 337.78125 344.85626Q337.78125 344.075 338.4375 343.54376Q339.09375 342.9969 340.125 342.9969Q341.20312 342.9969 341.85938 343.5594Q342.53125 344.10626 342.53125 344.96564L341.45312 344.96564Q341.45312 344.52814 341.0625 344.21564Q340.6875 343.8875 340.125 343.8875Q339.53125 343.8875 339.1875 344.15314Q338.85938 344.40314 338.85938 344.8094Q338.85938 345.2 339.17188 345.40314Q339.48438 345.60626 340.29688 345.79376Q341.10938 345.96564 341.60938 346.21564Q342.10938 346.46564 342.34375 346.825Q342.59375 347.1844 342.59375 347.6844Q342.59375 348.54376 341.90625 349.0594Q341.23438 349.575 340.15625 349.575Q339.39062 349.575 338.79688 349.3094Q338.21875 349.02814 337.89062 348.54376Q337.5625 348.0594 337.5625 347.4969L338.64062 347.4969Q338.67188 348.04376 339.07812 348.3719Q339.48438 348.6844 340.15625 348.6844Q340.76562 348.6844 341.14062 348.4344Q341.51562 348.1844 341.51562 347.7625ZM345.29688 341.575L345.29688 343.10626L346.46875 343.10626L346.46875 343.95L345.29688 343.95L345.29688 347.8719Q345.29688 348.2625 345.45312 348.45Q345.60938 348.6375 345.98438 348.6375Q346.17188 348.6375 346.5 348.575L346.5 349.45Q346.07812 349.575 345.67188 349.575Q344.95312 349.575 344.57812 349.1375Q344.20312 348.6844 344.20312 347.8719L344.20312 343.95L343.04688 343.95L343.04688 343.10626L344.20312 343.10626L344.20312 341.575L345.29688 341.575ZM350.89062 344.075Q350.64062 344.04376 350.35938 344.04376Q349.28125 344.04376 348.90625 344.95L348.90625 349.45L347.82812 349.45L347.82812 343.10626L348.875 343.10626L348.89062 343.84064Q349.42188 342.9969 350.40625 342.9969Q350.71875 342.9969 350.89062 343.075L350.89062 344.075ZM353.0 349.45L351.92188 349.45L351.92188 343.10626L353.0 343.10626L353.0 349.45ZM351.82812 341.4344Q351.82812 341.16876 351.98438 340.98126Q352.15625 340.79376 352.46875 340.79376Q352.78125 340.79376 352.9375 340.98126Q353.10938 341.16876 353.10938 341.4344Q353.10938 341.6844 352.9375 341.8719Q352.78125 342.04376 352.46875 342.04376Q352.15625 342.04376 351.98438 341.8719Q351.82812 341.6844 351.82812 341.4344ZM357.35938 348.6844Q357.9375 348.6844 358.375 348.34064Q358.8125 347.98126 358.85938 347.45L359.89062 347.45Q359.85938 347.9969 359.5 348.4969Q359.15625 348.98126 358.57812 349.27814Q358.01562 349.575 357.35938 349.575Q356.0625 349.575 355.29688 348.71564Q354.54688 347.84064 354.54688 346.34064L354.54688 346.15314Q354.54688 345.23126 354.875 344.5125Q355.21875 343.79376 355.84375 343.40314Q356.48438 342.9969 357.35938 342.9969Q358.42188 342.9969 359.125 343.6375Q359.84375 344.2625 359.89062 345.29376L358.85938 345.29376Q358.8125 344.66876 358.39062 344.27814Q357.96875 343.8875 357.35938 343.8875Q356.53125 343.8875 356.07812 344.48126Q355.625 345.075 355.625 346.2L355.625 346.40314Q355.625 347.4969 356.07812 348.09064Q356.53125 348.6844 357.35938 348.6844ZM362.29688 341.575L362.29688 343.10626L363.46875 343.10626L363.46875 343.95L362.29688 343.95L362.29688 347.8719Q362.29688 348.2625 362.45312 348.45Q362.60938 348.6375 362.98438 348.6375Q363.17188 348.6375 363.5 348.575L363.5 349.45Q363.07812 349.575 362.67188 349.575Q361.95312 349.575 361.57812 349.1375Q361.20312 348.6844 361.20312 347.8719L361.20312 343.95L360.04688 343.95L360.04688 343.10626L361.20312 343.10626L361.20312 341.575L362.29688 341.575Z" fill-rule="nonzero"/><path fill="#424242" d="M22.675013 212.88646L24.206263 212.88646L24.206263 211.71458L25.050013 211.71458L25.050013 212.88646L28.971888 212.88646Q29.362513 212.88646 29.550013 212.73021Q29.737513 212.57396 29.737513 212.19896Q29.737513 212.01146 29.675013 211.68333L30.550013 211.68333Q30.675013 212.10521 30.675013 212.51146Q30.675013 213.23021 30.237513 213.60521Q29.784388 213.98021 28.971888 213.98021L25.050013 213.98021L25.050013 215.13646L24.206263 215.13646L24.206263 213.98021L22.675013 213.98021L22.675013 212.88646ZM27.315638 210.65208Q26.393763 210.65208 25.643763 210.29271Q24.893763 209.91771 24.503138 209.26146Q24.096888 208.60521 24.096888 207.77708Q24.096888 206.48021 24.987513 205.68333Q25.878138 204.87083 27.378138 204.87083L27.456263 204.87083Q28.378138 204.87083 29.112513 205.23021Q29.846888 205.58958 30.268763 206.24583Q30.675013 206.90208 30.675013 207.76146Q30.675013 209.04271 29.784388 209.85521Q28.878138 210.65208 27.393763 210.65208L27.315638 210.65208ZM27.456263 209.55833Q28.503138 209.55833 29.143763 209.07396Q29.784388 208.57396 29.784388 207.76146Q29.784388 206.93333 29.143763 206.44896Q28.487513 205.96458 27.315638 205.96458Q26.284388 205.96458 25.643763 206.46458Q24.987513 206.94896 24.987513 207.77708Q24.987513 208.57396 25.628138 209.07396Q26.253138 209.55833 27.456263 209.55833ZM22.675013 201.88646L24.206263 201.88646L24.206263 200.71458L25.050013 200.71458L25.050013 201.88646L28.971888 201.88646Q29.362513 201.88646 29.550013 201.73021Q29.737513 201.57396 29.737513 201.19896Q29.737513 201.01146 29.675013 200.68333L30.550013 200.68333Q30.675013 201.10521 30.675013 201.51146Q30.675013 202.23021 30.237513 202.60521Q29.784388 202.98021 28.971888 202.98021L25.050013 202.98021L25.050013 204.13646L24.206263 204.13646L24.206263 202.98021L22.675013 202.98021L22.675013 201.88646ZM30.550013 195.44896Q30.362513 195.54271 29.878138 195.60521Q30.675013 196.35521 30.675013 197.40208Q30.675013 198.33958 30.143763 198.94896Q29.612513 199.54271 28.784388 199.54271Q27.800013 199.54271 27.253138 198.79271Q26.706263 198.04271 26.706263 196.66771L26.706263 195.62083L26.206263 195.62083Q25.643763 195.62083 25.315638 195.96458Q24.971888 196.29271 24.971888 196.96458Q24.971888 197.54271 25.268763 197.93333Q25.550013 198.32396 25.971888 198.32396L25.971888 199.41771Q25.487513 199.41771 25.050013 199.08958Q24.612513 198.74583 24.362513 198.16771Q24.096888 197.58958 24.096888 196.90208Q24.096888 195.79271 24.643763 195.18333Q25.190638 194.55833 26.143763 194.52708L29.065638 194.52708Q29.940638 194.52708 30.456263 194.30833L30.550013 194.30833L30.550013 195.44896ZM29.721888 197.24583Q29.721888 196.73021 29.456263 196.27708Q29.190638 195.82396 28.768763 195.62083L27.471888 195.62083L27.471888 196.46458Q27.471888 198.46458 28.643763 198.46458Q29.143763 198.46458 29.440638 198.12083Q29.721888 197.77708 29.721888 197.24583ZM30.550013 191.18333L30.550013 192.26146L21.550013 192.26146L21.550013 191.18333L30.550013 191.18333ZM31.440638 184.79271L31.440638 190.15208L30.550013 190.15208L30.550013 184.79271L31.440638 184.79271ZM27.456263 179.01146Q28.893763 179.01146 29.784388 179.66771Q30.675013 180.32396 30.675013 181.46458Q30.675013 182.62083 29.940638 183.27708L32.98751 183.27708L32.98751 184.35521L24.206263 184.35521L24.206263 183.37083L24.909388 183.32396Q24.096888 182.65208 24.096888 181.48021Q24.096888 180.33958 24.956263 179.68333Q25.815638 179.01146 27.346888 179.01146L27.456263 179.01146ZM27.331263 180.08958Q26.253138 180.08958 25.643763 180.55833Q25.018763 181.01146 25.018763 181.80833Q25.018763 182.79271 25.878138 183.27708L28.909388 183.27708Q29.784388 182.79271 29.784388 181.79271Q29.784388 181.01146 29.175013 180.55833Q28.550013 180.08958 27.331263 180.08958ZM25.175013 174.29271Q25.143763 174.54271 25.143763 174.82396Q25.143763 175.90208 26.050013 176.27708L30.550013 176.27708L30.550013 177.35521L24.206263 177.35521L24.206263 176.30833L24.940638 176.29271Q24.096888 175.76146 24.096888 174.77708Q24.096888 174.46458 24.175013 174.29271L25.175013 174.29271ZM30.550013 172.18333L30.550013 173.26146L24.206263 173.26146L24.206263 172.18333L30.550013 172.18333ZM22.534388 173.35521Q22.268763 173.35521 22.081263 173.19896Q21.893763 173.02708 21.893763 172.71458Q21.893763 172.40208 22.081263 172.24583Q22.268763 172.07396 22.534388 172.07396Q22.784388 172.07396 22.971888 172.24583Q23.143763 172.40208 23.143763 172.71458Q23.143763 173.02708 22.971888 173.19896Q22.784388 173.35521 22.534388 173.35521ZM29.784388 167.82396Q29.784388 167.24583 29.440638 166.80833Q29.081263 166.37083 28.550013 166.32396L28.550013 165.29271Q29.096888 165.32396 29.596888 165.68333Q30.081263 166.02708 30.378138 166.60521Q30.675013 167.16771 30.675013 167.82396Q30.675013 169.12083 29.815638 169.88646Q28.940638 170.63646 27.440638 170.63646L27.253138 170.63646Q26.331263 170.63646 25.612513 170.30833Q24.893763 169.96458 24.503138 169.33958Q24.096888 168.69896 24.096888 167.82396Q24.096888 166.76146 24.737513 166.05833Q25.362513 165.33958 26.393763 165.29271L26.393763 166.32396Q25.768763 166.37083 25.378138 166.79271Q24.987513 167.21458 24.987513 167.82396Q24.987513 168.65208 25.581263 169.10521Q26.175013 169.55833 27.300013 169.55833L27.503138 169.55833Q28.596888 169.55833 29.190638 169.10521Q29.784388 168.65208 29.784388 167.82396ZM30.675013 161.73021Q30.675013 163.02708 29.831263 163.83958Q28.971888 164.63646 27.550013 164.63646L27.362513 164.63646Q26.409388 164.63646 25.675013 164.27708Q24.925013 163.91771 24.518763 163.27708Q24.096888 162.62083 24.096888 161.87083Q24.096888 160.63646 24.909388 159.94896Q25.721888 159.26146 27.237513 159.26146L27.690638 159.26146L27.690638 163.55833Q28.628138 163.52708 29.206263 163.01146Q29.784388 162.48021 29.784388 161.66771Q29.784388 161.10521 29.550013 160.71458Q29.315638 160.30833 28.925013 159.99583L29.440638 159.33958Q30.675013 160.13646 30.675013 161.73021ZM24.987513 161.87083Q24.987513 162.52708 25.471888 162.98021Q25.940638 163.41771 26.800013 163.51146L26.800013 160.33958L26.721888 160.33958Q25.893763 160.38646 25.440638 160.79271Q24.987513 161.18333 24.987513 161.87083Z" fill-rule="nonzero"/><path fill="#757575" d="M57.6125 285.3094Q57.6125 287.21564 56.95625 288.15314Q56.315624 289.075 54.925 289.075Q53.565624 289.075 52.909374 288.16876Q52.253124 287.2625 52.221874 285.45L52.221874 284.0125Q52.221874 282.1219 52.8625 281.21564Q53.51875 280.29376 54.909374 280.29376Q56.284374 280.29376 56.940624 281.1844Q57.596874 282.0594 57.6125 283.90314L57.6125 285.3094ZM56.51875 283.825Q56.51875 282.45 56.128124 281.825Q55.753124 281.1844 54.909374 281.1844Q54.08125 281.1844 53.690624 281.825Q53.315624 282.45 53.315624 283.7469L53.315624 285.48126Q53.315624 286.85626 53.70625 287.52814Q54.1125 288.1844 54.925 288.1844Q55.721874 288.1844 56.1125 287.5594Q56.503124 286.9344 56.51875 285.60626L56.51875 283.825ZM59.39375 288.3875Q59.39375 288.10626 59.55 287.91876Q59.721874 287.73126 60.05 287.73126Q60.39375 287.73126 60.565624 287.91876Q60.7375 288.10626 60.7375 288.3875Q60.7375 288.65314 60.565624 288.84064Q60.39375 289.0125 60.05 289.0125Q59.721874 289.0125 59.55 288.84064Q59.39375 288.65314 59.39375 288.3875ZM67.6125 285.3094Q67.6125 287.21564 66.95625 288.15314Q66.31563 289.075 64.925 289.075Q63.565624 289.075 62.909374 288.16876Q62.253124 287.2625 62.221874 285.45L62.221874 284.0125Q62.221874 282.1219 62.8625 281.21564Q63.51875 280.29376 64.90938 280.29376Q66.28438 280.29376 66.94063 281.1844Q67.59688 282.0594 67.6125 283.90314L67.6125 285.3094ZM66.51875 283.825Q66.51875 282.45 66.12813 281.825Q65.75313 281.1844 64.90938 281.1844Q64.08125 281.1844 63.690624 281.825Q63.315624 282.45 63.315624 283.7469L63.315624 285.48126Q63.315624 286.85626 63.70625 287.52814Q64.1125 288.1844 64.925 288.1844Q65.72188 288.1844 66.1125 287.5594Q66.50313 286.9344 66.51875 285.60626L66.51875 283.825ZM74.6125 285.3094Q74.6125 287.21564 73.95625 288.15314Q73.31563 289.075 71.925 289.075Q70.56563 289.075 69.90938 288.16876Q69.25313 287.2625 69.22188 285.45L69.22188 284.0125Q69.22188 282.1219 69.8625 281.21564Q70.51875 280.29376 71.90938 280.29376Q73.28438 280.29376 73.94063 281.1844Q74.59688 282.0594 74.6125 283.90314L74.6125 285.3094ZM73.51875 283.825Q73.51875 282.45 73.12813 281.825Q72.75313 281.1844 71.90938 281.1844Q71.08125 281.1844 70.69063 281.825Q70.31563 282.45 70.31563 283.7469L70.31563 285.48126Q70.31563 286.85626 70.70625 287.52814Q71.1125 288.1844 71.925 288.1844Q72.72188 288.1844 73.1125 287.5594Q73.50313 286.9344 73.51875 285.60626L73.51875 283.825ZM81.3625 285.0125L77.65938 285.0125L77.65938 288.02814L81.95625 288.02814L81.95625 288.95L76.53438 288.95L76.53438 280.41876L81.90938 280.41876L81.90938 281.34064L77.65938 281.34064L77.65938 284.09064L81.3625 284.09064L81.3625 285.0125ZM86.47188 284.3719L88.8625 284.3719L88.8625 285.40314L86.47188 285.40314L86.47188 288.09064L85.39375 288.09064L85.39375 285.40314L83.00313 285.40314L83.00313 284.3719L85.39375 284.3719L85.39375 281.8875L86.47188 281.8875L86.47188 284.3719ZM95.6125 285.3094Q95.6125 287.21564 94.95625 288.15314Q94.31563 289.075 92.925 289.075Q91.56563 289.075 90.90938 288.16876Q90.25313 287.2625 90.22188 285.45L90.22188 284.0125Q90.22188 282.1219 90.8625 281.21564Q91.51875 280.29376 92.90938 280.29376Q94.28438 280.29376 94.94063 281.1844Q95.59688 282.0594 95.6125 283.90314L95.6125 285.3094ZM94.51875 283.825Q94.51875 282.45 94.12813 281.825Q93.75313 281.1844 92.90938 281.1844Q92.08125 281.1844 91.69063 281.825Q91.31563 282.45 91.31563 283.7469L91.31563 285.48126Q91.31563 286.85626 91.70625 287.52814Q92.1125 288.1844 92.925 288.1844Q93.72188 288.1844 94.1125 287.5594Q94.50313 286.9344 94.51875 285.60626L94.51875 283.825ZM102.6125 285.3094Q102.6125 287.21564 101.95625 288.15314Q101.31563 289.075 99.925 289.075Q98.56563 289.075 97.90938 288.16876Q97.25313 287.2625 97.22188 285.45L97.22188 284.0125Q97.22188 282.1219 97.8625 281.21564Q98.51875 280.29376 99.90938 280.29376Q101.28438 280.29376 101.94063 281.1844Q102.59688 282.0594 102.6125 283.90314L102.6125 285.3094ZM101.51875 283.825Q101.51875 282.45 101.12813 281.825Q100.75313 281.1844 99.90938 281.1844Q99.08125 281.1844 98.69063 281.825Q98.31563 282.45 98.31563 283.7469L98.31563 285.48126Q98.31563 286.85626 98.70625 287.52814Q99.1125 288.1844 99.925 288.1844Q100.72188 288.1844 101.1125 287.5594Q101.50313 286.9344 101.51875 285.60626L101.51875 283.825Z" fill-rule="nonzero"/><path fill="#757575" d="M57.846874 244.54333L52.253124 244.54333L52.253124 243.76208L55.20625 240.48083Q55.8625 239.73083 56.1125 239.27771Q56.3625 238.80896 56.3625 238.30896Q56.3625 237.63708 55.95625 237.21521Q55.565624 236.77771 54.878124 236.77771Q54.08125 236.77771 53.628124 237.24646Q53.175 237.69958 53.175 238.52771L52.096874 238.52771Q52.096874 237.34021 52.846874 236.62146Q53.6125 235.88708 54.878124 235.88708Q56.08125 235.88708 56.76875 236.51208Q57.45625 237.13708 57.45625 238.18396Q57.45625 239.43396 55.846874 241.18396L53.565624 243.65271L57.846874 243.65271L57.846874 244.54333ZM59.39375 243.98083Q59.39375 243.69958 59.55 243.51208Q59.721874 243.32458 60.05 243.32458Q60.39375 243.32458 60.565624 243.51208Q60.7375 243.69958 60.7375 243.98083Q60.7375 244.24646 60.565624 244.43396Q60.39375 244.60583 60.05 244.60583Q59.721874 244.60583 59.55 244.43396Q59.39375 244.24646 59.39375 243.98083ZM62.753124 240.26208L63.190624 236.01208L67.56563 236.01208L67.56563 237.01208L64.1125 237.01208L63.846874 239.34021Q64.4875 238.96521 65.28438 238.96521Q66.44063 238.96521 67.12813 239.74646Q67.81563 240.51208 67.81563 241.82458Q67.81563 243.13708 67.09688 243.90271Q66.39375 244.66833 65.1125 244.66833Q63.9875 244.66833 63.26875 244.04333Q62.55 243.40271 62.45625 242.29333L63.471874 242.29333Q63.58125 243.02771 64.00313 243.40271Q64.425 243.77771 65.1125 243.77771Q65.8625 243.77771 66.3 243.26208Q66.7375 242.74646 66.7375 241.84021Q66.7375 240.98083 66.26875 240.46521Q65.8 239.94958 65.01875 239.94958Q64.31563 239.94958 63.909374 240.24646L63.628124 240.48083L62.753124 240.26208ZM74.6125 240.90271Q74.6125 242.80896 73.95625 243.74646Q73.31563 244.66833 71.925 244.66833Q70.56563 244.66833 69.90938 243.76208Q69.25313 242.85583 69.22188 241.04333L69.22188 239.60583Q69.22188 237.71521 69.8625 236.80896Q70.51875 235.88708 71.90938 235.88708Q73.28438 235.88708 73.94063 236.77771Q74.59688 237.65271 74.6125 239.49646L74.6125 240.90271ZM73.51875 239.41833Q73.51875 238.04333 73.12813 237.41833Q72.75313 236.77771 71.90938 236.77771Q71.08125 236.77771 70.69063 237.41833Q70.31563 238.04333 70.31563 239.34021L70.31563 241.07458Q70.31563 242.44958 70.70625 243.12146Q71.1125 243.77771 71.925 243.77771Q72.72188 243.77771 73.1125 243.15271Q73.50313 242.52771 73.51875 241.19958L73.51875 239.41833ZM81.3625 240.60583L77.65938 240.60583L77.65938 243.62146L81.95625 243.62146L81.95625 244.54333L76.53438 244.54333L76.53438 236.01208L81.90938 236.01208L81.90938 236.93396L77.65938 236.93396L77.65938 239.68396L81.3625 239.68396L81.3625 240.60583ZM86.47188 239.96521L88.8625 239.96521L88.8625 240.99646L86.47188 240.99646L86.47188 243.68396L85.39375 243.68396L85.39375 240.99646L83.00313 240.99646L83.00313 239.96521L85.39375 239.96521L85.39375 237.48083L86.47188 237.48083L86.47188 239.96521ZM95.6125 240.90271Q95.6125 242.80896 94.95625 243.74646Q94.31563 244.66833 92.925 244.66833Q91.56563 244.66833 90.90938 243.76208Q90.25313 242.85583 90.22188 241.04333L90.22188 239.60583Q90.22188 237.71521 90.8625 236.80896Q91.51875 235.88708 92.90938 235.88708Q94.28438 235.88708 94.94063 236.77771Q95.59688 237.65271 95.6125 239.49646L95.6125 240.90271ZM94.51875 239.41833Q94.51875 238.04333 94.12813 237.41833Q93.75313 236.77771 92.90938 236.77771Q92.08125 236.77771 91.69063 237.41833Q91.31563 238.04333 91.31563 239.34021L91.31563 241.07458Q91.31563 242.44958 91.70625 243.12146Q92.1125 243.77771 92.925 243.77771Q93.72188 243.77771 94.1125 243.15271Q94.50313 242.52771 94.51875 241.19958L94.51875 239.41833ZM102.76875 236.62146L99.2375 244.54333L98.09688 244.54333L101.6125 236.90271L97.00313 236.90271L97.00313 236.01208L102.76875 236.01208L102.76875 236.62146Z" fill-rule="nonzero"/><path fill="#757575" d="M52.753124 195.85542L53.190624 191.60542L57.565624 191.60542L57.565624 192.60542L54.1125 192.60542L53.846874 194.93355Q54.4875 194.55855 55.284374 194.55855Q56.440624 194.55855 57.128124 195.3398Q57.815624 196.10542 57.815624 197.41792Q57.815624 198.73042 57.096874 199.49605Q56.39375 200.26167 55.1125 200.26167Q53.9875 200.26167 53.26875 199.63667Q52.55 198.99605 52.45625 197.88667L53.471874 197.88667Q53.58125 198.62105 54.003124 198.99605Q54.425 199.37105 55.1125 199.37105Q55.8625 199.37105 56.3 198.85542Q56.7375 198.3398 56.7375 197.43355Q56.7375 196.57417 56.26875 196.05855Q55.8 195.54292 55.01875 195.54292Q54.315624 195.54292 53.909374 195.8398L53.628124 196.07417L52.753124 195.85542ZM59.39375 199.57417Q59.39375 199.29292 59.55 199.10542Q59.721874 198.91792 60.05 198.91792Q60.39375 198.91792 60.565624 199.10542Q60.7375 199.29292 60.7375 199.57417Q60.7375 199.8398 60.565624 200.0273Q60.39375 200.19917 60.05 200.19917Q59.721874 200.19917 59.55 200.0273Q59.39375 199.8398 59.39375 199.57417ZM67.6125 196.49605Q67.6125 198.4023 66.95625 199.3398Q66.31563 200.26167 64.925 200.26167Q63.565624 200.26167 62.909374 199.35542Q62.253124 198.44917 62.221874 196.63667L62.221874 195.19917Q62.221874 193.30855 62.8625 192.4023Q63.51875 191.48042 64.90938 191.48042Q66.28438 191.48042 66.94063 192.37105Q67.59688 193.24605 67.6125 195.0898L67.6125 196.49605ZM66.51875 195.01167Q66.51875 193.63667 66.12813 193.01167Q65.75313 192.37105 64.90938 192.37105Q64.08125 192.37105 63.690624 193.01167Q63.315624 193.63667 63.315624 194.93355L63.315624 196.66792Q63.315624 198.04292 63.70625 198.7148Q64.1125 199.37105 64.925 199.37105Q65.72188 199.37105 66.1125 198.74605Q66.50313 198.12105 66.51875 196.79292L66.51875 195.01167ZM74.6125 196.49605Q74.6125 198.4023 73.95625 199.3398Q73.31563 200.26167 71.925 200.26167Q70.56563 200.26167 69.90938 199.35542Q69.25313 198.44917 69.22188 196.63667L69.22188 195.19917Q69.22188 193.30855 69.8625 192.4023Q70.51875 191.48042 71.90938 191.48042Q73.28438 191.48042 73.94063 192.37105Q74.59688 193.24605 74.6125 195.0898L74.6125 196.49605ZM73.51875 195.01167Q73.51875 193.63667 73.12813 193.01167Q72.75313 192.37105 71.90938 192.37105Q71.08125 192.37105 70.69063 193.01167Q70.31563 193.63667 70.31563 194.93355L70.31563 196.66792Q70.31563 198.04292 70.70625 198.7148Q71.1125 199.37105 71.925 199.37105Q72.72188 199.37105 73.1125 198.74605Q73.50313 198.12105 73.51875 196.79292L73.51875 195.01167ZM81.3625 196.19917L77.65938 196.19917L77.65938 199.2148L81.95625 199.2148L81.95625 200.13667L76.53438 200.13667L76.53438 191.60542L81.90938 191.60542L81.90938 192.5273L77.65938 192.5273L77.65938 195.2773L81.3625 195.2773L81.3625 196.19917ZM86.47188 195.55855L88.8625 195.55855L88.8625 196.5898L86.47188 196.5898L86.47188 199.2773L85.39375 199.2773L85.39375 196.5898L83.00313 196.5898L83.00313 195.55855L85.39375 195.55855L85.39375 193.07417L86.47188 193.07417L86.47188 195.55855ZM95.6125 196.49605Q95.6125 198.4023 94.95625 199.3398Q94.31563 200.26167 92.925 200.26167Q91.56563 200.26167 90.90938 199.35542Q90.25313 198.44917 90.22188 196.63667L90.22188 195.19917Q90.22188 193.30855 90.8625 192.4023Q91.51875 191.48042 92.90938 191.48042Q94.28438 191.48042 94.94063 192.37105Q95.59688 193.24605 95.6125 195.0898L95.6125 196.49605ZM94.51875 195.01167Q94.51875 193.63667 94.12813 193.01167Q93.75313 192.37105 92.90938 192.37105Q92.08125 192.37105 91.69063 193.01167Q91.31563 193.63667 91.31563 194.93355L91.31563 196.66792Q91.31563 198.04292 91.70625 198.7148Q92.1125 199.37105 92.925 199.37105Q93.72188 199.37105 94.1125 198.74605Q94.50313 198.12105 94.51875 196.79292L94.51875 195.01167ZM102.76875 192.2148L99.2375 200.13667L98.09688 200.13667L101.6125 192.49605L97.00313 192.49605L97.00313 191.60542L102.76875 191.60542L102.76875 192.2148Z" fill-rule="nonzero"/><path fill="#757575" d="M57.76875 147.80812L54.2375 155.73L53.096874 155.73L56.6125 148.08937L52.003124 148.08937L52.003124 147.19875L57.76875 147.19875L57.76875 147.80812ZM59.39375 155.1675Q59.39375 154.88625 59.55 154.69875Q59.721874 154.51125 60.05 154.51125Q60.39375 154.51125 60.565624 154.69875Q60.7375 154.88625 60.7375 155.1675Q60.7375 155.43312 60.565624 155.62062Q60.39375 155.7925 60.05 155.7925Q59.721874 155.7925 59.55 155.62062Q59.39375 155.43312 59.39375 155.1675ZM62.753124 151.44875L63.190624 147.19875L67.56563 147.19875L67.56563 148.19875L64.1125 148.19875L63.846874 150.52687Q64.4875 150.15187 65.28438 150.15187Q66.44063 150.15187 67.12813 150.93312Q67.81563 151.69875 67.81563 153.01125Q67.81563 154.32375 67.09688 155.08937Q66.39375 155.855 65.1125 155.855Q63.9875 155.855 63.26875 155.23Q62.55 154.58937 62.45625 153.48L63.471874 153.48Q63.58125 154.21437 64.00313 154.58937Q64.425 154.96437 65.1125 154.96437Q65.8625 154.96437 66.3 154.44875Q66.7375 153.93312 66.7375 153.02687Q66.7375 152.1675 66.26875 151.65187Q65.8 151.13625 65.01875 151.13625Q64.31563 151.13625 63.909374 151.43312L63.628124 151.6675L62.753124 151.44875ZM74.6125 152.08937Q74.6125 153.99562 73.95625 154.93312Q73.31563 155.855 71.925 155.855Q70.56563 155.855 69.90938 154.94875Q69.25313 154.0425 69.22188 152.23L69.22188 150.7925Q69.22188 148.90187 69.8625 147.99562Q70.51875 147.07375 71.90938 147.07375Q73.28438 147.07375 73.94063 147.96437Q74.59688 148.83937 74.6125 150.68312L74.6125 152.08937ZM73.51875 150.605Q73.51875 149.23 73.12813 148.605Q72.75313 147.96437 71.90938 147.96437Q71.08125 147.96437 70.69063 148.605Q70.31563 149.23 70.31563 150.52687L70.31563 152.26125Q70.31563 153.63625 70.70625 154.30812Q71.1125 154.96437 71.925 154.96437Q72.72188 154.96437 73.1125 154.33937Q73.50313 153.71437 73.51875 152.38625L73.51875 150.605ZM81.3625 151.7925L77.65938 151.7925L77.65938 154.80812L81.95625 154.80812L81.95625 155.73L76.53438 155.73L76.53438 147.19875L81.90938 147.19875L81.90938 148.12062L77.65938 148.12062L77.65938 150.87062L81.3625 150.87062L81.3625 151.7925ZM86.47188 151.15187L88.8625 151.15187L88.8625 152.18312L86.47188 152.18312L86.47188 154.87062L85.39375 154.87062L85.39375 152.18312L83.00313 152.18312L83.00313 151.15187L85.39375 151.15187L85.39375 148.6675L86.47188 148.6675L86.47188 151.15187ZM95.6125 152.08937Q95.6125 153.99562 94.95625 154.93312Q94.31563 155.855 92.925 155.855Q91.56563 155.855 90.90938 154.94875Q90.25313 154.0425 90.22188 152.23L90.22188 150.7925Q90.22188 148.90187 90.8625 147.99562Q91.51875 147.07375 92.90938 147.07375Q94.28438 147.07375 94.94063 147.96437Q95.59688 148.83937 95.6125 150.68312L95.6125 152.08937ZM94.51875 150.605Q94.51875 149.23 94.12813 148.605Q93.75313 147.96437 92.90938 147.96437Q92.08125 147.96437 91.69063 148.605Q91.31563 149.23 91.31563 150.52687L91.31563 152.26125Q91.31563 153.63625 91.70625 154.30812Q92.1125 154.96437 92.925 154.96437Q93.72188 154.96437 94.1125 154.33937Q94.50313 153.71437 94.51875 152.38625L94.51875 150.605ZM102.76875 147.80812L99.2375 155.73L98.09688 155.73L101.6125 148.08937L97.00313 148.08937L97.00313 147.19875L102.76875 147.19875L102.76875 147.80812Z" fill-rule="nonzero"/><path fill="#757575" d="M55.815624 111.32333L54.7375 111.32333L54.7375 104.10458L52.55 104.90146L52.55 103.91708L55.659374 102.74521L55.815624 102.74521L55.815624 111.32333ZM59.39375 110.76083Q59.39375 110.47958 59.55 110.29208Q59.721874 110.10458 60.05 110.10458Q60.39375 110.10458 60.565624 110.29208Q60.7375 110.47958 60.7375 110.76083Q60.7375 111.02646 60.565624 111.21396Q60.39375 111.38583 60.05 111.38583Q59.721874 111.38583 59.55 111.21396Q59.39375 111.02646 59.39375 110.76083ZM67.6125 107.68271Q67.6125 109.58896 66.95625 110.52646Q66.31563 111.44833 64.925 111.44833Q63.565624 111.44833 62.909374 110.54208Q62.253124 109.63583 62.221874 107.82333L62.221874 106.38583Q62.221874 104.49521 62.8625 103.58896Q63.51875 102.66708 64.90938 102.66708Q66.28438 102.66708 66.94063 103.55771Q67.59688 104.43271 67.6125 106.27646L67.6125 107.68271ZM66.51875 106.19833Q66.51875 104.82333 66.12813 104.19833Q65.75313 103.55771 64.90938 103.55771Q64.08125 103.55771 63.690624 104.19833Q63.315624 104.82333 63.315624 106.12021L63.315624 107.85458Q63.315624 109.22958 63.70625 109.90146Q64.1125 110.55771 64.925 110.55771Q65.72188 110.55771 66.1125 109.93271Q66.50313 109.30771 66.51875 107.97958L66.51875 106.19833ZM74.6125 107.68271Q74.6125 109.58896 73.95625 110.52646Q73.31563 111.44833 71.925 111.44833Q70.56563 111.44833 69.90938 110.54208Q69.25313 109.63583 69.22188 107.82333L69.22188 106.38583Q69.22188 104.49521 69.8625 103.58896Q70.51875 102.66708 71.90938 102.66708Q73.28438 102.66708 73.94063 103.55771Q74.59688 104.43271 74.6125 106.27646L74.6125 107.68271ZM73.51875 106.19833Q73.51875 104.82333 73.12813 104.19833Q72.75313 103.55771 71.90938 103.55771Q71.08125 103.55771 70.69063 104.19833Q70.31563 104.82333 70.31563 106.12021L70.31563 107.85458Q70.31563 109.22958 70.70625 109.90146Q71.1125 110.55771 71.925 110.55771Q72.72188 110.55771 73.1125 109.93271Q73.50313 109.30771 73.51875 107.97958L73.51875 106.19833ZM81.3625 107.38583L77.65938 107.38583L77.65938 110.40146L81.95625 110.40146L81.95625 111.32333L76.53438 111.32333L76.53438 102.79208L81.90938 102.79208L81.90938 103.71396L77.65938 103.71396L77.65938 106.46396L81.3625 106.46396L81.3625 107.38583ZM86.47188 106.74521L88.8625 106.74521L88.8625 107.77646L86.47188 107.77646L86.47188 110.46396L85.39375 110.46396L85.39375 107.77646L83.00313 107.77646L83.00313 106.74521L85.39375 106.74521L85.39375 104.26083L86.47188 104.26083L86.47188 106.74521ZM95.6125 107.68271Q95.6125 109.58896 94.95625 110.52646Q94.31563 111.44833 92.925 111.44833Q91.56563 111.44833 90.90938 110.54208Q90.25313 109.63583 90.22188 107.82333L90.22188 106.38583Q90.22188 104.49521 90.8625 103.58896Q91.51875 102.66708 92.90938 102.66708Q94.28438 102.66708 94.94063 103.55771Q95.59688 104.43271 95.6125 106.27646L95.6125 107.68271ZM94.51875 106.19833Q94.51875 104.82333 94.12813 104.19833Q93.75313 103.55771 92.90938 103.55771Q92.08125 103.55771 91.69063 104.19833Q91.31563 104.82333 91.31563 106.12021L91.31563 107.85458Q91.31563 109.22958 91.70625 109.90146Q92.1125 110.55771 92.925 110.55771Q93.72188 110.55771 94.1125 109.93271Q94.50313 109.30771 94.51875 107.97958L94.51875 106.19833ZM102.44063 105.01083Q102.44063 105.65146 102.09688 106.15146Q101.75313 106.65146 101.19063 106.93271Q101.84688 107.21396 102.2375 107.77646Q102.62813 108.32333 102.62813 109.02646Q102.62813 110.12021 101.87813 110.79208Q101.14375 111.44833 99.925 111.44833Q98.69063 111.44833 97.94063 110.79208Q97.20625 110.12021 97.20625 109.02646Q97.20625 108.32333 97.58125 107.77646Q97.95625 107.21396 98.62813 106.93271Q98.06563 106.65146 97.7375 106.15146Q97.40938 105.65146 97.40938 105.01083Q97.40938 103.93271 98.09688 103.30771Q98.78438 102.66708 99.925 102.66708Q101.05 102.66708 101.7375 103.30771Q102.44063 103.93271 102.44063 105.01083ZM101.55 108.99521Q101.55 108.27646 101.09688 107.83896Q100.64375 107.38583 99.90938 107.38583Q99.175 107.38583 98.72188 107.83896Q98.28438 108.27646 98.28438 109.01083Q98.28438 109.72958 98.72188 110.15146Q99.15938 110.55771 99.925 110.55771Q100.675 110.55771 101.1125 110.13583Q101.55 109.71396 101.55 108.99521ZM99.925 103.55771Q99.28438 103.55771 98.87813 103.96396Q98.4875 104.35458 98.4875 105.04208Q98.4875 105.68271 98.87813 106.08896Q99.26875 106.49521 99.90938 106.49521Q100.56563 106.49521 100.95625 106.08896Q101.34688 105.68271 101.34688 105.04208Q101.34688 104.38583 100.94063 103.97958Q100.53438 103.55771 99.925 103.55771Z" fill-rule="nonzero"/><path fill="#757575" d="M55.815624 66.916664L54.7375 66.916664L54.7375 59.697914L52.55 60.49479L52.55 59.510414L55.659374 58.33854L55.815624 58.33854L55.815624 66.916664ZM59.39375 66.354164Q59.39375 66.072914 59.55 65.885414Q59.721874 65.697914 60.05 65.697914Q60.39375 65.697914 60.565624 65.885414Q60.7375 66.072914 60.7375 66.354164Q60.7375 66.61979 60.565624 66.80729Q60.39375 66.979164 60.05 66.979164Q59.721874 66.979164 59.55 66.80729Q59.39375 66.61979 59.39375 66.354164ZM67.84688 66.916664L62.253124 66.916664L62.253124 66.135414L65.20625 62.854164Q65.8625 62.104164 66.1125 61.65104Q66.3625 61.18229 66.3625 60.68229Q66.3625 60.010414 65.95625 59.58854Q65.56563 59.15104 64.87813 59.15104Q64.08125 59.15104 63.628124 59.61979Q63.175 60.072914 63.175 60.90104L62.096874 60.90104Q62.096874 59.71354 62.846874 58.99479Q63.6125 58.260414 64.87813 58.260414Q66.08125 58.260414 66.76875 58.885414Q67.45625 59.510414 67.45625 60.55729Q67.45625 61.80729 65.84688 63.55729L63.565624 66.02604L67.84688 66.02604L67.84688 66.916664ZM69.75313 62.635414L70.19063 58.385414L74.56563 58.385414L74.56563 59.385414L71.1125 59.385414L70.84688 61.71354Q71.4875 61.33854 72.28438 61.33854Q73.44063 61.33854 74.12813 62.11979Q74.81563 62.885414 74.81563 64.197914Q74.81563 65.510414 74.09688 66.27604Q73.39375 67.041664 72.1125 67.041664Q70.9875 67.041664 70.26875 66.416664Q69.55 65.77604 69.45625 64.666664L70.47188 64.666664Q70.58125 65.40104 71.00313 65.77604Q71.425 66.15104 72.1125 66.15104Q72.8625 66.15104 73.3 65.635414Q73.7375 65.11979 73.7375 64.21354Q73.7375 63.354164 73.26875 62.83854Q72.8 62.322914 72.01875 62.322914Q71.31563 62.322914 70.90938 62.61979L70.62813 62.854164L69.75313 62.635414ZM81.3625 62.979164L77.65938 62.979164L77.65938 65.99479L81.95625 65.99479L81.95625 66.916664L76.53438 66.916664L76.53438 58.385414L81.90938 58.385414L81.90938 59.30729L77.65938 59.30729L77.65938 62.05729L81.3625 62.05729L81.3625 62.979164ZM86.47188 62.33854L88.8625 62.33854L88.8625 63.36979L86.47188 63.36979L86.47188 66.05729L85.39375 66.05729L85.39375 63.36979L83.00313 63.36979L83.00313 62.33854L85.39375 62.33854L85.39375 59.854164L86.47188 59.854164L86.47188 62.33854ZM95.6125 63.27604Q95.6125 65.18229 94.95625 66.11979Q94.31563 67.041664 92.925 67.041664Q91.56563 67.041664 90.90938 66.135414Q90.25313 65.229164 90.22188 63.416664L90.22188 61.979164Q90.22188 60.08854 90.8625 59.18229Q91.51875 58.260414 92.90938 58.260414Q94.28438 58.260414 94.94063 59.15104Q95.59688 60.02604 95.6125 61.86979L95.6125 63.27604ZM94.51875 61.791664Q94.51875 60.416664 94.12813 59.791664Q93.75313 59.15104 92.90938 59.15104Q92.08125 59.15104 91.69063 59.791664Q91.31563 60.416664 91.31563 61.71354L91.31563 63.447914Q91.31563 64.822914 91.70625 65.49479Q92.1125 66.15104 92.925 66.15104Q93.72188 66.15104 94.1125 65.52604Q94.50313 64.90104 94.51875 63.572914L94.51875 61.791664ZM102.44063 60.604164Q102.44063 61.24479 102.09688 61.74479Q101.75313 62.24479 101.19063 62.52604Q101.84688 62.80729 102.2375 63.36979Q102.62813 63.916664 102.62813 64.61979Q102.62813 65.71354 101.87813 66.385414Q101.14375 67.041664 99.925 67.041664Q98.69063 67.041664 97.94063 66.385414Q97.20625 65.71354 97.20625 64.61979Q97.20625 63.916664 97.58125 63.36979Q97.95625 62.80729 98.62813 62.52604Q98.06563 62.24479 97.7375 61.74479Q97.40938 61.24479 97.40938 60.604164Q97.40938 59.52604 98.09688 58.90104Q98.78438 58.260414 99.925 58.260414Q101.05 58.260414 101.7375 58.90104Q102.44063 59.52604 102.44063 60.604164ZM101.55 64.58854Q101.55 63.86979 101.09688 63.43229Q100.64375 62.979164 99.90938 62.979164Q99.175 62.979164 98.72188 63.43229Q98.28438 63.86979 98.28438 64.604164Q98.28438 65.322914 98.72188 65.74479Q99.15938 66.15104 99.925 66.15104Q100.675 66.15104 101.1125 65.729164Q101.55 65.30729 101.55 64.58854ZM99.925 59.15104Q99.28438 59.15104 98.87813 59.55729Q98.4875 59.947914 98.4875 60.635414Q98.4875 61.27604 98.87813 61.68229Q99.26875 62.08854 99.90938 62.08854Q100.56563 62.08854 100.95625 61.68229Q101.34688 61.27604 101.34688 60.635414Q101.34688 59.979164 100.94063 59.572914Q100.53438 59.15104 99.925 59.15104Z" fill-rule="nonzero"/><path fill="#757575" d="M121.43198 316.45Q121.33823 316.2625 121.27573 315.77814Q120.52573 316.575 119.47885 316.575Q118.54135 316.575 117.93198 316.04376Q117.33823 315.5125 117.33823 314.6844Q117.33823 313.7 118.08823 313.15314Q118.83823 312.60626 120.21323 312.60626L121.2601 312.60626L121.2601 312.10626Q121.2601 311.54376 120.91635 311.21564Q120.58823 310.8719 119.91635 310.8719Q119.33823 310.8719 118.9476 311.16876Q118.55698 311.45 118.55698 311.8719L117.46323 311.8719Q117.46323 311.3875 117.79135 310.95Q118.1351 310.5125 118.71323 310.2625Q119.29135 309.9969 119.97885 309.9969Q121.08823 309.9969 121.6976 310.54376Q122.3226 311.09064 122.35385 312.04376L122.35385 314.96564Q122.35385 315.84064 122.5726 316.35626L122.5726 316.45L121.43198 316.45ZM119.6351 315.6219Q120.15073 315.6219 120.60385 315.35626Q121.05698 315.09064 121.2601 314.66876L121.2601 313.3719L120.41635 313.3719Q118.41635 313.3719 118.41635 314.54376Q118.41635 315.04376 118.7601 315.34064Q119.10385 315.6219 119.6351 315.6219ZM125.6976 316.45L124.61948 316.45L124.61948 307.45L125.6976 307.45L125.6976 316.45ZM128.6976 316.45L127.61948 316.45L127.61948 307.45L128.6976 307.45L128.6976 316.45ZM133.2601 313.23126Q133.2601 311.7625 133.9476 310.8875Q134.6351 309.9969 135.7601 309.9969Q136.86948 309.9969 137.52573 310.7469L137.52573 307.45L138.60385 307.45L138.60385 316.45L137.60385 316.45L137.55698 315.7625Q136.90073 316.575 135.74448 316.575Q134.65073 316.575 133.9476 315.66876Q133.2601 314.7625 133.2601 313.3094L133.2601 313.23126ZM134.33823 313.35626Q134.33823 314.4344 134.77573 315.04376Q135.22885 315.65314 136.0101 315.65314Q137.04135 315.65314 137.52573 314.71564L137.52573 311.8094Q137.04135 310.91876 136.02573 310.91876Q135.22885 310.91876 134.77573 311.52814Q134.33823 312.1375 134.33823 313.35626ZM141.6976 316.45L140.61948 316.45L140.61948 310.10626L141.6976 310.10626L141.6976 316.45ZM140.52573 308.4344Q140.52573 308.16876 140.68198 307.98126Q140.85385 307.79376 141.16635 307.79376Q141.47885 307.79376 141.6351 307.98126Q141.80698 308.16876 141.80698 308.4344Q141.80698 308.6844 141.6351 308.8719Q141.47885 309.04376 141.16635 309.04376Q140.85385 309.04376 140.68198 308.8719Q140.52573 308.6844 140.52573 308.4344ZM147.21323 314.7625Q147.21323 314.325 146.86948 314.09064Q146.54135 313.84064 145.71323 313.66876Q144.90073 313.4969 144.41635 313.2469Q143.93198 312.9969 143.6976 312.66876Q143.47885 312.325 143.47885 311.85626Q143.47885 311.075 144.1351 310.54376Q144.79135 309.9969 145.8226 309.9969Q146.90073 309.9969 147.55698 310.5594Q148.22885 311.10626 148.22885 311.96564L147.15073 311.96564Q147.15073 311.52814 146.7601 311.21564Q146.3851 310.8875 145.8226 310.8875Q145.22885 310.8875 144.8851 311.15314Q144.55698 311.40314 144.55698 311.8094Q144.55698 312.2 144.86948 312.40314Q145.18198 312.60626 145.99448 312.79376Q146.80698 312.96564 147.30698 313.21564Q147.80698 313.46564 148.04135 313.825Q148.29135 314.1844 148.29135 314.6844Q148.29135 315.54376 147.60385 316.0594Q146.93198 316.575 145.85385 316.575Q145.08823 316.575 144.49448 316.3094Q143.91635 316.02814 143.58823 315.54376Q143.2601 315.0594 143.2601 314.4969L144.33823 314.4969Q144.36948 315.04376 144.77573 315.3719Q145.18198 315.6844 145.85385 315.6844Q146.46323 315.6844 146.83823 315.4344Q147.21323 315.1844 147.21323 314.7625ZM150.99448 308.575L150.99448 310.10626L152.16635 310.10626L152.16635 310.95L150.99448 310.95L150.99448 314.8719Q150.99448 315.2625 151.15073 315.45Q151.30698 315.6375 151.68198 315.6375Q151.86948 315.6375 152.1976 315.575L152.1976 316.45Q151.77573 316.575 151.36948 316.575Q150.65073 316.575 150.27573 316.1375Q149.90073 315.6844 149.90073 314.8719L149.90073 310.95L148.74448 310.95L148.74448 310.10626L149.90073 310.10626L149.90073 308.575L150.99448 308.575ZM156.58823 311.075Q156.33823 311.04376 156.05698 311.04376Q154.97885 311.04376 154.60385 311.95L154.60385 316.45L153.52573 316.45L153.52573 310.10626L154.5726 310.10626L154.58823 310.84064Q155.11948 309.9969 156.10385 309.9969Q156.41635 309.9969 156.58823 310.075L156.58823 311.075ZM158.6976 316.45L157.61948 316.45L157.61948 310.10626L158.6976 310.10626L158.6976 316.45ZM157.52573 308.4344Q157.52573 308.16876 157.68198 307.98126Q157.85385 307.79376 158.16635 307.79376Q158.47885 307.79376 158.6351 307.98126Q158.80698 308.16876 158.80698 308.4344Q158.80698 308.6844 158.6351 308.8719Q158.47885 309.04376 158.16635 309.04376Q157.85385 309.04376 157.68198 308.8719Q157.52573 308.6844 157.52573 308.4344ZM163.05698 315.6844Q163.6351 315.6844 164.0726 315.34064Q164.5101 314.98126 164.55698 314.45L165.58823 314.45Q165.55698 314.9969 165.1976 315.4969Q164.85385 315.98126 164.27573 316.27814Q163.71323 316.575 163.05698 316.575Q161.7601 316.575 160.99448 315.71564Q160.24448 314.84064 160.24448 313.34064L160.24448 313.15314Q160.24448 312.23126 160.5726 311.5125Q160.91635 310.79376 161.54135 310.40314Q162.18198 309.9969 163.05698 309.9969Q164.11948 309.9969 164.8226 310.6375Q165.54135 311.2625 165.58823 312.29376L164.55698 312.29376Q164.5101 311.66876 164.08823 311.27814Q163.66635 310.8875 163.05698 310.8875Q162.22885 310.8875 161.77573 311.48126Q161.3226 312.075 161.3226 313.2L161.3226 313.40314Q161.3226 314.4969 161.77573 315.09064Q162.22885 315.6844 163.05698 315.6844ZM167.99448 308.575L167.99448 310.10626L169.16635 310.10626L169.16635 310.95L167.99448 310.95L167.99448 314.8719Q167.99448 315.2625 168.15073 315.45Q168.30698 315.6375 168.68198 315.6375Q168.86948 315.6375 169.1976 315.575L169.1976 316.45Q168.77573 316.575 168.36948 316.575Q167.65073 316.575 167.27573 316.1375Q166.90073 315.6844 166.90073 314.8719L166.90073 310.95L165.74448 310.95L165.74448 310.10626L166.90073 310.10626L166.90073 308.575L167.99448 308.575Z" fill-rule="nonzero"/><path fill="#757575" d="M183.19695 316.45L183.19695 307.91876L185.61882 307.91876Q186.7282 307.91876 187.57195 308.41876Q188.43132 308.90314 188.90007 309.8094Q189.36882 310.71564 189.36882 311.90314L189.36882 312.4344Q189.36882 313.65314 188.90007 314.5594Q188.44695 315.46564 187.57195 315.95Q186.71257 316.4344 185.57195 316.45L183.19695 316.45ZM184.32195 308.84064L184.32195 315.52814L185.50945 315.52814Q186.80632 315.52814 187.52507 314.73126Q188.25945 313.91876 188.25945 312.41876L188.25945 311.91876Q188.25945 310.46564 187.57195 309.66876Q186.90007 308.85626 185.63445 308.84064L184.32195 308.84064ZM192.11882 310.8719Q192.83757 309.9969 193.99382 309.9969Q196.00945 309.9969 196.02507 312.2625L196.02507 316.45L194.93132 316.45L194.93132 312.2469Q194.93132 311.575 194.61882 311.2469Q194.32195 310.91876 193.6657 310.91876Q193.13445 310.91876 192.7282 311.2Q192.33757 311.48126 192.11882 311.9344L192.11882 316.45L191.0407 316.45L191.0407 307.45L192.11882 307.45L192.11882 310.8719ZM201.94695 316.45Q201.8532 316.2625 201.7907 315.77814Q201.0407 316.575 199.99382 316.575Q199.05632 316.575 198.44695 316.04376Q197.8532 315.5125 197.8532 314.6844Q197.8532 313.7 198.6032 313.15314Q199.3532 312.60626 200.7282 312.60626L201.77507 312.60626L201.77507 312.10626Q201.77507 311.54376 201.43132 311.21564Q201.1032 310.8719 200.43132 310.8719Q199.8532 310.8719 199.46257 311.16876Q199.07195 311.45 199.07195 311.8719L197.9782 311.8719Q197.9782 311.3875 198.30632 310.95Q198.65007 310.5125 199.2282 310.2625Q199.80632 309.9969 200.49382 309.9969Q201.6032 309.9969 202.21257 310.54376Q202.83757 311.09064 202.86882 312.04376L202.86882 314.96564Q202.86882 315.84064 203.08757 316.35626L203.08757 316.45L201.94695 316.45ZM200.15007 315.6219Q200.6657 315.6219 201.11882 315.35626Q201.57195 315.09064 201.77507 314.66876L201.77507 313.3719L200.93132 313.3719Q198.93132 313.3719 198.93132 314.54376Q198.93132 315.04376 199.27507 315.34064Q199.61882 315.6219 200.15007 315.6219ZM206.80632 313.5125L206.11882 314.21564L206.11882 316.45L205.0407 316.45L205.0407 307.45L206.11882 307.45L206.11882 312.8875L206.69695 312.2L208.68132 310.10626L209.99382 310.10626L207.52507 312.7625L210.2907 316.45L209.00945 316.45L206.80632 313.5125ZM214.94695 316.45Q214.8532 316.2625 214.7907 315.77814Q214.0407 316.575 212.99382 316.575Q212.05632 316.575 211.44695 316.04376Q210.8532 315.5125 210.8532 314.6844Q210.8532 313.7 211.6032 313.15314Q212.3532 312.60626 213.7282 312.60626L214.77507 312.60626L214.77507 312.10626Q214.77507 311.54376 214.43132 311.21564Q214.1032 310.8719 213.43132 310.8719Q212.8532 310.8719 212.46257 311.16876Q212.07195 311.45 212.07195 311.8719L210.9782 311.8719Q210.9782 311.3875 211.30632 310.95Q211.65007 310.5125 212.2282 310.2625Q212.80632 309.9969 213.49382 309.9969Q214.6032 309.9969 215.21257 310.54376Q215.83757 311.09064 215.86882 312.04376L215.86882 314.96564Q215.86882 315.84064 216.08757 316.35626L216.08757 316.45L214.94695 316.45ZM213.15007 315.6219Q213.6657 315.6219 214.11882 315.35626Q214.57195 315.09064 214.77507 314.66876L214.77507 313.3719L213.93132 313.3719Q211.93132 313.3719 211.93132 314.54376Q211.93132 315.04376 212.27507 315.34064Q212.61882 315.6219 213.15007 315.6219Z" fill-rule="nonzero"/><path fill="#757575" d="M242.49316 313.7469Q242.33691 315.09064 241.49316 315.84064Q240.64941 316.575 239.25879 316.575Q237.74316 316.575 236.83691 315.4969Q235.93066 314.40314 235.93066 312.575L235.93066 311.7625Q235.93066 310.575 236.35254 309.66876Q236.77441 308.7625 237.55566 308.27814Q238.33691 307.79376 239.35254 307.79376Q240.71191 307.79376 241.52441 308.5594Q242.35254 309.325 242.49316 310.65314L241.36816 310.65314Q241.21191 309.6375 240.72754 309.1844Q240.24316 308.73126 239.35254 308.73126Q238.27441 308.73126 237.66504 309.52814Q237.05566 310.325 237.05566 311.79376L237.05566 312.6219Q237.05566 314.0125 237.63379 314.84064Q238.21191 315.65314 239.25879 315.65314Q240.19629 315.65314 240.69629 315.23126Q241.19629 314.79376 241.36816 313.7469L242.49316 313.7469ZM243.75879 313.21564Q243.75879 312.29376 244.11816 311.54376Q244.49316 310.79376 245.14941 310.40314Q245.80566 309.9969 246.63379 309.9969Q247.93066 309.9969 248.72754 310.8875Q249.54004 311.77814 249.54004 313.27814L249.54004 313.35626Q249.54004 314.27814 249.18066 315.0125Q248.82129 315.7469 248.16504 316.16876Q247.50879 316.575 246.64941 316.575Q245.36816 316.575 244.55566 315.6844Q243.75879 314.77814 243.75879 313.29376L243.75879 313.21564ZM244.85254 313.35626Q244.85254 314.40314 245.33691 315.04376Q245.83691 315.6844 246.64941 315.6844Q247.47754 315.6844 247.96191 315.04376Q248.44629 314.3875 248.44629 313.21564Q248.44629 312.1844 247.94629 311.54376Q247.46191 310.8875 246.63379 310.8875Q245.83691 310.8875 245.33691 311.52814Q244.85254 312.15314 244.85254 313.35626ZM252.07129 310.10626L252.10254 310.8094Q252.79004 309.9969 253.97754 309.9969Q255.30566 309.9969 255.79004 311.0125Q256.10254 310.5594 256.60254 310.27814Q257.11816 309.9969 257.80566 309.9969Q259.8994 309.9969 259.93066 312.2L259.93066 316.45L258.85254 316.45L258.85254 312.2625Q258.85254 311.59064 258.54004 311.2625Q258.22754 310.91876 257.49316 310.91876Q256.8838 310.91876 256.47754 311.27814Q256.0869 311.6375 256.0244 312.2469L256.0244 316.45L254.94629 316.45L254.94629 312.29376Q254.94629 310.91876 253.58691 310.91876Q252.52441 310.91876 252.13379 311.825L252.13379 316.45L251.04004 316.45L251.04004 310.10626L252.07129 310.10626ZM263.22754 316.45L262.1494 316.45L262.1494 310.10626L263.22754 310.10626L263.22754 316.45ZM262.05566 308.4344Q262.05566 308.16876 262.2119 307.98126Q262.3838 307.79376 262.6963 307.79376Q263.0088 307.79376 263.16504 307.98126Q263.3369 308.16876 263.3369 308.4344Q263.3369 308.6844 263.16504 308.8719Q263.0088 309.04376 262.6963 309.04376Q262.3838 309.04376 262.2119 308.8719Q262.05566 308.6844 262.05566 308.4344ZM266.22754 316.45L265.1494 316.45L265.1494 307.45L266.22754 307.45L266.22754 316.45ZM269.22754 316.45L268.1494 316.45L268.1494 307.45L269.22754 307.45L269.22754 316.45ZM274.9619 316.45Q274.86816 316.2625 274.80566 315.77814Q274.05566 316.575 273.0088 316.575Q272.0713 316.575 271.4619 316.04376Q270.86816 315.5125 270.86816 314.6844Q270.86816 313.7 271.61816 313.15314Q272.36816 312.60626 273.74316 312.60626L274.79004 312.60626L274.79004 312.10626Q274.79004 311.54376 274.4463 311.21564Q274.11816 310.8719 273.4463 310.8719Q272.86816 310.8719 272.47754 311.16876Q272.0869 311.45 272.0869 311.8719L270.99316 311.8719Q270.99316 311.3875 271.3213 310.95Q271.66504 310.5125 272.24316 310.2625Q272.8213 309.9969 273.5088 309.9969Q274.61816 309.9969 275.22754 310.54376Q275.85254 311.09064 275.8838 312.04376L275.8838 314.96564Q275.8838 315.84064 276.10254 316.35626L276.10254 316.45L274.9619 316.45ZM273.16504 315.6219Q273.68066 315.6219 274.1338 315.35626Q274.5869 315.09064 274.79004 314.66876L274.79004 313.3719L273.9463 313.3719Q271.9463 313.3719 271.9463 314.54376Q271.9463 315.04376 272.29004 315.34064Q272.6338 315.6219 273.16504 315.6219Z" fill-rule="nonzero"/><path fill="#757575" d="M291.7269 316.45L291.7269 307.91876L294.52377 307.91876Q295.9144 307.91876 296.6019 308.4969Q297.30502 309.0594 297.30502 310.1844Q297.30502 310.79376 296.96127 311.2625Q296.63315 311.71564 296.0394 311.96564Q296.74252 312.15314 297.13315 312.7Q297.5394 313.23126 297.5394 313.98126Q297.5394 315.1375 296.7894 315.79376Q296.05502 316.45 294.69565 316.45L291.7269 316.45ZM292.8519 312.46564L292.8519 315.52814L294.71127 315.52814Q295.50815 315.52814 295.96127 315.1219Q296.4144 314.71564 296.4144 313.9969Q296.4144 312.46564 294.7269 312.46564L292.8519 312.46564ZM292.8519 311.5594L294.55502 311.5594Q295.2894 311.5594 295.7269 311.2Q296.18002 310.825 296.18002 310.1844Q296.18002 309.48126 295.77377 309.16876Q295.36752 308.84064 294.52377 308.84064L292.8519 308.84064L292.8519 311.5594ZM302.4769 316.45Q302.38315 316.2625 302.32065 315.77814Q301.57065 316.575 300.52377 316.575Q299.58627 316.575 298.9769 316.04376Q298.38315 315.5125 298.38315 314.6844Q298.38315 313.7 299.13315 313.15314Q299.88315 312.60626 301.25815 312.60626L302.30502 312.60626L302.30502 312.10626Q302.30502 311.54376 301.96127 311.21564Q301.63315 310.8719 300.96127 310.8719Q300.38315 310.8719 299.99252 311.16876Q299.6019 311.45 299.6019 311.8719L298.50815 311.8719Q298.50815 311.3875 298.83627 310.95Q299.18002 310.5125 299.75815 310.2625Q300.33627 309.9969 301.02377 309.9969Q302.13315 309.9969 302.74252 310.54376Q303.36752 311.09064 303.39877 312.04376L303.39877 314.96564Q303.39877 315.84064 303.61752 316.35626L303.61752 316.45L302.4769 316.45ZM300.68002 315.6219Q301.19565 315.6219 301.64877 315.35626Q302.1019 315.09064 302.30502 314.66876L302.30502 313.3719L301.46127 313.3719Q299.46127 313.3719 299.46127 314.54376Q299.46127 315.04376 299.80502 315.34064Q300.14877 315.6219 300.68002 315.6219ZM308.63315 311.075Q308.38315 311.04376 308.1019 311.04376Q307.02377 311.04376 306.64877 311.95L306.64877 316.45L305.57065 316.45L305.57065 310.10626L306.61752 310.10626L306.63315 310.84064Q307.1644 309.9969 308.14877 309.9969Q308.46127 309.9969 308.63315 310.075L308.63315 311.075ZM310.74252 316.45L309.6644 316.45L309.6644 310.10626L310.74252 310.10626L310.74252 316.45ZM309.57065 308.4344Q309.57065 308.16876 309.7269 307.98126Q309.89877 307.79376 310.21127 307.79376Q310.52377 307.79376 310.68002 307.98126Q310.8519 308.16876 310.8519 308.4344Q310.8519 308.6844 310.68002 308.8719Q310.52377 309.04376 310.21127 309.04376Q309.89877 309.04376 309.7269 308.8719Q309.57065 308.6844 309.57065 308.4344ZM316.25815 314.7625Q316.25815 314.325 315.9144 314.09064Q315.58627 313.84064 314.75815 313.66876Q313.94565 313.4969 313.46127 313.2469Q312.9769 312.9969 312.74252 312.66876Q312.52377 312.325 312.52377 311.85626Q312.52377 311.075 313.18002 310.54376Q313.83627 309.9969 314.86752 309.9969Q315.94565 309.9969 316.6019 310.5594Q317.27377 311.10626 317.27377 311.96564L316.19565 311.96564Q316.19565 311.52814 315.80502 311.21564Q315.43002 310.8875 314.86752 310.8875Q314.27377 310.8875 313.93002 311.15314Q313.6019 311.40314 313.6019 311.8094Q313.6019 312.2 313.9144 312.40314Q314.2269 312.60626 315.0394 312.79376Q315.8519 312.96564 316.3519 313.21564Q316.8519 313.46564 317.08627 313.825Q317.33627 314.1844 317.33627 314.6844Q317.33627 315.54376 316.64877 316.0594Q315.9769 316.575 314.89877 316.575Q314.13315 316.575 313.5394 316.3094Q312.96127 316.02814 312.63315 315.54376Q312.30502 315.0594 312.30502 314.4969L313.38315 314.4969Q313.4144 315.04376 313.82065 315.3719Q314.2269 315.6844 314.89877 315.6844Q315.50815 315.6844 315.88315 315.4344Q316.25815 315.1844 316.25815 314.7625ZM319.64877 310.8719Q320.36752 309.9969 321.52377 309.9969Q323.5394 309.9969 323.55502 312.2625L323.55502 316.45L322.46127 316.45L322.46127 312.2469Q322.46127 311.575 322.14877 311.2469Q321.8519 310.91876 321.19565 310.91876Q320.6644 310.91876 320.25815 311.2Q319.86752 311.48126 319.64877 311.9344L319.64877 316.45L318.57065 316.45L318.57065 307.45L319.64877 307.45L319.64877 310.8719ZM329.4769 316.45Q329.38315 316.2625 329.32065 315.77814Q328.57065 316.575 327.52377 316.575Q326.58627 316.575 325.9769 316.04376Q325.38315 315.5125 325.38315 314.6844Q325.38315 313.7 326.13315 313.15314Q326.88315 312.60626 328.25815 312.60626L329.30502 312.60626L329.30502 312.10626Q329.30502 311.54376 328.96127 311.21564Q328.63315 310.8719 327.96127 310.8719Q327.38315 310.8719 326.99252 311.16876Q326.6019 311.45 326.6019 311.8719L325.50815 311.8719Q325.50815 311.3875 325.83627 310.95Q326.18002 310.5125 326.75815 310.2625Q327.33627 309.9969 328.02377 309.9969Q329.13315 309.9969 329.74252 310.54376Q330.36752 311.09064 330.39877 312.04376L330.39877 314.96564Q330.39877 315.84064 330.61752 316.35626L330.61752 316.45L329.4769 316.45ZM327.68002 315.6219Q328.19565 315.6219 328.64877 315.35626Q329.1019 315.09064 329.30502 314.66876L329.30502 313.3719L328.46127 313.3719Q326.46127 313.3719 326.46127 314.54376Q326.46127 315.04376 326.80502 315.34064Q327.14877 315.6219 327.68002 315.6219ZM333.74252 316.45L332.6644 316.45L332.6644 307.45L333.74252 307.45L333.74252 316.45Z" fill-rule="nonzero"/><path fill="#757575" d="M351.24185 316.45L351.24185 307.91876L354.03873 307.91876Q355.42935 307.91876 356.11685 308.4969Q356.81998 309.0594 356.81998 310.1844Q356.81998 310.79376 356.47623 311.2625Q356.1481 311.71564 355.55435 311.96564Q356.25748 312.15314 356.6481 312.7Q357.05435 313.23126 357.05435 313.98126Q357.05435 315.1375 356.30435 315.79376Q355.56998 316.45 354.2106 316.45L351.24185 316.45ZM352.36685 312.46564L352.36685 315.52814L354.22623 315.52814Q355.0231 315.52814 355.47623 315.1219Q355.92935 314.71564 355.92935 313.9969Q355.92935 312.46564 354.24185 312.46564L352.36685 312.46564ZM352.36685 311.5594L354.06998 311.5594Q354.80435 311.5594 355.24185 311.2Q355.69498 310.825 355.69498 310.1844Q355.69498 309.48126 355.28873 309.16876Q354.88248 308.84064 354.03873 308.84064L352.36685 308.84064L352.36685 311.5594ZM358.10123 315.8875Q358.10123 315.60626 358.25748 315.41876Q358.42935 315.23126 358.75748 315.23126Q359.10123 315.23126 359.2731 315.41876Q359.44498 315.60626 359.44498 315.8875Q359.44498 316.15314 359.2731 316.34064Q359.10123 316.5125 358.75748 316.5125Q358.42935 316.5125 358.25748 316.34064Q358.10123 316.15314 358.10123 315.8875ZM361.24185 316.45L361.24185 307.91876L364.03873 307.91876Q365.42935 307.91876 366.11685 308.4969Q366.81998 309.0594 366.81998 310.1844Q366.81998 310.79376 366.47623 311.2625Q366.1481 311.71564 365.55435 311.96564Q366.25748 312.15314 366.6481 312.7Q367.05435 313.23126 367.05435 313.98126Q367.05435 315.1375 366.30435 315.79376Q365.56998 316.45 364.2106 316.45L361.24185 316.45ZM362.36685 312.46564L362.36685 315.52814L364.22623 315.52814Q365.0231 315.52814 365.47623 315.1219Q365.92935 314.71564 365.92935 313.9969Q365.92935 312.46564 364.24185 312.46564L362.36685 312.46564ZM362.36685 311.5594L364.06998 311.5594Q364.80435 311.5594 365.24185 311.2Q365.69498 310.825 365.69498 310.1844Q365.69498 309.48126 365.28873 309.16876Q364.88248 308.84064 364.03873 308.84064L362.36685 308.84064L362.36685 311.5594ZM371.99185 316.45Q371.8981 316.2625 371.8356 315.77814Q371.0856 316.575 370.03873 316.575Q369.10123 316.575 368.49185 316.04376Q367.8981 315.5125 367.8981 314.6844Q367.8981 313.7 368.6481 313.15314Q369.3981 312.60626 370.7731 312.60626L371.81998 312.60626L371.81998 312.10626Q371.81998 311.54376 371.47623 311.21564Q371.1481 310.8719 370.47623 310.8719Q369.8981 310.8719 369.50748 311.16876Q369.11685 311.45 369.11685 311.8719L368.0231 311.8719Q368.0231 311.3875 368.35123 310.95Q368.69498 310.5125 369.2731 310.2625Q369.85123 309.9969 370.53873 309.9969Q371.6481 309.9969 372.25748 310.54376Q372.88248 311.09064 372.91373 312.04376L372.91373 314.96564Q372.91373 315.84064 373.13248 316.35626L373.13248 316.45L371.99185 316.45ZM370.19498 315.6219Q370.7106 315.6219 371.16373 315.35626Q371.61685 315.09064 371.81998 314.66876L371.81998 313.3719L370.97623 313.3719Q368.97623 313.3719 368.97623 314.54376Q368.97623 315.04376 369.31998 315.34064Q369.66373 315.6219 370.19498 315.6219ZM378.1481 311.075Q377.8981 311.04376 377.61685 311.04376Q376.53873 311.04376 376.16373 311.95L376.16373 316.45L375.0856 316.45L375.0856 310.10626L376.13248 310.10626L376.1481 310.84064Q376.67935 309.9969 377.66373 309.9969Q377.97623 309.9969 378.1481 310.075L378.1481 311.075ZM380.25748 316.45L379.17935 316.45L379.17935 310.10626L380.25748 310.10626L380.25748 316.45ZM379.0856 308.4344Q379.0856 308.16876 379.24185 307.98126Q379.41373 307.79376 379.72623 307.79376Q380.03873 307.79376 380.19498 307.98126Q380.36685 308.16876 380.36685 308.4344Q380.36685 308.6844 380.19498 308.8719Q380.03873 309.04376 379.72623 309.04376Q379.41373 309.04376 379.24185 308.8719Q379.0856 308.6844 379.0856 308.4344ZM385.99185 316.45Q385.8981 316.2625 385.8356 315.77814Q385.0856 316.575 384.03873 316.575Q383.10123 316.575 382.49185 316.04376Q381.8981 315.5125 381.8981 314.6844Q381.8981 313.7 382.6481 313.15314Q383.3981 312.60626 384.7731 312.60626L385.81998 312.60626L385.81998 312.10626Q385.81998 311.54376 385.47623 311.21564Q385.1481 310.8719 384.47623 310.8719Q383.8981 310.8719 383.50748 311.16876Q383.11685 311.45 383.11685 311.8719L382.0231 311.8719Q382.0231 311.3875 382.35123 310.95Q382.69498 310.5125 383.2731 310.2625Q383.85123 309.9969 384.53873 309.9969Q385.6481 309.9969 386.25748 310.54376Q386.88248 311.09064 386.91373 312.04376L386.91373 314.96564Q386.91373 315.84064 387.13248 316.35626L387.13248 316.45L385.99185 316.45ZM384.19498 315.6219Q384.7106 315.6219 385.16373 315.35626Q385.61685 315.09064 385.81998 314.66876L385.81998 313.3719L384.97623 313.3719Q382.97623 313.3719 382.97623 314.54376Q382.97623 315.04376 383.31998 315.34064Q383.66373 315.6219 384.19498 315.6219Z" fill-rule="nonzero"/><path fill="#757575" d="M412.06934 315.325Q411.63184 315.95 410.8506 316.2625Q410.06934 316.575 409.0381 316.575Q408.00684 316.575 407.19434 316.09064Q406.38184 315.59064 405.94434 314.6844Q405.50684 313.77814 405.4912 312.59064L405.4912 311.85626Q405.4912 309.91876 406.38184 308.85626Q407.2881 307.79376 408.9131 307.79376Q410.25684 307.79376 411.06934 308.48126Q411.88184 309.16876 412.06934 310.41876L410.94434 310.41876Q410.6162 308.73126 408.9287 308.73126Q407.7881 308.73126 407.20996 309.52814Q406.63184 310.3094 406.6162 311.825L406.6162 312.5125Q406.6162 313.95 407.27246 314.8094Q407.9287 315.65314 409.0537 315.65314Q409.6787 315.65314 410.14746 315.5125Q410.63184 315.3719 410.94434 315.02814L410.94434 313.1219L408.9756 313.1219L408.9756 312.2L412.06934 312.2L412.06934 315.325ZM417.50684 316.45Q417.4131 316.2625 417.3506 315.77814Q416.6006 316.575 415.5537 316.575Q414.6162 316.575 414.00684 316.04376Q413.4131 315.5125 413.4131 314.6844Q413.4131 313.7 414.1631 313.15314Q414.9131 312.60626 416.2881 312.60626L417.33496 312.60626L417.33496 312.10626Q417.33496 311.54376 416.9912 311.21564Q416.6631 310.8719 415.9912 310.8719Q415.4131 310.8719 415.02246 311.16876Q414.63184 311.45 414.63184 311.8719L413.5381 311.8719Q413.5381 311.3875 413.8662 310.95Q414.20996 310.5125 414.7881 310.2625Q415.3662 309.9969 416.0537 309.9969Q417.1631 309.9969 417.77246 310.54376Q418.39746 311.09064 418.4287 312.04376L418.4287 314.96564Q418.4287 315.84064 418.64746 316.35626L418.64746 316.45L417.50684 316.45ZM415.70996 315.6219Q416.2256 315.6219 416.6787 315.35626Q417.13184 315.09064 417.33496 314.66876L417.33496 313.3719L416.4912 313.3719Q414.4912 313.3719 414.4912 314.54376Q414.4912 315.04376 414.83496 315.34064Q415.1787 315.6219 415.70996 315.6219ZM421.6162 315.5594L425.31934 315.5594L425.31934 316.45L420.2881 316.45L420.2881 315.65314L423.7881 311.0125L420.33496 311.0125L420.33496 310.10626L425.14746 310.10626L425.14746 310.8719L421.6162 315.5594ZM427.77246 316.45L426.69434 316.45L426.69434 310.10626L427.77246 310.10626L427.77246 316.45ZM426.6006 308.4344Q426.6006 308.16876 426.75684 307.98126Q426.9287 307.79376 427.2412 307.79376Q427.5537 307.79376 427.70996 307.98126Q427.88184 308.16876 427.88184 308.4344Q427.88184 308.6844 427.70996 308.8719Q427.5537 309.04376 427.2412 309.04376Q426.9287 309.04376 426.75684 308.8719Q426.6006 308.6844 426.6006 308.4344ZM434.94434 313.35626Q434.94434 314.79376 434.2881 315.6844Q433.63184 316.575 432.4912 316.575Q431.33496 316.575 430.6787 315.84064L430.6787 318.8875L429.6006 318.8875L429.6006 310.10626L430.58496 310.10626L430.63184 310.8094Q431.3037 309.9969 432.4756 309.9969Q433.6162 309.9969 434.27246 310.85626Q434.94434 311.71564 434.94434 313.2469L434.94434 313.35626ZM433.8662 313.23126Q433.8662 312.15314 433.39746 311.54376Q432.94434 310.91876 432.14746 310.91876Q431.1631 310.91876 430.6787 311.77814L430.6787 314.8094Q431.1631 315.6844 432.1631 315.6844Q432.94434 315.6844 433.39746 315.075Q433.8662 314.45 433.8662 313.23126ZM440.50684 315.825Q439.88184 316.575 438.64746 316.575Q437.63184 316.575 437.1006 315.98126Q436.56934 315.3875 436.56934 314.23126L436.56934 310.10626L437.64746 310.10626L437.64746 314.2Q437.64746 315.65314 438.81934 315.65314Q440.06934 315.65314 440.4756 314.71564L440.4756 310.10626L441.56934 310.10626L441.56934 316.45L440.5381 316.45L440.50684 315.825ZM446.6631 311.075Q446.4131 311.04376 446.13184 311.04376Q445.0537 311.04376 444.6787 311.95L444.6787 316.45L443.6006 316.45L443.6006 310.10626L444.64746 310.10626L444.6631 310.84064Q445.19434 309.9969 446.1787 309.9969Q446.4912 309.9969 446.6631 310.075L446.6631 311.075Z" fill-rule="nonzero"/><path fill="#757575" d="M469.2874 312.65314Q467.8499 312.23126 467.17804 311.6219Q466.5218 311.0125 466.5218 310.1219Q466.5218 309.1219 467.31866 308.46564Q468.13116 307.79376 469.42804 307.79376Q470.30304 307.79376 470.99054 308.1375Q471.67804 308.48126 472.05304 309.075Q472.44366 309.66876 472.44366 310.3875L471.30304 310.3875Q471.30304 309.60626 470.80304 309.16876Q470.31866 308.73126 469.42804 308.73126Q468.5999 308.73126 468.13116 309.10626Q467.6624 309.46564 467.6624 310.10626Q467.6624 310.6375 468.0999 310.9969Q468.55304 311.35626 469.61554 311.65314Q470.67804 311.95 471.2718 312.3094Q471.88116 312.66876 472.1624 313.15314Q472.4593 313.6375 472.4593 314.27814Q472.4593 315.325 471.6468 315.95Q470.8343 316.575 469.49054 316.575Q468.5999 316.575 467.8343 316.23126Q467.0843 315.8875 466.6624 315.3094Q466.25616 314.71564 466.25616 313.98126L467.38116 313.98126Q467.38116 314.7469 467.9593 315.2Q468.5374 315.65314 469.49054 315.65314Q470.38116 315.65314 470.8499 315.29376Q471.31866 314.91876 471.31866 314.29376Q471.31866 313.66876 470.88116 313.325Q470.44366 312.98126 469.2874 312.65314ZM475.67804 314.85626L477.1624 310.10626L478.31866 310.10626L475.7718 317.4344Q475.17804 319.0125 473.8968 319.0125L473.67804 318.9969L473.2874 318.91876L473.2874 318.04376L473.56866 318.0594Q474.13116 318.0594 474.42804 317.84064Q474.74054 317.6219 474.94366 317.02814L475.17804 316.3719L472.9124 310.10626L474.0999 310.10626L475.67804 314.85626ZM480.7874 316.45L479.7093 316.45L479.7093 307.45L480.7874 307.45L480.7874 316.45ZM483.69366 310.8719Q484.4124 309.9969 485.56866 309.9969Q487.5843 309.9969 487.5999 312.2625L487.5999 316.45L486.50616 316.45L486.50616 312.2469Q486.50616 311.575 486.19366 311.2469Q485.8968 310.91876 485.24054 310.91876Q484.7093 310.91876 484.30304 311.2Q483.9124 311.48126 483.69366 311.9344L483.69366 316.45L482.61554 316.45L482.61554 307.45L483.69366 307.45L483.69366 310.8719ZM492.24054 316.575Q490.94366 316.575 490.13116 315.73126Q489.3343 314.8719 489.3343 313.45L489.3343 313.2625Q489.3343 312.3094 489.69366 311.575Q490.05304 310.825 490.69366 310.41876Q491.3499 309.9969 492.0999 309.9969Q493.3343 309.9969 494.0218 310.8094Q494.7093 311.6219 494.7093 313.1375L494.7093 313.59064L490.4124 313.59064Q490.44366 314.52814 490.9593 315.10626Q491.49054 315.6844 492.30304 315.6844Q492.86554 315.6844 493.25616 315.45Q493.6624 315.21564 493.9749 314.825L494.63116 315.34064Q493.8343 316.575 492.24054 316.575ZM492.0999 310.8875Q491.44366 310.8875 490.99054 311.3719Q490.55304 311.84064 490.4593 312.7L493.63116 312.7L493.63116 312.6219Q493.5843 311.79376 493.17804 311.34064Q492.7874 310.8875 492.0999 310.8875ZM497.0843 308.575L497.0843 310.10626L498.25616 310.10626L498.25616 310.95L497.0843 310.95L497.0843 314.8719Q497.0843 315.2625 497.24054 315.45Q497.3968 315.6375 497.7718 315.6375Q497.9593 315.6375 498.2874 315.575L498.2874 316.45Q497.86554 316.575 497.4593 316.575Q496.74054 316.575 496.36554 316.1375Q495.99054 315.6844 495.99054 314.8719L495.99054 310.95L494.8343 310.95L494.8343 310.10626L495.99054 310.10626L495.99054 308.575L497.0843 308.575Z" fill-rule="nonzero"/><path fill="#757575" d="M522.568 313.7469Q522.41174 315.09064 521.568 315.84064Q520.72424 316.575 519.3336 316.575Q517.818 316.575 516.91174 315.4969Q516.0055 314.40314 516.0055 312.575L516.0055 311.7625Q516.0055 310.575 516.42737 309.66876Q516.84924 308.7625 517.6305 308.27814Q518.41174 307.79376 519.42737 307.79376Q520.78674 307.79376 521.59924 308.5594Q522.42737 309.325 522.568 310.65314L521.443 310.65314Q521.28674 309.6375 520.80237 309.1844Q520.318 308.73126 519.42737 308.73126Q518.34924 308.73126 517.73987 309.52814Q517.1305 310.325 517.1305 311.79376L517.1305 312.6219Q517.1305 314.0125 517.7086 314.84064Q518.28674 315.65314 519.3336 315.65314Q520.2711 315.65314 520.7711 315.23126Q521.2711 314.79376 521.443 313.7469L522.568 313.7469ZM525.2086 310.8719Q525.92737 309.9969 527.0836 309.9969Q529.09924 309.9969 529.11487 312.2625L529.11487 316.45L528.0211 316.45L528.0211 312.2469Q528.0211 311.575 527.7086 311.2469Q527.41174 310.91876 526.7555 310.91876Q526.22424 310.91876 525.818 311.2Q525.42737 311.48126 525.2086 311.9344L525.2086 316.45L524.1305 316.45L524.1305 307.45L525.2086 307.45L525.2086 310.8719ZM535.03674 316.45Q534.943 316.2625 534.8805 315.77814Q534.1305 316.575 533.0836 316.575Q532.1461 316.575 531.53674 316.04376Q530.943 315.5125 530.943 314.6844Q530.943 313.7 531.693 313.15314Q532.443 312.60626 533.818 312.60626L534.86487 312.60626L534.86487 312.10626Q534.86487 311.54376 534.5211 311.21564Q534.193 310.8719 533.5211 310.8719Q532.943 310.8719 532.55237 311.16876Q532.16174 311.45 532.16174 311.8719L531.068 311.8719Q531.068 311.3875 531.3961 310.95Q531.73987 310.5125 532.318 310.2625Q532.8961 309.9969 533.5836 309.9969Q534.693 309.9969 535.30237 310.54376Q535.92737 311.09064 535.9586 312.04376L535.9586 314.96564Q535.9586 315.84064 536.17737 316.35626L536.17737 316.45L535.03674 316.45ZM533.23987 315.6219Q533.7555 315.6219 534.2086 315.35626Q534.66174 315.09064 534.86487 314.66876L534.86487 313.3719L534.0211 313.3719Q532.0211 313.3719 532.0211 314.54376Q532.0211 315.04376 532.36487 315.34064Q532.7086 315.6219 533.23987 315.6219ZM537.86487 313.23126Q537.86487 311.7625 538.55237 310.8875Q539.23987 309.9969 540.36487 309.9969Q541.47424 309.9969 542.1305 310.7469L542.1305 307.45L543.2086 307.45L543.2086 316.45L542.2086 316.45L542.16174 315.7625Q541.5055 316.575 540.34924 316.575Q539.2555 316.575 538.55237 315.66876Q537.86487 314.7625 537.86487 313.3094L537.86487 313.23126ZM538.943 313.35626Q538.943 314.4344 539.3805 315.04376Q539.8336 315.65314 540.61487 315.65314Q541.6461 315.65314 542.1305 314.71564L542.1305 311.8094Q541.6461 310.91876 540.6305 310.91876Q539.8336 310.91876 539.3805 311.52814Q538.943 312.1375 538.943 313.35626ZM550.47424 313.35626Q550.47424 314.79376 549.818 315.6844Q549.16174 316.575 548.0211 316.575Q546.86487 316.575 546.2086 315.84064L546.2086 318.8875L545.1305 318.8875L545.1305 310.10626L546.11487 310.10626L546.16174 310.8094Q546.8336 309.9969 548.0055 309.9969Q549.1461 309.9969 549.80237 310.85626Q550.47424 311.71564 550.47424 313.2469L550.47424 313.35626ZM549.3961 313.23126Q549.3961 312.15314 548.92737 311.54376Q548.47424 310.91876 547.67737 310.91876Q546.693 310.91876 546.2086 311.77814L546.2086 314.8094Q546.693 315.6844 547.693 315.6844Q548.47424 315.6844 548.92737 315.075Q549.3961 314.45 549.3961 313.23126ZM556.03674 315.825Q555.41174 316.575 554.17737 316.575Q553.16174 316.575 552.6305 315.98126Q552.09924 315.3875 552.09924 314.23126L552.09924 310.10626L553.17737 310.10626L553.17737 314.2Q553.17737 315.65314 554.34924 315.65314Q555.59924 315.65314 556.0055 314.71564L556.0055 310.10626L557.09924 310.10626L557.09924 316.45L556.068 316.45L556.03674 315.825ZM562.193 311.075Q561.943 311.04376 561.66174 311.04376Q560.5836 311.04376 560.2086 311.95L560.2086 316.45L559.1305 316.45L559.1305 310.10626L560.17737 310.10626L560.193 310.84064Q560.72424 309.9969 561.7086 309.9969Q562.0211 309.9969 562.193 310.075L562.193 311.075Z" fill-rule="nonzero"/><path fill="#757575" d="M22.3625 24.425L22.3625 26.9875L24.346874 26.9875L24.346874 28.378124L22.3625 28.378124L22.3625 34.925Q22.3625 35.565624 22.628124 35.89375Q22.89375 36.20625 23.534374 36.20625Q23.846874 36.20625 24.39375 36.08125L24.39375 37.55Q23.675 37.753124 23.003124 37.753124Q21.8 37.753124 21.175 37.01875Q20.565624 36.284374 20.565624 34.925L20.565624 28.378124L18.64375 28.378124L18.64375 26.9875L20.565624 26.9875L20.565624 24.425L22.3625 24.425ZM26.440624 32.175Q26.440624 30.6125 27.05 29.378124Q27.659374 28.128124 28.7375 27.45625Q29.83125 26.784374 31.2375 26.784374Q33.39375 26.784374 34.721874 28.284374Q36.065624 29.76875 36.065624 32.253124L36.065624 32.378124Q36.065624 33.925 35.471874 35.159374Q34.878124 36.378124 33.76875 37.065624Q32.675 37.753124 31.253124 37.753124Q29.1125 37.753124 27.76875 36.253124Q26.440624 34.753124 26.440624 32.3L26.440624 32.175ZM28.253124 32.378124Q28.253124 34.14375 29.065624 35.20625Q29.89375 36.26875 31.253124 36.26875Q32.628124 36.26875 33.440624 35.190624Q34.253124 34.1125 34.253124 32.175Q34.253124 30.425 33.425 29.346874Q32.596874 28.26875 31.2375 28.26875Q29.89375 28.26875 29.065624 29.33125Q28.253124 30.39375 28.253124 32.378124ZM40.3625 24.425L40.3625 26.9875L42.346874 26.9875L42.346874 28.378124L40.3625 28.378124L40.3625 34.925Q40.3625 35.565624 40.628124 35.89375Q40.89375 36.20625 41.534374 36.20625Q41.846874 36.20625 42.39375 36.08125L42.39375 37.55Q41.675 37.753124 41.003124 37.753124Q39.8 37.753124 39.175 37.01875Q38.565624 36.284374 38.565624 34.925L38.565624 28.378124L36.64375 28.378124L36.64375 26.9875L38.565624 26.9875L38.565624 24.425L40.3625 24.425ZM51.440624 37.55Q51.284374 37.2375 51.190624 36.440624Q49.925 37.753124 48.175 37.753124Q46.6125 37.753124 45.6125 36.8625Q44.6125 35.971874 44.6125 34.6125Q44.6125 32.971874 45.8625 32.065624Q47.128124 31.14375 49.39375 31.14375L51.159374 31.14375L51.159374 30.315624Q51.159374 29.3625 50.58125 28.8Q50.01875 28.2375 48.925 28.2375Q47.95625 28.2375 47.3 28.7375Q46.64375 29.221874 46.64375 29.909374L44.83125 29.909374Q44.83125 29.128124 45.39375 28.39375Q45.95625 27.64375 46.909374 27.221874Q47.878124 26.784374 49.034374 26.784374Q50.8625 26.784374 51.89375 27.70625Q52.925 28.6125 52.971874 30.221874L52.971874 35.08125Q52.971874 36.534374 53.33125 37.39375L53.33125 37.55L51.440624 37.55ZM48.440624 36.175Q49.3 36.175 50.05 35.7375Q50.815624 35.3 51.159374 34.596874L51.159374 32.425L49.7375 32.425Q46.425 32.425 46.425 34.3625Q46.425 35.221874 46.9875 35.70625Q47.55 36.175 48.440624 36.175ZM57.878124 37.55L56.08125 37.55L56.08125 22.55L57.878124 22.55L57.878124 37.55ZM68.53438 39.01875L59.596874 39.01875L59.596874 37.55L68.53438 37.55L68.53438 39.01875ZM78.84688 32.378124Q78.84688 34.8 77.7375 36.284374Q76.64375 37.753124 74.75313 37.753124Q72.83125 37.753124 71.72188 36.51875L71.72188 41.6125L69.925 41.6125L69.925 26.9875L71.56563 26.9875L71.65938 28.159374Q72.75313 26.784374 74.72188 26.784374Q76.62813 26.784374 77.7375 28.221874Q78.84688 29.659374 78.84688 32.221874L78.84688 32.378124ZM77.03438 32.175Q77.03438 30.39375 76.26875 29.3625Q75.51875 28.315624 74.19063 28.315624Q72.55 28.315624 71.72188 29.76875L71.72188 34.83125Q72.53438 36.26875 74.20625 36.26875Q75.50313 36.26875 76.26875 35.2375Q77.03438 34.20625 77.03438 32.175ZM86.01875 28.596874Q85.6125 28.534374 85.14375 28.534374Q83.3625 28.534374 82.72188 30.05L82.72188 37.55L80.925 37.55L80.925 26.9875L82.675 26.9875L82.70625 28.20625Q83.59688 26.784374 85.22188 26.784374Q85.75313 26.784374 86.01875 26.925L86.01875 28.596874ZM89.87813 37.55L88.08125 37.55L88.08125 26.9875L89.87813 26.9875L89.87813 37.55ZM87.925 24.175Q87.925 23.7375 88.19063 23.440624Q88.47188 23.128124 88.9875 23.128124Q89.51875 23.128124 89.78438 23.440624Q90.06563 23.7375 90.06563 24.175Q90.06563 24.6125 89.78438 24.909374Q89.51875 25.20625 88.9875 25.20625Q88.47188 25.20625 88.19063 24.909374Q87.925 24.6125 87.925 24.175ZM97.15938 36.26875Q98.12813 36.26875 98.84688 35.690624Q99.56563 35.096874 99.64375 34.221874L101.3625 34.221874Q101.3 35.128124 100.72188 35.95625Q100.15938 36.76875 99.19063 37.26875Q98.2375 37.753124 97.15938 37.753124Q95.00313 37.753124 93.72188 36.315624Q92.45625 34.8625 92.45625 32.3625L92.45625 32.065624Q92.45625 30.51875 93.01875 29.315624Q93.58125 28.1125 94.64375 27.45625Q95.70625 26.784374 97.14375 26.784374Q98.925 26.784374 100.09688 27.846874Q101.28438 28.909374 101.3625 30.6125L99.64375 30.6125Q99.56563 29.596874 98.8625 28.940624Q98.175 28.26875 97.14375 28.26875Q95.76875 28.26875 95.00313 29.26875Q94.25313 30.253124 94.25313 32.128124L94.25313 32.471874Q94.25313 34.3 95.00313 35.284374Q95.75313 36.26875 97.15938 36.26875ZM107.3 37.753124Q105.15938 37.753124 103.8 36.346874Q102.45625 34.925 102.45625 32.565624L102.45625 32.221874Q102.45625 30.659374 103.05 29.425Q103.65938 28.190624 104.7375 27.4875Q105.81563 26.784374 107.08125 26.784374Q109.14375 26.784374 110.28438 28.14375Q111.425 29.503124 111.425 32.034374L111.425 32.784374L104.26875 32.784374Q104.3 34.346874 105.175 35.315624Q106.05 36.26875 107.39375 36.26875Q108.3625 36.26875 109.01875 35.878124Q109.69063 35.4875 110.19063 34.846874L111.28438 35.70625Q109.95625 37.753124 107.3 37.753124ZM107.08125 28.26875Q105.9875 28.26875 105.2375 29.065624Q104.50313 29.8625 104.33125 31.3L109.6125 31.3L109.6125 31.159374Q109.53438 29.784374 108.8625 29.034374Q108.20625 28.26875 107.08125 28.26875ZM122.40938 35.096874L125.01875 26.9875L126.8625 26.9875L123.08125 37.55L121.70625 37.55L117.87813 26.9875L119.72188 26.9875L122.40938 35.096874ZM135.06563 34.753124Q135.06563 34.01875 134.51875 33.6125Q133.97188 33.20625 132.59688 32.909374Q131.22188 32.6125 130.40938 32.20625Q129.6125 31.8 129.22188 31.2375Q128.84688 30.659374 128.84688 29.878124Q128.84688 28.58125 129.94063 27.690624Q131.03438 26.784374 132.75313 26.784374Q134.55 26.784374 135.65938 27.721874Q136.78438 28.64375 136.78438 30.08125L134.95625 30.08125Q134.95625 29.346874 134.33125 28.815624Q133.70625 28.26875 132.75313 28.26875Q131.75313 28.26875 131.19063 28.70625Q130.64375 29.128124 130.64375 29.83125Q130.64375 30.471874 131.15938 30.815624Q131.675 31.14375 133.03438 31.45625Q134.39375 31.753124 135.22188 32.175Q136.06563 32.58125 136.47188 33.175Q136.87813 33.76875 136.87813 34.6125Q136.87813 36.034374 135.7375 36.89375Q134.6125 37.753124 132.8 37.753124Q131.53438 37.753124 130.55 37.3Q129.58125 36.846874 129.01875 36.05Q128.47188 35.2375 128.47188 34.3L130.28438 34.3Q130.33125 35.20625 131.00313 35.7375Q131.69063 36.26875 132.8 36.26875Q133.83125 36.26875 134.44063 35.8625Q135.06563 35.440624 135.06563 34.753124ZM138.95625 36.596874Q138.95625 36.128124 139.2375 35.815624Q139.51875 35.503124 140.06563 35.503124Q140.62813 35.503124 140.90938 35.815624Q141.20625 36.128124 141.20625 36.596874Q141.20625 37.05 140.90938 37.3625Q140.62813 37.659374 140.06563 37.659374Q139.51875 37.659374 139.2375 37.3625Q138.95625 37.05 138.95625 36.596874ZM148.47188 32.175Q148.47188 29.753124 149.62813 28.26875Q150.78438 26.784374 152.64375 26.784374Q154.50313 26.784374 155.58125 28.05L155.58125 22.55L157.39375 22.55L157.39375 37.55L155.7375 37.55L155.64375 36.409374Q154.56563 37.753124 152.62813 37.753124Q150.8 37.753124 149.62813 36.253124Q148.47188 34.7375 148.47188 32.315624L148.47188 32.175ZM150.28438 32.378124Q150.28438 34.175 151.01875 35.190624Q151.76875 36.20625 153.08125 36.20625Q154.8 36.20625 155.58125 34.675L155.58125 29.815624Q154.78438 28.315624 153.09688 28.315624Q151.76875 28.315624 151.01875 29.346874Q150.28438 30.378124 150.28438 32.378124ZM161.87813 37.55L160.08125 37.55L160.08125 26.9875L161.87813 26.9875L161.87813 37.55ZM159.925 24.175Q159.925 23.7375 160.19063 23.440624Q160.47188 23.128124 160.9875 23.128124Q161.51875 23.128124 161.78438 23.440624Q162.06563 23.7375 162.06563 24.175Q162.06563 24.6125 161.78438 24.909374Q161.51875 25.20625 160.9875 25.20625Q160.47188 25.20625 160.19063 24.909374Q159.925 24.6125 159.925 24.175ZM171.06563 34.753124Q171.06563 34.01875 170.51875 33.6125Q169.97188 33.20625 168.59688 32.909374Q167.22188 32.6125 166.40938 32.20625Q165.6125 31.8 165.22188 31.2375Q164.84688 30.659374 164.84688 29.878124Q164.84688 28.58125 165.94063 27.690624Q167.03438 26.784374 168.75313 26.784374Q170.55 26.784374 171.65938 27.721874Q172.78438 28.64375 172.78438 30.08125L170.95625 30.08125Q170.95625 29.346874 170.33125 28.815624Q169.70625 28.26875 168.75313 28.26875Q167.75313 28.26875 167.19063 28.70625Q166.64375 29.128124 166.64375 29.83125Q166.64375 30.471874 167.15938 30.815624Q167.675 31.14375 169.03438 31.45625Q170.39375 31.753124 171.22188 32.175Q172.06563 32.58125 172.47188 33.175Q172.87813 33.76875 172.87813 34.6125Q172.87813 36.034374 171.7375 36.89375Q170.6125 37.753124 168.8 37.753124Q167.53438 37.753124 166.55 37.3Q165.58125 36.846874 165.01875 36.05Q164.47188 35.2375 164.47188 34.3L166.28438 34.3Q166.33125 35.20625 167.00313 35.7375Q167.69063 36.26875 168.8 36.26875Q169.83125 36.26875 170.44063 35.8625Q171.06563 35.440624 171.06563 34.753124ZM177.3625 24.425L177.3625 26.9875L179.34688 26.9875L179.34688 28.378124L177.3625 28.378124L177.3625 34.925Q177.3625 35.565624 177.62813 35.89375Q177.89375 36.20625 178.53438 36.20625Q178.84688 36.20625 179.39375 36.08125L179.39375 37.55Q178.675 37.753124 178.00313 37.753124Q176.8 37.753124 176.175 37.01875Q175.56563 36.284374 175.56563 34.925L175.56563 28.378124L173.64375 28.378124L173.64375 26.9875L175.56563 26.9875L175.56563 24.425L177.3625 24.425ZM187.01875 28.596874Q186.6125 28.534374 186.14375 28.534374Q184.3625 28.534374 183.72188 30.05L183.72188 37.55L181.925 37.55L181.925 26.9875L183.675 26.9875L183.70625 28.20625Q184.59688 26.784374 186.22188 26.784374Q186.75313 26.784374 187.01875 26.925L187.01875 28.596874ZM190.87813 37.55L189.08125 37.55L189.08125 26.9875L190.87813 26.9875L190.87813 37.55ZM188.925 24.175Q188.925 23.7375 189.19063 23.440624Q189.47188 23.128124 189.9875 23.128124Q190.51875 23.128124 190.78438 23.440624Q191.06563 23.7375 191.06563 24.175Q191.06563 24.6125 190.78438 24.909374Q190.51875 25.20625 189.9875 25.20625Q189.47188 25.20625 189.19063 24.909374Q188.925 24.6125 188.925 24.175ZM198.15938 36.26875Q199.12813 36.26875 199.84688 35.690624Q200.56563 35.096874 200.64375 34.221874L202.3625 34.221874Q202.3 35.128124 201.72188 35.95625Q201.15938 36.76875 200.19063 37.26875Q199.2375 37.753124 198.15938 37.753124Q196.00313 37.753124 194.72188 36.315624Q193.45625 34.8625 193.45625 32.3625L193.45625 32.065624Q193.45625 30.51875 194.01875 29.315624Q194.58125 28.1125 195.64375 27.45625Q196.70625 26.784374 198.14375 26.784374Q199.925 26.784374 201.09688 27.846874Q202.28438 28.909374 202.3625 30.6125L200.64375 30.6125Q200.56563 29.596874 199.8625 28.940624Q199.175 28.26875 198.14375 28.26875Q196.76875 28.26875 196.00313 29.26875Q195.25313 30.253124 195.25313 32.128124L195.25313 32.471874Q195.25313 34.3 196.00313 35.284374Q196.75313 36.26875 198.15938 36.26875ZM206.3625 24.425L206.3625 26.9875L208.34688 26.9875L208.34688 28.378124L206.3625 28.378124L206.3625 34.925Q206.3625 35.565624 206.62813 35.89375Q206.89375 36.20625 207.53438 36.20625Q207.84688 36.20625 208.39375 36.08125L208.39375 37.55Q207.675 37.753124 207.00313 37.753124Q205.8 37.753124 205.175 37.01875Q204.56563 36.284374 204.56563 34.925L204.56563 28.378124L202.64375 28.378124L202.64375 26.9875L204.56563 26.9875L204.56563 24.425L206.3625 24.425Z" fill-rule="nonzero"/></svg>