<svg version="1.1" viewBox="0.0 0.0 600.0 371.0" fill="none" stroke="none" stroke-linecap="square" stroke-miterlimit="10" width="600" height="371" xmlns:xlink="http://www.w3.org/1999/xlink" xmlns="http://www.w3.org/2000/svg"><path fill="#ffffff" d="M0 0L600.0 0L600.0 371.0L0 371.0L0 0Z" fill-rule="nonzero"/><path stroke="#333333" stroke-width="1.0" stroke-linecap="butt" d="M134.5 270.5L581.5 270.5" fill-rule="nonzero"/><path fill="#eeeeee" d="M106.5 298.5L134.5 271.5L581.5 271.5L553.5 298.5Z" fill-rule="nonzero"/><path stroke="#cccccc" stroke-width="1.0" stroke-linecap="butt" d="M134.5 218.5L581.5 218.5" fill-rule="nonzero"/><path stroke="#cccccc" stroke-width="1.0" stroke-linecap="butt" d="M134.5 166.5L581.5 166.5" fill-rule="nonzero"/><path stroke="#cccccc" stroke-width="1.0" stroke-linecap="butt" d="M134.5 114.5L581.5 114.5" fill-rule="nonzero"/><path stroke="#cccccc" stroke-width="1.0" stroke-linecap="butt" d="M134.5 62.5L581.5 62.5" fill-rule="nonzero"/><clipPath id="id_0"><path d="M106.55 62.416668L581.45 62.416668L581.45 298.45L106.55 298.45L106.55 62.416668Z" clip-rule="nonzero"/></clipPath><path fill="#852a18" clip-path="url(#id_0)" d="M260.0 62.0L260.0 270.0L237.0 293.0L237.0 85.0Z" fill-rule="nonzero"/><path fill="#d66751" clip-path="url(#id_0)" d="M237.0 85.0L145.0 85.0L168.0 62.0L260.0 62.0Z" fill-rule="nonzero"/><path stroke="#000000" stroke-width="2.0" stroke-linecap="butt" stroke-opacity="0.0" clip-path="url(#id_0)" d="M237.0 293.0L145.0 293.0L145.0 85.0L237.0 85.0Z" fill-rule="nonzero"/><path fill="#cc4125" clip-path="url(#id_0)" d="M237.0 293.0L145.0 293.0L145.0 85.0L237.0 85.0Z" fill-rule="nonzero"/><path fill="#852a18" clip-path="url(#id_0)" d="M402.0 68.0L402.0 270.0L379.0 293.0L379.0 91.0Z" fill-rule="nonzero"/><path fill="#d66751" clip-path="url(#id_0)" d="M379.0 91.0L287.0 91.0L310.0 68.0L402.0 68.0Z" fill-rule="nonzero"/><path stroke="#000000" stroke-width="2.0" stroke-linecap="butt" stroke-opacity="0.0" clip-path="url(#id_0)" d="M379.0 293.0L287.0 293.0L287.0 91.0L379.0 91.0Z" fill-rule="nonzero"/><path fill="#cc4125" clip-path="url(#id_0)" d="M379.0 293.0L287.0 293.0L287.0 91.0L379.0 91.0Z" fill-rule="nonzero"/><path fill="#852a18" clip-path="url(#id_0)" d="M543.0 265.0L543.0 270.0L520.0 293.0L520.0 288.0Z" fill-rule="nonzero"/><path fill="#d66751" clip-path="url(#id_0)" d="M520.0 288.0L428.0 288.0L451.0 265.0L543.0 265.0Z" fill-rule="nonzero"/><path stroke="#000000" stroke-width="2.0" stroke-linecap="butt" stroke-opacity="0.0" clip-path="url(#id_0)" d="M520.0 293.0L428.0 293.0L428.0 288.0L520.0 288.0Z" fill-rule="nonzero"/><path fill="#cc4125" clip-path="url(#id_0)" d="M520.0 293.0L428.0 293.0L428.0 288.0L520.0 288.0Z" fill-rule="nonzero"/><path fill="#424242" d="M318.29688 341.575L318.29688 343.10626L319.46875 343.10626L319.46875 343.95L318.29688 343.95L318.29688 347.8719Q318.29688 348.2625 318.45312 348.45Q318.60938 348.6375 318.98438 348.6375Q319.17188 348.6375 319.5 348.575L319.5 349.45Q319.07812 349.575 318.67188 349.575Q317.95312 349.575 317.57812 349.1375Q317.20312 348.6844 317.20312 347.8719L317.20312 343.95L316.04688 343.95L316.04688 343.10626L317.20312 343.10626L317.20312 341.575L318.29688 341.575ZM323.89062 344.075Q323.64062 344.04376 323.35938 344.04376Q322.28125 344.04376 321.90625 344.95L321.90625 349.45L320.82812 349.45L320.82812 343.10626L321.875 343.10626L321.89062 343.84064Q322.42188 342.9969 323.40625 342.9969Q323.71875 342.9969 323.89062 343.075L323.89062 344.075ZM328.73438 349.45Q328.64062 349.2625 328.57812 348.77814Q327.82812 349.575 326.78125 349.575Q325.84375 349.575 325.23438 349.04376Q324.64062 348.5125 324.64062 347.6844Q324.64062 346.7 325.39062 346.15314Q326.14062 345.60626 327.51562 345.60626L328.5625 345.60626L328.5625 345.10626Q328.5625 344.54376 328.21875 344.21564Q327.89062 343.8719 327.21875 343.8719Q326.64062 343.8719 326.25 344.16876Q325.85938 344.45 325.85938 344.8719L324.76562 344.8719Q324.76562 344.3875 325.09375 343.95Q325.4375 343.5125 326.01562 343.2625Q326.59375 342.9969 327.28125 342.9969Q328.39062 342.9969 329.0 343.54376Q329.625 344.09064 329.65625 345.04376L329.65625 347.96564Q329.65625 348.84064 329.875 349.35626L329.875 349.45L328.73438 349.45ZM326.9375 348.6219Q327.45312 348.6219 327.90625 348.35626Q328.35938 348.09064 328.5625 347.66876L328.5625 346.3719L327.71875 346.3719Q325.71875 346.3719 325.71875 347.54376Q325.71875 348.04376 326.0625 348.34064Q326.40625 348.6219 326.9375 348.6219ZM332.84375 343.10626L332.875 343.90314Q333.60938 342.9969 334.78125 342.9969Q336.79688 342.9969 336.8125 345.2625L336.8125 349.45L335.71875 349.45L335.71875 345.2469Q335.71875 344.575 335.40625 344.2469Q335.10938 343.91876 334.45312 343.91876Q333.92188 343.91876 333.51562 344.2Q333.125 344.48126 332.90625 344.9344L332.90625 349.45L331.82812 349.45L331.82812 343.10626L332.84375 343.10626ZM342.51562 347.7625Q342.51562 347.325 342.17188 347.09064Q341.84375 346.84064 341.01562 346.66876Q340.20312 346.4969 339.71875 346.2469Q339.23438 345.9969 339.0 345.66876Q338.78125 345.325 338.78125 344.85626Q338.78125 344.075 339.4375 343.54376Q340.09375 342.9969 341.125 342.9969Q342.20312 342.9969 342.85938 343.5594Q343.53125 344.10626 343.53125 344.96564L342.45312 344.96564Q342.45312 344.52814 342.0625 344.21564Q341.6875 343.8875 341.125 343.8875Q340.53125 343.8875 340.1875 344.15314Q339.85938 344.40314 339.85938 344.8094Q339.85938 345.2 340.17188 345.40314Q340.48438 345.60626 341.29688 345.79376Q342.10938 345.96564 342.60938 346.21564Q343.10938 346.46564 343.34375 346.825Q343.59375 347.1844 343.59375 347.6844Q343.59375 348.54376 342.90625 349.0594Q342.23438 349.575 341.15625 349.575Q340.39062 349.575 339.79688 349.3094Q339.21875 349.02814 338.89062 348.54376Q338.5625 348.0594 338.5625 347.4969L339.64062 347.4969Q339.67188 348.04376 340.07812 348.3719Q340.48438 348.6844 341.15625 348.6844Q341.76562 348.6844 342.14062 348.4344Q342.51562 348.1844 342.51562 347.7625ZM349.39062 350.34064L344.03125 350.34064L344.03125 349.45L349.39062 349.45L349.39062 350.34064ZM351.29688 341.575L351.29688 343.10626L352.46875 343.10626L352.46875 343.95L351.29688 343.95L351.29688 347.8719Q351.29688 348.2625 351.45312 348.45Q351.60938 348.6375 351.98438 348.6375Q352.17188 348.6375 352.5 348.575L352.5 349.45Q352.07812 349.575 351.67188 349.575Q350.95312 349.575 350.57812 349.1375Q350.20312 348.6844 350.20312 347.8719L350.20312 343.95L349.04688 343.95L349.04688 343.10626L350.20312 343.10626L350.20312 341.575L351.29688 341.575ZM355.89062 347.85626L357.375 343.10626L358.53125 343.10626L355.98438 350.4344Q355.39062 352.0125 354.10938 352.0125L353.89062 351.9969L353.5 351.91876L353.5 351.04376L353.78125 351.0594Q354.34375 351.0594 354.64062 350.84064Q354.95312 350.6219 355.15625 350.02814L355.39062 349.3719L353.125 343.10626L354.3125 343.10626L355.89062 347.85626ZM365.17188 346.35626Q365.17188 347.79376 364.51562 348.6844Q363.85938 349.575 362.71875 349.575Q361.5625 349.575 360.90625 348.84064L360.90625 351.8875L359.82812 351.8875L359.82812 343.10626L360.8125 343.10626L360.85938 343.8094Q361.53125 342.9969 362.70312 342.9969Q363.84375 342.9969 364.5 343.85626Q365.17188 344.71564 365.17188 346.2469L365.17188 346.35626ZM364.09375 346.23126Q364.09375 345.15314 363.625 344.54376Q363.17188 343.91876 362.375 343.91876Q361.39062 343.91876 360.90625 344.77814L360.90625 347.8094Q361.39062 348.6844 362.39062 348.6844Q363.17188 348.6844 363.625 348.075Q364.09375 347.45 364.09375 346.23126ZM369.45312 349.575Q368.15625 349.575 367.34375 348.73126Q366.54688 347.8719 366.54688 346.45L366.54688 346.2625Q366.54688 345.3094 366.90625 344.575Q367.26562 343.825 367.90625 343.41876Q368.5625 342.9969 369.3125 342.9969Q370.54688 342.9969 371.23438 343.8094Q371.92188 344.6219 371.92188 346.1375L371.92188 346.59064L367.625 346.59064Q367.65625 347.52814 368.17188 348.10626Q368.70312 348.6844 369.51562 348.6844Q370.07812 348.6844 370.46875 348.45Q370.875 348.21564 371.1875 347.825L371.84375 348.34064Q371.04688 349.575 369.45312 349.575ZM369.3125 343.8875Q368.65625 343.8875 368.20312 344.3719Q367.76562 344.84064 367.67188 345.7L370.84375 345.7L370.84375 345.6219Q370.79688 344.79376 370.39062 344.34064Q370.0 343.8875 369.3125 343.8875Z" fill-rule="nonzero"/><path fill="#424242" d="M22.675013 214.88646L24.206263 214.88646L24.206263 213.71458L25.050013 213.71458L25.050013 214.88646L28.971888 214.88646Q29.362513 214.88646 29.550013 214.73021Q29.737513 214.57396 29.737513 214.19896Q29.737513 214.01146 29.675013 213.68333L30.550013 213.68333Q30.675013 214.10521 30.675013 214.51146Q30.675013 215.23021 30.237513 215.60521Q29.784388 215.98021 28.971888 215.98021L25.050013 215.98021L25.050013 217.13646L24.206263 217.13646L24.206263 215.98021L22.675013 215.98021L22.675013 214.88646ZM27.315638 212.65208Q26.393763 212.65208 25.643763 212.29271Q24.893763 211.91771 24.503138 211.26146Q24.096888 210.60521 24.096888 209.77708Q24.096888 208.48021 24.987513 207.68333Q25.878138 206.87083 27.378138 206.87083L27.456263 206.87083Q28.378138 206.87083 29.112513 207.23021Q29.846888 207.58958 30.268763 208.24583Q30.675013 208.90208 30.675013 209.76146Q30.675013 211.04271 29.784388 211.85521Q28.878138 212.65208 27.393763 212.65208L27.315638 212.65208ZM27.456263 211.55833Q28.503138 211.55833 29.143763 211.07396Q29.784388 210.57396 29.784388 209.76146Q29.784388 208.93333 29.143763 208.44896Q28.487513 207.96458 27.315638 207.96458Q26.284388 207.96458 25.643763 208.46458Q24.987513 208.94896 24.987513 209.77708Q24.987513 210.57396 25.628138 211.07396Q26.253138 211.55833 27.456263 211.55833ZM22.675013 203.88646L24.206263 203.88646L24.206263 202.71458L25.050013 202.71458L25.050013 203.88646L28.971888 203.88646Q29.362513 203.88646 29.550013 203.73021Q29.737513 203.57396 29.737513 203.19896Q29.737513 203.01146 29.675013 202.68333L30.550013 202.68333Q30.675013 203.10521 30.675013 203.51146Q30.675013 204.23021 30.237513 204.60521Q29.784388 204.98021 28.971888 204.98021L25.050013 204.98021L25.050013 206.13646L24.206263 206.13646L24.206263 204.98021L22.675013 204.98021L22.675013 203.88646ZM30.550013 197.44896Q30.362513 197.54271 29.878138 197.60521Q30.675013 198.35521 30.675013 199.40208Q30.675013 200.33958 30.143763 200.94896Q29.612513 201.54271 28.784388 201.54271Q27.800013 201.54271 27.253138 200.79271Q26.706263 200.04271 26.706263 198.66771L26.706263 197.62083L26.206263 197.62083Q25.643763 197.62083 25.315638 197.96458Q24.971888 198.29271 24.971888 198.96458Q24.971888 199.54271 25.268763 199.93333Q25.550013 200.32396 25.971888 200.32396L25.971888 201.41771Q25.487513 201.41771 25.050013 201.08958Q24.612513 200.74583 24.362513 200.16771Q24.096888 199.58958 24.096888 198.90208Q24.096888 197.79271 24.643763 197.18333Q25.190638 196.55833 26.143763 196.52708L29.065638 196.52708Q29.940638 196.52708 30.456263 196.30833L30.550013 196.30833L30.550013 197.44896ZM29.721888 199.24583Q29.721888 198.73021 29.456263 198.27708Q29.190638 197.82396 28.768763 197.62083L27.471888 197.62083L27.471888 198.46458Q27.471888 200.46458 28.643763 200.46458Q29.143763 200.46458 29.440638 200.12083Q29.721888 199.77708 29.721888 199.24583ZM30.550013 193.18333L30.550013 194.26146L21.550013 194.26146L21.550013 193.18333L30.550013 193.18333ZM31.440638 186.79271L31.440638 192.15208L30.550013 192.15208L30.550013 186.79271L31.440638 186.79271ZM27.456263 180.99583Q28.909388 180.99583 29.800013 181.66771Q30.675013 182.32396 30.675013 183.44896Q30.675013 184.65208 29.815638 185.30833L30.550013 185.37083L30.550013 186.35521L21.550013 186.35521L21.550013 185.27708L24.909388 185.27708Q24.096888 184.62083 24.096888 183.46458Q24.096888 182.30833 24.971888 181.65208Q25.831263 180.99583 27.362513 180.99583L27.456263 180.99583ZM27.331263 182.07396Q26.221888 182.07396 25.628138 182.51146Q25.018763 182.93333 25.018763 183.73021Q25.018763 184.80833 26.003138 185.27708L28.753138 185.27708Q29.753138 184.77708 29.753138 183.73021Q29.753138 182.94896 29.143763 182.51146Q28.534388 182.07396 27.331263 182.07396ZM29.925013 175.44896Q30.675013 176.07396 30.675013 177.30833Q30.675013 178.32396 30.081263 178.85521Q29.487513 179.38646 28.331263 179.38646L24.206263 179.38646L24.206263 178.30833L28.300013 178.30833Q29.753138 178.30833 29.753138 177.13646Q29.753138 175.88646 28.815638 175.48021L24.206263 175.48021L24.206263 174.38646L30.550013 174.38646L30.550013 175.41771L29.925013 175.44896ZM28.956263 170.29271L24.206263 168.80833L24.206263 167.65208L31.534388 170.19896Q33.11251 170.79271 33.11251 172.07396L33.096886 172.29271L33.01876 172.68333L32.14376 172.68333L32.159386 172.40208Q32.159386 171.83958 31.940638 171.54271Q31.721888 171.23021 31.128138 171.02708L30.471888 170.79271L24.206263 173.05833L24.206263 171.87083L28.956263 170.29271ZM30.675013 163.73021Q30.675013 165.02708 29.831263 165.83958Q28.971888 166.63646 27.550013 166.63646L27.362513 166.63646Q26.409388 166.63646 25.675013 166.27708Q24.925013 165.91771 24.518763 165.27708Q24.096888 164.62083 24.096888 163.87083Q24.096888 162.63646 24.909388 161.94896Q25.721888 161.26146 27.237513 161.26146L27.690638 161.26146L27.690638 165.55833Q28.628138 165.52708 29.206263 165.01146Q29.784388 164.48021 29.784388 163.66771Q29.784388 163.10521 29.550013 162.71458Q29.315638 162.30833 28.925013 161.99583L29.440638 161.33958Q30.675013 162.13646 30.675013 163.73021ZM24.987513 163.87083Q24.987513 164.52708 25.471888 164.98021Q25.940638 165.41771 26.800013 165.51146L26.800013 162.33958L26.721888 162.33958Q25.893763 162.38646 25.440638 162.79271Q24.987513 163.18333 24.987513 163.87083ZM25.175013 157.29271Q25.143763 157.54271 25.143763 157.82396Q25.143763 158.90208 26.050013 159.27708L30.550013 159.27708L30.550013 160.35521L24.206263 160.35521L24.206263 159.30833L24.940638 159.29271Q24.096888 158.76146 24.096888 157.77708Q24.096888 157.46458 24.175013 157.29271L25.175013 157.29271Z" fill-rule="nonzero"/><path fill="#757575" d="M99.6125 271.3094Q99.6125 273.21564 98.95625 274.15314Q98.31563 275.075 96.925 275.075Q95.56563 275.075 94.90938 274.16876Q94.25313 273.2625 94.22188 271.45L94.22188 270.0125Q94.22188 268.1219 94.8625 267.21564Q95.51875 266.29376 96.90938 266.29376Q98.28438 266.29376 98.94063 267.1844Q99.59688 268.0594 99.6125 269.90314L99.6125 271.3094ZM98.51875 269.825Q98.51875 268.45 98.12813 267.825Q97.75313 267.1844 96.90938 267.1844Q96.08125 267.1844 95.69063 267.825Q95.31563 268.45 95.31563 269.7469L95.31563 271.48126Q95.31563 272.85626 95.70625 273.52814Q96.1125 274.1844 96.925 274.1844Q97.72188 274.1844 98.1125 273.5594Q98.50313 272.9344 98.51875 271.60626L98.51875 269.825Z" fill-rule="nonzero"/><path fill="#757575" d="M64.84688 222.94167L59.253124 222.94167L59.253124 222.16042L62.20625 218.87917Q62.8625 218.12917 63.1125 217.67604Q63.3625 217.20729 63.3625 216.70729Q63.3625 216.03542 62.95625 215.61354Q62.565624 215.17604 61.878124 215.17604Q61.08125 215.17604 60.628124 215.64479Q60.175 216.09792 60.175 216.92604L59.096874 216.92604Q59.096874 215.73854 59.846874 215.01979Q60.6125 214.28542 61.878124 214.28542Q63.08125 214.28542 63.76875 214.91042Q64.45625 215.53542 64.45625 216.58229Q64.45625 217.83229 62.846874 219.58229L60.565624 222.05104L64.84688 222.05104L64.84688 222.94167ZM66.75313 218.66042L67.19063 214.41042L71.56563 214.41042L71.56563 215.41042L68.1125 215.41042L67.84688 217.73854Q68.4875 217.36354 69.28438 217.36354Q70.44063 217.36354 71.12813 218.14479Q71.81563 218.91042 71.81563 220.22292Q71.81563 221.53542 71.09688 222.30104Q70.39375 223.06667 69.1125 223.06667Q67.9875 223.06667 67.26875 222.44167Q66.55 221.80104 66.45625 220.69167L67.47188 220.69167Q67.58125 221.42604 68.00313 221.80104Q68.425 222.17604 69.1125 222.17604Q69.8625 222.17604 70.3 221.66042Q70.7375 221.14479 70.7375 220.23854Q70.7375 219.37917 70.26875 218.86354Q69.8 218.34792 69.01875 218.34792Q68.31563 218.34792 67.90938 218.64479L67.62813 218.87917L66.75313 218.66042ZM78.6125 219.30104Q78.6125 221.20729 77.95625 222.14479Q77.31563 223.06667 75.925 223.06667Q74.56563 223.06667 73.90938 222.16042Q73.25313 221.25417 73.22188 219.44167L73.22188 218.00417Q73.22188 216.11354 73.8625 215.20729Q74.51875 214.28542 75.90938 214.28542Q77.28438 214.28542 77.94063 215.17604Q78.59688 216.05104 78.6125 217.89479L78.6125 219.30104ZM77.51875 217.81667Q77.51875 216.44167 77.12813 215.81667Q76.75313 215.17604 75.90938 215.17604Q75.08125 215.17604 74.69063 215.81667Q74.31563 216.44167 74.31563 217.73854L74.31563 219.47292Q74.31563 220.84792 74.70625 221.51979Q75.1125 222.17604 75.925 222.17604Q76.72188 222.17604 77.1125 221.55104Q77.50313 220.92604 77.51875 219.59792L77.51875 217.81667ZM85.6125 219.30104Q85.6125 221.20729 84.95625 222.14479Q84.31563 223.06667 82.925 223.06667Q81.56563 223.06667 80.90938 222.16042Q80.25313 221.25417 80.22188 219.44167L80.22188 218.00417Q80.22188 216.11354 80.8625 215.20729Q81.51875 214.28542 82.90938 214.28542Q84.28438 214.28542 84.94063 215.17604Q85.59688 216.05104 85.6125 217.89479L85.6125 219.30104ZM84.51875 217.81667Q84.51875 216.44167 84.12813 215.81667Q83.75313 215.17604 82.90938 215.17604Q82.08125 215.17604 81.69063 215.81667Q81.31563 216.44167 81.31563 217.73854L81.31563 219.47292Q81.31563 220.84792 81.70625 221.51979Q82.1125 222.17604 82.925 222.17604Q83.72188 222.17604 84.1125 221.55104Q84.50313 220.92604 84.51875 219.59792L84.51875 217.81667ZM92.6125 219.30104Q92.6125 221.20729 91.95625 222.14479Q91.31563 223.06667 89.925 223.06667Q88.56563 223.06667 87.90938 222.16042Q87.25313 221.25417 87.22188 219.44167L87.22188 218.00417Q87.22188 216.11354 87.8625 215.20729Q88.51875 214.28542 89.90938 214.28542Q91.28438 214.28542 91.94063 215.17604Q92.59688 216.05104 92.6125 217.89479L92.6125 219.30104ZM91.51875 217.81667Q91.51875 216.44167 91.12813 215.81667Q90.75313 215.17604 89.90938 215.17604Q89.08125 215.17604 88.69063 215.81667Q88.31563 216.44167 88.31563 217.73854L88.31563 219.47292Q88.31563 220.84792 88.70625 221.51979Q89.1125 222.17604 89.925 222.17604Q90.72188 222.17604 91.1125 221.55104Q91.50313 220.92604 91.51875 219.59792L91.51875 217.81667ZM99.6125 219.30104Q99.6125 221.20729 98.95625 222.14479Q98.31563 223.06667 96.925 223.06667Q95.56563 223.06667 94.90938 222.16042Q94.25313 221.25417 94.22188 219.44167L94.22188 218.00417Q94.22188 216.11354 94.8625 215.20729Q95.51875 214.28542 96.90938 214.28542Q98.28438 214.28542 98.94063 215.17604Q99.59688 216.05104 99.6125 217.89479L99.6125 219.30104ZM98.51875 217.81667Q98.51875 216.44167 98.12813 215.81667Q97.75313 215.17604 96.90938 215.17604Q96.08125 215.17604 95.69063 215.81667Q95.31563 216.44167 95.31563 217.73854L95.31563 219.47292Q95.31563 220.84792 95.70625 221.51979Q96.1125 222.17604 96.925 222.17604Q97.72188 222.17604 98.1125 221.55104Q98.50313 220.92604 98.51875 219.59792L98.51875 217.81667Z" fill-rule="nonzero"/><path fill="#757575" d="M59.753124 166.65208L60.190624 162.40208L64.56563 162.40208L64.56563 163.40208L61.1125 163.40208L60.846874 165.73021Q61.4875 165.35521 62.284374 165.35521Q63.440624 165.35521 64.12813 166.13646Q64.81563 166.90208 64.81563 168.21458Q64.81563 169.52708 64.09688 170.29271Q63.39375 171.05833 62.1125 171.05833Q60.9875 171.05833 60.26875 170.43333Q59.55 169.79271 59.45625 168.68333L60.471874 168.68333Q60.58125 169.41771 61.003124 169.79271Q61.425 170.16771 62.1125 170.16771Q62.8625 170.16771 63.3 169.65208Q63.7375 169.13646 63.7375 168.23021Q63.7375 167.37083 63.26875 166.85521Q62.8 166.33958 62.01875 166.33958Q61.315624 166.33958 60.909374 166.63646L60.628124 166.87083L59.753124 166.65208ZM71.6125 167.29271Q71.6125 169.19896 70.95625 170.13646Q70.31563 171.05833 68.925 171.05833Q67.56563 171.05833 66.90938 170.15208Q66.25313 169.24583 66.22188 167.43333L66.22188 165.99583Q66.22188 164.10521 66.8625 163.19896Q67.51875 162.27708 68.90938 162.27708Q70.28438 162.27708 70.94063 163.16771Q71.59688 164.04271 71.6125 165.88646L71.6125 167.29271ZM70.51875 165.80833Q70.51875 164.43333 70.12813 163.80833Q69.75313 163.16771 68.90938 163.16771Q68.08125 163.16771 67.69063 163.80833Q67.31563 164.43333 67.31563 165.73021L67.31563 167.46458Q67.31563 168.83958 67.70625 169.51146Q68.1125 170.16771 68.925 170.16771Q69.72188 170.16771 70.1125 169.54271Q70.50313 168.91771 70.51875 167.58958L70.51875 165.80833ZM78.6125 167.29271Q78.6125 169.19896 77.95625 170.13646Q77.31563 171.05833 75.925 171.05833Q74.56563 171.05833 73.90938 170.15208Q73.25313 169.24583 73.22188 167.43333L73.22188 165.99583Q73.22188 164.10521 73.8625 163.19896Q74.51875 162.27708 75.90938 162.27708Q77.28438 162.27708 77.94063 163.16771Q78.59688 164.04271 78.6125 165.88646L78.6125 167.29271ZM77.51875 165.80833Q77.51875 164.43333 77.12813 163.80833Q76.75313 163.16771 75.90938 163.16771Q75.08125 163.16771 74.69063 163.80833Q74.31563 164.43333 74.31563 165.73021L74.31563 167.46458Q74.31563 168.83958 74.70625 169.51146Q75.1125 170.16771 75.925 170.16771Q76.72188 170.16771 77.1125 169.54271Q77.50313 168.91771 77.51875 167.58958L77.51875 165.80833ZM85.6125 167.29271Q85.6125 169.19896 84.95625 170.13646Q84.31563 171.05833 82.925 171.05833Q81.56563 171.05833 80.90938 170.15208Q80.25313 169.24583 80.22188 167.43333L80.22188 165.99583Q80.22188 164.10521 80.8625 163.19896Q81.51875 162.27708 82.90938 162.27708Q84.28438 162.27708 84.94063 163.16771Q85.59688 164.04271 85.6125 165.88646L85.6125 167.29271ZM84.51875 165.80833Q84.51875 164.43333 84.12813 163.80833Q83.75313 163.16771 82.90938 163.16771Q82.08125 163.16771 81.69063 163.80833Q81.31563 164.43333 81.31563 165.73021L81.31563 167.46458Q81.31563 168.83958 81.70625 169.51146Q82.1125 170.16771 82.925 170.16771Q83.72188 170.16771 84.1125 169.54271Q84.50313 168.91771 84.51875 167.58958L84.51875 165.80833ZM92.6125 167.29271Q92.6125 169.19896 91.95625 170.13646Q91.31563 171.05833 89.925 171.05833Q88.56563 171.05833 87.90938 170.15208Q87.25313 169.24583 87.22188 167.43333L87.22188 165.99583Q87.22188 164.10521 87.8625 163.19896Q88.51875 162.27708 89.90938 162.27708Q91.28438 162.27708 91.94063 163.16771Q92.59688 164.04271 92.6125 165.88646L92.6125 167.29271ZM91.51875 165.80833Q91.51875 164.43333 91.12813 163.80833Q90.75313 163.16771 89.90938 163.16771Q89.08125 163.16771 88.69063 163.80833Q88.31563 164.43333 88.31563 165.73021L88.31563 167.46458Q88.31563 168.83958 88.70625 169.51146Q89.1125 170.16771 89.925 170.16771Q90.72188 170.16771 91.1125 169.54271Q91.50313 168.91771 91.51875 167.58958L91.51875 165.80833ZM99.6125 167.29271Q99.6125 169.19896 98.95625 170.13646Q98.31563 171.05833 96.925 171.05833Q95.56563 171.05833 94.90938 170.15208Q94.25313 169.24583 94.22188 167.43333L94.22188 165.99583Q94.22188 164.10521 94.8625 163.19896Q95.51875 162.27708 96.90938 162.27708Q98.28438 162.27708 98.94063 163.16771Q99.59688 164.04271 99.6125 165.88646L99.6125 167.29271ZM98.51875 165.80833Q98.51875 164.43333 98.12813 163.80833Q97.75313 163.16771 96.90938 163.16771Q96.08125 163.16771 95.69063 163.80833Q95.31563 164.43333 95.31563 165.73021L95.31563 167.46458Q95.31563 168.83958 95.70625 169.51146Q96.1125 170.16771 96.925 170.16771Q97.72188 170.16771 98.1125 169.54271Q98.50313 168.91771 98.51875 167.58958L98.51875 165.80833Z" fill-rule="nonzero"/><path fill="#757575" d="M64.76875 111.00313L61.2375 118.925L60.096874 118.925L63.6125 111.28438L59.003124 111.28438L59.003124 110.39375L64.76875 110.39375L64.76875 111.00313ZM66.75313 114.64375L67.19063 110.39375L71.56563 110.39375L71.56563 111.39375L68.1125 111.39375L67.84688 113.72188Q68.4875 113.34688 69.28438 113.34688Q70.44063 113.34688 71.12813 114.12813Q71.81563 114.89375 71.81563 116.20625Q71.81563 117.51875 71.09688 118.28438Q70.39375 119.05 69.1125 119.05Q67.9875 119.05 67.26875 118.425Q66.55 117.78438 66.45625 116.675L67.47188 116.675Q67.58125 117.40938 68.00313 117.78438Q68.425 118.15938 69.1125 118.15938Q69.8625 118.15938 70.3 117.64375Q70.7375 117.12813 70.7375 116.22188Q70.7375 115.3625 70.26875 114.84688Q69.8 114.33125 69.01875 114.33125Q68.31563 114.33125 67.90938 114.62813L67.62813 114.8625L66.75313 114.64375ZM78.6125 115.28438Q78.6125 117.19063 77.95625 118.12813Q77.31563 119.05 75.925 119.05Q74.56563 119.05 73.90938 118.14375Q73.25313 117.2375 73.22188 115.425L73.22188 113.9875Q73.22188 112.09688 73.8625 111.19063Q74.51875 110.26875 75.90938 110.26875Q77.28438 110.26875 77.94063 111.15938Q78.59688 112.03438 78.6125 113.87813L78.6125 115.28438ZM77.51875 113.8Q77.51875 112.425 77.12813 111.8Q76.75313 111.15938 75.90938 111.15938Q75.08125 111.15938 74.69063 111.8Q74.31563 112.425 74.31563 113.72188L74.31563 115.45625Q74.31563 116.83125 74.70625 117.50313Q75.1125 118.15938 75.925 118.15938Q76.72188 118.15938 77.1125 117.53438Q77.50313 116.90938 77.51875 115.58125L77.51875 113.8ZM85.6125 115.28438Q85.6125 117.19063 84.95625 118.12813Q84.31563 119.05 82.925 119.05Q81.56563 119.05 80.90938 118.14375Q80.25313 117.2375 80.22188 115.425L80.22188 113.9875Q80.22188 112.09688 80.8625 111.19063Q81.51875 110.26875 82.90938 110.26875Q84.28438 110.26875 84.94063 111.15938Q85.59688 112.03438 85.6125 113.87813L85.6125 115.28438ZM84.51875 113.8Q84.51875 112.425 84.12813 111.8Q83.75313 111.15938 82.90938 111.15938Q82.08125 111.15938 81.69063 111.8Q81.31563 112.425 81.31563 113.72188L81.31563 115.45625Q81.31563 116.83125 81.70625 117.50313Q82.1125 118.15938 82.925 118.15938Q83.72188 118.15938 84.1125 117.53438Q84.50313 116.90938 84.51875 115.58125L84.51875 113.8ZM92.6125 115.28438Q92.6125 117.19063 91.95625 118.12813Q91.31563 119.05 89.925 119.05Q88.56563 119.05 87.90938 118.14375Q87.25313 117.2375 87.22188 115.425L87.22188 113.9875Q87.22188 112.09688 87.8625 111.19063Q88.51875 110.26875 89.90938 110.26875Q91.28438 110.26875 91.94063 111.15938Q92.59688 112.03438 92.6125 113.87813L92.6125 115.28438ZM91.51875 113.8Q91.51875 112.425 91.12813 111.8Q90.75313 111.15938 89.90938 111.15938Q89.08125 111.15938 88.69063 111.8Q88.31563 112.425 88.31563 113.72188L88.31563 115.45625Q88.31563 116.83125 88.70625 117.50313Q89.1125 118.15938 89.925 118.15938Q90.72188 118.15938 91.1125 117.53438Q91.50313 116.90938 91.51875 115.58125L91.51875 113.8ZM99.6125 115.28438Q99.6125 117.19063 98.95625 118.12813Q98.31563 119.05 96.925 119.05Q95.56563 119.05 94.90938 118.14375Q94.25313 117.2375 94.22188 115.425L94.22188 113.9875Q94.22188 112.09688 94.8625 111.19063Q95.51875 110.26875 96.90938 110.26875Q98.28438 110.26875 98.94063 111.15938Q99.59688 112.03438 99.6125 113.87813L99.6125 115.28438ZM98.51875 113.8Q98.51875 112.425 98.12813 111.8Q97.75313 111.15938 96.90938 111.15938Q96.08125 111.15938 95.69063 111.8Q95.31563 112.425 95.31563 113.72188L95.31563 115.45625Q95.31563 116.83125 95.70625 117.50313Q96.1125 118.15938 96.925 118.15938Q97.72188 118.15938 98.1125 117.53438Q98.50313 116.90938 98.51875 115.58125L98.51875 113.8Z" fill-rule="nonzero"/><path fill="#757575" d="M55.815624 66.916664L54.7375 66.916664L54.7375 59.697914L52.55 60.49479L52.55 59.510414L55.659374 58.33854L55.815624 58.33854L55.815624 66.916664ZM64.6125 63.27604Q64.6125 65.18229 63.95625 66.11979Q63.315624 67.041664 61.925 67.041664Q60.565624 67.041664 59.909374 66.135414Q59.253124 65.229164 59.221874 63.416664L59.221874 61.979164Q59.221874 60.08854 59.8625 59.18229Q60.51875 58.260414 61.909374 58.260414Q63.284374 58.260414 63.940624 59.15104Q64.59688 60.02604 64.6125 61.86979L64.6125 63.27604ZM63.51875 61.791664Q63.51875 60.416664 63.128124 59.791664Q62.753124 59.15104 61.909374 59.15104Q61.08125 59.15104 60.690624 59.791664Q60.315624 60.416664 60.315624 61.71354L60.315624 63.447914Q60.315624 64.822914 60.70625 65.49479Q61.1125 66.15104 61.925 66.15104Q62.721874 66.15104 63.1125 65.52604Q63.503124 64.90104 63.51875 63.572914L63.51875 61.791664ZM71.6125 63.27604Q71.6125 65.18229 70.95625 66.11979Q70.31563 67.041664 68.925 67.041664Q67.56563 67.041664 66.90938 66.135414Q66.25313 65.229164 66.22188 63.416664L66.22188 61.979164Q66.22188 60.08854 66.8625 59.18229Q67.51875 58.260414 68.90938 58.260414Q70.28438 58.260414 70.94063 59.15104Q71.59688 60.02604 71.6125 61.86979L71.6125 63.27604ZM70.51875 61.791664Q70.51875 60.416664 70.12813 59.791664Q69.75313 59.15104 68.90938 59.15104Q68.08125 59.15104 67.69063 59.791664Q67.31563 60.416664 67.31563 61.71354L67.31563 63.447914Q67.31563 64.822914 67.70625 65.49479Q68.1125 66.15104 68.925 66.15104Q69.72188 66.15104 70.1125 65.52604Q70.50313 64.90104 70.51875 63.572914L70.51875 61.791664ZM78.6125 63.27604Q78.6125 65.18229 77.95625 66.11979Q77.31563 67.041664 75.925 67.041664Q74.56563 67.041664 73.90938 66.135414Q73.25313 65.229164 73.22188 63.416664L73.22188 61.979164Q73.22188 60.08854 73.8625 59.18229Q74.51875 58.260414 75.90938 58.260414Q77.28438 58.260414 77.94063 59.15104Q78.59688 60.02604 78.6125 61.86979L78.6125 63.27604ZM77.51875 61.791664Q77.51875 60.416664 77.12813 59.791664Q76.75313 59.15104 75.90938 59.15104Q75.08125 59.15104 74.69063 59.791664Q74.31563 60.416664 74.31563 61.71354L74.31563 63.447914Q74.31563 64.822914 74.70625 65.49479Q75.1125 66.15104 75.925 66.15104Q76.72188 66.15104 77.1125 65.52604Q77.50313 64.90104 77.51875 63.572914L77.51875 61.791664ZM85.6125 63.27604Q85.6125 65.18229 84.95625 66.11979Q84.31563 67.041664 82.925 67.041664Q81.56563 67.041664 80.90938 66.135414Q80.25313 65.229164 80.22188 63.416664L80.22188 61.979164Q80.22188 60.08854 80.8625 59.18229Q81.51875 58.260414 82.90938 58.260414Q84.28438 58.260414 84.94063 59.15104Q85.59688 60.02604 85.6125 61.86979L85.6125 63.27604ZM84.51875 61.791664Q84.51875 60.416664 84.12813 59.791664Q83.75313 59.15104 82.90938 59.15104Q82.08125 59.15104 81.69063 59.791664Q81.31563 60.416664 81.31563 61.71354L81.31563 63.447914Q81.31563 64.822914 81.70625 65.49479Q82.1125 66.15104 82.925 66.15104Q83.72188 66.15104 84.1125 65.52604Q84.50313 64.90104 84.51875 63.572914L84.51875 61.791664ZM92.6125 63.27604Q92.6125 65.18229 91.95625 66.11979Q91.31563 67.041664 89.925 67.041664Q88.56563 67.041664 87.90938 66.135414Q87.25313 65.229164 87.22188 63.416664L87.22188 61.979164Q87.22188 60.08854 87.8625 59.18229Q88.51875 58.260414 89.90938 58.260414Q91.28438 58.260414 91.94063 59.15104Q92.59688 60.02604 92.6125 61.86979L92.6125 63.27604ZM91.51875 61.791664Q91.51875 60.416664 91.12813 59.791664Q90.75313 59.15104 89.90938 59.15104Q89.08125 59.15104 88.69063 59.791664Q88.31563 60.416664 88.31563 61.71354L88.31563 63.447914Q88.31563 64.822914 88.70625 65.49479Q89.1125 66.15104 89.925 66.15104Q90.72188 66.15104 91.1125 65.52604Q91.50313 64.90104 91.51875 63.572914L91.51875 61.791664ZM99.6125 63.27604Q99.6125 65.18229 98.95625 66.11979Q98.31563 67.041664 96.925 67.041664Q95.56563 67.041664 94.90938 66.135414Q94.25313 65.229164 94.22188 63.416664L94.22188 61.979164Q94.22188 60.08854 94.8625 59.18229Q95.51875 58.260414 96.90938 58.260414Q98.28438 58.260414 98.94063 59.15104Q99.59688 60.02604 99.6125 61.86979L99.6125 63.27604ZM98.51875 61.791664Q98.51875 60.416664 98.12813 59.791664Q97.75313 59.15104 96.90938 59.15104Q96.08125 59.15104 95.69063 59.791664Q95.31563 60.416664 95.31563 61.71354L95.31563 63.447914Q95.31563 64.822914 95.70625 65.49479Q96.1125 66.15104 96.925 66.15104Q97.72188 66.15104 98.1125 65.52604Q98.50313 64.90104 98.51875 63.572914L98.51875 61.791664Z" fill-rule="nonzero"/><path fill="#757575" d="M159.47318 316.45Q159.37943 316.2625 159.31693 315.77814Q158.56693 316.575 157.52005 316.575Q156.58255 316.575 155.97318 316.04376Q155.37943 315.5125 155.37943 314.6844Q155.37943 313.7 156.12943 313.15314Q156.87943 312.60626 158.25443 312.60626L159.3013 312.60626L159.3013 312.10626Q159.3013 311.54376 158.95755 311.21564Q158.62943 310.8719 157.95755 310.8719Q157.37943 310.8719 156.9888 311.16876Q156.59818 311.45 156.59818 311.8719L155.50443 311.8719Q155.50443 311.3875 155.83255 310.95Q156.1763 310.5125 156.75443 310.2625Q157.33255 309.9969 158.02005 309.9969Q159.12943 309.9969 159.7388 310.54376Q160.3638 311.09064 160.39505 312.04376L160.39505 314.96564Q160.39505 315.84064 160.6138 316.35626L160.6138 316.45L159.47318 316.45ZM157.6763 315.6219Q158.19193 315.6219 158.64505 315.35626Q159.09818 315.09064 159.3013 314.66876L159.3013 313.3719L158.45755 313.3719Q156.45755 313.3719 156.45755 314.54376Q156.45755 315.04376 156.8013 315.34064Q157.14505 315.6219 157.6763 315.6219ZM163.7388 316.45L162.66068 316.45L162.66068 307.45L163.7388 307.45L163.7388 316.45ZM166.7388 316.45L165.66068 316.45L165.66068 307.45L166.7388 307.45L166.7388 316.45ZM173.03568 308.575L173.03568 310.10626L174.20755 310.10626L174.20755 310.95L173.03568 310.95L173.03568 314.8719Q173.03568 315.2625 173.19193 315.45Q173.34818 315.6375 173.72318 315.6375Q173.91068 315.6375 174.2388 315.575L174.2388 316.45Q173.81693 316.575 173.41068 316.575Q172.69193 316.575 172.31693 316.1375Q171.94193 315.6844 171.94193 314.8719L171.94193 310.95L170.78568 310.95L170.78568 310.10626L171.94193 310.10626L171.94193 308.575L173.03568 308.575ZM178.62943 311.075Q178.37943 311.04376 178.09818 311.04376Q177.02005 311.04376 176.64505 311.95L176.64505 316.45L175.56693 316.45L175.56693 310.10626L176.6138 310.10626L176.62943 310.84064Q177.16068 309.9969 178.14505 309.9969Q178.45755 309.9969 178.62943 310.075L178.62943 311.075ZM183.47318 316.45Q183.37943 316.2625 183.31693 315.77814Q182.56693 316.575 181.52005 316.575Q180.58255 316.575 179.97318 316.04376Q179.37943 315.5125 179.37943 314.6844Q179.37943 313.7 180.12943 313.15314Q180.87943 312.60626 182.25443 312.60626L183.3013 312.60626L183.3013 312.10626Q183.3013 311.54376 182.95755 311.21564Q182.62943 310.8719 181.95755 310.8719Q181.37943 310.8719 180.9888 311.16876Q180.59818 311.45 180.59818 311.8719L179.50443 311.8719Q179.50443 311.3875 179.83255 310.95Q180.1763 310.5125 180.75443 310.2625Q181.33255 309.9969 182.02005 309.9969Q183.12943 309.9969 183.7388 310.54376Q184.3638 311.09064 184.39505 312.04376L184.39505 314.96564Q184.39505 315.84064 184.6138 316.35626L184.6138 316.45L183.47318 316.45ZM181.6763 315.6219Q182.19193 315.6219 182.64505 315.35626Q183.09818 315.09064 183.3013 314.66876L183.3013 313.3719L182.45755 313.3719Q180.45755 313.3719 180.45755 314.54376Q180.45755 315.04376 180.8013 315.34064Q181.14505 315.6219 181.6763 315.6219ZM187.58255 310.10626L187.6138 310.90314Q188.34818 309.9969 189.52005 309.9969Q191.53568 309.9969 191.5513 312.2625L191.5513 316.45L190.45755 316.45L190.45755 312.2469Q190.45755 311.575 190.14505 311.2469Q189.84818 310.91876 189.19193 310.91876Q188.66068 310.91876 188.25443 311.2Q187.8638 311.48126 187.64505 311.9344L187.64505 316.45L186.56693 316.45L186.56693 310.10626L187.58255 310.10626ZM197.25443 314.7625Q197.25443 314.325 196.91068 314.09064Q196.58255 313.84064 195.75443 313.66876Q194.94193 313.4969 194.45755 313.2469Q193.97318 312.9969 193.7388 312.66876Q193.52005 312.325 193.52005 311.85626Q193.52005 311.075 194.1763 310.54376Q194.83255 309.9969 195.8638 309.9969Q196.94193 309.9969 197.59818 310.5594Q198.27005 311.10626 198.27005 311.96564L197.19193 311.96564Q197.19193 311.52814 196.8013 311.21564Q196.4263 310.8875 195.8638 310.8875Q195.27005 310.8875 194.9263 311.15314Q194.59818 311.40314 194.59818 311.8094Q194.59818 312.2 194.91068 312.40314Q195.22318 312.60626 196.03568 312.79376Q196.84818 312.96564 197.34818 313.21564Q197.84818 313.46564 198.08255 313.825Q198.33255 314.1844 198.33255 314.6844Q198.33255 315.54376 197.64505 316.0594Q196.97318 316.575 195.89505 316.575Q195.12943 316.575 194.53568 316.3094Q193.95755 316.02814 193.62943 315.54376Q193.3013 315.0594 193.3013 314.4969L194.37943 314.4969Q194.41068 315.04376 194.81693 315.3719Q195.22318 315.6844 195.89505 315.6844Q196.50443 315.6844 196.87943 315.4344Q197.25443 315.1844 197.25443 314.7625ZM204.12943 317.34064L198.77005 317.34064L198.77005 316.45L204.12943 316.45L204.12943 317.34064ZM206.03568 308.575L206.03568 310.10626L207.20755 310.10626L207.20755 310.95L206.03568 310.95L206.03568 314.8719Q206.03568 315.2625 206.19193 315.45Q206.34818 315.6375 206.72318 315.6375Q206.91068 315.6375 207.2388 315.575L207.2388 316.45Q206.81693 316.575 206.41068 316.575Q205.69193 316.575 205.31693 316.1375Q204.94193 315.6844 204.94193 314.8719L204.94193 310.95L203.78568 310.95L203.78568 310.10626L204.94193 310.10626L204.94193 308.575L206.03568 308.575ZM210.62943 314.85626L212.1138 310.10626L213.27005 310.10626L210.72318 317.4344Q210.12943 319.0125 208.84818 319.0125L208.62943 318.9969L208.2388 318.91876L208.2388 318.04376L208.52005 318.0594Q209.08255 318.0594 209.37943 317.84064Q209.69193 317.6219 209.89505 317.02814L210.12943 316.3719L207.8638 310.10626L209.0513 310.10626L210.62943 314.85626ZM219.91068 313.35626Q219.91068 314.79376 219.25443 315.6844Q218.59818 316.575 217.45755 316.575Q216.3013 316.575 215.64505 315.84064L215.64505 318.8875L214.56693 318.8875L214.56693 310.10626L215.5513 310.10626L215.59818 310.8094Q216.27005 309.9969 217.44193 309.9969Q218.58255 309.9969 219.2388 310.85626Q219.91068 311.71564 219.91068 313.2469L219.91068 313.35626ZM218.83255 313.23126Q218.83255 312.15314 218.3638 311.54376Q217.91068 310.91876 217.1138 310.91876Q216.12943 310.91876 215.64505 311.77814L215.64505 314.8094Q216.12943 315.6844 217.12943 315.6844Q217.91068 315.6844 218.3638 315.075Q218.83255 314.45 218.83255 313.23126ZM224.19193 316.575Q222.89505 316.575 222.08255 315.73126Q221.28568 314.8719 221.28568 313.45L221.28568 313.2625Q221.28568 312.3094 221.64505 311.575Q222.00443 310.825 222.64505 310.41876Q223.3013 309.9969 224.0513 309.9969Q225.28568 309.9969 225.97318 310.8094Q226.66068 311.6219 226.66068 313.1375L226.66068 313.59064L222.3638 313.59064Q222.39505 314.52814 222.91068 315.10626Q223.44193 315.6844 224.25443 315.6844Q224.81693 315.6844 225.20755 315.45Q225.6138 315.21564 225.9263 314.825L226.58255 315.34064Q225.78568 316.575 224.19193 316.575ZM224.0513 310.8875Q223.39505 310.8875 222.94193 311.3719Q222.50443 311.84064 222.41068 312.7L225.58255 312.7L225.58255 312.6219Q225.53568 311.79376 225.12943 311.34064Q224.7388 310.8875 224.0513 310.8875Z" fill-rule="nonzero"/><path fill="#757575" d="M316.53125 313.21564Q316.53125 312.29376 316.89062 311.54376Q317.26562 310.79376 317.92188 310.40314Q318.57812 309.9969 319.40625 309.9969Q320.70312 309.9969 321.5 310.8875Q322.3125 311.77814 322.3125 313.27814L322.3125 313.35626Q322.3125 314.27814 321.95312 315.0125Q321.59375 315.7469 320.9375 316.16876Q320.28125 316.575 319.42188 316.575Q318.14062 316.575 317.32812 315.6844Q316.53125 314.77814 316.53125 313.29376L316.53125 313.21564ZM317.625 313.35626Q317.625 314.40314 318.10938 315.04376Q318.60938 315.6844 319.42188 315.6844Q320.25 315.6844 320.73438 315.04376Q321.21875 314.3875 321.21875 313.21564Q321.21875 312.1844 320.71875 311.54376Q320.23438 310.8875 319.40625 310.8875Q318.60938 310.8875 318.10938 311.52814Q317.625 312.15314 317.625 313.35626ZM324.84375 310.10626L324.875 310.90314Q325.60938 309.9969 326.78125 309.9969Q328.79688 309.9969 328.8125 312.2625L328.8125 316.45L327.71875 316.45L327.71875 312.2469Q327.71875 311.575 327.40625 311.2469Q327.10938 310.91876 326.45312 310.91876Q325.92188 310.91876 325.51562 311.2Q325.125 311.48126 324.90625 311.9344L324.90625 316.45L323.82812 316.45L323.82812 310.10626L324.84375 310.10626ZM332.0 316.45L330.92188 316.45L330.92188 307.45L332.0 307.45L332.0 316.45ZM335.0 316.45L333.92188 316.45L333.92188 310.10626L335.0 310.10626L335.0 316.45ZM333.82812 308.4344Q333.82812 308.16876 333.98438 307.98126Q334.15625 307.79376 334.46875 307.79376Q334.78125 307.79376 334.9375 307.98126Q335.10938 308.16876 335.10938 308.4344Q335.10938 308.6844 334.9375 308.8719Q334.78125 309.04376 334.46875 309.04376Q334.15625 309.04376 333.98438 308.8719Q333.82812 308.6844 333.82812 308.4344ZM337.84375 310.10626L337.875 310.90314Q338.60938 309.9969 339.78125 309.9969Q341.79688 309.9969 341.8125 312.2625L341.8125 316.45L340.71875 316.45L340.71875 312.2469Q340.71875 311.575 340.40625 311.2469Q340.10938 310.91876 339.45312 310.91876Q338.92188 310.91876 338.51562 311.2Q338.125 311.48126 337.90625 311.9344L337.90625 316.45L336.82812 316.45L336.82812 310.10626L337.84375 310.10626ZM346.45312 316.575Q345.15625 316.575 344.34375 315.73126Q343.54688 314.8719 343.54688 313.45L343.54688 313.2625Q343.54688 312.3094 343.90625 311.575Q344.26562 310.825 344.90625 310.41876Q345.5625 309.9969 346.3125 309.9969Q347.54688 309.9969 348.23438 310.8094Q348.92188 311.6219 348.92188 313.1375L348.92188 313.59064L344.625 313.59064Q344.65625 314.52814 345.17188 315.10626Q345.70312 315.6844 346.51562 315.6844Q347.07812 315.6844 347.46875 315.45Q347.875 315.21564 348.1875 314.825L348.84375 315.34064Q348.04688 316.575 346.45312 316.575ZM346.3125 310.8875Q345.65625 310.8875 345.20312 311.3719Q344.76562 311.84064 344.67188 312.7L347.84375 312.7L347.84375 312.6219Q347.79688 311.79376 347.39062 311.34064Q347.0 310.8875 346.3125 310.8875Z" fill-rule="nonzero"/><path fill="#757575" d="M464.62057 315.6844Q465.1987 315.6844 465.6362 315.34064Q466.0737 314.98126 466.12057 314.45L467.15182 314.45Q467.12057 314.9969 466.7612 315.4969Q466.41745 315.98126 465.83932 316.27814Q465.27682 316.575 464.62057 316.575Q463.3237 316.575 462.55807 315.71564Q461.80807 314.84064 461.80807 313.34064L461.80807 313.15314Q461.80807 312.23126 462.1362 311.5125Q462.47995 310.79376 463.10495 310.40314Q463.74557 309.9969 464.62057 309.9969Q465.68307 309.9969 466.3862 310.6375Q467.10495 311.2625 467.15182 312.29376L466.12057 312.29376Q466.0737 311.66876 465.65182 311.27814Q465.22995 310.8875 464.62057 310.8875Q463.79245 310.8875 463.33932 311.48126Q462.8862 312.075 462.8862 313.2L462.8862 313.40314Q462.8862 314.4969 463.33932 315.09064Q463.79245 315.6844 464.62057 315.6844ZM471.99557 316.45Q471.90182 316.2625 471.83932 315.77814Q471.08932 316.575 470.04245 316.575Q469.10495 316.575 468.49557 316.04376Q467.90182 315.5125 467.90182 314.6844Q467.90182 313.7 468.65182 313.15314Q469.40182 312.60626 470.77682 312.60626L471.8237 312.60626L471.8237 312.10626Q471.8237 311.54376 471.47995 311.21564Q471.15182 310.8719 470.47995 310.8719Q469.90182 310.8719 469.5112 311.16876Q469.12057 311.45 469.12057 311.8719L468.02682 311.8719Q468.02682 311.3875 468.35495 310.95Q468.6987 310.5125 469.27682 310.2625Q469.85495 309.9969 470.54245 309.9969Q471.65182 309.9969 472.2612 310.54376Q472.8862 311.09064 472.91745 312.04376L472.91745 314.96564Q472.91745 315.84064 473.1362 316.35626L473.1362 316.45L471.99557 316.45ZM470.1987 315.6219Q470.71432 315.6219 471.16745 315.35626Q471.62057 315.09064 471.8237 314.66876L471.8237 313.3719L470.97995 313.3719Q468.97995 313.3719 468.97995 314.54376Q468.97995 315.04376 469.3237 315.34064Q469.66745 315.6219 470.1987 315.6219ZM478.77682 314.7625Q478.77682 314.325 478.43307 314.09064Q478.10495 313.84064 477.27682 313.66876Q476.46432 313.4969 475.97995 313.2469Q475.49557 312.9969 475.2612 312.66876Q475.04245 312.325 475.04245 311.85626Q475.04245 311.075 475.6987 310.54376Q476.35495 309.9969 477.3862 309.9969Q478.46432 309.9969 479.12057 310.5594Q479.79245 311.10626 479.79245 311.96564L478.71432 311.96564Q478.71432 311.52814 478.3237 311.21564Q477.9487 310.8875 477.3862 310.8875Q476.79245 310.8875 476.4487 311.15314Q476.12057 311.40314 476.12057 311.8094Q476.12057 312.2 476.43307 312.40314Q476.74557 312.60626 477.55807 312.79376Q478.37057 312.96564 478.87057 313.21564Q479.37057 313.46564 479.60495 313.825Q479.85495 314.1844 479.85495 314.6844Q479.85495 315.54376 479.16745 316.0594Q478.49557 316.575 477.41745 316.575Q476.65182 316.575 476.05807 316.3094Q475.47995 316.02814 475.15182 315.54376Q474.8237 315.0594 474.8237 314.4969L475.90182 314.4969Q475.93307 315.04376 476.33932 315.3719Q476.74557 315.6844 477.41745 315.6844Q478.02682 315.6844 478.40182 315.4344Q478.77682 315.1844 478.77682 314.7625ZM482.16745 310.8719Q482.8862 309.9969 484.04245 309.9969Q486.05807 309.9969 486.0737 312.2625L486.0737 316.45L484.97995 316.45L484.97995 312.2469Q484.97995 311.575 484.66745 311.2469Q484.37057 310.91876 483.71432 310.91876Q483.18307 310.91876 482.77682 311.2Q482.3862 311.48126 482.16745 311.9344L482.16745 316.45L481.08932 316.45L481.08932 307.45L482.16745 307.45L482.16745 310.8719Z" fill-rule="nonzero"/><path fill="#757575" d="M22.3625 24.425L22.3625 26.9875L24.346874 26.9875L24.346874 28.378124L22.3625 28.378124L22.3625 34.925Q22.3625 35.565624 22.628124 35.89375Q22.89375 36.20625 23.534374 36.20625Q23.846874 36.20625 24.39375 36.08125L24.39375 37.55Q23.675 37.753124 23.003124 37.753124Q21.8 37.753124 21.175 37.01875Q20.565624 36.284374 20.565624 34.925L20.565624 28.378124L18.64375 28.378124L18.64375 26.9875L20.565624 26.9875L20.565624 24.425L22.3625 24.425ZM26.440624 32.175Q26.440624 30.6125 27.05 29.378124Q27.659374 28.128124 28.7375 27.45625Q29.83125 26.784374 31.2375 26.784374Q33.39375 26.784374 34.721874 28.284374Q36.065624 29.76875 36.065624 32.253124L36.065624 32.378124Q36.065624 33.925 35.471874 35.159374Q34.878124 36.378124 33.76875 37.065624Q32.675 37.753124 31.253124 37.753124Q29.1125 37.753124 27.76875 36.253124Q26.440624 34.753124 26.440624 32.3L26.440624 32.175ZM28.253124 32.378124Q28.253124 34.14375 29.065624 35.20625Q29.89375 36.26875 31.253124 36.26875Q32.628124 36.26875 33.440624 35.190624Q34.253124 34.1125 34.253124 32.175Q34.253124 30.425 33.425 29.346874Q32.596874 28.26875 31.2375 28.26875Q29.89375 28.26875 29.065624 29.33125Q28.253124 30.39375 28.253124 32.378124ZM40.3625 24.425L40.3625 26.9875L42.346874 26.9875L42.346874 28.378124L40.3625 28.378124L40.3625 34.925Q40.3625 35.565624 40.628124 35.89375Q40.89375 36.20625 41.534374 36.20625Q41.846874 36.20625 42.39375 36.08125L42.39375 37.55Q41.675 37.753124 41.003124 37.753124Q39.8 37.753124 39.175 37.01875Q38.565624 36.284374 38.565624 34.925L38.565624 28.378124L36.64375 28.378124L36.64375 26.9875L38.565624 26.9875L38.565624 24.425L40.3625 24.425ZM51.440624 37.55Q51.284374 37.2375 51.190624 36.440624Q49.925 37.753124 48.175 37.753124Q46.6125 37.753124 45.6125 36.8625Q44.6125 35.971874 44.6125 34.6125Q44.6125 32.971874 45.8625 32.065624Q47.128124 31.14375 49.39375 31.14375L51.159374 31.14375L51.159374 30.315624Q51.159374 29.3625 50.58125 28.8Q50.01875 28.2375 48.925 28.2375Q47.95625 28.2375 47.3 28.7375Q46.64375 29.221874 46.64375 29.909374L44.83125 29.909374Q44.83125 29.128124 45.39375 28.39375Q45.95625 27.64375 46.909374 27.221874Q47.878124 26.784374 49.034374 26.784374Q50.8625 26.784374 51.89375 27.70625Q52.925 28.6125 52.971874 30.221874L52.971874 35.08125Q52.971874 36.534374 53.33125 37.39375L53.33125 37.55L51.440624 37.55ZM48.440624 36.175Q49.3 36.175 50.05 35.7375Q50.815624 35.3 51.159374 34.596874L51.159374 32.425L49.7375 32.425Q46.425 32.425 46.425 34.3625Q46.425 35.221874 46.9875 35.70625Q47.55 36.175 48.440624 36.175ZM57.878124 37.55L56.08125 37.55L56.08125 22.55L57.878124 22.55L57.878124 37.55ZM68.53438 39.01875L59.596874 39.01875L59.596874 37.55L68.53438 37.55L68.53438 39.01875ZM78.8625 32.378124Q78.8625 34.8 77.75313 36.284374Q76.64375 37.753124 74.76875 37.753124Q72.75313 37.753124 71.65938 36.33125L71.58125 37.55L69.925 37.55L69.925 22.55L71.72188 22.55L71.72188 28.14375Q72.81563 26.784374 74.7375 26.784374Q76.65938 26.784374 77.75313 28.2375Q78.8625 29.690624 78.8625 32.221874L78.8625 32.378124ZM77.05 32.175Q77.05 30.33125 76.33125 29.33125Q75.62813 28.315624 74.3 28.315624Q72.50313 28.315624 71.72188 29.9875L71.72188 34.55Q72.55 36.20625 74.31563 36.20625Q75.6125 36.20625 76.33125 35.20625Q77.05 34.20625 77.05 32.175ZM87.44063 36.503124Q86.39375 37.753124 84.34688 37.753124Q82.65938 37.753124 81.76875 36.76875Q80.89375 35.784374 80.87813 33.8625L80.87813 26.9875L82.69063 26.9875L82.69063 33.815624Q82.69063 36.20625 84.64375 36.20625Q86.70625 36.20625 87.39375 34.675L87.39375 26.9875L89.20625 26.9875L89.20625 37.55L87.4875 37.55L87.44063 36.503124ZM95.37813 34.909374L97.83125 26.9875L99.76875 26.9875L95.51875 39.175Q94.53438 41.815624 92.39375 41.815624L92.05 41.784374L91.37813 41.659374L91.37813 40.190624L91.8625 40.2375Q92.78438 40.2375 93.28438 39.8625Q93.8 39.4875 94.12813 38.503124L94.53438 37.425L90.76875 26.9875L92.7375 26.9875L95.37813 34.909374ZM105.3 37.753124Q103.15938 37.753124 101.8 36.346874Q100.45625 34.925 100.45625 32.565624L100.45625 32.221874Q100.45625 30.659374 101.05 29.425Q101.65938 28.190624 102.7375 27.4875Q103.81563 26.784374 105.08125 26.784374Q107.14375 26.784374 108.28438 28.14375Q109.425 29.503124 109.425 32.034374L109.425 32.784374L102.26875 32.784374Q102.3 34.346874 103.175 35.315624Q104.05 36.26875 105.39375 36.26875Q106.3625 36.26875 107.01875 35.878124Q107.69063 35.4875 108.19063 34.846874L109.28438 35.70625Q107.95625 37.753124 105.3 37.753124ZM105.08125 28.26875Q103.9875 28.26875 103.2375 29.065624Q102.50313 29.8625 102.33125 31.3L107.6125 31.3L107.6125 31.159374Q107.53438 29.784374 106.8625 29.034374Q106.20625 28.26875 105.08125 28.26875ZM117.01875 28.596874Q116.6125 28.534374 116.14375 28.534374Q114.3625 28.534374 113.72188 30.05L113.72188 37.55L111.925 37.55L111.925 26.9875L113.675 26.9875L113.70625 28.20625Q114.59688 26.784374 116.22188 26.784374Q116.75313 26.784374 117.01875 26.925L117.01875 28.596874ZM127.40938 35.096874L130.01875 26.9875L131.8625 26.9875L128.08125 37.55L126.70625 37.55L122.87813 26.9875L124.72188 26.9875L127.40938 35.096874ZM140.06563 34.753124Q140.06563 34.01875 139.51875 33.6125Q138.97188 33.20625 137.59688 32.909374Q136.22188 32.6125 135.40938 32.20625Q134.6125 31.8 134.22188 31.2375Q133.84688 30.659374 133.84688 29.878124Q133.84688 28.58125 134.94063 27.690624Q136.03438 26.784374 137.75313 26.784374Q139.55 26.784374 140.65938 27.721874Q141.78438 28.64375 141.78438 30.08125L139.95625 30.08125Q139.95625 29.346874 139.33125 28.815624Q138.70625 28.26875 137.75313 28.26875Q136.75313 28.26875 136.19063 28.70625Q135.64375 29.128124 135.64375 29.83125Q135.64375 30.471874 136.15938 30.815624Q136.675 31.14375 138.03438 31.45625Q139.39375 31.753124 140.22188 32.175Q141.06563 32.58125 141.47188 33.175Q141.87813 33.76875 141.87813 34.6125Q141.87813 36.034374 140.7375 36.89375Q139.6125 37.753124 137.8 37.753124Q136.53438 37.753124 135.55 37.3Q134.58125 36.846874 134.01875 36.05Q133.47188 35.2375 133.47188 34.3L135.28438 34.3Q135.33125 35.20625 136.00313 35.7375Q136.69063 36.26875 137.8 36.26875Q138.83125 36.26875 139.44063 35.8625Q140.06563 35.440624 140.06563 34.753124ZM143.95625 36.596874Q143.95625 36.128124 144.2375 35.815624Q144.51875 35.503124 145.06563 35.503124Q145.62813 35.503124 145.90938 35.815624Q146.20625 36.128124 146.20625 36.596874Q146.20625 37.05 145.90938 37.3625Q145.62813 37.659374 145.06563 37.659374Q144.51875 37.659374 144.2375 37.3625Q143.95625 37.05 143.95625 36.596874ZM156.3625 24.425L156.3625 26.9875L158.34688 26.9875L158.34688 28.378124L156.3625 28.378124L156.3625 34.925Q156.3625 35.565624 156.62813 35.89375Q156.89375 36.20625 157.53438 36.20625Q157.84688 36.20625 158.39375 36.08125L158.39375 37.55Q157.675 37.753124 157.00313 37.753124Q155.8 37.753124 155.175 37.01875Q154.56563 36.284374 154.56563 34.925L154.56563 28.378124L152.64375 28.378124L152.64375 26.9875L154.56563 26.9875L154.56563 24.425L156.3625 24.425ZM166.01875 28.596874Q165.6125 28.534374 165.14375 28.534374Q163.3625 28.534374 162.72188 30.05L162.72188 37.55L160.925 37.55L160.925 26.9875L162.675 26.9875L162.70625 28.20625Q163.59688 26.784374 165.22188 26.784374Q165.75313 26.784374 166.01875 26.925L166.01875 28.596874ZM174.44063 37.55Q174.28438 37.2375 174.19063 36.440624Q172.925 37.753124 171.175 37.753124Q169.6125 37.753124 168.6125 36.8625Q167.6125 35.971874 167.6125 34.6125Q167.6125 32.971874 168.8625 32.065624Q170.12813 31.14375 172.39375 31.14375L174.15938 31.14375L174.15938 30.315624Q174.15938 29.3625 173.58125 28.8Q173.01875 28.2375 171.925 28.2375Q170.95625 28.2375 170.3 28.7375Q169.64375 29.221874 169.64375 29.909374L167.83125 29.909374Q167.83125 29.128124 168.39375 28.39375Q168.95625 27.64375 169.90938 27.221874Q170.87813 26.784374 172.03438 26.784374Q173.8625 26.784374 174.89375 27.70625Q175.925 28.6125 175.97188 30.221874L175.97188 35.08125Q175.97188 36.534374 176.33125 37.39375L176.33125 37.55L174.44063 37.55ZM171.44063 36.175Q172.3 36.175 173.05 35.7375Q173.81563 35.3 174.15938 34.596874L174.15938 32.425L172.7375 32.425Q169.425 32.425 169.425 34.3625Q169.425 35.221874 169.9875 35.70625Q170.55 36.175 171.44063 36.175ZM180.62813 26.9875L180.69063 28.315624Q181.89375 26.784374 183.84688 26.784374Q187.20625 26.784374 187.22188 30.565624L187.22188 37.55L185.425 37.55L185.425 30.55Q185.40938 29.409374 184.89375 28.8625Q184.39375 28.315624 183.3 28.315624Q182.425 28.315624 181.75313 28.784374Q181.09688 29.253124 180.72188 30.01875L180.72188 37.55L178.925 37.55L178.925 26.9875L180.62813 26.9875ZM196.06563 34.753124Q196.06563 34.01875 195.51875 33.6125Q194.97188 33.20625 193.59688 32.909374Q192.22188 32.6125 191.40938 32.20625Q190.6125 31.8 190.22188 31.2375Q189.84688 30.659374 189.84688 29.878124Q189.84688 28.58125 190.94063 27.690624Q192.03438 26.784374 193.75313 26.784374Q195.55 26.784374 196.65938 27.721874Q197.78438 28.64375 197.78438 30.08125L195.95625 30.08125Q195.95625 29.346874 195.33125 28.815624Q194.70625 28.26875 193.75313 28.26875Q192.75313 28.26875 192.19063 28.70625Q191.64375 29.128124 191.64375 29.83125Q191.64375 30.471874 192.15938 30.815624Q192.675 31.14375 194.03438 31.45625Q195.39375 31.753124 196.22188 32.175Q197.06563 32.58125 197.47188 33.175Q197.87813 33.76875 197.87813 34.6125Q197.87813 36.034374 196.7375 36.89375Q195.6125 37.753124 193.8 37.753124Q192.53438 37.753124 191.55 37.3Q190.58125 36.846874 190.01875 36.05Q189.47188 35.2375 189.47188 34.3L191.28438 34.3Q191.33125 35.20625 192.00313 35.7375Q192.69063 36.26875 193.8 36.26875Q194.83125 36.26875 195.44063 35.8625Q196.06563 35.440624 196.06563 34.753124ZM207.53438 39.01875L198.59688 39.01875L198.59688 37.55L207.53438 37.55L207.53438 39.01875ZM211.3625 24.425L211.3625 26.9875L213.34688 26.9875L213.34688 28.378124L211.3625 28.378124L211.3625 34.925Q211.3625 35.565624 211.62813 35.89375Q211.89375 36.20625 212.53438 36.20625Q212.84688 36.20625 213.39375 36.08125L213.39375 37.55Q212.675 37.753124 212.00313 37.753124Q210.8 37.753124 210.175 37.01875Q209.56563 36.284374 209.56563 34.925L209.56563 28.378124L207.64375 28.378124L207.64375 26.9875L209.56563 26.9875L209.56563 24.425L211.3625 24.425ZM219.37813 34.909374L221.83125 26.9875L223.76875 26.9875L219.51875 39.175Q218.53438 41.815624 216.39375 41.815624L216.05 41.784374L215.37813 41.659374L215.37813 40.190624L215.8625 40.2375Q216.78438 40.2375 217.28438 39.8625Q217.8 39.4875 218.12813 38.503124L218.53438 37.425L214.76875 26.9875L216.7375 26.9875L219.37813 34.909374ZM233.84688 32.378124Q233.84688 34.8 232.7375 36.284374Q231.64375 37.753124 229.75313 37.753124Q227.83125 37.753124 226.72188 36.51875L226.72188 41.6125L224.925 41.6125L224.925 26.9875L226.56563 26.9875L226.65938 28.159374Q227.75313 26.784374 229.72188 26.784374Q231.62813 26.784374 232.7375 28.221874Q233.84688 29.659374 233.84688 32.221874L233.84688 32.378124ZM232.03438 32.175Q232.03438 30.39375 231.26875 29.3625Q230.51875 28.315624 229.19063 28.315624Q227.55 28.315624 226.72188 29.76875L226.72188 34.83125Q227.53438 36.26875 229.20625 36.26875Q230.50313 36.26875 231.26875 35.2375Q232.03438 34.20625 232.03438 32.175ZM240.3 37.753124Q238.15938 37.753124 236.8 36.346874Q235.45625 34.925 235.45625 32.565624L235.45625 32.221874Q235.45625 30.659374 236.05 29.425Q236.65938 28.190624 237.7375 27.4875Q238.81563 26.784374 240.08125 26.784374Q242.14375 26.784374 243.28438 28.14375Q244.425 29.503124 244.425 32.034374L244.425 32.784374L237.26875 32.784374Q237.3 34.346874 238.175 35.315624Q239.05 36.26875 240.39375 36.26875Q241.3625 36.26875 242.01875 35.878124Q242.69063 35.4875 243.19063 34.846874L244.28438 35.70625Q242.95625 37.753124 240.3 37.753124ZM240.08125 28.26875Q238.9875 28.26875 238.2375 29.065624Q237.50313 29.8625 237.33125 31.3L242.6125 31.3L242.6125 31.159374Q242.53438 29.784374 241.8625 29.034374Q241.20625 28.26875 240.08125 28.26875Z" fill-rule="nonzero"/></svg>