<svg version="1.1" viewBox="0.0 0.0 600.0 371.0" fill="none" stroke="none" stroke-linecap="square" stroke-miterlimit="10" width="600" height="371" xmlns:xlink="http://www.w3.org/1999/xlink" xmlns="http://www.w3.org/2000/svg"><path fill="#ffffff" d="M0 0L600.0 0L600.0 371.0L0 371.0L0 0Z" fill-rule="nonzero"/><path stroke="#333333" stroke-width="1.0" stroke-linecap="butt" d="M126.5 278.5L581.5 278.5" fill-rule="nonzero"/><path fill="#eeeeee" d="M106.5 298.5L126.5 279.5L581.5 279.5L561.5 298.5Z" fill-rule="nonzero"/><path stroke="#cccccc" stroke-width="1.0" stroke-linecap="butt" d="M126.5 206.5L581.5 206.5" fill-rule="nonzero"/><path stroke="#cccccc" stroke-width="1.0" stroke-linecap="butt" d="M126.5 134.5L581.5 134.5" fill-rule="nonzero"/><path stroke="#cccccc" stroke-width="1.0" stroke-linecap="butt" d="M126.5 62.5L581.5 62.5" fill-rule="nonzero"/><clipPath id="id_0"><path d="M106.55 62.416668L581.45 62.416668L581.45 298.45L106.55 298.45L106.55 62.416668Z" clip-rule="nonzero"/></clipPath><path fill="#607f51" clip-path="url(#id_0)" d="M203.0 63.0L203.0 278.0L188.0 293.0L188.0 78.0Z" fill-rule="nonzero"/><path fill="#a9d097" clip-path="url(#id_0)" d="M188.0 78.0L130.0 78.0L145.0 63.0L203.0 63.0Z" fill-rule="nonzero"/><path stroke="#000000" stroke-width="2.0" stroke-linecap="butt" stroke-opacity="0.0" clip-path="url(#id_0)" d="M188.0 293.0L130.0 293.0L130.0 78.0L188.0 78.0Z" fill-rule="nonzero"/><path fill="#93c47d" clip-path="url(#id_0)" d="M188.0 293.0L130.0 293.0L130.0 78.0L188.0 78.0Z" fill-rule="nonzero"/><path fill="#607f51" clip-path="url(#id_0)" d="M292.0 224.0L292.0 278.0L277.0 293.0L277.0 239.0Z" fill-rule="nonzero"/><path fill="#a9d097" clip-path="url(#id_0)" d="M277.0 239.0L219.0 239.0L234.0 224.0L292.0 224.0Z" fill-rule="nonzero"/><path stroke="#000000" stroke-width="2.0" stroke-linecap="butt" stroke-opacity="0.0" clip-path="url(#id_0)" d="M277.0 293.0L219.0 293.0L219.0 239.0L277.0 239.0Z" fill-rule="nonzero"/><path fill="#93c47d" clip-path="url(#id_0)" d="M277.0 293.0L219.0 293.0L219.0 239.0L277.0 239.0Z" fill-rule="nonzero"/><path fill="#607f51" clip-path="url(#id_0)" d="M381.0 224.0L381.0 278.0L366.0 293.0L366.0 239.0Z" fill-rule="nonzero"/><path fill="#a9d097" clip-path="url(#id_0)" d="M366.0 239.0L308.0 239.0L323.0 224.0L381.0 224.0Z" fill-rule="nonzero"/><path stroke="#000000" stroke-width="2.0" stroke-linecap="butt" stroke-opacity="0.0" clip-path="url(#id_0)" d="M366.0 293.0L308.0 293.0L308.0 239.0L366.0 239.0Z" fill-rule="nonzero"/><path fill="#93c47d" clip-path="url(#id_0)" d="M366.0 293.0L308.0 293.0L308.0 239.0L366.0 239.0Z" fill-rule="nonzero"/><path fill="#607f51" clip-path="url(#id_0)" d="M469.0 225.0L469.0 278.0L454.0 293.0L454.0 240.0Z" fill-rule="nonzero"/><path fill="#a9d097" clip-path="url(#id_0)" d="M454.0 240.0L396.0 240.0L411.0 225.0L469.0 225.0Z" fill-rule="nonzero"/><path stroke="#000000" stroke-width="2.0" stroke-linecap="butt" stroke-opacity="0.0" clip-path="url(#id_0)" d="M454.0 293.0L396.0 293.0L396.0 240.0L454.0 240.0Z" fill-rule="nonzero"/><path fill="#93c47d" clip-path="url(#id_0)" d="M454.0 293.0L396.0 293.0L396.0 240.0L454.0 240.0Z" fill-rule="nonzero"/><path fill="#607f51" clip-path="url(#id_0)" d="M558.0 225.0L558.0 278.0L543.0 293.0L543.0 240.0Z" fill-rule="nonzero"/><path fill="#a9d097" clip-path="url(#id_0)" d="M543.0 240.0L485.0 240.0L500.0 225.0L558.0 225.0Z" fill-rule="nonzero"/><path stroke="#000000" stroke-width="2.0" stroke-linecap="butt" stroke-opacity="0.0" clip-path="url(#id_0)" d="M543.0 293.0L485.0 293.0L485.0 240.0L543.0 240.0Z" fill-rule="nonzero"/><path fill="#93c47d" clip-path="url(#id_0)" d="M543.0 293.0L485.0 293.0L485.0 240.0L543.0 240.0Z" fill-rule="nonzero"/><path fill="#424242" d="M325.0625 346.23126Q325.0625 344.73126 325.73438 343.8719Q326.42188 342.9969 327.57812 342.9969Q328.70312 342.9969 329.35938 343.7469L329.40625 343.10626L330.40625 343.10626L330.40625 351.8875L329.3125 351.8875L329.3125 348.85626Q328.65625 349.575 327.57812 349.575Q326.42188 349.575 325.73438 348.6844Q325.0625 347.77814 325.0625 346.3094L325.0625 346.23126ZM326.14062 346.35626Q326.14062 347.4344 326.59375 348.0594Q327.0625 348.6844 327.84375 348.6844Q328.8125 348.6844 329.3125 347.825L329.3125 344.71564Q328.79688 343.8875 327.85938 343.8875Q327.0625 343.8875 326.59375 344.5125Q326.14062 345.1375 326.14062 346.35626ZM336.23438 348.825Q335.60938 349.575 334.375 349.575Q333.35938 349.575 332.82812 348.98126Q332.29688 348.3875 332.29688 347.23126L332.29688 343.10626L333.375 343.10626L333.375 347.2Q333.375 348.65314 334.54688 348.65314Q335.79688 348.65314 336.20312 347.71564L336.20312 343.10626L337.29688 343.10626L337.29688 349.45L336.26562 349.45L336.23438 348.825ZM343.23438 349.45Q343.14062 349.2625 343.07812 348.77814Q342.32812 349.575 341.28125 349.575Q340.34375 349.575 339.73438 349.04376Q339.14062 348.5125 339.14062 347.6844Q339.14062 346.7 339.89062 346.15314Q340.64062 345.60626 342.01562 345.60626L343.0625 345.60626L343.0625 345.10626Q343.0625 344.54376 342.71875 344.21564Q342.39062 343.8719 341.71875 343.8719Q341.14062 343.8719 340.75 344.16876Q340.35938 344.45 340.35938 344.8719L339.26562 344.8719Q339.26562 344.3875 339.59375 343.95Q339.9375 343.5125 340.51562 343.2625Q341.09375 342.9969 341.78125 342.9969Q342.89062 342.9969 343.5 343.54376Q344.125 344.09064 344.15625 345.04376L344.15625 347.96564Q344.15625 348.84064 344.375 349.35626L344.375 349.45L343.23438 349.45ZM341.4375 348.6219Q341.95312 348.6219 342.40625 348.35626Q342.85938 348.09064 343.0625 347.66876L343.0625 346.3719L342.21875 346.3719Q340.21875 346.3719 340.21875 347.54376Q340.21875 348.04376 340.5625 348.34064Q340.90625 348.6219 341.4375 348.6219ZM349.39062 344.075Q349.14062 344.04376 348.85938 344.04376Q347.78125 344.04376 347.40625 344.95L347.40625 349.45L346.32812 349.45L346.32812 343.10626L347.375 343.10626L347.39062 343.84064Q347.92188 342.9969 348.90625 342.9969Q349.21875 342.9969 349.39062 343.075L349.39062 344.075ZM351.79688 341.575L351.79688 343.10626L352.96875 343.10626L352.96875 343.95L351.79688 343.95L351.79688 347.8719Q351.79688 348.2625 351.95312 348.45Q352.10938 348.6375 352.48438 348.6375Q352.67188 348.6375 353.0 348.575L353.0 349.45Q352.57812 349.575 352.17188 349.575Q351.45312 349.575 351.07812 349.1375Q350.70312 348.6844 350.70312 347.8719L350.70312 343.95L349.54688 343.95L349.54688 343.10626L350.70312 343.10626L350.70312 341.575L351.79688 341.575ZM356.95312 349.575Q355.65625 349.575 354.84375 348.73126Q354.04688 347.8719 354.04688 346.45L354.04688 346.2625Q354.04688 345.3094 354.40625 344.575Q354.76562 343.825 355.40625 343.41876Q356.0625 342.9969 356.8125 342.9969Q358.04688 342.9969 358.73438 343.8094Q359.42188 344.6219 359.42188 346.1375L359.42188 346.59064L355.125 346.59064Q355.15625 347.52814 355.67188 348.10626Q356.20312 348.6844 357.01562 348.6844Q357.57812 348.6844 357.96875 348.45Q358.375 348.21564 358.6875 347.825L359.34375 348.34064Q358.54688 349.575 356.95312 349.575ZM356.8125 343.8875Q356.15625 343.8875 355.70312 344.3719Q355.26562 344.84064 355.17188 345.7L358.34375 345.7L358.34375 345.6219Q358.29688 344.79376 357.89062 344.34064Q357.5 343.8875 356.8125 343.8875ZM363.39062 344.075Q363.14062 344.04376 362.85938 344.04376Q361.78125 344.04376 361.40625 344.95L361.40625 349.45L360.32812 349.45L360.32812 343.10626L361.375 343.10626L361.39062 343.84064Q361.92188 342.9969 362.90625 342.9969Q363.21875 342.9969 363.39062 343.075L363.39062 344.075Z" fill-rule="nonzero"/><path fill="#424242" d="M22.675013 222.38646L24.206263 222.38646L24.206263 221.21458L25.050013 221.21458L25.050013 222.38646L28.971888 222.38646Q29.362513 222.38646 29.550013 222.23021Q29.737513 222.07396 29.737513 221.69896Q29.737513 221.51146 29.675013 221.18333L30.550013 221.18333Q30.675013 221.60521 30.675013 222.01146Q30.675013 222.73021 30.237513 223.10521Q29.784388 223.48021 28.971888 223.48021L25.050013 223.48021L25.050013 224.63646L24.206263 224.63646L24.206263 223.48021L22.675013 223.48021L22.675013 222.38646ZM27.315638 220.15208Q26.393763 220.15208 25.643763 219.79271Q24.893763 219.41771 24.503138 218.76146Q24.096888 218.10521 24.096888 217.27708Q24.096888 215.98021 24.987513 215.18333Q25.878138 214.37083 27.378138 214.37083L27.456263 214.37083Q28.378138 214.37083 29.112513 214.73021Q29.846888 215.08958 30.268763 215.74583Q30.675013 216.40208 30.675013 217.26146Q30.675013 218.54271 29.784388 219.35521Q28.878138 220.15208 27.393763 220.15208L27.315638 220.15208ZM27.456263 219.05833Q28.503138 219.05833 29.143763 218.57396Q29.784388 218.07396 29.784388 217.26146Q29.784388 216.43333 29.143763 215.94896Q28.487513 215.46458 27.315638 215.46458Q26.284388 215.46458 25.643763 215.96458Q24.987513 216.44896 24.987513 217.27708Q24.987513 218.07396 25.628138 218.57396Q26.253138 219.05833 27.456263 219.05833ZM22.675013 211.38646L24.206263 211.38646L24.206263 210.21458L25.050013 210.21458L25.050013 211.38646L28.971888 211.38646Q29.362513 211.38646 29.550013 211.23021Q29.737513 211.07396 29.737513 210.69896Q29.737513 210.51146 29.675013 210.18333L30.550013 210.18333Q30.675013 210.60521 30.675013 211.01146Q30.675013 211.73021 30.237513 212.10521Q29.784388 212.48021 28.971888 212.48021L25.050013 212.48021L25.050013 213.63646L24.206263 213.63646L24.206263 212.48021L22.675013 212.48021L22.675013 211.38646ZM30.550013 204.94896Q30.362513 205.04271 29.878138 205.10521Q30.675013 205.85521 30.675013 206.90208Q30.675013 207.83958 30.143763 208.44896Q29.612513 209.04271 28.784388 209.04271Q27.800013 209.04271 27.253138 208.29271Q26.706263 207.54271 26.706263 206.16771L26.706263 205.12083L26.206263 205.12083Q25.643763 205.12083 25.315638 205.46458Q24.971888 205.79271 24.971888 206.46458Q24.971888 207.04271 25.268763 207.43333Q25.550013 207.82396 25.971888 207.82396L25.971888 208.91771Q25.487513 208.91771 25.050013 208.58958Q24.612513 208.24583 24.362513 207.66771Q24.096888 207.08958 24.096888 206.40208Q24.096888 205.29271 24.643763 204.68333Q25.190638 204.05833 26.143763 204.02708L29.065638 204.02708Q29.940638 204.02708 30.456263 203.80833L30.550013 203.80833L30.550013 204.94896ZM29.721888 206.74583Q29.721888 206.23021 29.456263 205.77708Q29.190638 205.32396 28.768763 205.12083L27.471888 205.12083L27.471888 205.96458Q27.471888 207.96458 28.643763 207.96458Q29.143763 207.96458 29.440638 207.62083Q29.721888 207.27708 29.721888 206.74583ZM30.550013 200.68333L30.550013 201.76146L21.550013 201.76146L21.550013 200.68333L30.550013 200.68333ZM31.440638 194.29271L31.440638 199.65208L30.550013 199.65208L30.550013 194.29271L31.440638 194.29271ZM27.331263 194.12083Q25.831263 194.12083 24.971888 193.44896Q24.096888 192.76146 24.096888 191.60521Q24.096888 190.48021 24.846888 189.82396L24.206263 189.77708L24.206263 188.77708L32.98751 188.77708L32.98751 189.87083L29.956263 189.87083Q30.675013 190.52708 30.675013 191.60521Q30.675013 192.76146 29.784388 193.44896Q28.878138 194.12083 27.409388 194.12083L27.331263 194.12083ZM27.456263 193.04271Q28.534388 193.04271 29.159388 192.58958Q29.784388 192.12083 29.784388 191.33958Q29.784388 190.37083 28.925013 189.87083L25.815638 189.87083Q24.987513 190.38646 24.987513 191.32396Q24.987513 192.12083 25.612513 192.58958Q26.237513 193.04271 27.456263 193.04271ZM29.925013 182.94896Q30.675013 183.57396 30.675013 184.80833Q30.675013 185.82396 30.081263 186.35521Q29.487513 186.88646 28.331263 186.88646L24.206263 186.88646L24.206263 185.80833L28.300013 185.80833Q29.753138 185.80833 29.753138 184.63646Q29.753138 183.38646 28.815638 182.98021L24.206263 182.98021L24.206263 181.88646L30.550013 181.88646L30.550013 182.91771L29.925013 182.94896ZM30.550013 175.94896Q30.362513 176.04271 29.878138 176.10521Q30.675013 176.85521 30.675013 177.90208Q30.675013 178.83958 30.143763 179.44896Q29.612513 180.04271 28.784388 180.04271Q27.800013 180.04271 27.253138 179.29271Q26.706263 178.54271 26.706263 177.16771L26.706263 176.12083L26.206263 176.12083Q25.643763 176.12083 25.315638 176.46458Q24.971888 176.79271 24.971888 177.46458Q24.971888 178.04271 25.268763 178.43333Q25.550013 178.82396 25.971888 178.82396L25.971888 179.91771Q25.487513 179.91771 25.050013 179.58958Q24.612513 179.24583 24.362513 178.66771Q24.096888 178.08958 24.096888 177.40208Q24.096888 176.29271 24.643763 175.68333Q25.190638 175.05833 26.143763 175.02708L29.065638 175.02708Q29.940638 175.02708 30.456263 174.80833L30.550013 174.80833L30.550013 175.94896ZM29.721888 177.74583Q29.721888 177.23021 29.456263 176.77708Q29.190638 176.32396 28.768763 176.12083L27.471888 176.12083L27.471888 176.96458Q27.471888 178.96458 28.643763 178.96458Q29.143763 178.96458 29.440638 178.62083Q29.721888 178.27708 29.721888 177.74583ZM24.206263 171.83958L25.003138 171.80833Q24.096888 171.07396 24.096888 169.90208Q24.096888 167.88646 26.362513 167.87083L30.550013 167.87083L30.550013 168.96458L26.346888 168.96458Q25.675013 168.96458 25.346888 169.27708Q25.018763 169.57396 25.018763 170.23021Q25.018763 170.76146 25.300013 171.16771Q25.581263 171.55833 26.034388 171.77708L30.550013 171.77708L30.550013 172.85521L24.206263 172.85521L24.206263 171.83958ZM22.675013 164.38646L24.206263 164.38646L24.206263 163.21458L25.050013 163.21458L25.050013 164.38646L28.971888 164.38646Q29.362513 164.38646 29.550013 164.23021Q29.737513 164.07396 29.737513 163.69896Q29.737513 163.51146 29.675013 163.18333L30.550013 163.18333Q30.675013 163.60521 30.675013 164.01146Q30.675013 164.73021 30.237513 165.10521Q29.784388 165.48021 28.971888 165.48021L25.050013 165.48021L25.050013 166.63646L24.206263 166.63646L24.206263 165.48021L22.675013 165.48021L22.675013 164.38646ZM30.550013 160.68333L30.550013 161.76146L24.206263 161.76146L24.206263 160.68333L30.550013 160.68333ZM22.534388 161.85521Q22.268763 161.85521 22.081263 161.69896Q21.893763 161.52708 21.893763 161.21458Q21.893763 160.90208 22.081263 160.74583Q22.268763 160.57396 22.534388 160.57396Q22.784388 160.57396 22.971888 160.74583Q23.143763 160.90208 23.143763 161.21458Q23.143763 161.52708 22.971888 161.69896Q22.784388 161.85521 22.534388 161.85521ZM22.675013 157.38646L24.206263 157.38646L24.206263 156.21458L25.050013 156.21458L25.050013 157.38646L28.971888 157.38646Q29.362513 157.38646 29.550013 157.23021Q29.737513 157.07396 29.737513 156.69896Q29.737513 156.51146 29.675013 156.18333L30.550013 156.18333Q30.675013 156.60521 30.675013 157.01146Q30.675013 157.73021 30.237513 158.10521Q29.784388 158.48021 28.971888 158.48021L25.050013 158.48021L25.050013 159.63646L24.206263 159.63646L24.206263 158.48021L22.675013 158.48021L22.675013 157.38646ZM28.956263 152.79271L24.206263 151.30833L24.206263 150.15208L31.534388 152.69896Q33.11251 153.29271 33.11251 154.57396L33.096886 154.79271L33.01876 155.18333L32.14376 155.18333L32.159386 154.90208Q32.159386 154.33958 31.940638 154.04271Q31.721888 153.73021 31.128138 153.52708L30.471888 153.29271L24.206263 155.55833L24.206263 154.37083L28.956263 152.79271Z" fill-rule="nonzero"/><path fill="#757575" d="M99.6125 279.3094Q99.6125 281.21564 98.95625 282.15314Q98.31563 283.075 96.925 283.075Q95.56563 283.075 94.90938 282.16876Q94.25313 281.2625 94.22188 279.45L94.22188 278.0125Q94.22188 276.1219 94.8625 275.21564Q95.51875 274.29376 96.90938 274.29376Q98.28438 274.29376 98.94063 275.1844Q99.59688 276.0594 99.6125 277.90314L99.6125 279.3094ZM98.51875 277.825Q98.51875 276.45 98.12813 275.825Q97.75313 275.1844 96.90938 275.1844Q96.08125 275.1844 95.69063 275.825Q95.31563 276.45 95.31563 277.7469L95.31563 279.48126Q95.31563 280.85626 95.70625 281.52814Q96.1125 282.1844 96.925 282.1844Q97.72188 282.1844 98.1125 281.5594Q98.50313 280.9344 98.51875 279.60626L98.51875 277.825Z" fill-rule="nonzero"/><path fill="#757575" d="M57.846874 210.93889L52.253124 210.93889L52.253124 210.15764L55.20625 206.87639Q55.8625 206.12639 56.1125 205.67326Q56.3625 205.20451 56.3625 204.70451Q56.3625 204.03264 55.95625 203.61076Q55.565624 203.17326 54.878124 203.17326Q54.08125 203.17326 53.628124 203.64201Q53.175 204.09514 53.175 204.92326L52.096874 204.92326Q52.096874 203.73576 52.846874 203.01701Q53.6125 202.28264 54.878124 202.28264Q56.08125 202.28264 56.76875 202.90764Q57.45625 203.53264 57.45625 204.57951Q57.45625 205.82951 55.846874 207.57951L53.565624 210.04826L57.846874 210.04826L57.846874 210.93889ZM64.6125 207.29826Q64.6125 209.20451 63.95625 210.14201Q63.315624 211.06389 61.925 211.06389Q60.565624 211.06389 59.909374 210.15764Q59.253124 209.25139 59.221874 207.43889L59.221874 206.00139Q59.221874 204.11076 59.8625 203.20451Q60.51875 202.28264 61.909374 202.28264Q63.284374 202.28264 63.940624 203.17326Q64.59688 204.04826 64.6125 205.89201L64.6125 207.29826ZM63.51875 205.81389Q63.51875 204.43889 63.128124 203.81389Q62.753124 203.17326 61.909374 203.17326Q61.08125 203.17326 60.690624 203.81389Q60.315624 204.43889 60.315624 205.73576L60.315624 207.47014Q60.315624 208.84514 60.70625 209.51701Q61.1125 210.17326 61.925 210.17326Q62.721874 210.17326 63.1125 209.54826Q63.503124 208.92326 63.51875 207.59514L63.51875 205.81389ZM71.6125 207.29826Q71.6125 209.20451 70.95625 210.14201Q70.31563 211.06389 68.925 211.06389Q67.56563 211.06389 66.90938 210.15764Q66.25313 209.25139 66.22188 207.43889L66.22188 206.00139Q66.22188 204.11076 66.8625 203.20451Q67.51875 202.28264 68.90938 202.28264Q70.28438 202.28264 70.94063 203.17326Q71.59688 204.04826 71.6125 205.89201L71.6125 207.29826ZM70.51875 205.81389Q70.51875 204.43889 70.12813 203.81389Q69.75313 203.17326 68.90938 203.17326Q68.08125 203.17326 67.69063 203.81389Q67.31563 204.43889 67.31563 205.73576L67.31563 207.47014Q67.31563 208.84514 67.70625 209.51701Q68.1125 210.17326 68.925 210.17326Q69.72188 210.17326 70.1125 209.54826Q70.50313 208.92326 70.51875 207.59514L70.51875 205.81389ZM78.6125 207.29826Q78.6125 209.20451 77.95625 210.14201Q77.31563 211.06389 75.925 211.06389Q74.56563 211.06389 73.90938 210.15764Q73.25313 209.25139 73.22188 207.43889L73.22188 206.00139Q73.22188 204.11076 73.8625 203.20451Q74.51875 202.28264 75.90938 202.28264Q77.28438 202.28264 77.94063 203.17326Q78.59688 204.04826 78.6125 205.89201L78.6125 207.29826ZM77.51875 205.81389Q77.51875 204.43889 77.12813 203.81389Q76.75313 203.17326 75.90938 203.17326Q75.08125 203.17326 74.69063 203.81389Q74.31563 204.43889 74.31563 205.73576L74.31563 207.47014Q74.31563 208.84514 74.70625 209.51701Q75.1125 210.17326 75.925 210.17326Q76.72188 210.17326 77.1125 209.54826Q77.50313 208.92326 77.51875 207.59514L77.51875 205.81389ZM85.6125 207.29826Q85.6125 209.20451 84.95625 210.14201Q84.31563 211.06389 82.925 211.06389Q81.56563 211.06389 80.90938 210.15764Q80.25313 209.25139 80.22188 207.43889L80.22188 206.00139Q80.22188 204.11076 80.8625 203.20451Q81.51875 202.28264 82.90938 202.28264Q84.28438 202.28264 84.94063 203.17326Q85.59688 204.04826 85.6125 205.89201L85.6125 207.29826ZM84.51875 205.81389Q84.51875 204.43889 84.12813 203.81389Q83.75313 203.17326 82.90938 203.17326Q82.08125 203.17326 81.69063 203.81389Q81.31563 204.43889 81.31563 205.73576L81.31563 207.47014Q81.31563 208.84514 81.70625 209.51701Q82.1125 210.17326 82.925 210.17326Q83.72188 210.17326 84.1125 209.54826Q84.50313 208.92326 84.51875 207.59514L84.51875 205.81389ZM92.6125 207.29826Q92.6125 209.20451 91.95625 210.14201Q91.31563 211.06389 89.925 211.06389Q88.56563 211.06389 87.90938 210.15764Q87.25313 209.25139 87.22188 207.43889L87.22188 206.00139Q87.22188 204.11076 87.8625 203.20451Q88.51875 202.28264 89.90938 202.28264Q91.28438 202.28264 91.94063 203.17326Q92.59688 204.04826 92.6125 205.89201L92.6125 207.29826ZM91.51875 205.81389Q91.51875 204.43889 91.12813 203.81389Q90.75313 203.17326 89.90938 203.17326Q89.08125 203.17326 88.69063 203.81389Q88.31563 204.43889 88.31563 205.73576L88.31563 207.47014Q88.31563 208.84514 88.70625 209.51701Q89.1125 210.17326 89.925 210.17326Q90.72188 210.17326 91.1125 209.54826Q91.50313 208.92326 91.51875 207.59514L91.51875 205.81389ZM99.6125 207.29826Q99.6125 209.20451 98.95625 210.14201Q98.31563 211.06389 96.925 211.06389Q95.56563 211.06389 94.90938 210.15764Q94.25313 209.25139 94.22188 207.43889L94.22188 206.00139Q94.22188 204.11076 94.8625 203.20451Q95.51875 202.28264 96.90938 202.28264Q98.28438 202.28264 98.94063 203.17326Q99.59688 204.04826 99.6125 205.89201L99.6125 207.29826ZM98.51875 205.81389Q98.51875 204.43889 98.12813 203.81389Q97.75313 203.17326 96.90938 203.17326Q96.08125 203.17326 95.69063 203.81389Q95.31563 204.43889 95.31563 205.73576L95.31563 207.47014Q95.31563 208.84514 95.70625 209.51701Q96.1125 210.17326 96.925 210.17326Q97.72188 210.17326 98.1125 209.54826Q98.50313 208.92326 98.51875 207.59514L98.51875 205.81389Z" fill-rule="nonzero"/><path fill="#757575" d="M56.83125 136.0684L58.01875 136.0684L58.01875 136.9434L56.83125 136.9434L56.83125 138.92778L55.753124 138.92778L55.753124 136.9434L51.8625 136.9434L51.8625 136.30278L55.675 130.39653L56.83125 130.39653L56.83125 136.0684ZM53.096874 136.0684L55.753124 136.0684L55.753124 131.8809L55.6125 132.11528L53.096874 136.0684ZM64.6125 135.28716Q64.6125 137.1934 63.95625 138.1309Q63.315624 139.05278 61.925 139.05278Q60.565624 139.05278 59.909374 138.14653Q59.253124 137.24028 59.221874 135.42778L59.221874 133.99028Q59.221874 132.09966 59.8625 131.1934Q60.51875 130.27153 61.909374 130.27153Q63.284374 130.27153 63.940624 131.16216Q64.59688 132.03716 64.6125 133.8809L64.6125 135.28716ZM63.51875 133.80278Q63.51875 132.42778 63.128124 131.80278Q62.753124 131.16216 61.909374 131.16216Q61.08125 131.16216 60.690624 131.80278Q60.315624 132.42778 60.315624 133.72466L60.315624 135.45903Q60.315624 136.83403 60.70625 137.5059Q61.1125 138.16216 61.925 138.16216Q62.721874 138.16216 63.1125 137.53716Q63.503124 136.91216 63.51875 135.58403L63.51875 133.80278ZM71.6125 135.28716Q71.6125 137.1934 70.95625 138.1309Q70.31563 139.05278 68.925 139.05278Q67.56563 139.05278 66.90938 138.14653Q66.25313 137.24028 66.22188 135.42778L66.22188 133.99028Q66.22188 132.09966 66.8625 131.1934Q67.51875 130.27153 68.90938 130.27153Q70.28438 130.27153 70.94063 131.16216Q71.59688 132.03716 71.6125 133.8809L71.6125 135.28716ZM70.51875 133.80278Q70.51875 132.42778 70.12813 131.80278Q69.75313 131.16216 68.90938 131.16216Q68.08125 131.16216 67.69063 131.80278Q67.31563 132.42778 67.31563 133.72466L67.31563 135.45903Q67.31563 136.83403 67.70625 137.5059Q68.1125 138.16216 68.925 138.16216Q69.72188 138.16216 70.1125 137.53716Q70.50313 136.91216 70.51875 135.58403L70.51875 133.80278ZM78.6125 135.28716Q78.6125 137.1934 77.95625 138.1309Q77.31563 139.05278 75.925 139.05278Q74.56563 139.05278 73.90938 138.14653Q73.25313 137.24028 73.22188 135.42778L73.22188 133.99028Q73.22188 132.09966 73.8625 131.1934Q74.51875 130.27153 75.90938 130.27153Q77.28438 130.27153 77.94063 131.16216Q78.59688 132.03716 78.6125 133.8809L78.6125 135.28716ZM77.51875 133.80278Q77.51875 132.42778 77.12813 131.80278Q76.75313 131.16216 75.90938 131.16216Q75.08125 131.16216 74.69063 131.80278Q74.31563 132.42778 74.31563 133.72466L74.31563 135.45903Q74.31563 136.83403 74.70625 137.5059Q75.1125 138.16216 75.925 138.16216Q76.72188 138.16216 77.1125 137.53716Q77.50313 136.91216 77.51875 135.58403L77.51875 133.80278ZM85.6125 135.28716Q85.6125 137.1934 84.95625 138.1309Q84.31563 139.05278 82.925 139.05278Q81.56563 139.05278 80.90938 138.14653Q80.25313 137.24028 80.22188 135.42778L80.22188 133.99028Q80.22188 132.09966 80.8625 131.1934Q81.51875 130.27153 82.90938 130.27153Q84.28438 130.27153 84.94063 131.16216Q85.59688 132.03716 85.6125 133.8809L85.6125 135.28716ZM84.51875 133.80278Q84.51875 132.42778 84.12813 131.80278Q83.75313 131.16216 82.90938 131.16216Q82.08125 131.16216 81.69063 131.80278Q81.31563 132.42778 81.31563 133.72466L81.31563 135.45903Q81.31563 136.83403 81.70625 137.5059Q82.1125 138.16216 82.925 138.16216Q83.72188 138.16216 84.1125 137.53716Q84.50313 136.91216 84.51875 135.58403L84.51875 133.80278ZM92.6125 135.28716Q92.6125 137.1934 91.95625 138.1309Q91.31563 139.05278 89.925 139.05278Q88.56563 139.05278 87.90938 138.14653Q87.25313 137.24028 87.22188 135.42778L87.22188 133.99028Q87.22188 132.09966 87.8625 131.1934Q88.51875 130.27153 89.90938 130.27153Q91.28438 130.27153 91.94063 131.16216Q92.59688 132.03716 92.6125 133.8809L92.6125 135.28716ZM91.51875 133.80278Q91.51875 132.42778 91.12813 131.80278Q90.75313 131.16216 89.90938 131.16216Q89.08125 131.16216 88.69063 131.80278Q88.31563 132.42778 88.31563 133.72466L88.31563 135.45903Q88.31563 136.83403 88.70625 137.5059Q89.1125 138.16216 89.925 138.16216Q90.72188 138.16216 91.1125 137.53716Q91.50313 136.91216 91.51875 135.58403L91.51875 133.80278ZM99.6125 135.28716Q99.6125 137.1934 98.95625 138.1309Q98.31563 139.05278 96.925 139.05278Q95.56563 139.05278 94.90938 138.14653Q94.25313 137.24028 94.22188 135.42778L94.22188 133.99028Q94.22188 132.09966 94.8625 131.1934Q95.51875 130.27153 96.90938 130.27153Q98.28438 130.27153 98.94063 131.16216Q99.59688 132.03716 99.6125 133.8809L99.6125 135.28716ZM98.51875 133.80278Q98.51875 132.42778 98.12813 131.80278Q97.75313 131.16216 96.90938 131.16216Q96.08125 131.16216 95.69063 131.80278Q95.31563 132.42778 95.31563 133.72466L95.31563 135.45903Q95.31563 136.83403 95.70625 137.5059Q96.1125 138.16216 96.925 138.16216Q97.72188 138.16216 98.1125 137.53716Q98.50313 136.91216 98.51875 135.58403L98.51875 133.80278Z" fill-rule="nonzero"/><path fill="#757575" d="M56.51875 58.385414L56.51875 59.291664L56.315624 59.291664Q55.05 59.322914 54.3 60.05729Q53.55 60.77604 53.425 62.08854Q54.1125 61.322914 55.26875 61.322914Q56.378124 61.322914 57.05 62.104164Q57.721874 62.885414 57.721874 64.135414Q57.721874 65.447914 57.003124 66.24479Q56.284374 67.041664 55.065624 67.041664Q53.846874 67.041664 53.08125 66.104164Q52.33125 65.15104 52.33125 63.666664L52.33125 63.260414Q52.33125 60.90104 53.33125 59.65104Q54.33125 58.40104 56.315624 58.385414L56.51875 58.385414ZM55.096874 62.229164Q54.534374 62.229164 54.065624 62.55729Q53.596874 62.885414 53.409374 63.40104L53.409374 63.791664Q53.409374 64.854164 53.878124 65.49479Q54.3625 66.135414 55.065624 66.135414Q55.8 66.135414 56.221874 65.604164Q56.64375 65.05729 56.64375 64.18229Q56.64375 63.30729 56.221874 62.77604Q55.8 62.229164 55.096874 62.229164ZM64.6125 63.27604Q64.6125 65.18229 63.95625 66.11979Q63.315624 67.041664 61.925 67.041664Q60.565624 67.041664 59.909374 66.135414Q59.253124 65.229164 59.221874 63.416664L59.221874 61.979164Q59.221874 60.08854 59.8625 59.18229Q60.51875 58.260414 61.909374 58.260414Q63.284374 58.260414 63.940624 59.15104Q64.59688 60.02604 64.6125 61.86979L64.6125 63.27604ZM63.51875 61.791664Q63.51875 60.416664 63.128124 59.791664Q62.753124 59.15104 61.909374 59.15104Q61.08125 59.15104 60.690624 59.791664Q60.315624 60.416664 60.315624 61.71354L60.315624 63.447914Q60.315624 64.822914 60.70625 65.49479Q61.1125 66.15104 61.925 66.15104Q62.721874 66.15104 63.1125 65.52604Q63.503124 64.90104 63.51875 63.572914L63.51875 61.791664ZM71.6125 63.27604Q71.6125 65.18229 70.95625 66.11979Q70.31563 67.041664 68.925 67.041664Q67.56563 67.041664 66.90938 66.135414Q66.25313 65.229164 66.22188 63.416664L66.22188 61.979164Q66.22188 60.08854 66.8625 59.18229Q67.51875 58.260414 68.90938 58.260414Q70.28438 58.260414 70.94063 59.15104Q71.59688 60.02604 71.6125 61.86979L71.6125 63.27604ZM70.51875 61.791664Q70.51875 60.416664 70.12813 59.791664Q69.75313 59.15104 68.90938 59.15104Q68.08125 59.15104 67.69063 59.791664Q67.31563 60.416664 67.31563 61.71354L67.31563 63.447914Q67.31563 64.822914 67.70625 65.49479Q68.1125 66.15104 68.925 66.15104Q69.72188 66.15104 70.1125 65.52604Q70.50313 64.90104 70.51875 63.572914L70.51875 61.791664ZM78.6125 63.27604Q78.6125 65.18229 77.95625 66.11979Q77.31563 67.041664 75.925 67.041664Q74.56563 67.041664 73.90938 66.135414Q73.25313 65.229164 73.22188 63.416664L73.22188 61.979164Q73.22188 60.08854 73.8625 59.18229Q74.51875 58.260414 75.90938 58.260414Q77.28438 58.260414 77.94063 59.15104Q78.59688 60.02604 78.6125 61.86979L78.6125 63.27604ZM77.51875 61.791664Q77.51875 60.416664 77.12813 59.791664Q76.75313 59.15104 75.90938 59.15104Q75.08125 59.15104 74.69063 59.791664Q74.31563 60.416664 74.31563 61.71354L74.31563 63.447914Q74.31563 64.822914 74.70625 65.49479Q75.1125 66.15104 75.925 66.15104Q76.72188 66.15104 77.1125 65.52604Q77.50313 64.90104 77.51875 63.572914L77.51875 61.791664ZM85.6125 63.27604Q85.6125 65.18229 84.95625 66.11979Q84.31563 67.041664 82.925 67.041664Q81.56563 67.041664 80.90938 66.135414Q80.25313 65.229164 80.22188 63.416664L80.22188 61.979164Q80.22188 60.08854 80.8625 59.18229Q81.51875 58.260414 82.90938 58.260414Q84.28438 58.260414 84.94063 59.15104Q85.59688 60.02604 85.6125 61.86979L85.6125 63.27604ZM84.51875 61.791664Q84.51875 60.416664 84.12813 59.791664Q83.75313 59.15104 82.90938 59.15104Q82.08125 59.15104 81.69063 59.791664Q81.31563 60.416664 81.31563 61.71354L81.31563 63.447914Q81.31563 64.822914 81.70625 65.49479Q82.1125 66.15104 82.925 66.15104Q83.72188 66.15104 84.1125 65.52604Q84.50313 64.90104 84.51875 63.572914L84.51875 61.791664ZM92.6125 63.27604Q92.6125 65.18229 91.95625 66.11979Q91.31563 67.041664 89.925 67.041664Q88.56563 67.041664 87.90938 66.135414Q87.25313 65.229164 87.22188 63.416664L87.22188 61.979164Q87.22188 60.08854 87.8625 59.18229Q88.51875 58.260414 89.90938 58.260414Q91.28438 58.260414 91.94063 59.15104Q92.59688 60.02604 92.6125 61.86979L92.6125 63.27604ZM91.51875 61.791664Q91.51875 60.416664 91.12813 59.791664Q90.75313 59.15104 89.90938 59.15104Q89.08125 59.15104 88.69063 59.791664Q88.31563 60.416664 88.31563 61.71354L88.31563 63.447914Q88.31563 64.822914 88.70625 65.49479Q89.1125 66.15104 89.925 66.15104Q90.72188 66.15104 91.1125 65.52604Q91.50313 64.90104 91.51875 63.572914L91.51875 61.791664ZM99.6125 63.27604Q99.6125 65.18229 98.95625 66.11979Q98.31563 67.041664 96.925 67.041664Q95.56563 67.041664 94.90938 66.135414Q94.25313 65.229164 94.22188 63.416664L94.22188 61.979164Q94.22188 60.08854 94.8625 59.18229Q95.51875 58.260414 96.90938 58.260414Q98.28438 58.260414 98.94063 59.15104Q99.59688 60.02604 99.6125 61.86979L99.6125 63.27604ZM98.51875 61.791664Q98.51875 60.416664 98.12813 59.791664Q97.75313 59.15104 96.90938 59.15104Q96.08125 59.15104 95.69063 59.791664Q95.31563 60.416664 95.31563 61.71354L95.31563 63.447914Q95.31563 64.822914 95.70625 65.49479Q96.1125 66.15104 96.925 66.15104Q97.72188 66.15104 98.1125 65.52604Q98.50313 64.90104 98.51875 63.572914L98.51875 61.791664Z" fill-rule="nonzero"/><path fill="#757575" d="M136.20166 316.45Q136.10791 316.2625 136.04541 315.77814Q135.29541 316.575 134.24854 316.575Q133.31104 316.575 132.70166 316.04376Q132.10791 315.5125 132.10791 314.6844Q132.10791 313.7 132.85791 313.15314Q133.60791 312.60626 134.98291 312.60626L136.02979 312.60626L136.02979 312.10626Q136.02979 311.54376 135.68604 311.21564Q135.35791 310.8719 134.68604 310.8719Q134.10791 310.8719 133.71729 311.16876Q133.32666 311.45 133.32666 311.8719L132.23291 311.8719Q132.23291 311.3875 132.56104 310.95Q132.90479 310.5125 133.48291 310.2625Q134.06104 309.9969 134.74854 309.9969Q135.85791 309.9969 136.46729 310.54376Q137.09229 311.09064 137.12354 312.04376L137.12354 314.96564Q137.12354 315.84064 137.34229 316.35626L137.34229 316.45L136.20166 316.45ZM134.40479 315.6219Q134.92041 315.6219 135.37354 315.35626Q135.82666 315.09064 136.02979 314.66876L136.02979 313.3719L135.18604 313.3719Q133.18604 313.3719 133.18604 314.54376Q133.18604 315.04376 133.52979 315.34064Q133.87354 315.6219 134.40479 315.6219ZM140.46729 316.45L139.38916 316.45L139.38916 307.45L140.46729 307.45L140.46729 316.45ZM143.46729 316.45L142.38916 316.45L142.38916 307.45L143.46729 307.45L143.46729 316.45ZM148.02979 313.23126Q148.02979 311.73126 148.70166 310.8719Q149.38916 309.9969 150.54541 309.9969Q151.67041 309.9969 152.32666 310.7469L152.37354 310.10626L153.37354 310.10626L153.37354 318.8875L152.27979 318.8875L152.27979 315.85626Q151.62354 316.575 150.54541 316.575Q149.38916 316.575 148.70166 315.6844Q148.02979 314.77814 148.02979 313.3094L148.02979 313.23126ZM149.10791 313.35626Q149.10791 314.4344 149.56104 315.0594Q150.02979 315.6844 150.81104 315.6844Q151.77979 315.6844 152.27979 314.825L152.27979 311.71564Q151.76416 310.8875 150.82666 310.8875Q150.02979 310.8875 149.56104 311.5125Q149.10791 312.1375 149.10791 313.35626ZM159.20166 315.825Q158.57666 316.575 157.34229 316.575Q156.32666 316.575 155.79541 315.98126Q155.26416 315.3875 155.26416 314.23126L155.26416 310.10626L156.34229 310.10626L156.34229 314.2Q156.34229 315.65314 157.51416 315.65314Q158.76416 315.65314 159.17041 314.71564L159.17041 310.10626L160.26416 310.10626L160.26416 316.45L159.23291 316.45L159.20166 315.825ZM166.20166 316.45Q166.10791 316.2625 166.04541 315.77814Q165.29541 316.575 164.24854 316.575Q163.31104 316.575 162.70166 316.04376Q162.10791 315.5125 162.10791 314.6844Q162.10791 313.7 162.85791 313.15314Q163.60791 312.60626 164.98291 312.60626L166.02979 312.60626L166.02979 312.10626Q166.02979 311.54376 165.68604 311.21564Q165.35791 310.8719 164.68604 310.8719Q164.10791 310.8719 163.71729 311.16876Q163.32666 311.45 163.32666 311.8719L162.23291 311.8719Q162.23291 311.3875 162.56104 310.95Q162.90479 310.5125 163.48291 310.2625Q164.06104 309.9969 164.74854 309.9969Q165.85791 309.9969 166.46729 310.54376Q167.09229 311.09064 167.12354 312.04376L167.12354 314.96564Q167.12354 315.84064 167.34229 316.35626L167.34229 316.45L166.20166 316.45ZM164.40479 315.6219Q164.92041 315.6219 165.37354 315.35626Q165.82666 315.09064 166.02979 314.66876L166.02979 313.3719L165.18604 313.3719Q163.18604 313.3719 163.18604 314.54376Q163.18604 315.04376 163.52979 315.34064Q163.87354 315.6219 164.40479 315.6219ZM172.35791 311.075Q172.10791 311.04376 171.82666 311.04376Q170.74854 311.04376 170.37354 311.95L170.37354 316.45L169.29541 316.45L169.29541 310.10626L170.34229 310.10626L170.35791 310.84064Q170.88916 309.9969 171.87354 309.9969Q172.18604 309.9969 172.35791 310.075L172.35791 311.075ZM174.76416 308.575L174.76416 310.10626L175.93604 310.10626L175.93604 310.95L174.76416 310.95L174.76416 314.8719Q174.76416 315.2625 174.92041 315.45Q175.07666 315.6375 175.45166 315.6375Q175.63916 315.6375 175.96729 315.575L175.96729 316.45Q175.54541 316.575 175.13916 316.575Q174.42041 316.575 174.04541 316.1375Q173.67041 315.6844 173.67041 314.8719L173.67041 310.95L172.51416 310.95L172.51416 310.10626L173.67041 310.10626L173.67041 308.575L174.76416 308.575ZM179.92041 316.575Q178.62354 316.575 177.81104 315.73126Q177.01416 314.8719 177.01416 313.45L177.01416 313.2625Q177.01416 312.3094 177.37354 311.575Q177.73291 310.825 178.37354 310.41876Q179.02979 309.9969 179.77979 309.9969Q181.01416 309.9969 181.70166 310.8094Q182.38916 311.6219 182.38916 313.1375L182.38916 313.59064L178.09229 313.59064Q178.12354 314.52814 178.63916 315.10626Q179.17041 315.6844 179.98291 315.6844Q180.54541 315.6844 180.93604 315.45Q181.34229 315.21564 181.65479 314.825L182.31104 315.34064Q181.51416 316.575 179.92041 316.575ZM179.77979 310.8875Q179.12354 310.8875 178.67041 311.3719Q178.23291 311.84064 178.13916 312.7L181.31104 312.7L181.31104 312.6219Q181.26416 311.79376 180.85791 311.34064Q180.46729 310.8875 179.77979 310.8875ZM186.35791 311.075Q186.10791 311.04376 185.82666 311.04376Q184.74854 311.04376 184.37354 311.95L184.37354 316.45L183.29541 316.45L183.29541 310.10626L184.34229 310.10626L184.35791 310.84064Q184.88916 309.9969 185.87354 309.9969Q186.18604 309.9969 186.35791 310.075L186.35791 311.075Z" fill-rule="nonzero"/><path fill="#757575" d="M247.73364 312.46564Q247.73364 313.7 247.34302 314.59064Q246.9524 315.48126 246.24927 315.98126L247.7649 317.1844L246.99927 317.8875L245.2024 316.46564Q244.78052 316.575 244.31177 316.575Q243.31177 316.575 242.53052 316.075Q241.74927 315.575 241.31177 314.66876Q240.8899 313.7469 240.87427 312.52814L240.87427 311.91876Q240.87427 310.6844 241.29614 309.7469Q241.73364 308.8094 242.5149 308.3094Q243.29614 307.79376 244.29614 307.79376Q245.3274 307.79376 246.10864 308.29376Q246.8899 308.79376 247.31177 309.73126Q247.73364 310.66876 247.73364 311.91876L247.73364 312.46564ZM246.60864 311.90314Q246.60864 310.40314 246.0149 309.59064Q245.42114 308.7625 244.29614 308.7625Q243.23364 308.7625 242.62427 309.575Q242.0149 310.3875 241.99927 311.825L241.99927 312.46564Q241.99927 313.91876 242.60864 314.7625Q243.21802 315.60626 244.31177 315.60626Q245.40552 315.60626 245.99927 314.825Q246.59302 314.02814 246.60864 312.54376L246.60864 311.90314ZM250.5149 311.65314L251.3274 311.65314Q252.10864 311.6375 252.54614 311.2469Q252.98364 310.85626 252.98364 310.1844Q252.98364 308.6844 251.48364 308.6844Q250.78052 308.6844 250.35864 309.09064Q249.9524 309.4969 249.9524 310.15314L248.85864 310.15314Q248.85864 309.1375 249.59302 308.46564Q250.34302 307.79376 251.48364 307.79376Q252.68677 307.79376 253.37427 308.4344Q254.06177 309.075 254.06177 310.21564Q254.06177 310.77814 253.7024 311.29376Q253.34302 311.8094 252.71802 312.075Q253.42114 312.29376 253.79614 312.8094Q254.18677 313.325 254.18677 314.075Q254.18677 315.21564 253.43677 315.90314Q252.68677 316.575 251.48364 316.575Q250.29614 316.575 249.53052 315.91876Q248.78052 315.2625 248.78052 314.2L249.87427 314.2Q249.87427 314.8719 250.31177 315.27814Q250.74927 315.6844 251.49927 315.6844Q252.28052 315.6844 252.68677 315.27814Q253.10864 314.85626 253.10864 314.09064Q253.10864 313.35626 252.65552 312.96564Q252.2024 312.5594 251.3274 312.54376L250.5149 312.54376L250.5149 311.65314Z" fill-rule="nonzero"/><path fill="#757575" d="M336.5 312.46564Q336.5 313.7 336.10938 314.59064Q335.71875 315.48126 335.01562 315.98126L336.53125 317.1844L335.76562 317.8875L333.96875 316.46564Q333.54688 316.575 333.07812 316.575Q332.07812 316.575 331.29688 316.075Q330.51562 315.575 330.07812 314.66876Q329.65625 313.7469 329.64062 312.52814L329.64062 311.91876Q329.64062 310.6844 330.0625 309.7469Q330.5 308.8094 331.28125 308.3094Q332.0625 307.79376 333.0625 307.79376Q334.09375 307.79376 334.875 308.29376Q335.65625 308.79376 336.07812 309.73126Q336.5 310.66876 336.5 311.91876L336.5 312.46564ZM335.375 311.90314Q335.375 310.40314 334.78125 309.59064Q334.1875 308.7625 333.0625 308.7625Q332.0 308.7625 331.39062 309.575Q330.78125 310.3875 330.76562 311.825L330.76562 312.46564Q330.76562 313.91876 331.375 314.7625Q331.98438 315.60626 333.07812 315.60626Q334.17188 315.60626 334.76562 314.825Q335.35938 314.02814 335.375 312.54376L335.375 311.90314ZM341.26562 316.45L340.1875 316.45L340.1875 309.23126L338.0 310.02814L338.0 309.04376L341.10938 307.8719L341.26562 307.8719L341.26562 316.45Z" fill-rule="nonzero"/><path fill="#757575" d="M425.26636 312.46564Q425.26636 313.7 424.87573 314.59064Q424.4851 315.48126 423.78198 315.98126L425.2976 317.1844L424.53198 317.8875L422.7351 316.46564Q422.31323 316.575 421.84448 316.575Q420.84448 316.575 420.06323 316.075Q419.28198 315.575 418.84448 314.66876Q418.4226 313.7469 418.40698 312.52814L418.40698 311.91876Q418.40698 310.6844 418.82886 309.7469Q419.26636 308.8094 420.0476 308.3094Q420.82886 307.79376 421.82886 307.79376Q422.8601 307.79376 423.64136 308.29376Q424.4226 308.79376 424.84448 309.73126Q425.26636 310.66876 425.26636 311.91876L425.26636 312.46564ZM424.14136 311.90314Q424.14136 310.40314 423.5476 309.59064Q422.95386 308.7625 421.82886 308.7625Q420.76636 308.7625 420.15698 309.575Q419.5476 310.3875 419.53198 311.825L419.53198 312.46564Q419.53198 313.91876 420.14136 314.7625Q420.75073 315.60626 421.84448 315.60626Q422.93823 315.60626 423.53198 314.825Q424.12573 314.02814 424.14136 312.54376L424.14136 311.90314ZM431.0476 313.59064L432.2351 313.59064L432.2351 314.46564L431.0476 314.46564L431.0476 316.45L429.96948 316.45L429.96948 314.46564L426.07886 314.46564L426.07886 313.825L429.89136 307.91876L431.0476 307.91876L431.0476 313.59064ZM427.31323 313.59064L429.96948 313.59064L429.96948 309.40314L429.82886 309.6375L427.31323 313.59064Z" fill-rule="nonzero"/><path fill="#757575" d="M514.0327 312.46564Q514.0327 313.7 513.6421 314.59064Q513.25146 315.48126 512.54834 315.98126L514.06396 317.1844L513.29834 317.8875L511.50146 316.46564Q511.0796 316.575 510.61084 316.575Q509.61084 316.575 508.8296 316.075Q508.04834 315.575 507.61084 314.66876Q507.18896 313.7469 507.17334 312.52814L507.17334 311.91876Q507.17334 310.6844 507.5952 309.7469Q508.0327 308.8094 508.81396 308.3094Q509.5952 307.79376 510.5952 307.79376Q511.62646 307.79376 512.4077 308.29376Q513.18896 308.79376 513.61084 309.73126Q514.0327 310.66876 514.0327 311.91876L514.0327 312.46564ZM512.9077 311.90314Q512.9077 310.40314 512.31396 309.59064Q511.7202 308.7625 510.5952 308.7625Q509.5327 308.7625 508.92334 309.575Q508.31396 310.3875 508.29834 311.825L508.29834 312.46564Q508.29834 313.91876 508.9077 314.7625Q509.5171 315.60626 510.61084 315.60626Q511.7046 315.60626 512.29834 314.825Q512.8921 314.02814 512.9077 312.54376L512.9077 311.90314ZM520.8296 316.45L515.23584 316.45L515.23584 315.66876L518.18896 312.3875Q518.8452 311.6375 519.0952 311.1844Q519.3452 310.71564 519.3452 310.21564Q519.3452 309.54376 518.93896 309.1219Q518.54834 308.6844 517.86084 308.6844Q517.06396 308.6844 516.61084 309.15314Q516.1577 309.60626 516.1577 310.4344L515.0796 310.4344Q515.0796 309.2469 515.8296 308.52814Q516.5952 307.79376 517.86084 307.79376Q519.06396 307.79376 519.75146 308.41876Q520.43896 309.04376 520.43896 310.09064Q520.43896 311.34064 518.8296 313.09064L516.54834 315.5594L520.8296 315.5594L520.8296 316.45Z" fill-rule="nonzero"/><path fill="#757575" d="M22.3625 24.425L22.3625 26.9875L24.346874 26.9875L24.346874 28.378124L22.3625 28.378124L22.3625 34.925Q22.3625 35.565624 22.628124 35.89375Q22.89375 36.20625 23.534374 36.20625Q23.846874 36.20625 24.39375 36.08125L24.39375 37.55Q23.675 37.753124 23.003124 37.753124Q21.8 37.753124 21.175 37.01875Q20.565624 36.284374 20.565624 34.925L20.565624 28.378124L18.64375 28.378124L18.64375 26.9875L20.565624 26.9875L20.565624 24.425L22.3625 24.425ZM26.440624 32.175Q26.440624 30.6125 27.05 29.378124Q27.659374 28.128124 28.7375 27.45625Q29.83125 26.784374 31.2375 26.784374Q33.39375 26.784374 34.721874 28.284374Q36.065624 29.76875 36.065624 32.253124L36.065624 32.378124Q36.065624 33.925 35.471874 35.159374Q34.878124 36.378124 33.76875 37.065624Q32.675 37.753124 31.253124 37.753124Q29.1125 37.753124 27.76875 36.253124Q26.440624 34.753124 26.440624 32.3L26.440624 32.175ZM28.253124 32.378124Q28.253124 34.14375 29.065624 35.20625Q29.89375 36.26875 31.253124 36.26875Q32.628124 36.26875 33.440624 35.190624Q34.253124 34.1125 34.253124 32.175Q34.253124 30.425 33.425 29.346874Q32.596874 28.26875 31.2375 28.26875Q29.89375 28.26875 29.065624 29.33125Q28.253124 30.39375 28.253124 32.378124ZM40.3625 24.425L40.3625 26.9875L42.346874 26.9875L42.346874 28.378124L40.3625 28.378124L40.3625 34.925Q40.3625 35.565624 40.628124 35.89375Q40.89375 36.20625 41.534374 36.20625Q41.846874 36.20625 42.39375 36.08125L42.39375 37.55Q41.675 37.753124 41.003124 37.753124Q39.8 37.753124 39.175 37.01875Q38.565624 36.284374 38.565624 34.925L38.565624 28.378124L36.64375 28.378124L36.64375 26.9875L38.565624 26.9875L38.565624 24.425L40.3625 24.425ZM51.440624 37.55Q51.284374 37.2375 51.190624 36.440624Q49.925 37.753124 48.175 37.753124Q46.6125 37.753124 45.6125 36.8625Q44.6125 35.971874 44.6125 34.6125Q44.6125 32.971874 45.8625 32.065624Q47.128124 31.14375 49.39375 31.14375L51.159374 31.14375L51.159374 30.315624Q51.159374 29.3625 50.58125 28.8Q50.01875 28.2375 48.925 28.2375Q47.95625 28.2375 47.3 28.7375Q46.64375 29.221874 46.64375 29.909374L44.83125 29.909374Q44.83125 29.128124 45.39375 28.39375Q45.95625 27.64375 46.909374 27.221874Q47.878124 26.784374 49.034374 26.784374Q50.8625 26.784374 51.89375 27.70625Q52.925 28.6125 52.971874 30.221874L52.971874 35.08125Q52.971874 36.534374 53.33125 37.39375L53.33125 37.55L51.440624 37.55ZM48.440624 36.175Q49.3 36.175 50.05 35.7375Q50.815624 35.3 51.159374 34.596874L51.159374 32.425L49.7375 32.425Q46.425 32.425 46.425 34.3625Q46.425 35.221874 46.9875 35.70625Q47.55 36.175 48.440624 36.175ZM57.878124 37.55L56.08125 37.55L56.08125 22.55L57.878124 22.55L57.878124 37.55ZM68.53438 39.01875L59.596874 39.01875L59.596874 37.55L68.53438 37.55L68.53438 39.01875ZM69.47188 32.175Q69.47188 29.690624 70.6125 28.2375Q71.76875 26.784374 73.69063 26.784374Q75.56563 26.784374 76.64375 28.05L76.72188 26.9875L78.37813 26.9875L78.37813 41.6125L76.58125 41.6125L76.58125 36.565624Q75.4875 37.753124 73.675 37.753124Q71.75313 37.753124 70.6125 36.26875Q69.47188 34.76875 69.47188 32.3L69.47188 32.175ZM71.28438 32.378124Q71.28438 34.20625 72.05 35.2375Q72.81563 36.26875 74.1125 36.26875Q75.72188 36.26875 76.58125 34.846874L76.58125 29.675Q75.72188 28.26875 74.14375 28.26875Q72.83125 28.26875 72.05 29.315624Q71.28438 30.346874 71.28438 32.378124ZM87.44063 36.503124Q86.39375 37.753124 84.34688 37.753124Q82.65938 37.753124 81.76875 36.76875Q80.89375 35.784374 80.87813 33.8625L80.87813 26.9875L82.69063 26.9875L82.69063 33.815624Q82.69063 36.20625 84.64375 36.20625Q86.70625 36.20625 87.39375 34.675L87.39375 26.9875L89.20625 26.9875L89.20625 37.55L87.4875 37.55L87.44063 36.503124ZM98.44063 37.55Q98.28438 37.2375 98.19063 36.440624Q96.925 37.753124 95.175 37.753124Q93.6125 37.753124 92.6125 36.8625Q91.6125 35.971874 91.6125 34.6125Q91.6125 32.971874 92.8625 32.065624Q94.12813 31.14375 96.39375 31.14375L98.15938 31.14375L98.15938 30.315624Q98.15938 29.3625 97.58125 28.8Q97.01875 28.2375 95.925 28.2375Q94.95625 28.2375 94.3 28.7375Q93.64375 29.221874 93.64375 29.909374L91.83125 29.909374Q91.83125 29.128124 92.39375 28.39375Q92.95625 27.64375 93.90938 27.221874Q94.87813 26.784374 96.03438 26.784374Q97.8625 26.784374 98.89375 27.70625Q99.925 28.6125 99.97188 30.221874L99.97188 35.08125Q99.97188 36.534374 100.33125 37.39375L100.33125 37.55L98.44063 37.55ZM95.44063 36.175Q96.3 36.175 97.05 35.7375Q97.81563 35.3 98.15938 34.596874L98.15938 32.425L96.7375 32.425Q93.425 32.425 93.425 34.3625Q93.425 35.221874 93.9875 35.70625Q94.55 36.175 95.44063 36.175ZM104.62813 26.9875L104.69063 28.315624Q105.89375 26.784374 107.84688 26.784374Q111.20625 26.784374 111.22188 30.565624L111.22188 37.55L109.425 37.55L109.425 30.55Q109.40938 29.409374 108.89375 28.8625Q108.39375 28.315624 107.3 28.315624Q106.425 28.315624 105.75313 28.784374Q105.09688 29.253124 104.72188 30.01875L104.72188 37.55L102.925 37.55L102.925 26.9875L104.62813 26.9875ZM116.3625 24.425L116.3625 26.9875L118.34688 26.9875L118.34688 28.378124L116.3625 28.378124L116.3625 34.925Q116.3625 35.565624 116.62813 35.89375Q116.89375 36.20625 117.53438 36.20625Q117.84688 36.20625 118.39375 36.08125L118.39375 37.55Q117.675 37.753124 117.00313 37.753124Q115.8 37.753124 115.175 37.01875Q114.56563 36.284374 114.56563 34.925L114.56563 28.378124L112.64375 28.378124L112.64375 26.9875L114.56563 26.9875L114.56563 24.425L116.3625 24.425ZM122.87813 37.55L121.08125 37.55L121.08125 26.9875L122.87813 26.9875L122.87813 37.55ZM120.925 24.175Q120.925 23.7375 121.19063 23.440624Q121.47188 23.128124 121.9875 23.128124Q122.51875 23.128124 122.78438 23.440624Q123.06563 23.7375 123.06563 24.175Q123.06563 24.6125 122.78438 24.909374Q122.51875 25.20625 121.9875 25.20625Q121.47188 25.20625 121.19063 24.909374Q120.925 24.6125 120.925 24.175ZM128.3625 24.425L128.3625 26.9875L130.34688 26.9875L130.34688 28.378124L128.3625 28.378124L128.3625 34.925Q128.3625 35.565624 128.62813 35.89375Q128.89375 36.20625 129.53438 36.20625Q129.84688 36.20625 130.39375 36.08125L130.39375 37.55Q129.675 37.753124 129.00313 37.753124Q127.8 37.753124 127.175 37.01875Q126.56563 36.284374 126.56563 34.925L126.56563 28.378124L124.64375 28.378124L124.64375 26.9875L126.56563 26.9875L126.56563 24.425L128.3625 24.425ZM136.37813 34.909374L138.83125 26.9875L140.76875 26.9875L136.51875 39.175Q135.53438 41.815624 133.39375 41.815624L133.05 41.784374L132.37813 41.659374L132.37813 40.190624L132.8625 40.2375Q133.78438 40.2375 134.28438 39.8625Q134.8 39.4875 135.12813 38.503124L135.53438 37.425L131.76875 26.9875L133.7375 26.9875L136.37813 34.909374ZM150.40938 35.096874L153.01875 26.9875L154.8625 26.9875L151.08125 37.55L149.70625 37.55L145.87813 26.9875L147.72188 26.9875L150.40938 35.096874ZM163.06563 34.753124Q163.06563 34.01875 162.51875 33.6125Q161.97188 33.20625 160.59688 32.909374Q159.22188 32.6125 158.40938 32.20625Q157.6125 31.8 157.22188 31.2375Q156.84688 30.659374 156.84688 29.878124Q156.84688 28.58125 157.94063 27.690624Q159.03438 26.784374 160.75313 26.784374Q162.55 26.784374 163.65938 27.721874Q164.78438 28.64375 164.78438 30.08125L162.95625 30.08125Q162.95625 29.346874 162.33125 28.815624Q161.70625 28.26875 160.75313 28.26875Q159.75313 28.26875 159.19063 28.70625Q158.64375 29.128124 158.64375 29.83125Q158.64375 30.471874 159.15938 30.815624Q159.675 31.14375 161.03438 31.45625Q162.39375 31.753124 163.22188 32.175Q164.06563 32.58125 164.47188 33.175Q164.87813 33.76875 164.87813 34.6125Q164.87813 36.034374 163.7375 36.89375Q162.6125 37.753124 160.8 37.753124Q159.53438 37.753124 158.55 37.3Q157.58125 36.846874 157.01875 36.05Q156.47188 35.2375 156.47188 34.3L158.28438 34.3Q158.33125 35.20625 159.00313 35.7375Q159.69063 36.26875 160.8 36.26875Q161.83125 36.26875 162.44063 35.8625Q163.06563 35.440624 163.06563 34.753124ZM166.95625 36.596874Q166.95625 36.128124 167.2375 35.815624Q167.51875 35.503124 168.06563 35.503124Q168.62813 35.503124 168.90938 35.815624Q169.20625 36.128124 169.20625 36.596874Q169.20625 37.05 168.90938 37.3625Q168.62813 37.659374 168.06563 37.659374Q167.51875 37.659374 167.2375 37.3625Q166.95625 37.05 166.95625 36.596874ZM176.47188 32.175Q176.47188 29.690624 177.6125 28.2375Q178.76875 26.784374 180.69063 26.784374Q182.56563 26.784374 183.64375 28.05L183.72188 26.9875L185.37813 26.9875L185.37813 41.6125L183.58125 41.6125L183.58125 36.565624Q182.4875 37.753124 180.675 37.753124Q178.75313 37.753124 177.6125 36.26875Q176.47188 34.76875 176.47188 32.3L176.47188 32.175ZM178.28438 32.378124Q178.28438 34.20625 179.05 35.2375Q179.81563 36.26875 181.1125 36.26875Q182.72188 36.26875 183.58125 34.846874L183.58125 29.675Q182.72188 28.26875 181.14375 28.26875Q179.83125 28.26875 179.05 29.315624Q178.28438 30.346874 178.28438 32.378124ZM194.44063 36.503124Q193.39375 37.753124 191.34688 37.753124Q189.65938 37.753124 188.76875 36.76875Q187.89375 35.784374 187.87813 33.8625L187.87813 26.9875L189.69063 26.9875L189.69063 33.815624Q189.69063 36.20625 191.64375 36.20625Q193.70625 36.20625 194.39375 34.675L194.39375 26.9875L196.20625 26.9875L196.20625 37.55L194.4875 37.55L194.44063 36.503124ZM205.44063 37.55Q205.28438 37.2375 205.19063 36.440624Q203.925 37.753124 202.175 37.753124Q200.6125 37.753124 199.6125 36.8625Q198.6125 35.971874 198.6125 34.6125Q198.6125 32.971874 199.8625 32.065624Q201.12813 31.14375 203.39375 31.14375L205.15938 31.14375L205.15938 30.315624Q205.15938 29.3625 204.58125 28.8Q204.01875 28.2375 202.925 28.2375Q201.95625 28.2375 201.3 28.7375Q200.64375 29.221874 200.64375 29.909374L198.83125 29.909374Q198.83125 29.128124 199.39375 28.39375Q199.95625 27.64375 200.90938 27.221874Q201.87813 26.784374 203.03438 26.784374Q204.8625 26.784374 205.89375 27.70625Q206.925 28.6125 206.97188 30.221874L206.97188 35.08125Q206.97188 36.534374 207.33125 37.39375L207.33125 37.55L205.44063 37.55ZM202.44063 36.175Q203.3 36.175 204.05 35.7375Q204.81563 35.3 205.15938 34.596874L205.15938 32.425L203.7375 32.425Q200.425 32.425 200.425 34.3625Q200.425 35.221874 200.9875 35.70625Q201.55 36.175 202.44063 36.175ZM215.01875 28.596874Q214.6125 28.534374 214.14375 28.534374Q212.3625 28.534374 211.72188 30.05L211.72188 37.55L209.925 37.55L209.925 26.9875L211.675 26.9875L211.70625 28.20625Q212.59688 26.784374 214.22188 26.784374Q214.75313 26.784374 215.01875 26.925L215.01875 28.596874ZM219.3625 24.425L219.3625 26.9875L221.34688 26.9875L221.34688 28.378124L219.3625 28.378124L219.3625 34.925Q219.3625 35.565624 219.62813 35.89375Q219.89375 36.20625 220.53438 36.20625Q220.84688 36.20625 221.39375 36.08125L221.39375 37.55Q220.675 37.753124 220.00313 37.753124Q218.8 37.753124 218.175 37.01875Q217.56563 36.284374 217.56563 34.925L217.56563 28.378124L215.64375 28.378124L215.64375 26.9875L217.56563 26.9875L217.56563 24.425L219.3625 24.425ZM228.3 37.753124Q226.15938 37.753124 224.8 36.346874Q223.45625 34.925 223.45625 32.565624L223.45625 32.221874Q223.45625 30.659374 224.05 29.425Q224.65938 28.190624 225.7375 27.4875Q226.81563 26.784374 228.08125 26.784374Q230.14375 26.784374 231.28438 28.14375Q232.425 29.503124 232.425 32.034374L232.425 32.784374L225.26875 32.784374Q225.3 34.346874 226.175 35.315624Q227.05 36.26875 228.39375 36.26875Q229.3625 36.26875 230.01875 35.878124Q230.69063 35.4875 231.19063 34.846874L232.28438 35.70625Q230.95625 37.753124 228.3 37.753124ZM228.08125 28.26875Q226.9875 28.26875 226.2375 29.065624Q225.50313 29.8625 225.33125 31.3L230.6125 31.3L230.6125 31.159374Q230.53438 29.784374 229.8625 29.034374Q229.20625 28.26875 228.08125 28.26875ZM240.01875 28.596874Q239.6125 28.534374 239.14375 28.534374Q237.3625 28.534374 236.72188 30.05L236.72188 37.55L234.925 37.55L234.925 26.9875L236.675 26.9875L236.70625 28.20625Q237.59688 26.784374 239.22188 26.784374Q239.75313 26.784374 240.01875 26.925L240.01875 28.596874Z" fill-rule="nonzero"/></svg>